%TF.GenerationSoftware,KiCad,Pcbnew,9.0.3*%
%TF.CreationDate,2026-09-09T11:30:31+03:00*%
%TF.ProjectId,MCU Datalogger,4d435520-4461-4746-916c-6f676765722e,1*%
%TF.SameCoordinates,Original*%
%TF.FileFunction,Soldermask,Top*%
%TF.FilePolarity,Negative*%
%FSLAX46Y46*%
G04 Gerber Fmt 4.6, Leading zero omitted, Abs format (unit mm)*
G04 Created by KiCad (PCBNEW 9.0.3) date 2026-09-09 11:30:31*
%MOMM*%
%LPD*%
G01*
G04 APERTURE LIST*
G04 Aperture macros list*
%AMRoundRect*
0 Rectangle with rounded corners*
0 $1 Rounding radius*
0 $2 $3 $4 $5 $6 $7 $8 $9 X,Y pos of 4 corners*
0 Add a 4 corners polygon primitive as box body*
4,1,4,$2,$3,$4,$5,$6,$7,$8,$9,$2,$3,0*
0 Add four circle primitives for the rounded corners*
1,1,$1+$1,$2,$3*
1,1,$1+$1,$4,$5*
1,1,$1+$1,$6,$7*
1,1,$1+$1,$8,$9*
0 Add four rect primitives between the rounded corners*
20,1,$1+$1,$2,$3,$4,$5,0*
20,1,$1+$1,$4,$5,$6,$7,0*
20,1,$1+$1,$6,$7,$8,$9,0*
20,1,$1+$1,$8,$9,$2,$3,0*%
G04 Aperture macros list end*
%ADD10RoundRect,0.250000X-0.250000X-0.475000X0.250000X-0.475000X0.250000X0.475000X-0.250000X0.475000X0*%
%ADD11RoundRect,0.250000X0.250000X0.475000X-0.250000X0.475000X-0.250000X-0.475000X0.250000X-0.475000X0*%
%ADD12RoundRect,0.250000X-0.262500X-0.450000X0.262500X-0.450000X0.262500X0.450000X-0.262500X0.450000X0*%
%ADD13RoundRect,0.250000X0.950000X-0.750000X0.950000X0.750000X-0.950000X0.750000X-0.950000X-0.750000X0*%
%ADD14RoundRect,0.162500X-0.650000X-0.162500X0.650000X-0.162500X0.650000X0.162500X-0.650000X0.162500X0*%
%ADD15C,1.700000*%
%ADD16R,1.700000X1.700000*%
%ADD17RoundRect,0.099250X-0.987750X-0.297750X0.987750X-0.297750X0.987750X0.297750X-0.987750X0.297750X0*%
%ADD18RoundRect,0.250000X0.262500X0.450000X-0.262500X0.450000X-0.262500X-0.450000X0.262500X-0.450000X0*%
%ADD19RoundRect,0.094250X-0.742750X-0.282750X0.742750X-0.282750X0.742750X0.282750X-0.742750X0.282750X0*%
%ADD20RoundRect,0.094250X-0.282750X-0.742750X0.282750X-0.742750X0.282750X0.742750X-0.282750X0.742750X0*%
%ADD21RoundRect,0.243750X-0.243750X-0.456250X0.243750X-0.456250X0.243750X0.456250X-0.243750X0.456250X0*%
%ADD22C,2.100000*%
%ADD23RoundRect,0.250000X0.750000X0.950000X-0.750000X0.950000X-0.750000X-0.950000X0.750000X-0.950000X0*%
G04 APERTURE END LIST*
D10*
%TO.C,C1*%
X131065000Y-85610000D03*
X129165000Y-85610000D03*
%TD*%
D11*
%TO.C,C5*%
X135615000Y-85610000D03*
X133715000Y-85610000D03*
%TD*%
D12*
%TO.C,R6*%
X144012500Y-92685000D03*
X145837500Y-92685000D03*
%TD*%
D13*
%TO.C,Y1*%
X112525000Y-102087500D03*
X112525000Y-98387500D03*
%TD*%
D14*
%TO.C,U1*%
X115892500Y-85140000D03*
X115892500Y-86410000D03*
X115892500Y-87680000D03*
X115892500Y-88950000D03*
X123067500Y-88950000D03*
X123067500Y-87680000D03*
X123067500Y-86410000D03*
X123067500Y-85140000D03*
%TD*%
D15*
%TO.C,BT1*%
X112970000Y-89640000D03*
D16*
X112970000Y-92180000D03*
%TD*%
D17*
%TO.C,U3*%
X121565000Y-98020000D03*
X121565000Y-99290000D03*
X121565000Y-100560000D03*
X121565000Y-101830000D03*
X116615000Y-101830000D03*
X116615000Y-100560000D03*
X116615000Y-99290000D03*
X116615000Y-98020000D03*
%TD*%
D10*
%TO.C,C4*%
X139480000Y-99185000D03*
X141380000Y-99185000D03*
%TD*%
D18*
%TO.C,R1*%
X116752500Y-103905000D03*
X118577500Y-103905000D03*
%TD*%
D19*
%TO.C,U4*%
X136515000Y-90055000D03*
X136515000Y-90855000D03*
X136515000Y-91655000D03*
X136515000Y-92455000D03*
X136515000Y-93255000D03*
X136515000Y-94055000D03*
X136515000Y-94855000D03*
X136515000Y-95655000D03*
X128175000Y-95655000D03*
X128175000Y-94855000D03*
X128175000Y-94055000D03*
X128175000Y-93255000D03*
X128175000Y-92455000D03*
X128175000Y-91655000D03*
X128175000Y-90855000D03*
X128175000Y-90055000D03*
D20*
X129545000Y-88685000D03*
X130345000Y-88685000D03*
X131145000Y-88685000D03*
X131945000Y-88685000D03*
X132745000Y-88685000D03*
X133545000Y-88685000D03*
X134345000Y-88685000D03*
X135145000Y-88685000D03*
X135145000Y-97025000D03*
X134345000Y-97025000D03*
X133545000Y-97025000D03*
X132745000Y-97025000D03*
X131945000Y-97025000D03*
X131145000Y-97025000D03*
X130345000Y-97025000D03*
X129545000Y-97025000D03*
%TD*%
D18*
%TO.C,R7*%
X145837500Y-88215000D03*
X144012500Y-88215000D03*
%TD*%
D21*
%TO.C,D1*%
X145862500Y-85595000D03*
X143987500Y-85595000D03*
%TD*%
D18*
%TO.C,R4*%
X141425000Y-92025000D03*
X139600000Y-92025000D03*
%TD*%
D16*
%TO.C,J1*%
X150565000Y-96505000D03*
D15*
X150565000Y-99045000D03*
X150565000Y-101585000D03*
X150565000Y-104125000D03*
%TD*%
D18*
%TO.C,R3*%
X139600000Y-95335000D03*
X141425000Y-95335000D03*
%TD*%
%TO.C,R5*%
X139600000Y-88335000D03*
X141425000Y-88335000D03*
%TD*%
D14*
%TO.C,U2*%
X123067500Y-91825000D03*
X123067500Y-93095000D03*
X123067500Y-94365000D03*
X123067500Y-95635000D03*
X115892500Y-95635000D03*
X115892500Y-94365000D03*
X115892500Y-93095000D03*
X115892500Y-91825000D03*
%TD*%
D11*
%TO.C,C2*%
X139480000Y-101800000D03*
X141380000Y-101800000D03*
%TD*%
D22*
%TO.C,H4*%
X110285000Y-83320000D03*
%TD*%
D10*
%TO.C,C3*%
X124325000Y-97525000D03*
X126225000Y-97525000D03*
%TD*%
D21*
%TO.C,D2*%
X141407500Y-85595000D03*
X139532500Y-85595000D03*
%TD*%
D22*
%TO.C,H1*%
X153290000Y-83320000D03*
%TD*%
%TO.C,H3*%
X110285000Y-109700000D03*
%TD*%
%TO.C,H2*%
X153290000Y-109700000D03*
%TD*%
D12*
%TO.C,R2*%
X122717500Y-103875000D03*
X120892500Y-103875000D03*
%TD*%
D15*
%TO.C,J3*%
X147730000Y-107730000D03*
X145190000Y-107730000D03*
X142650000Y-107730000D03*
D16*
X140110000Y-107730000D03*
%TD*%
D23*
%TO.C,Y2*%
X128812500Y-100725000D03*
X125112500Y-100725000D03*
%TD*%
D16*
%TO.C,J2*%
X115885000Y-107730000D03*
D15*
X118425000Y-107730000D03*
X120965000Y-107730000D03*
X123505000Y-107730000D03*
X126045000Y-107730000D03*
X128585000Y-107730000D03*
X131125000Y-107730000D03*
X133665000Y-107730000D03*
X136205000Y-107730000D03*
%TD*%
D16*
%TO.C,J4*%
X148435000Y-87620000D03*
D15*
X150975000Y-87620000D03*
X148435000Y-90160000D03*
X150975000Y-90160000D03*
X148435000Y-92700000D03*
X150975000Y-92700000D03*
%TD*%
M02*
