%TF.GenerationSoftware,KiCad,Pcbnew,9.0.3*%
%TF.CreationDate,2026-09-09T11:30:31+03:00*%
%TF.ProjectId,MCU Datalogger,4d435520-4461-4746-916c-6f676765722e,1*%
%TF.SameCoordinates,Original*%
%TF.FileFunction,Legend,Top*%
%TF.FilePolarity,Positive*%
%FSLAX46Y46*%
G04 Gerber Fmt 4.6, Leading zero omitted, Abs format (unit mm)*
G04 Created by KiCad (PCBNEW 9.0.3) date 2026-09-09 11:30:31*
%MOMM*%
%LPD*%
G01*
G04 APERTURE LIST*
%ADD10C,0.090000*%
%ADD11C,0.100000*%
%ADD12C,0.120000*%
%ADD13C,0.127000*%
%ADD14C,0.200000*%
G04 APERTURE END LIST*
D10*
X142500000Y-98830000D02*
X148035000Y-98830000D01*
X148035000Y-103005000D01*
X142500000Y-103005000D01*
X142500000Y-98830000D01*
D11*
X148269990Y-96829687D02*
X148231895Y-96905877D01*
X148231895Y-96905877D02*
X148231895Y-97020163D01*
X148231895Y-97020163D02*
X148269990Y-97134449D01*
X148269990Y-97134449D02*
X148346180Y-97210639D01*
X148346180Y-97210639D02*
X148422371Y-97248734D01*
X148422371Y-97248734D02*
X148574752Y-97286830D01*
X148574752Y-97286830D02*
X148689038Y-97286830D01*
X148689038Y-97286830D02*
X148841419Y-97248734D01*
X148841419Y-97248734D02*
X148917609Y-97210639D01*
X148917609Y-97210639D02*
X148993800Y-97134449D01*
X148993800Y-97134449D02*
X149031895Y-97020163D01*
X149031895Y-97020163D02*
X149031895Y-96943972D01*
X149031895Y-96943972D02*
X148993800Y-96829687D01*
X148993800Y-96829687D02*
X148955704Y-96791591D01*
X148955704Y-96791591D02*
X148689038Y-96791591D01*
X148689038Y-96791591D02*
X148689038Y-96943972D01*
X149031895Y-96448734D02*
X148231895Y-96448734D01*
X148231895Y-96448734D02*
X149031895Y-95991591D01*
X149031895Y-95991591D02*
X148231895Y-95991591D01*
X149031895Y-95610639D02*
X148231895Y-95610639D01*
X148231895Y-95610639D02*
X148231895Y-95420163D01*
X148231895Y-95420163D02*
X148269990Y-95305877D01*
X148269990Y-95305877D02*
X148346180Y-95229687D01*
X148346180Y-95229687D02*
X148422371Y-95191592D01*
X148422371Y-95191592D02*
X148574752Y-95153496D01*
X148574752Y-95153496D02*
X148689038Y-95153496D01*
X148689038Y-95153496D02*
X148841419Y-95191592D01*
X148841419Y-95191592D02*
X148917609Y-95229687D01*
X148917609Y-95229687D02*
X148993800Y-95305877D01*
X148993800Y-95305877D02*
X149031895Y-95420163D01*
X149031895Y-95420163D02*
X149031895Y-95610639D01*
X144497218Y-99678473D02*
X144497218Y-99078473D01*
X145125789Y-99621330D02*
X145097217Y-99649902D01*
X145097217Y-99649902D02*
X145011503Y-99678473D01*
X145011503Y-99678473D02*
X144954360Y-99678473D01*
X144954360Y-99678473D02*
X144868646Y-99649902D01*
X144868646Y-99649902D02*
X144811503Y-99592759D01*
X144811503Y-99592759D02*
X144782932Y-99535616D01*
X144782932Y-99535616D02*
X144754360Y-99421330D01*
X144754360Y-99421330D02*
X144754360Y-99335616D01*
X144754360Y-99335616D02*
X144782932Y-99221330D01*
X144782932Y-99221330D02*
X144811503Y-99164187D01*
X144811503Y-99164187D02*
X144868646Y-99107044D01*
X144868646Y-99107044D02*
X144954360Y-99078473D01*
X144954360Y-99078473D02*
X145011503Y-99078473D01*
X145011503Y-99078473D02*
X145097217Y-99107044D01*
X145097217Y-99107044D02*
X145125789Y-99135616D01*
X145354360Y-99649902D02*
X145440075Y-99678473D01*
X145440075Y-99678473D02*
X145582932Y-99678473D01*
X145582932Y-99678473D02*
X145640075Y-99649902D01*
X145640075Y-99649902D02*
X145668646Y-99621330D01*
X145668646Y-99621330D02*
X145697217Y-99564187D01*
X145697217Y-99564187D02*
X145697217Y-99507044D01*
X145697217Y-99507044D02*
X145668646Y-99449902D01*
X145668646Y-99449902D02*
X145640075Y-99421330D01*
X145640075Y-99421330D02*
X145582932Y-99392759D01*
X145582932Y-99392759D02*
X145468646Y-99364187D01*
X145468646Y-99364187D02*
X145411503Y-99335616D01*
X145411503Y-99335616D02*
X145382932Y-99307044D01*
X145382932Y-99307044D02*
X145354360Y-99249902D01*
X145354360Y-99249902D02*
X145354360Y-99192759D01*
X145354360Y-99192759D02*
X145382932Y-99135616D01*
X145382932Y-99135616D02*
X145411503Y-99107044D01*
X145411503Y-99107044D02*
X145468646Y-99078473D01*
X145468646Y-99078473D02*
X145611503Y-99078473D01*
X145611503Y-99078473D02*
X145697217Y-99107044D01*
X145954361Y-99678473D02*
X145954361Y-99078473D01*
X145954361Y-99078473D02*
X146182932Y-99078473D01*
X146182932Y-99078473D02*
X146240075Y-99107044D01*
X146240075Y-99107044D02*
X146268646Y-99135616D01*
X146268646Y-99135616D02*
X146297218Y-99192759D01*
X146297218Y-99192759D02*
X146297218Y-99278473D01*
X146297218Y-99278473D02*
X146268646Y-99335616D01*
X146268646Y-99335616D02*
X146240075Y-99364187D01*
X146240075Y-99364187D02*
X146182932Y-99392759D01*
X146182932Y-99392759D02*
X145954361Y-99392759D01*
X142668646Y-100644439D02*
X142668646Y-100044439D01*
X142668646Y-100044439D02*
X142868646Y-100473010D01*
X142868646Y-100473010D02*
X143068646Y-100044439D01*
X143068646Y-100044439D02*
X143068646Y-100644439D01*
X143354360Y-100644439D02*
X143354360Y-100044439D01*
X143611502Y-100615868D02*
X143697217Y-100644439D01*
X143697217Y-100644439D02*
X143840074Y-100644439D01*
X143840074Y-100644439D02*
X143897217Y-100615868D01*
X143897217Y-100615868D02*
X143925788Y-100587296D01*
X143925788Y-100587296D02*
X143954359Y-100530153D01*
X143954359Y-100530153D02*
X143954359Y-100473010D01*
X143954359Y-100473010D02*
X143925788Y-100415868D01*
X143925788Y-100415868D02*
X143897217Y-100387296D01*
X143897217Y-100387296D02*
X143840074Y-100358725D01*
X143840074Y-100358725D02*
X143725788Y-100330153D01*
X143725788Y-100330153D02*
X143668645Y-100301582D01*
X143668645Y-100301582D02*
X143640074Y-100273010D01*
X143640074Y-100273010D02*
X143611502Y-100215868D01*
X143611502Y-100215868D02*
X143611502Y-100158725D01*
X143611502Y-100158725D02*
X143640074Y-100101582D01*
X143640074Y-100101582D02*
X143668645Y-100073010D01*
X143668645Y-100073010D02*
X143725788Y-100044439D01*
X143725788Y-100044439D02*
X143868645Y-100044439D01*
X143868645Y-100044439D02*
X143954359Y-100073010D01*
X144325788Y-100044439D02*
X144440074Y-100044439D01*
X144440074Y-100044439D02*
X144497217Y-100073010D01*
X144497217Y-100073010D02*
X144554360Y-100130153D01*
X144554360Y-100130153D02*
X144582931Y-100244439D01*
X144582931Y-100244439D02*
X144582931Y-100444439D01*
X144582931Y-100444439D02*
X144554360Y-100558725D01*
X144554360Y-100558725D02*
X144497217Y-100615868D01*
X144497217Y-100615868D02*
X144440074Y-100644439D01*
X144440074Y-100644439D02*
X144325788Y-100644439D01*
X144325788Y-100644439D02*
X144268646Y-100615868D01*
X144268646Y-100615868D02*
X144211503Y-100558725D01*
X144211503Y-100558725D02*
X144182931Y-100444439D01*
X144182931Y-100444439D02*
X144182931Y-100244439D01*
X144182931Y-100244439D02*
X144211503Y-100130153D01*
X144211503Y-100130153D02*
X144268646Y-100073010D01*
X144268646Y-100073010D02*
X144325788Y-100044439D01*
X145440074Y-100844439D02*
X145440074Y-99987296D01*
X145782931Y-100044439D02*
X145982931Y-100644439D01*
X145982931Y-100644439D02*
X146182931Y-100044439D01*
X146725789Y-100587296D02*
X146697217Y-100615868D01*
X146697217Y-100615868D02*
X146611503Y-100644439D01*
X146611503Y-100644439D02*
X146554360Y-100644439D01*
X146554360Y-100644439D02*
X146468646Y-100615868D01*
X146468646Y-100615868D02*
X146411503Y-100558725D01*
X146411503Y-100558725D02*
X146382932Y-100501582D01*
X146382932Y-100501582D02*
X146354360Y-100387296D01*
X146354360Y-100387296D02*
X146354360Y-100301582D01*
X146354360Y-100301582D02*
X146382932Y-100187296D01*
X146382932Y-100187296D02*
X146411503Y-100130153D01*
X146411503Y-100130153D02*
X146468646Y-100073010D01*
X146468646Y-100073010D02*
X146554360Y-100044439D01*
X146554360Y-100044439D02*
X146611503Y-100044439D01*
X146611503Y-100044439D02*
X146697217Y-100073010D01*
X146697217Y-100073010D02*
X146725789Y-100101582D01*
X147325789Y-100587296D02*
X147297217Y-100615868D01*
X147297217Y-100615868D02*
X147211503Y-100644439D01*
X147211503Y-100644439D02*
X147154360Y-100644439D01*
X147154360Y-100644439D02*
X147068646Y-100615868D01*
X147068646Y-100615868D02*
X147011503Y-100558725D01*
X147011503Y-100558725D02*
X146982932Y-100501582D01*
X146982932Y-100501582D02*
X146954360Y-100387296D01*
X146954360Y-100387296D02*
X146954360Y-100301582D01*
X146954360Y-100301582D02*
X146982932Y-100187296D01*
X146982932Y-100187296D02*
X147011503Y-100130153D01*
X147011503Y-100130153D02*
X147068646Y-100073010D01*
X147068646Y-100073010D02*
X147154360Y-100044439D01*
X147154360Y-100044439D02*
X147211503Y-100044439D01*
X147211503Y-100044439D02*
X147297217Y-100073010D01*
X147297217Y-100073010D02*
X147325789Y-100101582D01*
X142640074Y-101581834D02*
X142725789Y-101610405D01*
X142725789Y-101610405D02*
X142868646Y-101610405D01*
X142868646Y-101610405D02*
X142925789Y-101581834D01*
X142925789Y-101581834D02*
X142954360Y-101553262D01*
X142954360Y-101553262D02*
X142982931Y-101496119D01*
X142982931Y-101496119D02*
X142982931Y-101438976D01*
X142982931Y-101438976D02*
X142954360Y-101381834D01*
X142954360Y-101381834D02*
X142925789Y-101353262D01*
X142925789Y-101353262D02*
X142868646Y-101324691D01*
X142868646Y-101324691D02*
X142754360Y-101296119D01*
X142754360Y-101296119D02*
X142697217Y-101267548D01*
X142697217Y-101267548D02*
X142668646Y-101238976D01*
X142668646Y-101238976D02*
X142640074Y-101181834D01*
X142640074Y-101181834D02*
X142640074Y-101124691D01*
X142640074Y-101124691D02*
X142668646Y-101067548D01*
X142668646Y-101067548D02*
X142697217Y-101038976D01*
X142697217Y-101038976D02*
X142754360Y-101010405D01*
X142754360Y-101010405D02*
X142897217Y-101010405D01*
X142897217Y-101010405D02*
X142982931Y-101038976D01*
X143582932Y-101553262D02*
X143554360Y-101581834D01*
X143554360Y-101581834D02*
X143468646Y-101610405D01*
X143468646Y-101610405D02*
X143411503Y-101610405D01*
X143411503Y-101610405D02*
X143325789Y-101581834D01*
X143325789Y-101581834D02*
X143268646Y-101524691D01*
X143268646Y-101524691D02*
X143240075Y-101467548D01*
X143240075Y-101467548D02*
X143211503Y-101353262D01*
X143211503Y-101353262D02*
X143211503Y-101267548D01*
X143211503Y-101267548D02*
X143240075Y-101153262D01*
X143240075Y-101153262D02*
X143268646Y-101096119D01*
X143268646Y-101096119D02*
X143325789Y-101038976D01*
X143325789Y-101038976D02*
X143411503Y-101010405D01*
X143411503Y-101010405D02*
X143468646Y-101010405D01*
X143468646Y-101010405D02*
X143554360Y-101038976D01*
X143554360Y-101038976D02*
X143582932Y-101067548D01*
X143840075Y-101610405D02*
X143840075Y-101010405D01*
X144182932Y-101610405D02*
X143925789Y-101267548D01*
X144182932Y-101010405D02*
X143840075Y-101353262D01*
X145497218Y-101810405D02*
X145497218Y-100953262D01*
X145925790Y-101610405D02*
X145925790Y-101010405D01*
X145925790Y-101010405D02*
X146125790Y-101438976D01*
X146125790Y-101438976D02*
X146325790Y-101010405D01*
X146325790Y-101010405D02*
X146325790Y-101610405D01*
X146725789Y-101010405D02*
X146840075Y-101010405D01*
X146840075Y-101010405D02*
X146897218Y-101038976D01*
X146897218Y-101038976D02*
X146954361Y-101096119D01*
X146954361Y-101096119D02*
X146982932Y-101210405D01*
X146982932Y-101210405D02*
X146982932Y-101410405D01*
X146982932Y-101410405D02*
X146954361Y-101524691D01*
X146954361Y-101524691D02*
X146897218Y-101581834D01*
X146897218Y-101581834D02*
X146840075Y-101610405D01*
X146840075Y-101610405D02*
X146725789Y-101610405D01*
X146725789Y-101610405D02*
X146668647Y-101581834D01*
X146668647Y-101581834D02*
X146611504Y-101524691D01*
X146611504Y-101524691D02*
X146582932Y-101410405D01*
X146582932Y-101410405D02*
X146582932Y-101210405D01*
X146582932Y-101210405D02*
X146611504Y-101096119D01*
X146611504Y-101096119D02*
X146668647Y-101038976D01*
X146668647Y-101038976D02*
X146725789Y-101010405D01*
X147211503Y-101581834D02*
X147297218Y-101610405D01*
X147297218Y-101610405D02*
X147440075Y-101610405D01*
X147440075Y-101610405D02*
X147497218Y-101581834D01*
X147497218Y-101581834D02*
X147525789Y-101553262D01*
X147525789Y-101553262D02*
X147554360Y-101496119D01*
X147554360Y-101496119D02*
X147554360Y-101438976D01*
X147554360Y-101438976D02*
X147525789Y-101381834D01*
X147525789Y-101381834D02*
X147497218Y-101353262D01*
X147497218Y-101353262D02*
X147440075Y-101324691D01*
X147440075Y-101324691D02*
X147325789Y-101296119D01*
X147325789Y-101296119D02*
X147268646Y-101267548D01*
X147268646Y-101267548D02*
X147240075Y-101238976D01*
X147240075Y-101238976D02*
X147211503Y-101181834D01*
X147211503Y-101181834D02*
X147211503Y-101124691D01*
X147211503Y-101124691D02*
X147240075Y-101067548D01*
X147240075Y-101067548D02*
X147268646Y-101038976D01*
X147268646Y-101038976D02*
X147325789Y-101010405D01*
X147325789Y-101010405D02*
X147468646Y-101010405D01*
X147468646Y-101010405D02*
X147554360Y-101038976D01*
X147811504Y-101610405D02*
X147811504Y-101010405D01*
X143011503Y-102576371D02*
X142811503Y-102290657D01*
X142668646Y-102576371D02*
X142668646Y-101976371D01*
X142668646Y-101976371D02*
X142897217Y-101976371D01*
X142897217Y-101976371D02*
X142954360Y-102004942D01*
X142954360Y-102004942D02*
X142982931Y-102033514D01*
X142982931Y-102033514D02*
X143011503Y-102090657D01*
X143011503Y-102090657D02*
X143011503Y-102176371D01*
X143011503Y-102176371D02*
X142982931Y-102233514D01*
X142982931Y-102233514D02*
X142954360Y-102262085D01*
X142954360Y-102262085D02*
X142897217Y-102290657D01*
X142897217Y-102290657D02*
X142668646Y-102290657D01*
X143268646Y-102262085D02*
X143468646Y-102262085D01*
X143554360Y-102576371D02*
X143268646Y-102576371D01*
X143268646Y-102576371D02*
X143268646Y-101976371D01*
X143268646Y-101976371D02*
X143554360Y-101976371D01*
X143782931Y-102547800D02*
X143868646Y-102576371D01*
X143868646Y-102576371D02*
X144011503Y-102576371D01*
X144011503Y-102576371D02*
X144068646Y-102547800D01*
X144068646Y-102547800D02*
X144097217Y-102519228D01*
X144097217Y-102519228D02*
X144125788Y-102462085D01*
X144125788Y-102462085D02*
X144125788Y-102404942D01*
X144125788Y-102404942D02*
X144097217Y-102347800D01*
X144097217Y-102347800D02*
X144068646Y-102319228D01*
X144068646Y-102319228D02*
X144011503Y-102290657D01*
X144011503Y-102290657D02*
X143897217Y-102262085D01*
X143897217Y-102262085D02*
X143840074Y-102233514D01*
X143840074Y-102233514D02*
X143811503Y-102204942D01*
X143811503Y-102204942D02*
X143782931Y-102147800D01*
X143782931Y-102147800D02*
X143782931Y-102090657D01*
X143782931Y-102090657D02*
X143811503Y-102033514D01*
X143811503Y-102033514D02*
X143840074Y-102004942D01*
X143840074Y-102004942D02*
X143897217Y-101976371D01*
X143897217Y-101976371D02*
X144040074Y-101976371D01*
X144040074Y-101976371D02*
X144125788Y-102004942D01*
X144382932Y-102262085D02*
X144582932Y-102262085D01*
X144668646Y-102576371D02*
X144382932Y-102576371D01*
X144382932Y-102576371D02*
X144382932Y-101976371D01*
X144382932Y-101976371D02*
X144668646Y-101976371D01*
X144840074Y-101976371D02*
X145182932Y-101976371D01*
X145011503Y-102576371D02*
X145011503Y-101976371D01*
X145525789Y-102776371D02*
X145525789Y-101919228D01*
X146268646Y-102004942D02*
X146211504Y-101976371D01*
X146211504Y-101976371D02*
X146125789Y-101976371D01*
X146125789Y-101976371D02*
X146040075Y-102004942D01*
X146040075Y-102004942D02*
X145982932Y-102062085D01*
X145982932Y-102062085D02*
X145954361Y-102119228D01*
X145954361Y-102119228D02*
X145925789Y-102233514D01*
X145925789Y-102233514D02*
X145925789Y-102319228D01*
X145925789Y-102319228D02*
X145954361Y-102433514D01*
X145954361Y-102433514D02*
X145982932Y-102490657D01*
X145982932Y-102490657D02*
X146040075Y-102547800D01*
X146040075Y-102547800D02*
X146125789Y-102576371D01*
X146125789Y-102576371D02*
X146182932Y-102576371D01*
X146182932Y-102576371D02*
X146268646Y-102547800D01*
X146268646Y-102547800D02*
X146297218Y-102519228D01*
X146297218Y-102519228D02*
X146297218Y-102319228D01*
X146297218Y-102319228D02*
X146182932Y-102319228D01*
X146554361Y-102576371D02*
X146554361Y-101976371D01*
X146554361Y-101976371D02*
X146897218Y-102576371D01*
X146897218Y-102576371D02*
X146897218Y-101976371D01*
X147182932Y-102576371D02*
X147182932Y-101976371D01*
X147182932Y-101976371D02*
X147325789Y-101976371D01*
X147325789Y-101976371D02*
X147411503Y-102004942D01*
X147411503Y-102004942D02*
X147468646Y-102062085D01*
X147468646Y-102062085D02*
X147497217Y-102119228D01*
X147497217Y-102119228D02*
X147525789Y-102233514D01*
X147525789Y-102233514D02*
X147525789Y-102319228D01*
X147525789Y-102319228D02*
X147497217Y-102433514D01*
X147497217Y-102433514D02*
X147468646Y-102490657D01*
X147468646Y-102490657D02*
X147411503Y-102547800D01*
X147411503Y-102547800D02*
X147325789Y-102576371D01*
X147325789Y-102576371D02*
X147182932Y-102576371D01*
X113229990Y-108964687D02*
X113191895Y-109040877D01*
X113191895Y-109040877D02*
X113191895Y-109155163D01*
X113191895Y-109155163D02*
X113229990Y-109269449D01*
X113229990Y-109269449D02*
X113306180Y-109345639D01*
X113306180Y-109345639D02*
X113382371Y-109383734D01*
X113382371Y-109383734D02*
X113534752Y-109421830D01*
X113534752Y-109421830D02*
X113649038Y-109421830D01*
X113649038Y-109421830D02*
X113801419Y-109383734D01*
X113801419Y-109383734D02*
X113877609Y-109345639D01*
X113877609Y-109345639D02*
X113953800Y-109269449D01*
X113953800Y-109269449D02*
X113991895Y-109155163D01*
X113991895Y-109155163D02*
X113991895Y-109078972D01*
X113991895Y-109078972D02*
X113953800Y-108964687D01*
X113953800Y-108964687D02*
X113915704Y-108926591D01*
X113915704Y-108926591D02*
X113649038Y-108926591D01*
X113649038Y-108926591D02*
X113649038Y-109078972D01*
X113991895Y-108583734D02*
X113191895Y-108583734D01*
X113191895Y-108583734D02*
X113191895Y-108278972D01*
X113191895Y-108278972D02*
X113229990Y-108202782D01*
X113229990Y-108202782D02*
X113268085Y-108164687D01*
X113268085Y-108164687D02*
X113344276Y-108126591D01*
X113344276Y-108126591D02*
X113458561Y-108126591D01*
X113458561Y-108126591D02*
X113534752Y-108164687D01*
X113534752Y-108164687D02*
X113572847Y-108202782D01*
X113572847Y-108202782D02*
X113610942Y-108278972D01*
X113610942Y-108278972D02*
X113610942Y-108583734D01*
X113991895Y-107783734D02*
X113191895Y-107783734D01*
X113191895Y-107250401D02*
X113191895Y-107098020D01*
X113191895Y-107098020D02*
X113229990Y-107021830D01*
X113229990Y-107021830D02*
X113306180Y-106945639D01*
X113306180Y-106945639D02*
X113458561Y-106907544D01*
X113458561Y-106907544D02*
X113725228Y-106907544D01*
X113725228Y-106907544D02*
X113877609Y-106945639D01*
X113877609Y-106945639D02*
X113953800Y-107021830D01*
X113953800Y-107021830D02*
X113991895Y-107098020D01*
X113991895Y-107098020D02*
X113991895Y-107250401D01*
X113991895Y-107250401D02*
X113953800Y-107326592D01*
X113953800Y-107326592D02*
X113877609Y-107402782D01*
X113877609Y-107402782D02*
X113725228Y-107440878D01*
X113725228Y-107440878D02*
X113458561Y-107440878D01*
X113458561Y-107440878D02*
X113306180Y-107402782D01*
X113306180Y-107402782D02*
X113229990Y-107326592D01*
X113229990Y-107326592D02*
X113191895Y-107250401D01*
X150063800Y-109491830D02*
X150101895Y-109377544D01*
X150101895Y-109377544D02*
X150101895Y-109187068D01*
X150101895Y-109187068D02*
X150063800Y-109110877D01*
X150063800Y-109110877D02*
X150025704Y-109072782D01*
X150025704Y-109072782D02*
X149949514Y-109034687D01*
X149949514Y-109034687D02*
X149873323Y-109034687D01*
X149873323Y-109034687D02*
X149797133Y-109072782D01*
X149797133Y-109072782D02*
X149759038Y-109110877D01*
X149759038Y-109110877D02*
X149720942Y-109187068D01*
X149720942Y-109187068D02*
X149682847Y-109339449D01*
X149682847Y-109339449D02*
X149644752Y-109415639D01*
X149644752Y-109415639D02*
X149606657Y-109453734D01*
X149606657Y-109453734D02*
X149530466Y-109491830D01*
X149530466Y-109491830D02*
X149454276Y-109491830D01*
X149454276Y-109491830D02*
X149378085Y-109453734D01*
X149378085Y-109453734D02*
X149339990Y-109415639D01*
X149339990Y-109415639D02*
X149301895Y-109339449D01*
X149301895Y-109339449D02*
X149301895Y-109148972D01*
X149301895Y-109148972D02*
X149339990Y-109034687D01*
X149682847Y-108691829D02*
X149682847Y-108425163D01*
X150101895Y-108310877D02*
X150101895Y-108691829D01*
X150101895Y-108691829D02*
X149301895Y-108691829D01*
X149301895Y-108691829D02*
X149301895Y-108310877D01*
X150101895Y-107510876D02*
X149720942Y-107777543D01*
X150101895Y-107968019D02*
X149301895Y-107968019D01*
X149301895Y-107968019D02*
X149301895Y-107663257D01*
X149301895Y-107663257D02*
X149339990Y-107587067D01*
X149339990Y-107587067D02*
X149378085Y-107548972D01*
X149378085Y-107548972D02*
X149454276Y-107510876D01*
X149454276Y-107510876D02*
X149568561Y-107510876D01*
X149568561Y-107510876D02*
X149644752Y-107548972D01*
X149644752Y-107548972D02*
X149682847Y-107587067D01*
X149682847Y-107587067D02*
X149720942Y-107663257D01*
X149720942Y-107663257D02*
X149720942Y-107968019D01*
X150101895Y-107168019D02*
X149301895Y-107168019D01*
X149873323Y-106825163D02*
X149873323Y-106444210D01*
X150101895Y-106901353D02*
X149301895Y-106634686D01*
X149301895Y-106634686D02*
X150101895Y-106368020D01*
X150101895Y-105720401D02*
X150101895Y-106101353D01*
X150101895Y-106101353D02*
X149301895Y-106101353D01*
X151576265Y-106471895D02*
X151576265Y-105671895D01*
X151919121Y-105748085D02*
X151957217Y-105709990D01*
X151957217Y-105709990D02*
X152033407Y-105671895D01*
X152033407Y-105671895D02*
X152223883Y-105671895D01*
X152223883Y-105671895D02*
X152300074Y-105709990D01*
X152300074Y-105709990D02*
X152338169Y-105748085D01*
X152338169Y-105748085D02*
X152376264Y-105824276D01*
X152376264Y-105824276D02*
X152376264Y-105900466D01*
X152376264Y-105900466D02*
X152338169Y-106014752D01*
X152338169Y-106014752D02*
X151881026Y-106471895D01*
X151881026Y-106471895D02*
X152376264Y-106471895D01*
X153176265Y-106395704D02*
X153138169Y-106433800D01*
X153138169Y-106433800D02*
X153023884Y-106471895D01*
X153023884Y-106471895D02*
X152947693Y-106471895D01*
X152947693Y-106471895D02*
X152833407Y-106433800D01*
X152833407Y-106433800D02*
X152757217Y-106357609D01*
X152757217Y-106357609D02*
X152719122Y-106281419D01*
X152719122Y-106281419D02*
X152681026Y-106129038D01*
X152681026Y-106129038D02*
X152681026Y-106014752D01*
X152681026Y-106014752D02*
X152719122Y-105862371D01*
X152719122Y-105862371D02*
X152757217Y-105786180D01*
X152757217Y-105786180D02*
X152833407Y-105709990D01*
X152833407Y-105709990D02*
X152947693Y-105671895D01*
X152947693Y-105671895D02*
X153023884Y-105671895D01*
X153023884Y-105671895D02*
X153138169Y-105709990D01*
X153138169Y-105709990D02*
X153176265Y-105748085D01*
X148691265Y-85726895D02*
X148691265Y-84926895D01*
X149529360Y-85650704D02*
X149491264Y-85688800D01*
X149491264Y-85688800D02*
X149376979Y-85726895D01*
X149376979Y-85726895D02*
X149300788Y-85726895D01*
X149300788Y-85726895D02*
X149186502Y-85688800D01*
X149186502Y-85688800D02*
X149110312Y-85612609D01*
X149110312Y-85612609D02*
X149072217Y-85536419D01*
X149072217Y-85536419D02*
X149034121Y-85384038D01*
X149034121Y-85384038D02*
X149034121Y-85269752D01*
X149034121Y-85269752D02*
X149072217Y-85117371D01*
X149072217Y-85117371D02*
X149110312Y-85041180D01*
X149110312Y-85041180D02*
X149186502Y-84964990D01*
X149186502Y-84964990D02*
X149300788Y-84926895D01*
X149300788Y-84926895D02*
X149376979Y-84926895D01*
X149376979Y-84926895D02*
X149491264Y-84964990D01*
X149491264Y-84964990D02*
X149529360Y-85003085D01*
X149834121Y-85688800D02*
X149948407Y-85726895D01*
X149948407Y-85726895D02*
X150138883Y-85726895D01*
X150138883Y-85726895D02*
X150215074Y-85688800D01*
X150215074Y-85688800D02*
X150253169Y-85650704D01*
X150253169Y-85650704D02*
X150291264Y-85574514D01*
X150291264Y-85574514D02*
X150291264Y-85498323D01*
X150291264Y-85498323D02*
X150253169Y-85422133D01*
X150253169Y-85422133D02*
X150215074Y-85384038D01*
X150215074Y-85384038D02*
X150138883Y-85345942D01*
X150138883Y-85345942D02*
X149986502Y-85307847D01*
X149986502Y-85307847D02*
X149910312Y-85269752D01*
X149910312Y-85269752D02*
X149872217Y-85231657D01*
X149872217Y-85231657D02*
X149834121Y-85155466D01*
X149834121Y-85155466D02*
X149834121Y-85079276D01*
X149834121Y-85079276D02*
X149872217Y-85003085D01*
X149872217Y-85003085D02*
X149910312Y-84964990D01*
X149910312Y-84964990D02*
X149986502Y-84926895D01*
X149986502Y-84926895D02*
X150176979Y-84926895D01*
X150176979Y-84926895D02*
X150291264Y-84964990D01*
X150634122Y-85726895D02*
X150634122Y-84926895D01*
X150634122Y-84926895D02*
X150938884Y-84926895D01*
X150938884Y-84926895D02*
X151015074Y-84964990D01*
X151015074Y-84964990D02*
X151053169Y-85003085D01*
X151053169Y-85003085D02*
X151091265Y-85079276D01*
X151091265Y-85079276D02*
X151091265Y-85193561D01*
X151091265Y-85193561D02*
X151053169Y-85269752D01*
X151053169Y-85269752D02*
X151015074Y-85307847D01*
X151015074Y-85307847D02*
X150938884Y-85345942D01*
X150938884Y-85345942D02*
X150634122Y-85345942D01*
X148151895Y-99788020D02*
X148951895Y-99521353D01*
X148951895Y-99521353D02*
X148151895Y-99254687D01*
X148875704Y-98530877D02*
X148913800Y-98568973D01*
X148913800Y-98568973D02*
X148951895Y-98683258D01*
X148951895Y-98683258D02*
X148951895Y-98759449D01*
X148951895Y-98759449D02*
X148913800Y-98873735D01*
X148913800Y-98873735D02*
X148837609Y-98949925D01*
X148837609Y-98949925D02*
X148761419Y-98988020D01*
X148761419Y-98988020D02*
X148609038Y-99026116D01*
X148609038Y-99026116D02*
X148494752Y-99026116D01*
X148494752Y-99026116D02*
X148342371Y-98988020D01*
X148342371Y-98988020D02*
X148266180Y-98949925D01*
X148266180Y-98949925D02*
X148189990Y-98873735D01*
X148189990Y-98873735D02*
X148151895Y-98759449D01*
X148151895Y-98759449D02*
X148151895Y-98683258D01*
X148151895Y-98683258D02*
X148189990Y-98568973D01*
X148189990Y-98568973D02*
X148228085Y-98530877D01*
X148875704Y-97730877D02*
X148913800Y-97768973D01*
X148913800Y-97768973D02*
X148951895Y-97883258D01*
X148951895Y-97883258D02*
X148951895Y-97959449D01*
X148951895Y-97959449D02*
X148913800Y-98073735D01*
X148913800Y-98073735D02*
X148837609Y-98149925D01*
X148837609Y-98149925D02*
X148761419Y-98188020D01*
X148761419Y-98188020D02*
X148609038Y-98226116D01*
X148609038Y-98226116D02*
X148494752Y-98226116D01*
X148494752Y-98226116D02*
X148342371Y-98188020D01*
X148342371Y-98188020D02*
X148266180Y-98149925D01*
X148266180Y-98149925D02*
X148189990Y-98073735D01*
X148189990Y-98073735D02*
X148151895Y-97959449D01*
X148151895Y-97959449D02*
X148151895Y-97883258D01*
X148151895Y-97883258D02*
X148189990Y-97768973D01*
X148189990Y-97768973D02*
X148228085Y-97730877D01*
X148973800Y-102326830D02*
X149011895Y-102212544D01*
X149011895Y-102212544D02*
X149011895Y-102022068D01*
X149011895Y-102022068D02*
X148973800Y-101945877D01*
X148973800Y-101945877D02*
X148935704Y-101907782D01*
X148935704Y-101907782D02*
X148859514Y-101869687D01*
X148859514Y-101869687D02*
X148783323Y-101869687D01*
X148783323Y-101869687D02*
X148707133Y-101907782D01*
X148707133Y-101907782D02*
X148669038Y-101945877D01*
X148669038Y-101945877D02*
X148630942Y-102022068D01*
X148630942Y-102022068D02*
X148592847Y-102174449D01*
X148592847Y-102174449D02*
X148554752Y-102250639D01*
X148554752Y-102250639D02*
X148516657Y-102288734D01*
X148516657Y-102288734D02*
X148440466Y-102326830D01*
X148440466Y-102326830D02*
X148364276Y-102326830D01*
X148364276Y-102326830D02*
X148288085Y-102288734D01*
X148288085Y-102288734D02*
X148249990Y-102250639D01*
X148249990Y-102250639D02*
X148211895Y-102174449D01*
X148211895Y-102174449D02*
X148211895Y-101983972D01*
X148211895Y-101983972D02*
X148249990Y-101869687D01*
X149011895Y-101526829D02*
X148211895Y-101526829D01*
X148211895Y-101526829D02*
X148211895Y-101336353D01*
X148211895Y-101336353D02*
X148249990Y-101222067D01*
X148249990Y-101222067D02*
X148326180Y-101145877D01*
X148326180Y-101145877D02*
X148402371Y-101107782D01*
X148402371Y-101107782D02*
X148554752Y-101069686D01*
X148554752Y-101069686D02*
X148669038Y-101069686D01*
X148669038Y-101069686D02*
X148821419Y-101107782D01*
X148821419Y-101107782D02*
X148897609Y-101145877D01*
X148897609Y-101145877D02*
X148973800Y-101222067D01*
X148973800Y-101222067D02*
X149011895Y-101336353D01*
X149011895Y-101336353D02*
X149011895Y-101526829D01*
X148783323Y-100764925D02*
X148783323Y-100383972D01*
X149011895Y-100841115D02*
X148211895Y-100574448D01*
X148211895Y-100574448D02*
X149011895Y-100307782D01*
X148973800Y-104866830D02*
X149011895Y-104752544D01*
X149011895Y-104752544D02*
X149011895Y-104562068D01*
X149011895Y-104562068D02*
X148973800Y-104485877D01*
X148973800Y-104485877D02*
X148935704Y-104447782D01*
X148935704Y-104447782D02*
X148859514Y-104409687D01*
X148859514Y-104409687D02*
X148783323Y-104409687D01*
X148783323Y-104409687D02*
X148707133Y-104447782D01*
X148707133Y-104447782D02*
X148669038Y-104485877D01*
X148669038Y-104485877D02*
X148630942Y-104562068D01*
X148630942Y-104562068D02*
X148592847Y-104714449D01*
X148592847Y-104714449D02*
X148554752Y-104790639D01*
X148554752Y-104790639D02*
X148516657Y-104828734D01*
X148516657Y-104828734D02*
X148440466Y-104866830D01*
X148440466Y-104866830D02*
X148364276Y-104866830D01*
X148364276Y-104866830D02*
X148288085Y-104828734D01*
X148288085Y-104828734D02*
X148249990Y-104790639D01*
X148249990Y-104790639D02*
X148211895Y-104714449D01*
X148211895Y-104714449D02*
X148211895Y-104523972D01*
X148211895Y-104523972D02*
X148249990Y-104409687D01*
X148935704Y-103609686D02*
X148973800Y-103647782D01*
X148973800Y-103647782D02*
X149011895Y-103762067D01*
X149011895Y-103762067D02*
X149011895Y-103838258D01*
X149011895Y-103838258D02*
X148973800Y-103952544D01*
X148973800Y-103952544D02*
X148897609Y-104028734D01*
X148897609Y-104028734D02*
X148821419Y-104066829D01*
X148821419Y-104066829D02*
X148669038Y-104104925D01*
X148669038Y-104104925D02*
X148554752Y-104104925D01*
X148554752Y-104104925D02*
X148402371Y-104066829D01*
X148402371Y-104066829D02*
X148326180Y-104028734D01*
X148326180Y-104028734D02*
X148249990Y-103952544D01*
X148249990Y-103952544D02*
X148211895Y-103838258D01*
X148211895Y-103838258D02*
X148211895Y-103762067D01*
X148211895Y-103762067D02*
X148249990Y-103647782D01*
X148249990Y-103647782D02*
X148288085Y-103609686D01*
X149011895Y-103266829D02*
X148211895Y-103266829D01*
X149011895Y-102809686D02*
X148554752Y-103152544D01*
X148211895Y-102809686D02*
X148669038Y-103266829D01*
X146906979Y-105401895D02*
X147364122Y-105401895D01*
X147135550Y-106201895D02*
X147135550Y-105401895D01*
X147554598Y-105401895D02*
X148087932Y-106201895D01*
X148087932Y-105401895D02*
X147554598Y-106201895D01*
X144918408Y-106201895D02*
X144651741Y-105820942D01*
X144461265Y-106201895D02*
X144461265Y-105401895D01*
X144461265Y-105401895D02*
X144766027Y-105401895D01*
X144766027Y-105401895D02*
X144842217Y-105439990D01*
X144842217Y-105439990D02*
X144880312Y-105478085D01*
X144880312Y-105478085D02*
X144918408Y-105554276D01*
X144918408Y-105554276D02*
X144918408Y-105668561D01*
X144918408Y-105668561D02*
X144880312Y-105744752D01*
X144880312Y-105744752D02*
X144842217Y-105782847D01*
X144842217Y-105782847D02*
X144766027Y-105820942D01*
X144766027Y-105820942D02*
X144461265Y-105820942D01*
X145185074Y-105401895D02*
X145718408Y-106201895D01*
X145718408Y-105401895D02*
X145185074Y-106201895D01*
X141661979Y-105401895D02*
X141928646Y-106201895D01*
X141928646Y-106201895D02*
X142195312Y-105401895D01*
X142919122Y-106125704D02*
X142881026Y-106163800D01*
X142881026Y-106163800D02*
X142766741Y-106201895D01*
X142766741Y-106201895D02*
X142690550Y-106201895D01*
X142690550Y-106201895D02*
X142576264Y-106163800D01*
X142576264Y-106163800D02*
X142500074Y-106087609D01*
X142500074Y-106087609D02*
X142461979Y-106011419D01*
X142461979Y-106011419D02*
X142423883Y-105859038D01*
X142423883Y-105859038D02*
X142423883Y-105744752D01*
X142423883Y-105744752D02*
X142461979Y-105592371D01*
X142461979Y-105592371D02*
X142500074Y-105516180D01*
X142500074Y-105516180D02*
X142576264Y-105439990D01*
X142576264Y-105439990D02*
X142690550Y-105401895D01*
X142690550Y-105401895D02*
X142766741Y-105401895D01*
X142766741Y-105401895D02*
X142881026Y-105439990D01*
X142881026Y-105439990D02*
X142919122Y-105478085D01*
X143719122Y-106125704D02*
X143681026Y-106163800D01*
X143681026Y-106163800D02*
X143566741Y-106201895D01*
X143566741Y-106201895D02*
X143490550Y-106201895D01*
X143490550Y-106201895D02*
X143376264Y-106163800D01*
X143376264Y-106163800D02*
X143300074Y-106087609D01*
X143300074Y-106087609D02*
X143261979Y-106011419D01*
X143261979Y-106011419D02*
X143223883Y-105859038D01*
X143223883Y-105859038D02*
X143223883Y-105744752D01*
X143223883Y-105744752D02*
X143261979Y-105592371D01*
X143261979Y-105592371D02*
X143300074Y-105516180D01*
X143300074Y-105516180D02*
X143376264Y-105439990D01*
X143376264Y-105439990D02*
X143490550Y-105401895D01*
X143490550Y-105401895D02*
X143566741Y-105401895D01*
X143566741Y-105401895D02*
X143681026Y-105439990D01*
X143681026Y-105439990D02*
X143719122Y-105478085D01*
X139370312Y-105424990D02*
X139294122Y-105386895D01*
X139294122Y-105386895D02*
X139179836Y-105386895D01*
X139179836Y-105386895D02*
X139065550Y-105424990D01*
X139065550Y-105424990D02*
X138989360Y-105501180D01*
X138989360Y-105501180D02*
X138951265Y-105577371D01*
X138951265Y-105577371D02*
X138913169Y-105729752D01*
X138913169Y-105729752D02*
X138913169Y-105844038D01*
X138913169Y-105844038D02*
X138951265Y-105996419D01*
X138951265Y-105996419D02*
X138989360Y-106072609D01*
X138989360Y-106072609D02*
X139065550Y-106148800D01*
X139065550Y-106148800D02*
X139179836Y-106186895D01*
X139179836Y-106186895D02*
X139256027Y-106186895D01*
X139256027Y-106186895D02*
X139370312Y-106148800D01*
X139370312Y-106148800D02*
X139408408Y-106110704D01*
X139408408Y-106110704D02*
X139408408Y-105844038D01*
X139408408Y-105844038D02*
X139256027Y-105844038D01*
X139751265Y-106186895D02*
X139751265Y-105386895D01*
X139751265Y-105386895D02*
X140208408Y-106186895D01*
X140208408Y-106186895D02*
X140208408Y-105386895D01*
X140589360Y-106186895D02*
X140589360Y-105386895D01*
X140589360Y-105386895D02*
X140779836Y-105386895D01*
X140779836Y-105386895D02*
X140894122Y-105424990D01*
X140894122Y-105424990D02*
X140970312Y-105501180D01*
X140970312Y-105501180D02*
X141008407Y-105577371D01*
X141008407Y-105577371D02*
X141046503Y-105729752D01*
X141046503Y-105729752D02*
X141046503Y-105844038D01*
X141046503Y-105844038D02*
X141008407Y-105996419D01*
X141008407Y-105996419D02*
X140970312Y-106072609D01*
X140970312Y-106072609D02*
X140894122Y-106148800D01*
X140894122Y-106148800D02*
X140779836Y-106186895D01*
X140779836Y-106186895D02*
X140589360Y-106186895D01*
X135361979Y-105216895D02*
X135628646Y-106016895D01*
X135628646Y-106016895D02*
X135895312Y-105216895D01*
X136619122Y-105940704D02*
X136581026Y-105978800D01*
X136581026Y-105978800D02*
X136466741Y-106016895D01*
X136466741Y-106016895D02*
X136390550Y-106016895D01*
X136390550Y-106016895D02*
X136276264Y-105978800D01*
X136276264Y-105978800D02*
X136200074Y-105902609D01*
X136200074Y-105902609D02*
X136161979Y-105826419D01*
X136161979Y-105826419D02*
X136123883Y-105674038D01*
X136123883Y-105674038D02*
X136123883Y-105559752D01*
X136123883Y-105559752D02*
X136161979Y-105407371D01*
X136161979Y-105407371D02*
X136200074Y-105331180D01*
X136200074Y-105331180D02*
X136276264Y-105254990D01*
X136276264Y-105254990D02*
X136390550Y-105216895D01*
X136390550Y-105216895D02*
X136466741Y-105216895D01*
X136466741Y-105216895D02*
X136581026Y-105254990D01*
X136581026Y-105254990D02*
X136619122Y-105293085D01*
X137419122Y-105940704D02*
X137381026Y-105978800D01*
X137381026Y-105978800D02*
X137266741Y-106016895D01*
X137266741Y-106016895D02*
X137190550Y-106016895D01*
X137190550Y-106016895D02*
X137076264Y-105978800D01*
X137076264Y-105978800D02*
X137000074Y-105902609D01*
X137000074Y-105902609D02*
X136961979Y-105826419D01*
X136961979Y-105826419D02*
X136923883Y-105674038D01*
X136923883Y-105674038D02*
X136923883Y-105559752D01*
X136923883Y-105559752D02*
X136961979Y-105407371D01*
X136961979Y-105407371D02*
X137000074Y-105331180D01*
X137000074Y-105331180D02*
X137076264Y-105254990D01*
X137076264Y-105254990D02*
X137190550Y-105216895D01*
X137190550Y-105216895D02*
X137266741Y-105216895D01*
X137266741Y-105216895D02*
X137381026Y-105254990D01*
X137381026Y-105254990D02*
X137419122Y-105293085D01*
X133040312Y-105314990D02*
X132964122Y-105276895D01*
X132964122Y-105276895D02*
X132849836Y-105276895D01*
X132849836Y-105276895D02*
X132735550Y-105314990D01*
X132735550Y-105314990D02*
X132659360Y-105391180D01*
X132659360Y-105391180D02*
X132621265Y-105467371D01*
X132621265Y-105467371D02*
X132583169Y-105619752D01*
X132583169Y-105619752D02*
X132583169Y-105734038D01*
X132583169Y-105734038D02*
X132621265Y-105886419D01*
X132621265Y-105886419D02*
X132659360Y-105962609D01*
X132659360Y-105962609D02*
X132735550Y-106038800D01*
X132735550Y-106038800D02*
X132849836Y-106076895D01*
X132849836Y-106076895D02*
X132926027Y-106076895D01*
X132926027Y-106076895D02*
X133040312Y-106038800D01*
X133040312Y-106038800D02*
X133078408Y-106000704D01*
X133078408Y-106000704D02*
X133078408Y-105734038D01*
X133078408Y-105734038D02*
X132926027Y-105734038D01*
X133421265Y-106076895D02*
X133421265Y-105276895D01*
X133421265Y-105276895D02*
X133878408Y-106076895D01*
X133878408Y-106076895D02*
X133878408Y-105276895D01*
X134259360Y-106076895D02*
X134259360Y-105276895D01*
X134259360Y-105276895D02*
X134449836Y-105276895D01*
X134449836Y-105276895D02*
X134564122Y-105314990D01*
X134564122Y-105314990D02*
X134640312Y-105391180D01*
X134640312Y-105391180D02*
X134678407Y-105467371D01*
X134678407Y-105467371D02*
X134716503Y-105619752D01*
X134716503Y-105619752D02*
X134716503Y-105734038D01*
X134716503Y-105734038D02*
X134678407Y-105886419D01*
X134678407Y-105886419D02*
X134640312Y-105962609D01*
X134640312Y-105962609D02*
X134564122Y-106038800D01*
X134564122Y-106038800D02*
X134449836Y-106076895D01*
X134449836Y-106076895D02*
X134259360Y-106076895D01*
X131060550Y-105699752D02*
X130984360Y-105661657D01*
X130984360Y-105661657D02*
X130946265Y-105623561D01*
X130946265Y-105623561D02*
X130908169Y-105547371D01*
X130908169Y-105547371D02*
X130908169Y-105509276D01*
X130908169Y-105509276D02*
X130946265Y-105433085D01*
X130946265Y-105433085D02*
X130984360Y-105394990D01*
X130984360Y-105394990D02*
X131060550Y-105356895D01*
X131060550Y-105356895D02*
X131212931Y-105356895D01*
X131212931Y-105356895D02*
X131289122Y-105394990D01*
X131289122Y-105394990D02*
X131327217Y-105433085D01*
X131327217Y-105433085D02*
X131365312Y-105509276D01*
X131365312Y-105509276D02*
X131365312Y-105547371D01*
X131365312Y-105547371D02*
X131327217Y-105623561D01*
X131327217Y-105623561D02*
X131289122Y-105661657D01*
X131289122Y-105661657D02*
X131212931Y-105699752D01*
X131212931Y-105699752D02*
X131060550Y-105699752D01*
X131060550Y-105699752D02*
X130984360Y-105737847D01*
X130984360Y-105737847D02*
X130946265Y-105775942D01*
X130946265Y-105775942D02*
X130908169Y-105852133D01*
X130908169Y-105852133D02*
X130908169Y-106004514D01*
X130908169Y-106004514D02*
X130946265Y-106080704D01*
X130946265Y-106080704D02*
X130984360Y-106118800D01*
X130984360Y-106118800D02*
X131060550Y-106156895D01*
X131060550Y-106156895D02*
X131212931Y-106156895D01*
X131212931Y-106156895D02*
X131289122Y-106118800D01*
X131289122Y-106118800D02*
X131327217Y-106080704D01*
X131327217Y-106080704D02*
X131365312Y-106004514D01*
X131365312Y-106004514D02*
X131365312Y-105852133D01*
X131365312Y-105852133D02*
X131327217Y-105775942D01*
X131327217Y-105775942D02*
X131289122Y-105737847D01*
X131289122Y-105737847D02*
X131212931Y-105699752D01*
X128365074Y-105271895D02*
X128898408Y-105271895D01*
X128898408Y-105271895D02*
X128555550Y-106071895D01*
X126179122Y-105316895D02*
X126026741Y-105316895D01*
X126026741Y-105316895D02*
X125950550Y-105354990D01*
X125950550Y-105354990D02*
X125912455Y-105393085D01*
X125912455Y-105393085D02*
X125836265Y-105507371D01*
X125836265Y-105507371D02*
X125798169Y-105659752D01*
X125798169Y-105659752D02*
X125798169Y-105964514D01*
X125798169Y-105964514D02*
X125836265Y-106040704D01*
X125836265Y-106040704D02*
X125874360Y-106078800D01*
X125874360Y-106078800D02*
X125950550Y-106116895D01*
X125950550Y-106116895D02*
X126102931Y-106116895D01*
X126102931Y-106116895D02*
X126179122Y-106078800D01*
X126179122Y-106078800D02*
X126217217Y-106040704D01*
X126217217Y-106040704D02*
X126255312Y-105964514D01*
X126255312Y-105964514D02*
X126255312Y-105774038D01*
X126255312Y-105774038D02*
X126217217Y-105697847D01*
X126217217Y-105697847D02*
X126179122Y-105659752D01*
X126179122Y-105659752D02*
X126102931Y-105621657D01*
X126102931Y-105621657D02*
X125950550Y-105621657D01*
X125950550Y-105621657D02*
X125874360Y-105659752D01*
X125874360Y-105659752D02*
X125836265Y-105697847D01*
X125836265Y-105697847D02*
X125798169Y-105774038D01*
X123647217Y-105351895D02*
X123266265Y-105351895D01*
X123266265Y-105351895D02*
X123228169Y-105732847D01*
X123228169Y-105732847D02*
X123266265Y-105694752D01*
X123266265Y-105694752D02*
X123342455Y-105656657D01*
X123342455Y-105656657D02*
X123532931Y-105656657D01*
X123532931Y-105656657D02*
X123609122Y-105694752D01*
X123609122Y-105694752D02*
X123647217Y-105732847D01*
X123647217Y-105732847D02*
X123685312Y-105809038D01*
X123685312Y-105809038D02*
X123685312Y-105999514D01*
X123685312Y-105999514D02*
X123647217Y-106075704D01*
X123647217Y-106075704D02*
X123609122Y-106113800D01*
X123609122Y-106113800D02*
X123532931Y-106151895D01*
X123532931Y-106151895D02*
X123342455Y-106151895D01*
X123342455Y-106151895D02*
X123266265Y-106113800D01*
X123266265Y-106113800D02*
X123228169Y-106075704D01*
X121139122Y-105628561D02*
X121139122Y-106161895D01*
X120948646Y-105323800D02*
X120758169Y-105895228D01*
X120758169Y-105895228D02*
X121253408Y-105895228D01*
X118155074Y-105361895D02*
X118650312Y-105361895D01*
X118650312Y-105361895D02*
X118383646Y-105666657D01*
X118383646Y-105666657D02*
X118497931Y-105666657D01*
X118497931Y-105666657D02*
X118574122Y-105704752D01*
X118574122Y-105704752D02*
X118612217Y-105742847D01*
X118612217Y-105742847D02*
X118650312Y-105819038D01*
X118650312Y-105819038D02*
X118650312Y-106009514D01*
X118650312Y-106009514D02*
X118612217Y-106085704D01*
X118612217Y-106085704D02*
X118574122Y-106123800D01*
X118574122Y-106123800D02*
X118497931Y-106161895D01*
X118497931Y-106161895D02*
X118269360Y-106161895D01*
X118269360Y-106161895D02*
X118193169Y-106123800D01*
X118193169Y-106123800D02*
X118155074Y-106085704D01*
X115608169Y-105553085D02*
X115646265Y-105514990D01*
X115646265Y-105514990D02*
X115722455Y-105476895D01*
X115722455Y-105476895D02*
X115912931Y-105476895D01*
X115912931Y-105476895D02*
X115989122Y-105514990D01*
X115989122Y-105514990D02*
X116027217Y-105553085D01*
X116027217Y-105553085D02*
X116065312Y-105629276D01*
X116065312Y-105629276D02*
X116065312Y-105705466D01*
X116065312Y-105705466D02*
X116027217Y-105819752D01*
X116027217Y-105819752D02*
X115570074Y-106276895D01*
X115570074Y-106276895D02*
X116065312Y-106276895D01*
X127801667Y-87328704D02*
X127763571Y-87366800D01*
X127763571Y-87366800D02*
X127649286Y-87404895D01*
X127649286Y-87404895D02*
X127573095Y-87404895D01*
X127573095Y-87404895D02*
X127458809Y-87366800D01*
X127458809Y-87366800D02*
X127382619Y-87290609D01*
X127382619Y-87290609D02*
X127344524Y-87214419D01*
X127344524Y-87214419D02*
X127306428Y-87062038D01*
X127306428Y-87062038D02*
X127306428Y-86947752D01*
X127306428Y-86947752D02*
X127344524Y-86795371D01*
X127344524Y-86795371D02*
X127382619Y-86719180D01*
X127382619Y-86719180D02*
X127458809Y-86642990D01*
X127458809Y-86642990D02*
X127573095Y-86604895D01*
X127573095Y-86604895D02*
X127649286Y-86604895D01*
X127649286Y-86604895D02*
X127763571Y-86642990D01*
X127763571Y-86642990D02*
X127801667Y-86681085D01*
X128563571Y-87404895D02*
X128106428Y-87404895D01*
X128335000Y-87404895D02*
X128335000Y-86604895D01*
X128335000Y-86604895D02*
X128258809Y-86719180D01*
X128258809Y-86719180D02*
X128182619Y-86795371D01*
X128182619Y-86795371D02*
X128106428Y-86833466D01*
X129285714Y-86684895D02*
X129361904Y-86684895D01*
X129361904Y-86684895D02*
X129438095Y-86722990D01*
X129438095Y-86722990D02*
X129476190Y-86761085D01*
X129476190Y-86761085D02*
X129514285Y-86837276D01*
X129514285Y-86837276D02*
X129552380Y-86989657D01*
X129552380Y-86989657D02*
X129552380Y-87180133D01*
X129552380Y-87180133D02*
X129514285Y-87332514D01*
X129514285Y-87332514D02*
X129476190Y-87408704D01*
X129476190Y-87408704D02*
X129438095Y-87446800D01*
X129438095Y-87446800D02*
X129361904Y-87484895D01*
X129361904Y-87484895D02*
X129285714Y-87484895D01*
X129285714Y-87484895D02*
X129209523Y-87446800D01*
X129209523Y-87446800D02*
X129171428Y-87408704D01*
X129171428Y-87408704D02*
X129133333Y-87332514D01*
X129133333Y-87332514D02*
X129095237Y-87180133D01*
X129095237Y-87180133D02*
X129095237Y-86989657D01*
X129095237Y-86989657D02*
X129133333Y-86837276D01*
X129133333Y-86837276D02*
X129171428Y-86761085D01*
X129171428Y-86761085D02*
X129209523Y-86722990D01*
X129209523Y-86722990D02*
X129285714Y-86684895D01*
X129895238Y-87408704D02*
X129933333Y-87446800D01*
X129933333Y-87446800D02*
X129895238Y-87484895D01*
X129895238Y-87484895D02*
X129857142Y-87446800D01*
X129857142Y-87446800D02*
X129895238Y-87408704D01*
X129895238Y-87408704D02*
X129895238Y-87484895D01*
X130695237Y-87484895D02*
X130238094Y-87484895D01*
X130466666Y-87484895D02*
X130466666Y-86684895D01*
X130466666Y-86684895D02*
X130390475Y-86799180D01*
X130390475Y-86799180D02*
X130314285Y-86875371D01*
X130314285Y-86875371D02*
X130238094Y-86913466D01*
X131380952Y-86951561D02*
X131380952Y-87484895D01*
X131038095Y-86951561D02*
X131038095Y-87370609D01*
X131038095Y-87370609D02*
X131076190Y-87446800D01*
X131076190Y-87446800D02*
X131152380Y-87484895D01*
X131152380Y-87484895D02*
X131266666Y-87484895D01*
X131266666Y-87484895D02*
X131342857Y-87446800D01*
X131342857Y-87446800D02*
X131380952Y-87408704D01*
X132028571Y-87065847D02*
X131761905Y-87065847D01*
X131761905Y-87484895D02*
X131761905Y-86684895D01*
X131761905Y-86684895D02*
X132142857Y-86684895D01*
X133231667Y-87408704D02*
X133193571Y-87446800D01*
X133193571Y-87446800D02*
X133079286Y-87484895D01*
X133079286Y-87484895D02*
X133003095Y-87484895D01*
X133003095Y-87484895D02*
X132888809Y-87446800D01*
X132888809Y-87446800D02*
X132812619Y-87370609D01*
X132812619Y-87370609D02*
X132774524Y-87294419D01*
X132774524Y-87294419D02*
X132736428Y-87142038D01*
X132736428Y-87142038D02*
X132736428Y-87027752D01*
X132736428Y-87027752D02*
X132774524Y-86875371D01*
X132774524Y-86875371D02*
X132812619Y-86799180D01*
X132812619Y-86799180D02*
X132888809Y-86722990D01*
X132888809Y-86722990D02*
X133003095Y-86684895D01*
X133003095Y-86684895D02*
X133079286Y-86684895D01*
X133079286Y-86684895D02*
X133193571Y-86722990D01*
X133193571Y-86722990D02*
X133231667Y-86761085D01*
X133955476Y-86684895D02*
X133574524Y-86684895D01*
X133574524Y-86684895D02*
X133536428Y-87065847D01*
X133536428Y-87065847D02*
X133574524Y-87027752D01*
X133574524Y-87027752D02*
X133650714Y-86989657D01*
X133650714Y-86989657D02*
X133841190Y-86989657D01*
X133841190Y-86989657D02*
X133917381Y-87027752D01*
X133917381Y-87027752D02*
X133955476Y-87065847D01*
X133955476Y-87065847D02*
X133993571Y-87142038D01*
X133993571Y-87142038D02*
X133993571Y-87332514D01*
X133993571Y-87332514D02*
X133955476Y-87408704D01*
X133955476Y-87408704D02*
X133917381Y-87446800D01*
X133917381Y-87446800D02*
X133841190Y-87484895D01*
X133841190Y-87484895D02*
X133650714Y-87484895D01*
X133650714Y-87484895D02*
X133574524Y-87446800D01*
X133574524Y-87446800D02*
X133536428Y-87408704D01*
X134846904Y-87499895D02*
X134389761Y-87499895D01*
X134618333Y-87499895D02*
X134618333Y-86699895D01*
X134618333Y-86699895D02*
X134542142Y-86814180D01*
X134542142Y-86814180D02*
X134465952Y-86890371D01*
X134465952Y-86890371D02*
X134389761Y-86928466D01*
X135342143Y-86699895D02*
X135418333Y-86699895D01*
X135418333Y-86699895D02*
X135494524Y-86737990D01*
X135494524Y-86737990D02*
X135532619Y-86776085D01*
X135532619Y-86776085D02*
X135570714Y-86852276D01*
X135570714Y-86852276D02*
X135608809Y-87004657D01*
X135608809Y-87004657D02*
X135608809Y-87195133D01*
X135608809Y-87195133D02*
X135570714Y-87347514D01*
X135570714Y-87347514D02*
X135532619Y-87423704D01*
X135532619Y-87423704D02*
X135494524Y-87461800D01*
X135494524Y-87461800D02*
X135418333Y-87499895D01*
X135418333Y-87499895D02*
X135342143Y-87499895D01*
X135342143Y-87499895D02*
X135265952Y-87461800D01*
X135265952Y-87461800D02*
X135227857Y-87423704D01*
X135227857Y-87423704D02*
X135189762Y-87347514D01*
X135189762Y-87347514D02*
X135151666Y-87195133D01*
X135151666Y-87195133D02*
X135151666Y-87004657D01*
X135151666Y-87004657D02*
X135189762Y-86852276D01*
X135189762Y-86852276D02*
X135227857Y-86776085D01*
X135227857Y-86776085D02*
X135265952Y-86737990D01*
X135265952Y-86737990D02*
X135342143Y-86699895D01*
X136104048Y-86699895D02*
X136180238Y-86699895D01*
X136180238Y-86699895D02*
X136256429Y-86737990D01*
X136256429Y-86737990D02*
X136294524Y-86776085D01*
X136294524Y-86776085D02*
X136332619Y-86852276D01*
X136332619Y-86852276D02*
X136370714Y-87004657D01*
X136370714Y-87004657D02*
X136370714Y-87195133D01*
X136370714Y-87195133D02*
X136332619Y-87347514D01*
X136332619Y-87347514D02*
X136294524Y-87423704D01*
X136294524Y-87423704D02*
X136256429Y-87461800D01*
X136256429Y-87461800D02*
X136180238Y-87499895D01*
X136180238Y-87499895D02*
X136104048Y-87499895D01*
X136104048Y-87499895D02*
X136027857Y-87461800D01*
X136027857Y-87461800D02*
X135989762Y-87423704D01*
X135989762Y-87423704D02*
X135951667Y-87347514D01*
X135951667Y-87347514D02*
X135913571Y-87195133D01*
X135913571Y-87195133D02*
X135913571Y-87004657D01*
X135913571Y-87004657D02*
X135951667Y-86852276D01*
X135951667Y-86852276D02*
X135989762Y-86776085D01*
X135989762Y-86776085D02*
X136027857Y-86737990D01*
X136027857Y-86737990D02*
X136104048Y-86699895D01*
X136713572Y-86966561D02*
X136713572Y-87499895D01*
X136713572Y-87042752D02*
X136751667Y-87004657D01*
X136751667Y-87004657D02*
X136827857Y-86966561D01*
X136827857Y-86966561D02*
X136942143Y-86966561D01*
X136942143Y-86966561D02*
X137018334Y-87004657D01*
X137018334Y-87004657D02*
X137056429Y-87080847D01*
X137056429Y-87080847D02*
X137056429Y-87499895D01*
X137704048Y-87080847D02*
X137437382Y-87080847D01*
X137437382Y-87499895D02*
X137437382Y-86699895D01*
X137437382Y-86699895D02*
X137818334Y-86699895D01*
X143589167Y-91784895D02*
X143322500Y-91403942D01*
X143132024Y-91784895D02*
X143132024Y-90984895D01*
X143132024Y-90984895D02*
X143436786Y-90984895D01*
X143436786Y-90984895D02*
X143512976Y-91022990D01*
X143512976Y-91022990D02*
X143551071Y-91061085D01*
X143551071Y-91061085D02*
X143589167Y-91137276D01*
X143589167Y-91137276D02*
X143589167Y-91251561D01*
X143589167Y-91251561D02*
X143551071Y-91327752D01*
X143551071Y-91327752D02*
X143512976Y-91365847D01*
X143512976Y-91365847D02*
X143436786Y-91403942D01*
X143436786Y-91403942D02*
X143132024Y-91403942D01*
X144274881Y-90984895D02*
X144122500Y-90984895D01*
X144122500Y-90984895D02*
X144046309Y-91022990D01*
X144046309Y-91022990D02*
X144008214Y-91061085D01*
X144008214Y-91061085D02*
X143932024Y-91175371D01*
X143932024Y-91175371D02*
X143893928Y-91327752D01*
X143893928Y-91327752D02*
X143893928Y-91632514D01*
X143893928Y-91632514D02*
X143932024Y-91708704D01*
X143932024Y-91708704D02*
X143970119Y-91746800D01*
X143970119Y-91746800D02*
X144046309Y-91784895D01*
X144046309Y-91784895D02*
X144198690Y-91784895D01*
X144198690Y-91784895D02*
X144274881Y-91746800D01*
X144274881Y-91746800D02*
X144312976Y-91708704D01*
X144312976Y-91708704D02*
X144351071Y-91632514D01*
X144351071Y-91632514D02*
X144351071Y-91442038D01*
X144351071Y-91442038D02*
X144312976Y-91365847D01*
X144312976Y-91365847D02*
X144274881Y-91327752D01*
X144274881Y-91327752D02*
X144198690Y-91289657D01*
X144198690Y-91289657D02*
X144046309Y-91289657D01*
X144046309Y-91289657D02*
X143970119Y-91327752D01*
X143970119Y-91327752D02*
X143932024Y-91365847D01*
X143932024Y-91365847D02*
X143893928Y-91442038D01*
X145386309Y-91784895D02*
X144929166Y-91784895D01*
X145157738Y-91784895D02*
X145157738Y-90984895D01*
X145157738Y-90984895D02*
X145081547Y-91099180D01*
X145081547Y-91099180D02*
X145005357Y-91175371D01*
X145005357Y-91175371D02*
X144929166Y-91213466D01*
X145881548Y-90984895D02*
X145957738Y-90984895D01*
X145957738Y-90984895D02*
X146033929Y-91022990D01*
X146033929Y-91022990D02*
X146072024Y-91061085D01*
X146072024Y-91061085D02*
X146110119Y-91137276D01*
X146110119Y-91137276D02*
X146148214Y-91289657D01*
X146148214Y-91289657D02*
X146148214Y-91480133D01*
X146148214Y-91480133D02*
X146110119Y-91632514D01*
X146110119Y-91632514D02*
X146072024Y-91708704D01*
X146072024Y-91708704D02*
X146033929Y-91746800D01*
X146033929Y-91746800D02*
X145957738Y-91784895D01*
X145957738Y-91784895D02*
X145881548Y-91784895D01*
X145881548Y-91784895D02*
X145805357Y-91746800D01*
X145805357Y-91746800D02*
X145767262Y-91708704D01*
X145767262Y-91708704D02*
X145729167Y-91632514D01*
X145729167Y-91632514D02*
X145691071Y-91480133D01*
X145691071Y-91480133D02*
X145691071Y-91289657D01*
X145691071Y-91289657D02*
X145729167Y-91137276D01*
X145729167Y-91137276D02*
X145767262Y-91061085D01*
X145767262Y-91061085D02*
X145805357Y-91022990D01*
X145805357Y-91022990D02*
X145881548Y-90984895D01*
X146491072Y-91784895D02*
X146491072Y-90984895D01*
X146567262Y-91480133D02*
X146795834Y-91784895D01*
X146795834Y-91251561D02*
X146491072Y-91556323D01*
X112144048Y-96378942D02*
X112144048Y-96759895D01*
X111877381Y-95959895D02*
X112144048Y-96378942D01*
X112144048Y-96378942D02*
X112410714Y-95959895D01*
X113096428Y-96759895D02*
X112639285Y-96759895D01*
X112867857Y-96759895D02*
X112867857Y-95959895D01*
X112867857Y-95959895D02*
X112791666Y-96074180D01*
X112791666Y-96074180D02*
X112715476Y-96150371D01*
X112715476Y-96150371D02*
X112639285Y-96188466D01*
X114035476Y-83549895D02*
X114035476Y-84197514D01*
X114035476Y-84197514D02*
X114073571Y-84273704D01*
X114073571Y-84273704D02*
X114111666Y-84311800D01*
X114111666Y-84311800D02*
X114187857Y-84349895D01*
X114187857Y-84349895D02*
X114340238Y-84349895D01*
X114340238Y-84349895D02*
X114416428Y-84311800D01*
X114416428Y-84311800D02*
X114454523Y-84273704D01*
X114454523Y-84273704D02*
X114492619Y-84197514D01*
X114492619Y-84197514D02*
X114492619Y-83549895D01*
X115292618Y-84349895D02*
X114835475Y-84349895D01*
X115064047Y-84349895D02*
X115064047Y-83549895D01*
X115064047Y-83549895D02*
X114987856Y-83664180D01*
X114987856Y-83664180D02*
X114911666Y-83740371D01*
X114911666Y-83740371D02*
X114835475Y-83778466D01*
X116622856Y-90061085D02*
X116660952Y-90022990D01*
X116660952Y-90022990D02*
X116737142Y-89984895D01*
X116737142Y-89984895D02*
X116927618Y-89984895D01*
X116927618Y-89984895D02*
X117003809Y-90022990D01*
X117003809Y-90022990D02*
X117041904Y-90061085D01*
X117041904Y-90061085D02*
X117079999Y-90137276D01*
X117079999Y-90137276D02*
X117079999Y-90213466D01*
X117079999Y-90213466D02*
X117041904Y-90327752D01*
X117041904Y-90327752D02*
X116584761Y-90784895D01*
X116584761Y-90784895D02*
X117079999Y-90784895D01*
X117765714Y-90251561D02*
X117765714Y-90784895D01*
X117575238Y-89946800D02*
X117384761Y-90518228D01*
X117384761Y-90518228D02*
X117880000Y-90518228D01*
X118565714Y-90784895D02*
X118184762Y-90784895D01*
X118184762Y-90784895D02*
X118184762Y-89984895D01*
X119289524Y-90708704D02*
X119251428Y-90746800D01*
X119251428Y-90746800D02*
X119137143Y-90784895D01*
X119137143Y-90784895D02*
X119060952Y-90784895D01*
X119060952Y-90784895D02*
X118946666Y-90746800D01*
X118946666Y-90746800D02*
X118870476Y-90670609D01*
X118870476Y-90670609D02*
X118832381Y-90594419D01*
X118832381Y-90594419D02*
X118794285Y-90442038D01*
X118794285Y-90442038D02*
X118794285Y-90327752D01*
X118794285Y-90327752D02*
X118832381Y-90175371D01*
X118832381Y-90175371D02*
X118870476Y-90099180D01*
X118870476Y-90099180D02*
X118946666Y-90022990D01*
X118946666Y-90022990D02*
X119060952Y-89984895D01*
X119060952Y-89984895D02*
X119137143Y-89984895D01*
X119137143Y-89984895D02*
X119251428Y-90022990D01*
X119251428Y-90022990D02*
X119289524Y-90061085D01*
X120051428Y-90784895D02*
X119594285Y-90784895D01*
X119822857Y-90784895D02*
X119822857Y-89984895D01*
X119822857Y-89984895D02*
X119746666Y-90099180D01*
X119746666Y-90099180D02*
X119670476Y-90175371D01*
X119670476Y-90175371D02*
X119594285Y-90213466D01*
X120546667Y-89984895D02*
X120622857Y-89984895D01*
X120622857Y-89984895D02*
X120699048Y-90022990D01*
X120699048Y-90022990D02*
X120737143Y-90061085D01*
X120737143Y-90061085D02*
X120775238Y-90137276D01*
X120775238Y-90137276D02*
X120813333Y-90289657D01*
X120813333Y-90289657D02*
X120813333Y-90480133D01*
X120813333Y-90480133D02*
X120775238Y-90632514D01*
X120775238Y-90632514D02*
X120737143Y-90708704D01*
X120737143Y-90708704D02*
X120699048Y-90746800D01*
X120699048Y-90746800D02*
X120622857Y-90784895D01*
X120622857Y-90784895D02*
X120546667Y-90784895D01*
X120546667Y-90784895D02*
X120470476Y-90746800D01*
X120470476Y-90746800D02*
X120432381Y-90708704D01*
X120432381Y-90708704D02*
X120394286Y-90632514D01*
X120394286Y-90632514D02*
X120356190Y-90480133D01*
X120356190Y-90480133D02*
X120356190Y-90289657D01*
X120356190Y-90289657D02*
X120394286Y-90137276D01*
X120394286Y-90137276D02*
X120432381Y-90061085D01*
X120432381Y-90061085D02*
X120470476Y-90022990D01*
X120470476Y-90022990D02*
X120546667Y-89984895D01*
X121118095Y-90061085D02*
X121156191Y-90022990D01*
X121156191Y-90022990D02*
X121232381Y-89984895D01*
X121232381Y-89984895D02*
X121422857Y-89984895D01*
X121422857Y-89984895D02*
X121499048Y-90022990D01*
X121499048Y-90022990D02*
X121537143Y-90061085D01*
X121537143Y-90061085D02*
X121575238Y-90137276D01*
X121575238Y-90137276D02*
X121575238Y-90213466D01*
X121575238Y-90213466D02*
X121537143Y-90327752D01*
X121537143Y-90327752D02*
X121080000Y-90784895D01*
X121080000Y-90784895D02*
X121575238Y-90784895D01*
X122299048Y-89984895D02*
X121918096Y-89984895D01*
X121918096Y-89984895D02*
X121880000Y-90365847D01*
X121880000Y-90365847D02*
X121918096Y-90327752D01*
X121918096Y-90327752D02*
X121994286Y-90289657D01*
X121994286Y-90289657D02*
X122184762Y-90289657D01*
X122184762Y-90289657D02*
X122260953Y-90327752D01*
X122260953Y-90327752D02*
X122299048Y-90365847D01*
X122299048Y-90365847D02*
X122337143Y-90442038D01*
X122337143Y-90442038D02*
X122337143Y-90632514D01*
X122337143Y-90632514D02*
X122299048Y-90708704D01*
X122299048Y-90708704D02*
X122260953Y-90746800D01*
X122260953Y-90746800D02*
X122184762Y-90784895D01*
X122184762Y-90784895D02*
X121994286Y-90784895D01*
X121994286Y-90784895D02*
X121918096Y-90746800D01*
X121918096Y-90746800D02*
X121880000Y-90708704D01*
X112341428Y-94505847D02*
X112455714Y-94543942D01*
X112455714Y-94543942D02*
X112493809Y-94582038D01*
X112493809Y-94582038D02*
X112531905Y-94658228D01*
X112531905Y-94658228D02*
X112531905Y-94772514D01*
X112531905Y-94772514D02*
X112493809Y-94848704D01*
X112493809Y-94848704D02*
X112455714Y-94886800D01*
X112455714Y-94886800D02*
X112379524Y-94924895D01*
X112379524Y-94924895D02*
X112074762Y-94924895D01*
X112074762Y-94924895D02*
X112074762Y-94124895D01*
X112074762Y-94124895D02*
X112341428Y-94124895D01*
X112341428Y-94124895D02*
X112417619Y-94162990D01*
X112417619Y-94162990D02*
X112455714Y-94201085D01*
X112455714Y-94201085D02*
X112493809Y-94277276D01*
X112493809Y-94277276D02*
X112493809Y-94353466D01*
X112493809Y-94353466D02*
X112455714Y-94429657D01*
X112455714Y-94429657D02*
X112417619Y-94467752D01*
X112417619Y-94467752D02*
X112341428Y-94505847D01*
X112341428Y-94505847D02*
X112074762Y-94505847D01*
X112760476Y-94124895D02*
X113217619Y-94124895D01*
X112989047Y-94924895D02*
X112989047Y-94124895D01*
X113903333Y-94924895D02*
X113446190Y-94924895D01*
X113674762Y-94924895D02*
X113674762Y-94124895D01*
X113674762Y-94124895D02*
X113598571Y-94239180D01*
X113598571Y-94239180D02*
X113522381Y-94315371D01*
X113522381Y-94315371D02*
X113446190Y-94353466D01*
X111007856Y-87115847D02*
X111122142Y-87153942D01*
X111122142Y-87153942D02*
X111160237Y-87192038D01*
X111160237Y-87192038D02*
X111198333Y-87268228D01*
X111198333Y-87268228D02*
X111198333Y-87382514D01*
X111198333Y-87382514D02*
X111160237Y-87458704D01*
X111160237Y-87458704D02*
X111122142Y-87496800D01*
X111122142Y-87496800D02*
X111045952Y-87534895D01*
X111045952Y-87534895D02*
X110741190Y-87534895D01*
X110741190Y-87534895D02*
X110741190Y-86734895D01*
X110741190Y-86734895D02*
X111007856Y-86734895D01*
X111007856Y-86734895D02*
X111084047Y-86772990D01*
X111084047Y-86772990D02*
X111122142Y-86811085D01*
X111122142Y-86811085D02*
X111160237Y-86887276D01*
X111160237Y-86887276D02*
X111160237Y-86963466D01*
X111160237Y-86963466D02*
X111122142Y-87039657D01*
X111122142Y-87039657D02*
X111084047Y-87077752D01*
X111084047Y-87077752D02*
X111007856Y-87115847D01*
X111007856Y-87115847D02*
X110741190Y-87115847D01*
X111884047Y-87534895D02*
X111884047Y-87115847D01*
X111884047Y-87115847D02*
X111845952Y-87039657D01*
X111845952Y-87039657D02*
X111769761Y-87001561D01*
X111769761Y-87001561D02*
X111617380Y-87001561D01*
X111617380Y-87001561D02*
X111541190Y-87039657D01*
X111884047Y-87496800D02*
X111807856Y-87534895D01*
X111807856Y-87534895D02*
X111617380Y-87534895D01*
X111617380Y-87534895D02*
X111541190Y-87496800D01*
X111541190Y-87496800D02*
X111503094Y-87420609D01*
X111503094Y-87420609D02*
X111503094Y-87344419D01*
X111503094Y-87344419D02*
X111541190Y-87268228D01*
X111541190Y-87268228D02*
X111617380Y-87230133D01*
X111617380Y-87230133D02*
X111807856Y-87230133D01*
X111807856Y-87230133D02*
X111884047Y-87192038D01*
X112150714Y-87001561D02*
X112455476Y-87001561D01*
X112265000Y-86734895D02*
X112265000Y-87420609D01*
X112265000Y-87420609D02*
X112303095Y-87496800D01*
X112303095Y-87496800D02*
X112379285Y-87534895D01*
X112379285Y-87534895D02*
X112455476Y-87534895D01*
X112607857Y-87001561D02*
X112912619Y-87001561D01*
X112722143Y-86734895D02*
X112722143Y-87420609D01*
X112722143Y-87420609D02*
X112760238Y-87496800D01*
X112760238Y-87496800D02*
X112836428Y-87534895D01*
X112836428Y-87534895D02*
X112912619Y-87534895D01*
X113484048Y-87496800D02*
X113407857Y-87534895D01*
X113407857Y-87534895D02*
X113255476Y-87534895D01*
X113255476Y-87534895D02*
X113179286Y-87496800D01*
X113179286Y-87496800D02*
X113141190Y-87420609D01*
X113141190Y-87420609D02*
X113141190Y-87115847D01*
X113141190Y-87115847D02*
X113179286Y-87039657D01*
X113179286Y-87039657D02*
X113255476Y-87001561D01*
X113255476Y-87001561D02*
X113407857Y-87001561D01*
X113407857Y-87001561D02*
X113484048Y-87039657D01*
X113484048Y-87039657D02*
X113522143Y-87115847D01*
X113522143Y-87115847D02*
X113522143Y-87192038D01*
X113522143Y-87192038D02*
X113141190Y-87268228D01*
X113865000Y-87534895D02*
X113865000Y-87001561D01*
X113865000Y-87153942D02*
X113903095Y-87077752D01*
X113903095Y-87077752D02*
X113941190Y-87039657D01*
X113941190Y-87039657D02*
X114017381Y-87001561D01*
X114017381Y-87001561D02*
X114093571Y-87001561D01*
X114284047Y-87001561D02*
X114474523Y-87534895D01*
X114665000Y-87001561D02*
X114474523Y-87534895D01*
X114474523Y-87534895D02*
X114398333Y-87725371D01*
X114398333Y-87725371D02*
X114360238Y-87763466D01*
X114360238Y-87763466D02*
X114284047Y-87801561D01*
X114890476Y-96494895D02*
X114890476Y-97142514D01*
X114890476Y-97142514D02*
X114928571Y-97218704D01*
X114928571Y-97218704D02*
X114966666Y-97256800D01*
X114966666Y-97256800D02*
X115042857Y-97294895D01*
X115042857Y-97294895D02*
X115195238Y-97294895D01*
X115195238Y-97294895D02*
X115271428Y-97256800D01*
X115271428Y-97256800D02*
X115309523Y-97218704D01*
X115309523Y-97218704D02*
X115347619Y-97142514D01*
X115347619Y-97142514D02*
X115347619Y-96494895D01*
X115652380Y-96494895D02*
X116147618Y-96494895D01*
X116147618Y-96494895D02*
X115880952Y-96799657D01*
X115880952Y-96799657D02*
X115995237Y-96799657D01*
X115995237Y-96799657D02*
X116071428Y-96837752D01*
X116071428Y-96837752D02*
X116109523Y-96875847D01*
X116109523Y-96875847D02*
X116147618Y-96952038D01*
X116147618Y-96952038D02*
X116147618Y-97142514D01*
X116147618Y-97142514D02*
X116109523Y-97218704D01*
X116109523Y-97218704D02*
X116071428Y-97256800D01*
X116071428Y-97256800D02*
X115995237Y-97294895D01*
X115995237Y-97294895D02*
X115766666Y-97294895D01*
X115766666Y-97294895D02*
X115690475Y-97256800D01*
X115690475Y-97256800D02*
X115652380Y-97218704D01*
X138316667Y-100788704D02*
X138278571Y-100826800D01*
X138278571Y-100826800D02*
X138164286Y-100864895D01*
X138164286Y-100864895D02*
X138088095Y-100864895D01*
X138088095Y-100864895D02*
X137973809Y-100826800D01*
X137973809Y-100826800D02*
X137897619Y-100750609D01*
X137897619Y-100750609D02*
X137859524Y-100674419D01*
X137859524Y-100674419D02*
X137821428Y-100522038D01*
X137821428Y-100522038D02*
X137821428Y-100407752D01*
X137821428Y-100407752D02*
X137859524Y-100255371D01*
X137859524Y-100255371D02*
X137897619Y-100179180D01*
X137897619Y-100179180D02*
X137973809Y-100102990D01*
X137973809Y-100102990D02*
X138088095Y-100064895D01*
X138088095Y-100064895D02*
X138164286Y-100064895D01*
X138164286Y-100064895D02*
X138278571Y-100102990D01*
X138278571Y-100102990D02*
X138316667Y-100141085D01*
X139002381Y-100331561D02*
X139002381Y-100864895D01*
X138811905Y-100026800D02*
X138621428Y-100598228D01*
X138621428Y-100598228D02*
X139116667Y-100598228D01*
X139511429Y-100074895D02*
X139587619Y-100074895D01*
X139587619Y-100074895D02*
X139663810Y-100112990D01*
X139663810Y-100112990D02*
X139701905Y-100151085D01*
X139701905Y-100151085D02*
X139740000Y-100227276D01*
X139740000Y-100227276D02*
X139778095Y-100379657D01*
X139778095Y-100379657D02*
X139778095Y-100570133D01*
X139778095Y-100570133D02*
X139740000Y-100722514D01*
X139740000Y-100722514D02*
X139701905Y-100798704D01*
X139701905Y-100798704D02*
X139663810Y-100836800D01*
X139663810Y-100836800D02*
X139587619Y-100874895D01*
X139587619Y-100874895D02*
X139511429Y-100874895D01*
X139511429Y-100874895D02*
X139435238Y-100836800D01*
X139435238Y-100836800D02*
X139397143Y-100798704D01*
X139397143Y-100798704D02*
X139359048Y-100722514D01*
X139359048Y-100722514D02*
X139320952Y-100570133D01*
X139320952Y-100570133D02*
X139320952Y-100379657D01*
X139320952Y-100379657D02*
X139359048Y-100227276D01*
X139359048Y-100227276D02*
X139397143Y-100151085D01*
X139397143Y-100151085D02*
X139435238Y-100112990D01*
X139435238Y-100112990D02*
X139511429Y-100074895D01*
X140120953Y-100798704D02*
X140159048Y-100836800D01*
X140159048Y-100836800D02*
X140120953Y-100874895D01*
X140120953Y-100874895D02*
X140082857Y-100836800D01*
X140082857Y-100836800D02*
X140120953Y-100798704D01*
X140120953Y-100798704D02*
X140120953Y-100874895D01*
X140920952Y-100874895D02*
X140463809Y-100874895D01*
X140692381Y-100874895D02*
X140692381Y-100074895D01*
X140692381Y-100074895D02*
X140616190Y-100189180D01*
X140616190Y-100189180D02*
X140540000Y-100265371D01*
X140540000Y-100265371D02*
X140463809Y-100303466D01*
X141606667Y-100341561D02*
X141606667Y-100874895D01*
X141263810Y-100341561D02*
X141263810Y-100760609D01*
X141263810Y-100760609D02*
X141301905Y-100836800D01*
X141301905Y-100836800D02*
X141378095Y-100874895D01*
X141378095Y-100874895D02*
X141492381Y-100874895D01*
X141492381Y-100874895D02*
X141568572Y-100836800D01*
X141568572Y-100836800D02*
X141606667Y-100798704D01*
X142254286Y-100455847D02*
X141987620Y-100455847D01*
X141987620Y-100874895D02*
X141987620Y-100074895D01*
X141987620Y-100074895D02*
X142368572Y-100074895D01*
X117121667Y-105824895D02*
X116855000Y-105443942D01*
X116664524Y-105824895D02*
X116664524Y-105024895D01*
X116664524Y-105024895D02*
X116969286Y-105024895D01*
X116969286Y-105024895D02*
X117045476Y-105062990D01*
X117045476Y-105062990D02*
X117083571Y-105101085D01*
X117083571Y-105101085D02*
X117121667Y-105177276D01*
X117121667Y-105177276D02*
X117121667Y-105291561D01*
X117121667Y-105291561D02*
X117083571Y-105367752D01*
X117083571Y-105367752D02*
X117045476Y-105405847D01*
X117045476Y-105405847D02*
X116969286Y-105443942D01*
X116969286Y-105443942D02*
X116664524Y-105443942D01*
X117883571Y-105824895D02*
X117426428Y-105824895D01*
X117655000Y-105824895D02*
X117655000Y-105024895D01*
X117655000Y-105024895D02*
X117578809Y-105139180D01*
X117578809Y-105139180D02*
X117502619Y-105215371D01*
X117502619Y-105215371D02*
X117426428Y-105253466D01*
X115669895Y-104402381D02*
X115669895Y-104859524D01*
X115669895Y-104630952D02*
X114869895Y-104630952D01*
X114869895Y-104630952D02*
X114984180Y-104707143D01*
X114984180Y-104707143D02*
X115060371Y-104783333D01*
X115060371Y-104783333D02*
X115098466Y-104859524D01*
X114869895Y-103907142D02*
X114869895Y-103830952D01*
X114869895Y-103830952D02*
X114907990Y-103754761D01*
X114907990Y-103754761D02*
X114946085Y-103716666D01*
X114946085Y-103716666D02*
X115022276Y-103678571D01*
X115022276Y-103678571D02*
X115174657Y-103640476D01*
X115174657Y-103640476D02*
X115365133Y-103640476D01*
X115365133Y-103640476D02*
X115517514Y-103678571D01*
X115517514Y-103678571D02*
X115593704Y-103716666D01*
X115593704Y-103716666D02*
X115631800Y-103754761D01*
X115631800Y-103754761D02*
X115669895Y-103830952D01*
X115669895Y-103830952D02*
X115669895Y-103907142D01*
X115669895Y-103907142D02*
X115631800Y-103983333D01*
X115631800Y-103983333D02*
X115593704Y-104021428D01*
X115593704Y-104021428D02*
X115517514Y-104059523D01*
X115517514Y-104059523D02*
X115365133Y-104097619D01*
X115365133Y-104097619D02*
X115174657Y-104097619D01*
X115174657Y-104097619D02*
X115022276Y-104059523D01*
X115022276Y-104059523D02*
X114946085Y-104021428D01*
X114946085Y-104021428D02*
X114907990Y-103983333D01*
X114907990Y-103983333D02*
X114869895Y-103907142D01*
X115669895Y-103297618D02*
X114869895Y-103297618D01*
X115669895Y-102840475D02*
X115212752Y-103183333D01*
X114869895Y-102840475D02*
X115327038Y-103297618D01*
X127785476Y-88314895D02*
X127785476Y-88962514D01*
X127785476Y-88962514D02*
X127823571Y-89038704D01*
X127823571Y-89038704D02*
X127861666Y-89076800D01*
X127861666Y-89076800D02*
X127937857Y-89114895D01*
X127937857Y-89114895D02*
X128090238Y-89114895D01*
X128090238Y-89114895D02*
X128166428Y-89076800D01*
X128166428Y-89076800D02*
X128204523Y-89038704D01*
X128204523Y-89038704D02*
X128242619Y-88962514D01*
X128242619Y-88962514D02*
X128242619Y-88314895D01*
X128966428Y-88581561D02*
X128966428Y-89114895D01*
X128775952Y-88276800D02*
X128585475Y-88848228D01*
X128585475Y-88848228D02*
X129080714Y-88848228D01*
X143654167Y-90234895D02*
X143387500Y-89853942D01*
X143197024Y-90234895D02*
X143197024Y-89434895D01*
X143197024Y-89434895D02*
X143501786Y-89434895D01*
X143501786Y-89434895D02*
X143577976Y-89472990D01*
X143577976Y-89472990D02*
X143616071Y-89511085D01*
X143616071Y-89511085D02*
X143654167Y-89587276D01*
X143654167Y-89587276D02*
X143654167Y-89701561D01*
X143654167Y-89701561D02*
X143616071Y-89777752D01*
X143616071Y-89777752D02*
X143577976Y-89815847D01*
X143577976Y-89815847D02*
X143501786Y-89853942D01*
X143501786Y-89853942D02*
X143197024Y-89853942D01*
X143920833Y-89434895D02*
X144454167Y-89434895D01*
X144454167Y-89434895D02*
X144111309Y-90234895D01*
X144888928Y-89454895D02*
X145384166Y-89454895D01*
X145384166Y-89454895D02*
X145117500Y-89759657D01*
X145117500Y-89759657D02*
X145231785Y-89759657D01*
X145231785Y-89759657D02*
X145307976Y-89797752D01*
X145307976Y-89797752D02*
X145346071Y-89835847D01*
X145346071Y-89835847D02*
X145384166Y-89912038D01*
X145384166Y-89912038D02*
X145384166Y-90102514D01*
X145384166Y-90102514D02*
X145346071Y-90178704D01*
X145346071Y-90178704D02*
X145307976Y-90216800D01*
X145307976Y-90216800D02*
X145231785Y-90254895D01*
X145231785Y-90254895D02*
X145003214Y-90254895D01*
X145003214Y-90254895D02*
X144927023Y-90216800D01*
X144927023Y-90216800D02*
X144888928Y-90178704D01*
X145650833Y-89454895D02*
X146146071Y-89454895D01*
X146146071Y-89454895D02*
X145879405Y-89759657D01*
X145879405Y-89759657D02*
X145993690Y-89759657D01*
X145993690Y-89759657D02*
X146069881Y-89797752D01*
X146069881Y-89797752D02*
X146107976Y-89835847D01*
X146107976Y-89835847D02*
X146146071Y-89912038D01*
X146146071Y-89912038D02*
X146146071Y-90102514D01*
X146146071Y-90102514D02*
X146107976Y-90178704D01*
X146107976Y-90178704D02*
X146069881Y-90216800D01*
X146069881Y-90216800D02*
X145993690Y-90254895D01*
X145993690Y-90254895D02*
X145765119Y-90254895D01*
X145765119Y-90254895D02*
X145688928Y-90216800D01*
X145688928Y-90216800D02*
X145650833Y-90178704D01*
X146641310Y-89454895D02*
X146717500Y-89454895D01*
X146717500Y-89454895D02*
X146793691Y-89492990D01*
X146793691Y-89492990D02*
X146831786Y-89531085D01*
X146831786Y-89531085D02*
X146869881Y-89607276D01*
X146869881Y-89607276D02*
X146907976Y-89759657D01*
X146907976Y-89759657D02*
X146907976Y-89950133D01*
X146907976Y-89950133D02*
X146869881Y-90102514D01*
X146869881Y-90102514D02*
X146831786Y-90178704D01*
X146831786Y-90178704D02*
X146793691Y-90216800D01*
X146793691Y-90216800D02*
X146717500Y-90254895D01*
X146717500Y-90254895D02*
X146641310Y-90254895D01*
X146641310Y-90254895D02*
X146565119Y-90216800D01*
X146565119Y-90216800D02*
X146527024Y-90178704D01*
X146527024Y-90178704D02*
X146488929Y-90102514D01*
X146488929Y-90102514D02*
X146450833Y-89950133D01*
X146450833Y-89950133D02*
X146450833Y-89759657D01*
X146450833Y-89759657D02*
X146488929Y-89607276D01*
X146488929Y-89607276D02*
X146527024Y-89531085D01*
X146527024Y-89531085D02*
X146565119Y-89492990D01*
X146565119Y-89492990D02*
X146641310Y-89454895D01*
X143364524Y-84464895D02*
X143364524Y-83664895D01*
X143364524Y-83664895D02*
X143555000Y-83664895D01*
X143555000Y-83664895D02*
X143669286Y-83702990D01*
X143669286Y-83702990D02*
X143745476Y-83779180D01*
X143745476Y-83779180D02*
X143783571Y-83855371D01*
X143783571Y-83855371D02*
X143821667Y-84007752D01*
X143821667Y-84007752D02*
X143821667Y-84122038D01*
X143821667Y-84122038D02*
X143783571Y-84274419D01*
X143783571Y-84274419D02*
X143745476Y-84350609D01*
X143745476Y-84350609D02*
X143669286Y-84426800D01*
X143669286Y-84426800D02*
X143555000Y-84464895D01*
X143555000Y-84464895D02*
X143364524Y-84464895D01*
X144583571Y-84464895D02*
X144126428Y-84464895D01*
X144355000Y-84464895D02*
X144355000Y-83664895D01*
X144355000Y-83664895D02*
X144278809Y-83779180D01*
X144278809Y-83779180D02*
X144202619Y-83855371D01*
X144202619Y-83855371D02*
X144126428Y-83893466D01*
X145675714Y-84449895D02*
X145294762Y-84449895D01*
X145294762Y-84449895D02*
X145294762Y-83649895D01*
X145942381Y-84030847D02*
X146209047Y-84030847D01*
X146323333Y-84449895D02*
X145942381Y-84449895D01*
X145942381Y-84449895D02*
X145942381Y-83649895D01*
X145942381Y-83649895D02*
X146323333Y-83649895D01*
X146666191Y-84449895D02*
X146666191Y-83649895D01*
X146666191Y-83649895D02*
X146856667Y-83649895D01*
X146856667Y-83649895D02*
X146970953Y-83687990D01*
X146970953Y-83687990D02*
X147047143Y-83764180D01*
X147047143Y-83764180D02*
X147085238Y-83840371D01*
X147085238Y-83840371D02*
X147123334Y-83992752D01*
X147123334Y-83992752D02*
X147123334Y-84107038D01*
X147123334Y-84107038D02*
X147085238Y-84259419D01*
X147085238Y-84259419D02*
X147047143Y-84335609D01*
X147047143Y-84335609D02*
X146970953Y-84411800D01*
X146970953Y-84411800D02*
X146856667Y-84449895D01*
X146856667Y-84449895D02*
X146666191Y-84449895D01*
X138831667Y-93804895D02*
X138565000Y-93423942D01*
X138374524Y-93804895D02*
X138374524Y-93004895D01*
X138374524Y-93004895D02*
X138679286Y-93004895D01*
X138679286Y-93004895D02*
X138755476Y-93042990D01*
X138755476Y-93042990D02*
X138793571Y-93081085D01*
X138793571Y-93081085D02*
X138831667Y-93157276D01*
X138831667Y-93157276D02*
X138831667Y-93271561D01*
X138831667Y-93271561D02*
X138793571Y-93347752D01*
X138793571Y-93347752D02*
X138755476Y-93385847D01*
X138755476Y-93385847D02*
X138679286Y-93423942D01*
X138679286Y-93423942D02*
X138374524Y-93423942D01*
X139517381Y-93271561D02*
X139517381Y-93804895D01*
X139326905Y-92966800D02*
X139136428Y-93538228D01*
X139136428Y-93538228D02*
X139631667Y-93538228D01*
X140463810Y-93271561D02*
X140463810Y-93804895D01*
X140273334Y-92966800D02*
X140082857Y-93538228D01*
X140082857Y-93538228D02*
X140578096Y-93538228D01*
X140882858Y-93728704D02*
X140920953Y-93766800D01*
X140920953Y-93766800D02*
X140882858Y-93804895D01*
X140882858Y-93804895D02*
X140844762Y-93766800D01*
X140844762Y-93766800D02*
X140882858Y-93728704D01*
X140882858Y-93728704D02*
X140882858Y-93804895D01*
X141187619Y-93004895D02*
X141720953Y-93004895D01*
X141720953Y-93004895D02*
X141378095Y-93804895D01*
X142025715Y-93804895D02*
X142025715Y-93004895D01*
X142101905Y-93500133D02*
X142330477Y-93804895D01*
X142330477Y-93271561D02*
X142025715Y-93576323D01*
X152403333Y-95379895D02*
X152403333Y-95951323D01*
X152403333Y-95951323D02*
X152365238Y-96065609D01*
X152365238Y-96065609D02*
X152289047Y-96141800D01*
X152289047Y-96141800D02*
X152174762Y-96179895D01*
X152174762Y-96179895D02*
X152098571Y-96179895D01*
X153203333Y-96179895D02*
X152746190Y-96179895D01*
X152974762Y-96179895D02*
X152974762Y-95379895D01*
X152974762Y-95379895D02*
X152898571Y-95494180D01*
X152898571Y-95494180D02*
X152822381Y-95570371D01*
X152822381Y-95570371D02*
X152746190Y-95608466D01*
X138831667Y-97204895D02*
X138565000Y-96823942D01*
X138374524Y-97204895D02*
X138374524Y-96404895D01*
X138374524Y-96404895D02*
X138679286Y-96404895D01*
X138679286Y-96404895D02*
X138755476Y-96442990D01*
X138755476Y-96442990D02*
X138793571Y-96481085D01*
X138793571Y-96481085D02*
X138831667Y-96557276D01*
X138831667Y-96557276D02*
X138831667Y-96671561D01*
X138831667Y-96671561D02*
X138793571Y-96747752D01*
X138793571Y-96747752D02*
X138755476Y-96785847D01*
X138755476Y-96785847D02*
X138679286Y-96823942D01*
X138679286Y-96823942D02*
X138374524Y-96823942D01*
X139098333Y-96404895D02*
X139593571Y-96404895D01*
X139593571Y-96404895D02*
X139326905Y-96709657D01*
X139326905Y-96709657D02*
X139441190Y-96709657D01*
X139441190Y-96709657D02*
X139517381Y-96747752D01*
X139517381Y-96747752D02*
X139555476Y-96785847D01*
X139555476Y-96785847D02*
X139593571Y-96862038D01*
X139593571Y-96862038D02*
X139593571Y-97052514D01*
X139593571Y-97052514D02*
X139555476Y-97128704D01*
X139555476Y-97128704D02*
X139517381Y-97166800D01*
X139517381Y-97166800D02*
X139441190Y-97204895D01*
X139441190Y-97204895D02*
X139212619Y-97204895D01*
X139212619Y-97204895D02*
X139136428Y-97166800D01*
X139136428Y-97166800D02*
X139098333Y-97128704D01*
X140463810Y-96671561D02*
X140463810Y-97204895D01*
X140273334Y-96366800D02*
X140082857Y-96938228D01*
X140082857Y-96938228D02*
X140578096Y-96938228D01*
X140882858Y-97128704D02*
X140920953Y-97166800D01*
X140920953Y-97166800D02*
X140882858Y-97204895D01*
X140882858Y-97204895D02*
X140844762Y-97166800D01*
X140844762Y-97166800D02*
X140882858Y-97128704D01*
X140882858Y-97128704D02*
X140882858Y-97204895D01*
X141187619Y-96404895D02*
X141720953Y-96404895D01*
X141720953Y-96404895D02*
X141378095Y-97204895D01*
X142025715Y-97204895D02*
X142025715Y-96404895D01*
X142101905Y-96900133D02*
X142330477Y-97204895D01*
X142330477Y-96671561D02*
X142025715Y-96976323D01*
X138831667Y-90194895D02*
X138565000Y-89813942D01*
X138374524Y-90194895D02*
X138374524Y-89394895D01*
X138374524Y-89394895D02*
X138679286Y-89394895D01*
X138679286Y-89394895D02*
X138755476Y-89432990D01*
X138755476Y-89432990D02*
X138793571Y-89471085D01*
X138793571Y-89471085D02*
X138831667Y-89547276D01*
X138831667Y-89547276D02*
X138831667Y-89661561D01*
X138831667Y-89661561D02*
X138793571Y-89737752D01*
X138793571Y-89737752D02*
X138755476Y-89775847D01*
X138755476Y-89775847D02*
X138679286Y-89813942D01*
X138679286Y-89813942D02*
X138374524Y-89813942D01*
X139555476Y-89394895D02*
X139174524Y-89394895D01*
X139174524Y-89394895D02*
X139136428Y-89775847D01*
X139136428Y-89775847D02*
X139174524Y-89737752D01*
X139174524Y-89737752D02*
X139250714Y-89699657D01*
X139250714Y-89699657D02*
X139441190Y-89699657D01*
X139441190Y-89699657D02*
X139517381Y-89737752D01*
X139517381Y-89737752D02*
X139555476Y-89775847D01*
X139555476Y-89775847D02*
X139593571Y-89852038D01*
X139593571Y-89852038D02*
X139593571Y-90042514D01*
X139593571Y-90042514D02*
X139555476Y-90118704D01*
X139555476Y-90118704D02*
X139517381Y-90156800D01*
X139517381Y-90156800D02*
X139441190Y-90194895D01*
X139441190Y-90194895D02*
X139250714Y-90194895D01*
X139250714Y-90194895D02*
X139174524Y-90156800D01*
X139174524Y-90156800D02*
X139136428Y-90118704D01*
X140311428Y-89434895D02*
X140806666Y-89434895D01*
X140806666Y-89434895D02*
X140540000Y-89739657D01*
X140540000Y-89739657D02*
X140654285Y-89739657D01*
X140654285Y-89739657D02*
X140730476Y-89777752D01*
X140730476Y-89777752D02*
X140768571Y-89815847D01*
X140768571Y-89815847D02*
X140806666Y-89892038D01*
X140806666Y-89892038D02*
X140806666Y-90082514D01*
X140806666Y-90082514D02*
X140768571Y-90158704D01*
X140768571Y-90158704D02*
X140730476Y-90196800D01*
X140730476Y-90196800D02*
X140654285Y-90234895D01*
X140654285Y-90234895D02*
X140425714Y-90234895D01*
X140425714Y-90234895D02*
X140349523Y-90196800D01*
X140349523Y-90196800D02*
X140311428Y-90158704D01*
X141073333Y-89434895D02*
X141568571Y-89434895D01*
X141568571Y-89434895D02*
X141301905Y-89739657D01*
X141301905Y-89739657D02*
X141416190Y-89739657D01*
X141416190Y-89739657D02*
X141492381Y-89777752D01*
X141492381Y-89777752D02*
X141530476Y-89815847D01*
X141530476Y-89815847D02*
X141568571Y-89892038D01*
X141568571Y-89892038D02*
X141568571Y-90082514D01*
X141568571Y-90082514D02*
X141530476Y-90158704D01*
X141530476Y-90158704D02*
X141492381Y-90196800D01*
X141492381Y-90196800D02*
X141416190Y-90234895D01*
X141416190Y-90234895D02*
X141187619Y-90234895D01*
X141187619Y-90234895D02*
X141111428Y-90196800D01*
X141111428Y-90196800D02*
X141073333Y-90158704D01*
X142063810Y-89434895D02*
X142140000Y-89434895D01*
X142140000Y-89434895D02*
X142216191Y-89472990D01*
X142216191Y-89472990D02*
X142254286Y-89511085D01*
X142254286Y-89511085D02*
X142292381Y-89587276D01*
X142292381Y-89587276D02*
X142330476Y-89739657D01*
X142330476Y-89739657D02*
X142330476Y-89930133D01*
X142330476Y-89930133D02*
X142292381Y-90082514D01*
X142292381Y-90082514D02*
X142254286Y-90158704D01*
X142254286Y-90158704D02*
X142216191Y-90196800D01*
X142216191Y-90196800D02*
X142140000Y-90234895D01*
X142140000Y-90234895D02*
X142063810Y-90234895D01*
X142063810Y-90234895D02*
X141987619Y-90196800D01*
X141987619Y-90196800D02*
X141949524Y-90158704D01*
X141949524Y-90158704D02*
X141911429Y-90082514D01*
X141911429Y-90082514D02*
X141873333Y-89930133D01*
X141873333Y-89930133D02*
X141873333Y-89739657D01*
X141873333Y-89739657D02*
X141911429Y-89587276D01*
X141911429Y-89587276D02*
X141949524Y-89511085D01*
X141949524Y-89511085D02*
X141987619Y-89472990D01*
X141987619Y-89472990D02*
X142063810Y-89434895D01*
X115105476Y-89779895D02*
X115105476Y-90427514D01*
X115105476Y-90427514D02*
X115143571Y-90503704D01*
X115143571Y-90503704D02*
X115181666Y-90541800D01*
X115181666Y-90541800D02*
X115257857Y-90579895D01*
X115257857Y-90579895D02*
X115410238Y-90579895D01*
X115410238Y-90579895D02*
X115486428Y-90541800D01*
X115486428Y-90541800D02*
X115524523Y-90503704D01*
X115524523Y-90503704D02*
X115562619Y-90427514D01*
X115562619Y-90427514D02*
X115562619Y-89779895D01*
X115905475Y-89856085D02*
X115943571Y-89817990D01*
X115943571Y-89817990D02*
X116019761Y-89779895D01*
X116019761Y-89779895D02*
X116210237Y-89779895D01*
X116210237Y-89779895D02*
X116286428Y-89817990D01*
X116286428Y-89817990D02*
X116324523Y-89856085D01*
X116324523Y-89856085D02*
X116362618Y-89932276D01*
X116362618Y-89932276D02*
X116362618Y-90008466D01*
X116362618Y-90008466D02*
X116324523Y-90122752D01*
X116324523Y-90122752D02*
X115867380Y-90579895D01*
X115867380Y-90579895D02*
X116362618Y-90579895D01*
X138331667Y-103673704D02*
X138293571Y-103711800D01*
X138293571Y-103711800D02*
X138179286Y-103749895D01*
X138179286Y-103749895D02*
X138103095Y-103749895D01*
X138103095Y-103749895D02*
X137988809Y-103711800D01*
X137988809Y-103711800D02*
X137912619Y-103635609D01*
X137912619Y-103635609D02*
X137874524Y-103559419D01*
X137874524Y-103559419D02*
X137836428Y-103407038D01*
X137836428Y-103407038D02*
X137836428Y-103292752D01*
X137836428Y-103292752D02*
X137874524Y-103140371D01*
X137874524Y-103140371D02*
X137912619Y-103064180D01*
X137912619Y-103064180D02*
X137988809Y-102987990D01*
X137988809Y-102987990D02*
X138103095Y-102949895D01*
X138103095Y-102949895D02*
X138179286Y-102949895D01*
X138179286Y-102949895D02*
X138293571Y-102987990D01*
X138293571Y-102987990D02*
X138331667Y-103026085D01*
X138636428Y-103026085D02*
X138674524Y-102987990D01*
X138674524Y-102987990D02*
X138750714Y-102949895D01*
X138750714Y-102949895D02*
X138941190Y-102949895D01*
X138941190Y-102949895D02*
X139017381Y-102987990D01*
X139017381Y-102987990D02*
X139055476Y-103026085D01*
X139055476Y-103026085D02*
X139093571Y-103102276D01*
X139093571Y-103102276D02*
X139093571Y-103178466D01*
X139093571Y-103178466D02*
X139055476Y-103292752D01*
X139055476Y-103292752D02*
X138598333Y-103749895D01*
X138598333Y-103749895D02*
X139093571Y-103749895D01*
X139495713Y-102996085D02*
X139533809Y-102957990D01*
X139533809Y-102957990D02*
X139609999Y-102919895D01*
X139609999Y-102919895D02*
X139800475Y-102919895D01*
X139800475Y-102919895D02*
X139876666Y-102957990D01*
X139876666Y-102957990D02*
X139914761Y-102996085D01*
X139914761Y-102996085D02*
X139952856Y-103072276D01*
X139952856Y-103072276D02*
X139952856Y-103148466D01*
X139952856Y-103148466D02*
X139914761Y-103262752D01*
X139914761Y-103262752D02*
X139457618Y-103719895D01*
X139457618Y-103719895D02*
X139952856Y-103719895D01*
X140257618Y-102996085D02*
X140295714Y-102957990D01*
X140295714Y-102957990D02*
X140371904Y-102919895D01*
X140371904Y-102919895D02*
X140562380Y-102919895D01*
X140562380Y-102919895D02*
X140638571Y-102957990D01*
X140638571Y-102957990D02*
X140676666Y-102996085D01*
X140676666Y-102996085D02*
X140714761Y-103072276D01*
X140714761Y-103072276D02*
X140714761Y-103148466D01*
X140714761Y-103148466D02*
X140676666Y-103262752D01*
X140676666Y-103262752D02*
X140219523Y-103719895D01*
X140219523Y-103719895D02*
X140714761Y-103719895D01*
X141057619Y-103186561D02*
X141057619Y-103986561D01*
X141057619Y-103224657D02*
X141133809Y-103186561D01*
X141133809Y-103186561D02*
X141286190Y-103186561D01*
X141286190Y-103186561D02*
X141362381Y-103224657D01*
X141362381Y-103224657D02*
X141400476Y-103262752D01*
X141400476Y-103262752D02*
X141438571Y-103338942D01*
X141438571Y-103338942D02*
X141438571Y-103567514D01*
X141438571Y-103567514D02*
X141400476Y-103643704D01*
X141400476Y-103643704D02*
X141362381Y-103681800D01*
X141362381Y-103681800D02*
X141286190Y-103719895D01*
X141286190Y-103719895D02*
X141133809Y-103719895D01*
X141133809Y-103719895D02*
X141057619Y-103681800D01*
X142048095Y-103300847D02*
X141781429Y-103300847D01*
X141781429Y-103719895D02*
X141781429Y-102919895D01*
X141781429Y-102919895D02*
X142162381Y-102919895D01*
X122911667Y-97098704D02*
X122873571Y-97136800D01*
X122873571Y-97136800D02*
X122759286Y-97174895D01*
X122759286Y-97174895D02*
X122683095Y-97174895D01*
X122683095Y-97174895D02*
X122568809Y-97136800D01*
X122568809Y-97136800D02*
X122492619Y-97060609D01*
X122492619Y-97060609D02*
X122454524Y-96984419D01*
X122454524Y-96984419D02*
X122416428Y-96832038D01*
X122416428Y-96832038D02*
X122416428Y-96717752D01*
X122416428Y-96717752D02*
X122454524Y-96565371D01*
X122454524Y-96565371D02*
X122492619Y-96489180D01*
X122492619Y-96489180D02*
X122568809Y-96412990D01*
X122568809Y-96412990D02*
X122683095Y-96374895D01*
X122683095Y-96374895D02*
X122759286Y-96374895D01*
X122759286Y-96374895D02*
X122873571Y-96412990D01*
X122873571Y-96412990D02*
X122911667Y-96451085D01*
X123178333Y-96374895D02*
X123673571Y-96374895D01*
X123673571Y-96374895D02*
X123406905Y-96679657D01*
X123406905Y-96679657D02*
X123521190Y-96679657D01*
X123521190Y-96679657D02*
X123597381Y-96717752D01*
X123597381Y-96717752D02*
X123635476Y-96755847D01*
X123635476Y-96755847D02*
X123673571Y-96832038D01*
X123673571Y-96832038D02*
X123673571Y-97022514D01*
X123673571Y-97022514D02*
X123635476Y-97098704D01*
X123635476Y-97098704D02*
X123597381Y-97136800D01*
X123597381Y-97136800D02*
X123521190Y-97174895D01*
X123521190Y-97174895D02*
X123292619Y-97174895D01*
X123292619Y-97174895D02*
X123216428Y-97136800D01*
X123216428Y-97136800D02*
X123178333Y-97098704D01*
X124425713Y-95461085D02*
X124463809Y-95422990D01*
X124463809Y-95422990D02*
X124539999Y-95384895D01*
X124539999Y-95384895D02*
X124730475Y-95384895D01*
X124730475Y-95384895D02*
X124806666Y-95422990D01*
X124806666Y-95422990D02*
X124844761Y-95461085D01*
X124844761Y-95461085D02*
X124882856Y-95537276D01*
X124882856Y-95537276D02*
X124882856Y-95613466D01*
X124882856Y-95613466D02*
X124844761Y-95727752D01*
X124844761Y-95727752D02*
X124387618Y-96184895D01*
X124387618Y-96184895D02*
X124882856Y-96184895D01*
X125187618Y-95461085D02*
X125225714Y-95422990D01*
X125225714Y-95422990D02*
X125301904Y-95384895D01*
X125301904Y-95384895D02*
X125492380Y-95384895D01*
X125492380Y-95384895D02*
X125568571Y-95422990D01*
X125568571Y-95422990D02*
X125606666Y-95461085D01*
X125606666Y-95461085D02*
X125644761Y-95537276D01*
X125644761Y-95537276D02*
X125644761Y-95613466D01*
X125644761Y-95613466D02*
X125606666Y-95727752D01*
X125606666Y-95727752D02*
X125149523Y-96184895D01*
X125149523Y-96184895D02*
X125644761Y-96184895D01*
X125987619Y-95651561D02*
X125987619Y-96451561D01*
X125987619Y-95689657D02*
X126063809Y-95651561D01*
X126063809Y-95651561D02*
X126216190Y-95651561D01*
X126216190Y-95651561D02*
X126292381Y-95689657D01*
X126292381Y-95689657D02*
X126330476Y-95727752D01*
X126330476Y-95727752D02*
X126368571Y-95803942D01*
X126368571Y-95803942D02*
X126368571Y-96032514D01*
X126368571Y-96032514D02*
X126330476Y-96108704D01*
X126330476Y-96108704D02*
X126292381Y-96146800D01*
X126292381Y-96146800D02*
X126216190Y-96184895D01*
X126216190Y-96184895D02*
X126063809Y-96184895D01*
X126063809Y-96184895D02*
X125987619Y-96146800D01*
X126978095Y-95765847D02*
X126711429Y-95765847D01*
X126711429Y-96184895D02*
X126711429Y-95384895D01*
X126711429Y-95384895D02*
X127092381Y-95384895D01*
X138884524Y-84464895D02*
X138884524Y-83664895D01*
X138884524Y-83664895D02*
X139075000Y-83664895D01*
X139075000Y-83664895D02*
X139189286Y-83702990D01*
X139189286Y-83702990D02*
X139265476Y-83779180D01*
X139265476Y-83779180D02*
X139303571Y-83855371D01*
X139303571Y-83855371D02*
X139341667Y-84007752D01*
X139341667Y-84007752D02*
X139341667Y-84122038D01*
X139341667Y-84122038D02*
X139303571Y-84274419D01*
X139303571Y-84274419D02*
X139265476Y-84350609D01*
X139265476Y-84350609D02*
X139189286Y-84426800D01*
X139189286Y-84426800D02*
X139075000Y-84464895D01*
X139075000Y-84464895D02*
X138884524Y-84464895D01*
X139646428Y-83741085D02*
X139684524Y-83702990D01*
X139684524Y-83702990D02*
X139760714Y-83664895D01*
X139760714Y-83664895D02*
X139951190Y-83664895D01*
X139951190Y-83664895D02*
X140027381Y-83702990D01*
X140027381Y-83702990D02*
X140065476Y-83741085D01*
X140065476Y-83741085D02*
X140103571Y-83817276D01*
X140103571Y-83817276D02*
X140103571Y-83893466D01*
X140103571Y-83893466D02*
X140065476Y-84007752D01*
X140065476Y-84007752D02*
X139608333Y-84464895D01*
X139608333Y-84464895D02*
X140103571Y-84464895D01*
X141495714Y-84464895D02*
X141114762Y-84464895D01*
X141114762Y-84464895D02*
X141114762Y-83664895D01*
X141762381Y-84045847D02*
X142029047Y-84045847D01*
X142143333Y-84464895D02*
X141762381Y-84464895D01*
X141762381Y-84464895D02*
X141762381Y-83664895D01*
X141762381Y-83664895D02*
X142143333Y-83664895D01*
X142486191Y-84464895D02*
X142486191Y-83664895D01*
X142486191Y-83664895D02*
X142676667Y-83664895D01*
X142676667Y-83664895D02*
X142790953Y-83702990D01*
X142790953Y-83702990D02*
X142867143Y-83779180D01*
X142867143Y-83779180D02*
X142905238Y-83855371D01*
X142905238Y-83855371D02*
X142943334Y-84007752D01*
X142943334Y-84007752D02*
X142943334Y-84122038D01*
X142943334Y-84122038D02*
X142905238Y-84274419D01*
X142905238Y-84274419D02*
X142867143Y-84350609D01*
X142867143Y-84350609D02*
X142790953Y-84426800D01*
X142790953Y-84426800D02*
X142676667Y-84464895D01*
X142676667Y-84464895D02*
X142486191Y-84464895D01*
X120239895Y-103968332D02*
X119858942Y-104234999D01*
X120239895Y-104425475D02*
X119439895Y-104425475D01*
X119439895Y-104425475D02*
X119439895Y-104120713D01*
X119439895Y-104120713D02*
X119477990Y-104044523D01*
X119477990Y-104044523D02*
X119516085Y-104006428D01*
X119516085Y-104006428D02*
X119592276Y-103968332D01*
X119592276Y-103968332D02*
X119706561Y-103968332D01*
X119706561Y-103968332D02*
X119782752Y-104006428D01*
X119782752Y-104006428D02*
X119820847Y-104044523D01*
X119820847Y-104044523D02*
X119858942Y-104120713D01*
X119858942Y-104120713D02*
X119858942Y-104425475D01*
X119516085Y-103663571D02*
X119477990Y-103625475D01*
X119477990Y-103625475D02*
X119439895Y-103549285D01*
X119439895Y-103549285D02*
X119439895Y-103358809D01*
X119439895Y-103358809D02*
X119477990Y-103282618D01*
X119477990Y-103282618D02*
X119516085Y-103244523D01*
X119516085Y-103244523D02*
X119592276Y-103206428D01*
X119592276Y-103206428D02*
X119668466Y-103206428D01*
X119668466Y-103206428D02*
X119782752Y-103244523D01*
X119782752Y-103244523D02*
X120239895Y-103701666D01*
X120239895Y-103701666D02*
X120239895Y-103206428D01*
X124254895Y-104431190D02*
X124254895Y-104888333D01*
X124254895Y-104659761D02*
X123454895Y-104659761D01*
X123454895Y-104659761D02*
X123569180Y-104735952D01*
X123569180Y-104735952D02*
X123645371Y-104812142D01*
X123645371Y-104812142D02*
X123683466Y-104888333D01*
X123454895Y-103935951D02*
X123454895Y-103859761D01*
X123454895Y-103859761D02*
X123492990Y-103783570D01*
X123492990Y-103783570D02*
X123531085Y-103745475D01*
X123531085Y-103745475D02*
X123607276Y-103707380D01*
X123607276Y-103707380D02*
X123759657Y-103669285D01*
X123759657Y-103669285D02*
X123950133Y-103669285D01*
X123950133Y-103669285D02*
X124102514Y-103707380D01*
X124102514Y-103707380D02*
X124178704Y-103745475D01*
X124178704Y-103745475D02*
X124216800Y-103783570D01*
X124216800Y-103783570D02*
X124254895Y-103859761D01*
X124254895Y-103859761D02*
X124254895Y-103935951D01*
X124254895Y-103935951D02*
X124216800Y-104012142D01*
X124216800Y-104012142D02*
X124178704Y-104050237D01*
X124178704Y-104050237D02*
X124102514Y-104088332D01*
X124102514Y-104088332D02*
X123950133Y-104126428D01*
X123950133Y-104126428D02*
X123759657Y-104126428D01*
X123759657Y-104126428D02*
X123607276Y-104088332D01*
X123607276Y-104088332D02*
X123531085Y-104050237D01*
X123531085Y-104050237D02*
X123492990Y-104012142D01*
X123492990Y-104012142D02*
X123454895Y-103935951D01*
X124254895Y-103326427D02*
X123454895Y-103326427D01*
X123950133Y-103250237D02*
X124254895Y-103021665D01*
X123721561Y-103021665D02*
X124026323Y-103326427D01*
X137879895Y-107056666D02*
X138451323Y-107056666D01*
X138451323Y-107056666D02*
X138565609Y-107094761D01*
X138565609Y-107094761D02*
X138641800Y-107170952D01*
X138641800Y-107170952D02*
X138679895Y-107285237D01*
X138679895Y-107285237D02*
X138679895Y-107361428D01*
X137879895Y-106751904D02*
X137879895Y-106256666D01*
X137879895Y-106256666D02*
X138184657Y-106523332D01*
X138184657Y-106523332D02*
X138184657Y-106409047D01*
X138184657Y-106409047D02*
X138222752Y-106332856D01*
X138222752Y-106332856D02*
X138260847Y-106294761D01*
X138260847Y-106294761D02*
X138337038Y-106256666D01*
X138337038Y-106256666D02*
X138527514Y-106256666D01*
X138527514Y-106256666D02*
X138603704Y-106294761D01*
X138603704Y-106294761D02*
X138641800Y-106332856D01*
X138641800Y-106332856D02*
X138679895Y-106409047D01*
X138679895Y-106409047D02*
X138679895Y-106637618D01*
X138679895Y-106637618D02*
X138641800Y-106713809D01*
X138641800Y-106713809D02*
X138603704Y-106751904D01*
X125209048Y-103248942D02*
X125209048Y-103629895D01*
X124942381Y-102829895D02*
X125209048Y-103248942D01*
X125209048Y-103248942D02*
X125475714Y-102829895D01*
X125704285Y-102906085D02*
X125742381Y-102867990D01*
X125742381Y-102867990D02*
X125818571Y-102829895D01*
X125818571Y-102829895D02*
X126009047Y-102829895D01*
X126009047Y-102829895D02*
X126085238Y-102867990D01*
X126085238Y-102867990D02*
X126123333Y-102906085D01*
X126123333Y-102906085D02*
X126161428Y-102982276D01*
X126161428Y-102982276D02*
X126161428Y-103058466D01*
X126161428Y-103058466D02*
X126123333Y-103172752D01*
X126123333Y-103172752D02*
X125666190Y-103629895D01*
X125666190Y-103629895D02*
X126161428Y-103629895D01*
X127147856Y-103684895D02*
X126690713Y-103684895D01*
X126919285Y-103684895D02*
X126919285Y-102884895D01*
X126919285Y-102884895D02*
X126843094Y-102999180D01*
X126843094Y-102999180D02*
X126766904Y-103075371D01*
X126766904Y-103075371D02*
X126690713Y-103113466D01*
X127833571Y-102884895D02*
X127681190Y-102884895D01*
X127681190Y-102884895D02*
X127604999Y-102922990D01*
X127604999Y-102922990D02*
X127566904Y-102961085D01*
X127566904Y-102961085D02*
X127490714Y-103075371D01*
X127490714Y-103075371D02*
X127452618Y-103227752D01*
X127452618Y-103227752D02*
X127452618Y-103532514D01*
X127452618Y-103532514D02*
X127490714Y-103608704D01*
X127490714Y-103608704D02*
X127528809Y-103646800D01*
X127528809Y-103646800D02*
X127604999Y-103684895D01*
X127604999Y-103684895D02*
X127757380Y-103684895D01*
X127757380Y-103684895D02*
X127833571Y-103646800D01*
X127833571Y-103646800D02*
X127871666Y-103608704D01*
X127871666Y-103608704D02*
X127909761Y-103532514D01*
X127909761Y-103532514D02*
X127909761Y-103342038D01*
X127909761Y-103342038D02*
X127871666Y-103265847D01*
X127871666Y-103265847D02*
X127833571Y-103227752D01*
X127833571Y-103227752D02*
X127757380Y-103189657D01*
X127757380Y-103189657D02*
X127604999Y-103189657D01*
X127604999Y-103189657D02*
X127528809Y-103227752D01*
X127528809Y-103227752D02*
X127490714Y-103265847D01*
X127490714Y-103265847D02*
X127452618Y-103342038D01*
X128862143Y-103684895D02*
X128862143Y-102884895D01*
X128862143Y-102884895D02*
X129128809Y-103456323D01*
X129128809Y-103456323D02*
X129395476Y-102884895D01*
X129395476Y-102884895D02*
X129395476Y-103684895D01*
X129776429Y-103684895D02*
X129776429Y-102884895D01*
X129776429Y-103265847D02*
X130233572Y-103265847D01*
X130233572Y-103684895D02*
X130233572Y-102884895D01*
X130538333Y-103151561D02*
X130957381Y-103151561D01*
X130957381Y-103151561D02*
X130538333Y-103684895D01*
X130538333Y-103684895D02*
X130957381Y-103684895D01*
X111834895Y-107411666D02*
X112406323Y-107411666D01*
X112406323Y-107411666D02*
X112520609Y-107449761D01*
X112520609Y-107449761D02*
X112596800Y-107525952D01*
X112596800Y-107525952D02*
X112634895Y-107640237D01*
X112634895Y-107640237D02*
X112634895Y-107716428D01*
X111911085Y-107068809D02*
X111872990Y-107030713D01*
X111872990Y-107030713D02*
X111834895Y-106954523D01*
X111834895Y-106954523D02*
X111834895Y-106764047D01*
X111834895Y-106764047D02*
X111872990Y-106687856D01*
X111872990Y-106687856D02*
X111911085Y-106649761D01*
X111911085Y-106649761D02*
X111987276Y-106611666D01*
X111987276Y-106611666D02*
X112063466Y-106611666D01*
X112063466Y-106611666D02*
X112177752Y-106649761D01*
X112177752Y-106649761D02*
X112634895Y-107106904D01*
X112634895Y-107106904D02*
X112634895Y-106611666D01*
X147123333Y-85204895D02*
X147123333Y-85776323D01*
X147123333Y-85776323D02*
X147085238Y-85890609D01*
X147085238Y-85890609D02*
X147009047Y-85966800D01*
X147009047Y-85966800D02*
X146894762Y-86004895D01*
X146894762Y-86004895D02*
X146818571Y-86004895D01*
X147847143Y-85471561D02*
X147847143Y-86004895D01*
X147656667Y-85166800D02*
X147466190Y-85738228D01*
X147466190Y-85738228D02*
X147961429Y-85738228D01*
D12*
%TO.C,C1*%
X129853748Y-86345000D02*
X130376252Y-86345000D01*
X129853748Y-84875000D02*
X130376252Y-84875000D01*
%TO.C,C5*%
X134926252Y-86345000D02*
X134403748Y-86345000D01*
X134926252Y-84875000D02*
X134403748Y-84875000D01*
%TO.C,R6*%
X144697936Y-91950000D02*
X145152064Y-91950000D01*
X144697936Y-93420000D02*
X145152064Y-93420000D01*
%TO.C,Y1*%
X110665000Y-103347500D02*
X114385000Y-103347500D01*
X114385000Y-103347500D02*
X114385000Y-97477500D01*
X110665000Y-97477500D02*
X110665000Y-103347500D01*
%TO.C,U1*%
X116720000Y-84285000D02*
X116720000Y-84555000D01*
X116720000Y-89805000D02*
X116720000Y-89535000D01*
X119480000Y-84285000D02*
X116720000Y-84285000D01*
X119480000Y-84285000D02*
X122240000Y-84285000D01*
X119480000Y-89805000D02*
X116720000Y-89805000D01*
X119480000Y-89805000D02*
X122240000Y-89805000D01*
X122240000Y-84285000D02*
X122240000Y-84555000D01*
X122240000Y-89805000D02*
X122240000Y-89535000D01*
X115955000Y-84555000D02*
X115715000Y-84225000D01*
X116195000Y-84225000D01*
X115955000Y-84555000D01*
G36*
X115955000Y-84555000D02*
G01*
X115715000Y-84225000D01*
X116195000Y-84225000D01*
X115955000Y-84555000D01*
G37*
%TO.C,BT1*%
X111590000Y-90910000D02*
X111590000Y-88260000D01*
X114350000Y-88260000D02*
X111590000Y-88260000D01*
X114350000Y-90910000D02*
X111590000Y-90910000D01*
X114350000Y-90910000D02*
X114350000Y-88260000D01*
X114350000Y-92180000D02*
X114350000Y-93560000D01*
X114350000Y-93560000D02*
X112970000Y-93560000D01*
D13*
%TO.C,U3*%
X117090000Y-102445000D02*
X121090000Y-102445000D01*
X117090000Y-97405000D02*
X121090000Y-97405000D01*
D14*
X114745000Y-97430000D02*
G75*
G02*
X114545000Y-97430000I-100000J0D01*
G01*
X114545000Y-97430000D02*
G75*
G02*
X114745000Y-97430000I100000J0D01*
G01*
D12*
%TO.C,C4*%
X140168748Y-98450000D02*
X140691252Y-98450000D01*
X140168748Y-99920000D02*
X140691252Y-99920000D01*
%TO.C,R1*%
X117892064Y-103170000D02*
X117437936Y-103170000D01*
X117892064Y-104640000D02*
X117437936Y-104640000D01*
D13*
%TO.C,U4*%
X128845000Y-89355000D02*
X128845000Y-89460000D01*
X128845000Y-96355000D02*
X128845000Y-96250000D01*
X135845000Y-89355000D02*
X135845000Y-89460000D01*
X135845000Y-96355000D02*
X135845000Y-96250000D01*
X128845000Y-89355000D02*
X128950000Y-89355000D01*
X128845000Y-96355000D02*
X128950000Y-96355000D01*
X135845000Y-89355000D02*
X135740000Y-89355000D01*
X135845000Y-96355000D02*
X135740000Y-96355000D01*
D14*
X126605000Y-90055000D02*
G75*
G02*
X126405000Y-90055000I-100000J0D01*
G01*
X126405000Y-90055000D02*
G75*
G02*
X126605000Y-90055000I100000J0D01*
G01*
D12*
%TO.C,R7*%
X145152064Y-88950000D02*
X144697936Y-88950000D01*
X145152064Y-87480000D02*
X144697936Y-87480000D01*
%TO.C,D1*%
X145925000Y-84635000D02*
X143240000Y-84635000D01*
X143240000Y-86555000D02*
X145925000Y-86555000D01*
X143240000Y-84635000D02*
X143240000Y-86555000D01*
%TO.C,R4*%
X140739564Y-92760000D02*
X140285436Y-92760000D01*
X140739564Y-91290000D02*
X140285436Y-91290000D01*
%TO.C,J1*%
X149185000Y-95125000D02*
X150565000Y-95125000D01*
X149185000Y-96505000D02*
X149185000Y-95125000D01*
X149185000Y-97775000D02*
X149185000Y-105505000D01*
X149185000Y-97775000D02*
X151945000Y-97775000D01*
X149185000Y-105505000D02*
X151945000Y-105505000D01*
X151945000Y-97775000D02*
X151945000Y-105505000D01*
%TO.C,R3*%
X140739564Y-94600000D02*
X140285436Y-94600000D01*
X140739564Y-96070000D02*
X140285436Y-96070000D01*
%TO.C,R5*%
X140739564Y-87600000D02*
X140285436Y-87600000D01*
X140739564Y-89070000D02*
X140285436Y-89070000D01*
%TO.C,U2*%
X115955000Y-91240000D02*
X115715000Y-90910000D01*
X116195000Y-90910000D01*
X115955000Y-91240000D01*
G36*
X115955000Y-91240000D02*
G01*
X115715000Y-90910000D01*
X116195000Y-90910000D01*
X115955000Y-91240000D01*
G37*
X122240000Y-96490000D02*
X122240000Y-96220000D01*
X122240000Y-90970000D02*
X122240000Y-91240000D01*
X119480000Y-96490000D02*
X122240000Y-96490000D01*
X119480000Y-96490000D02*
X116720000Y-96490000D01*
X119480000Y-90970000D02*
X122240000Y-90970000D01*
X119480000Y-90970000D02*
X116720000Y-90970000D01*
X116720000Y-96490000D02*
X116720000Y-96220000D01*
X116720000Y-90970000D02*
X116720000Y-91240000D01*
%TO.C,C2*%
X140691252Y-101065000D02*
X140168748Y-101065000D01*
X140691252Y-102535000D02*
X140168748Y-102535000D01*
%TO.C,C3*%
X125013748Y-96790000D02*
X125536252Y-96790000D01*
X125013748Y-98260000D02*
X125536252Y-98260000D01*
%TO.C,D2*%
X141470000Y-84635000D02*
X138785000Y-84635000D01*
X138785000Y-86555000D02*
X141470000Y-86555000D01*
X138785000Y-84635000D02*
X138785000Y-86555000D01*
%TO.C,R2*%
X121577936Y-104610000D02*
X122032064Y-104610000D01*
X121577936Y-103140000D02*
X122032064Y-103140000D01*
%TO.C,J3*%
X141380000Y-106350000D02*
X149110000Y-106350000D01*
X149110000Y-109110000D02*
X149110000Y-106350000D01*
X141380000Y-109110000D02*
X141380000Y-106350000D01*
X141380000Y-109110000D02*
X149110000Y-109110000D01*
X140110000Y-109110000D02*
X138730000Y-109110000D01*
X138730000Y-109110000D02*
X138730000Y-107730000D01*
%TO.C,Y2*%
X130072500Y-102585000D02*
X130072500Y-98865000D01*
X130072500Y-98865000D02*
X124202500Y-98865000D01*
X124202500Y-102585000D02*
X130072500Y-102585000D01*
%TO.C,J2*%
X114505000Y-109110000D02*
X114505000Y-107730000D01*
X115885000Y-109110000D02*
X114505000Y-109110000D01*
X117155000Y-109110000D02*
X137585000Y-109110000D01*
X117155000Y-109110000D02*
X117155000Y-106350000D01*
X137585000Y-109110000D02*
X137585000Y-106350000D01*
X117155000Y-106350000D02*
X137585000Y-106350000D01*
%TO.C,J4*%
X147055000Y-86240000D02*
X148435000Y-86240000D01*
X147055000Y-87620000D02*
X147055000Y-86240000D01*
X147055000Y-88890000D02*
X147055000Y-94080000D01*
X147055000Y-88890000D02*
X149705000Y-88890000D01*
X147055000Y-94080000D02*
X152355000Y-94080000D01*
X149705000Y-86240000D02*
X152355000Y-86240000D01*
X149705000Y-88890000D02*
X149705000Y-86240000D01*
X152355000Y-86240000D02*
X152355000Y-94080000D01*
%TD*%
M02*
