%TF.GenerationSoftware,KiCad,Pcbnew,9.0.3*%
%TF.CreationDate,2026-09-09T11:30:30+03:00*%
%TF.ProjectId,MCU Datalogger,4d435520-4461-4746-916c-6f676765722e,1*%
%TF.SameCoordinates,Original*%
%TF.FileFunction,Copper,L2,Bot*%
%TF.FilePolarity,Positive*%
%FSLAX46Y46*%
G04 Gerber Fmt 4.6, Leading zero omitted, Abs format (unit mm)*
G04 Created by KiCad (PCBNEW 9.0.3) date 2026-09-09 11:30:30*
%MOMM*%
%LPD*%
G01*
G04 APERTURE LIST*
%TA.AperFunction,ComponentPad*%
%ADD10C,1.700000*%
%TD*%
%TA.AperFunction,ComponentPad*%
%ADD11R,1.700000X1.700000*%
%TD*%
%TA.AperFunction,ViaPad*%
%ADD12C,0.600000*%
%TD*%
%TA.AperFunction,ViaPad*%
%ADD13C,0.900000*%
%TD*%
%TA.AperFunction,Conductor*%
%ADD14C,0.200000*%
%TD*%
%TA.AperFunction,Conductor*%
%ADD15C,0.350000*%
%TD*%
G04 APERTURE END LIST*
D10*
%TO.P,BT1,2,-*%
%TO.N,GND*%
X112970000Y-89640000D03*
D11*
%TO.P,BT1,1,+*%
%TO.N,/Vcc*%
X112970000Y-92180000D03*
%TD*%
%TO.P,J1,1,Pin_1*%
%TO.N,GND*%
X150565000Y-96505000D03*
D10*
%TO.P,J1,2,Pin_2*%
%TO.N,/Vcc*%
X150565000Y-99045000D03*
%TO.P,J1,3,Pin_3*%
%TO.N,/SDA*%
X150565000Y-101585000D03*
%TO.P,J1,4,Pin_4*%
%TO.N,/SCK*%
X150565000Y-104125000D03*
%TD*%
%TO.P,J3,4,Pin_4*%
%TO.N,/TX*%
X147730000Y-107730000D03*
%TO.P,J3,3,Pin_3*%
%TO.N,/RX*%
X145190000Y-107730000D03*
%TO.P,J3,2,Pin_2*%
%TO.N,/Vcc*%
X142650000Y-107730000D03*
D11*
%TO.P,J3,1,Pin_1*%
%TO.N,GND*%
X140110000Y-107730000D03*
%TD*%
%TO.P,J2,1,Pin_1*%
%TO.N,/D2*%
X115885000Y-107730000D03*
D10*
%TO.P,J2,2,Pin_2*%
%TO.N,/D3*%
X118425000Y-107730000D03*
%TO.P,J2,3,Pin_3*%
%TO.N,/D4*%
X120965000Y-107730000D03*
%TO.P,J2,4,Pin_4*%
%TO.N,/D5*%
X123505000Y-107730000D03*
%TO.P,J2,5,Pin_5*%
%TO.N,/D6*%
X126045000Y-107730000D03*
%TO.P,J2,6,Pin_6*%
%TO.N,/D7*%
X128585000Y-107730000D03*
%TO.P,J2,7,Pin_7*%
%TO.N,/D8*%
X131125000Y-107730000D03*
%TO.P,J2,8,Pin_8*%
%TO.N,GND*%
X133665000Y-107730000D03*
%TO.P,J2,9,Pin_9*%
%TO.N,/Vcc*%
X136205000Y-107730000D03*
%TD*%
D11*
%TO.P,J4,1,Pin_1*%
%TO.N,/MISO*%
X148435000Y-87620000D03*
D10*
%TO.P,J4,2,Pin_2*%
%TO.N,/Vcc*%
X150975000Y-87620000D03*
%TO.P,J4,3,Pin_3*%
%TO.N,/SCK*%
X148435000Y-90160000D03*
%TO.P,J4,4,Pin_4*%
%TO.N,/MOSI*%
X150975000Y-90160000D03*
%TO.P,J4,5,Pin_5*%
%TO.N,/RESET*%
X148435000Y-92700000D03*
%TO.P,J4,6,Pin_6*%
%TO.N,GND*%
X150975000Y-92700000D03*
%TD*%
D12*
%TO.N,/SDA*%
X136425000Y-87905000D03*
%TO.N,Net-(U4-AREF)*%
X135175000Y-94230000D03*
X135200000Y-98661000D03*
%TO.N,GND*%
X114252148Y-95635000D03*
%TO.N,/MOSI*%
X137909293Y-98394293D03*
%TO.N,/MISO*%
X138170000Y-97545000D03*
%TO.N,GND*%
X147754031Y-95934031D03*
%TO.N,/SDA*%
X122716000Y-105645000D03*
X135950000Y-104620000D03*
%TO.N,Net-(U4-PB6)*%
X125115000Y-103655000D03*
X135220153Y-102565153D03*
%TO.N,GND*%
X133825000Y-95557753D03*
D13*
X142540000Y-98505003D03*
D12*
X117930000Y-93095000D03*
%TO.N,/D2*%
X121531765Y-89251765D03*
%TO.N,/SCK*%
X120320000Y-90320000D03*
%TO.N,/D3*%
X126225000Y-90616473D03*
%TO.N,/D4*%
X125135000Y-90375000D03*
%TO.N,/RX*%
X131469830Y-94270000D03*
%TO.N,/TX*%
X132289461Y-94832753D03*
%TO.N,/SCK*%
X144870000Y-90830000D03*
%TO.N,/SDA*%
X138310000Y-92525000D03*
X134820000Y-90235000D03*
%TO.N,/SCK*%
X120185000Y-95285000D03*
%TO.N,/SDA*%
X124655000Y-93985000D03*
X141285153Y-90175153D03*
X125295000Y-88380000D03*
%TO.N,/RESET*%
X142437026Y-94591821D03*
X133300000Y-90535000D03*
%TO.N,/SCK*%
X139050000Y-97054000D03*
D13*
%TO.N,GND*%
X118329000Y-101277423D03*
%TD*%
D14*
%TO.N,/SDA*%
X140960153Y-90175153D02*
X141285153Y-90175153D01*
X138690000Y-87905000D02*
X140960153Y-90175153D01*
X136425000Y-87905000D02*
X138690000Y-87905000D01*
X126795000Y-88279000D02*
X126795000Y-88380000D01*
X134545000Y-87240000D02*
X127834000Y-87240000D01*
X134550000Y-87235000D02*
X134545000Y-87240000D01*
X135755000Y-87235000D02*
X134550000Y-87235000D01*
X136425000Y-87905000D02*
X135755000Y-87235000D01*
X127834000Y-87240000D02*
X126795000Y-88279000D01*
%TO.N,/RESET*%
X136040000Y-93275000D02*
X133300000Y-90535000D01*
X141120205Y-93275000D02*
X136040000Y-93275000D01*
X142437026Y-94591821D02*
X141120205Y-93275000D01*
%TO.N,Net-(U4-AREF)*%
X135200000Y-97325000D02*
X135175000Y-97300000D01*
X135200000Y-98661000D02*
X135200000Y-97325000D01*
X135175000Y-97300000D02*
X135175000Y-94230000D01*
%TO.N,/SCK*%
X142405000Y-104125000D02*
X150565000Y-104125000D01*
X136880000Y-98600000D02*
X142405000Y-104125000D01*
X136880000Y-97960000D02*
X136880000Y-98600000D01*
X137850057Y-97015000D02*
X137825000Y-97015000D01*
X138418943Y-96944000D02*
X137921057Y-96944000D01*
X137825000Y-97015000D02*
X136880000Y-97960000D01*
X138489943Y-97015000D02*
X138418943Y-96944000D01*
X137921057Y-96944000D02*
X137850057Y-97015000D01*
X139011000Y-97015000D02*
X138489943Y-97015000D01*
X139050000Y-97054000D02*
X139011000Y-97015000D01*
X143965000Y-90910000D02*
X144045000Y-90830000D01*
X143965000Y-94162900D02*
X143965000Y-90910000D01*
X140128947Y-97050000D02*
X140138947Y-97040000D01*
X139054000Y-97050000D02*
X140128947Y-97050000D01*
X139050000Y-97054000D02*
X139054000Y-97050000D01*
X140138947Y-97040000D02*
X141087900Y-97040000D01*
X141087900Y-97040000D02*
X143965000Y-94162900D01*
X144045000Y-90830000D02*
X144870000Y-90830000D01*
%TO.N,/MISO*%
X147284000Y-89683240D02*
X147958240Y-89009000D01*
X147284000Y-91411000D02*
X147284000Y-89683240D01*
X148435000Y-89009000D02*
X148435000Y-87620000D01*
X141041000Y-97654000D02*
X147284000Y-91411000D01*
X147958240Y-89009000D02*
X148435000Y-89009000D01*
X138170000Y-97545000D02*
X138279000Y-97654000D01*
X138279000Y-97654000D02*
X141041000Y-97654000D01*
%TO.N,/MOSI*%
X149774000Y-91361000D02*
X150975000Y-90160000D01*
X149774000Y-92993408D02*
X149774000Y-91361000D01*
X142871786Y-97704003D02*
X142872786Y-97705003D01*
X139050003Y-98055000D02*
X141857217Y-98055000D01*
X141857217Y-98055000D02*
X142208214Y-97704003D01*
X145062405Y-97705003D02*
X149774000Y-92993408D01*
X142208214Y-97704003D02*
X142871786Y-97704003D01*
X138710710Y-98394293D02*
X139050003Y-98055000D01*
X137909293Y-98394293D02*
X138710710Y-98394293D01*
X142872786Y-97705003D02*
X145062405Y-97705003D01*
%TO.N,Net-(U4-PB6)*%
X134125306Y-103660000D02*
X135220153Y-102565153D01*
X125120000Y-103660000D02*
X134125306Y-103660000D01*
X125115000Y-103655000D02*
X125120000Y-103660000D01*
%TO.N,/D3*%
X119576000Y-108881000D02*
X118425000Y-107730000D01*
X121441760Y-108881000D02*
X119576000Y-108881000D01*
X122116000Y-108206760D02*
X121441760Y-108881000D01*
X122116000Y-94354000D02*
X122116000Y-108206760D01*
X125853527Y-90616473D02*
X122116000Y-94354000D01*
X126225000Y-90616473D02*
X125853527Y-90616473D01*
%TO.N,/SDA*%
X126795000Y-88380000D02*
X125295000Y-88380000D01*
X126725000Y-88769346D02*
X126795000Y-88699346D01*
X126795000Y-88699346D02*
X126795000Y-88380000D01*
X126725000Y-89210654D02*
X126725000Y-88769346D01*
X126825000Y-89310654D02*
X126725000Y-89210654D01*
X126825000Y-91815000D02*
X126825000Y-89310654D01*
X124655000Y-93985000D02*
X126825000Y-91815000D01*
%TO.N,/SCK*%
X120205000Y-95265000D02*
X120185000Y-95285000D01*
X120320000Y-90320000D02*
X120205000Y-90435000D01*
X120205000Y-90435000D02*
X120205000Y-95265000D01*
%TO.N,/SDA*%
X134770000Y-105800000D02*
X135950000Y-104620000D01*
X123165000Y-105800000D02*
X134770000Y-105800000D01*
X122985000Y-105620000D02*
X123165000Y-105800000D01*
X122716000Y-105645000D02*
X122741000Y-105620000D01*
X122741000Y-105620000D02*
X122985000Y-105620000D01*
%TO.N,/D2*%
X119129000Y-104486000D02*
X115885000Y-107730000D01*
X119129000Y-90271057D02*
X119129000Y-104486000D01*
X119815057Y-89585000D02*
X119129000Y-90271057D01*
X121198530Y-89585000D02*
X119815057Y-89585000D01*
X121531765Y-89251765D02*
X121198530Y-89585000D01*
%TO.N,/TX*%
X135319847Y-100827747D02*
X132773550Y-98281450D01*
X140397100Y-105905000D02*
X135319847Y-100827747D01*
X145905000Y-105905000D02*
X140397100Y-105905000D01*
X147730000Y-107730000D02*
X145905000Y-105905000D01*
%TO.N,/RX*%
X131675000Y-94475170D02*
X131469830Y-94270000D01*
X131675000Y-97760000D02*
X131675000Y-94475170D01*
X140454000Y-106529000D02*
X132860000Y-98935000D01*
X143989000Y-106529000D02*
X140454000Y-106529000D01*
X145190000Y-107730000D02*
X143989000Y-106529000D01*
X132860000Y-98935000D02*
X132850000Y-98935000D01*
X132850000Y-98935000D02*
X131675000Y-97760000D01*
%TO.N,/TX*%
X132289461Y-94832753D02*
X132289461Y-97807361D01*
D15*
%TO.N,GND*%
X147754031Y-95934031D02*
X145183059Y-98505003D01*
X145183059Y-98505003D02*
X142540000Y-98505003D01*
X150975000Y-92713062D02*
X147754031Y-95934031D01*
X150975000Y-92700000D02*
X150975000Y-92713062D01*
D14*
%TO.N,/SCK*%
X148435000Y-90160000D02*
X148750000Y-90160000D01*
D15*
%TO.N,GND*%
X134941000Y-106454000D02*
X133665000Y-107730000D01*
X138834000Y-106454000D02*
X134941000Y-106454000D01*
X140110000Y-107730000D02*
X138834000Y-106454000D01*
D14*
%TO.N,/D4*%
X120965000Y-94545000D02*
X125135000Y-90375000D01*
X120965000Y-107730000D02*
X120965000Y-94545000D01*
%TO.N,/SDA*%
X138310000Y-91670000D02*
X138310000Y-92525000D01*
X136875000Y-90235000D02*
X138310000Y-91670000D01*
X134820000Y-90235000D02*
X136875000Y-90235000D01*
%TO.N,/TX*%
X132792835Y-98310735D02*
X132289461Y-97807361D01*
%TD*%
%TA.AperFunction,Conductor*%
%TO.N,GND*%
G36*
X150188269Y-83424984D02*
G01*
X150255298Y-83444696D01*
X150263228Y-83450247D01*
X153241018Y-85712783D01*
X153282489Y-85769014D01*
X153290000Y-85811516D01*
X153290000Y-85872274D01*
X153270315Y-85939313D01*
X153264558Y-85946340D01*
X153263811Y-85992995D01*
X153264666Y-86001155D01*
X153290000Y-96602650D01*
X153290000Y-106169477D01*
X153270315Y-106236516D01*
X153254690Y-106256137D01*
X149914533Y-109674538D01*
X149853602Y-109708731D01*
X149825785Y-109711878D01*
X148444357Y-109711228D01*
X148444269Y-109711202D01*
X148444089Y-109711228D01*
X121788890Y-109640976D01*
X121721903Y-109621114D01*
X121676287Y-109568190D01*
X121666526Y-109499006D01*
X121695718Y-109435527D01*
X121727218Y-109409588D01*
X121745045Y-109399296D01*
X121810476Y-109361520D01*
X121922280Y-109249716D01*
X121922280Y-109249714D01*
X121932484Y-109239511D01*
X121932488Y-109239506D01*
X122430868Y-108741126D01*
X122492191Y-108707641D01*
X122561883Y-108712625D01*
X122606230Y-108741126D01*
X122625213Y-108760109D01*
X122797179Y-108885048D01*
X122797181Y-108885049D01*
X122797184Y-108885051D01*
X122986588Y-108981557D01*
X123188757Y-109047246D01*
X123398713Y-109080500D01*
X123398714Y-109080500D01*
X123611286Y-109080500D01*
X123611287Y-109080500D01*
X123821243Y-109047246D01*
X124023412Y-108981557D01*
X124212816Y-108885051D01*
X124234789Y-108869086D01*
X124384786Y-108760109D01*
X124384788Y-108760106D01*
X124384792Y-108760104D01*
X124535104Y-108609792D01*
X124535106Y-108609788D01*
X124535109Y-108609786D01*
X124660048Y-108437820D01*
X124660047Y-108437820D01*
X124660051Y-108437816D01*
X124664514Y-108429054D01*
X124712488Y-108378259D01*
X124780308Y-108361463D01*
X124846444Y-108383999D01*
X124885486Y-108429056D01*
X124889951Y-108437820D01*
X125014890Y-108609786D01*
X125165213Y-108760109D01*
X125337179Y-108885048D01*
X125337181Y-108885049D01*
X125337184Y-108885051D01*
X125526588Y-108981557D01*
X125728757Y-109047246D01*
X125938713Y-109080500D01*
X125938714Y-109080500D01*
X126151286Y-109080500D01*
X126151287Y-109080500D01*
X126361243Y-109047246D01*
X126563412Y-108981557D01*
X126752816Y-108885051D01*
X126774789Y-108869086D01*
X126924786Y-108760109D01*
X126924788Y-108760106D01*
X126924792Y-108760104D01*
X127075104Y-108609792D01*
X127075106Y-108609788D01*
X127075109Y-108609786D01*
X127200048Y-108437820D01*
X127200047Y-108437820D01*
X127200051Y-108437816D01*
X127204514Y-108429054D01*
X127252488Y-108378259D01*
X127320308Y-108361463D01*
X127386444Y-108383999D01*
X127425486Y-108429056D01*
X127429951Y-108437820D01*
X127554890Y-108609786D01*
X127705213Y-108760109D01*
X127877179Y-108885048D01*
X127877181Y-108885049D01*
X127877184Y-108885051D01*
X128066588Y-108981557D01*
X128268757Y-109047246D01*
X128478713Y-109080500D01*
X128478714Y-109080500D01*
X128691286Y-109080500D01*
X128691287Y-109080500D01*
X128901243Y-109047246D01*
X129103412Y-108981557D01*
X129292816Y-108885051D01*
X129314789Y-108869086D01*
X129464786Y-108760109D01*
X129464788Y-108760106D01*
X129464792Y-108760104D01*
X129615104Y-108609792D01*
X129615106Y-108609788D01*
X129615109Y-108609786D01*
X129740048Y-108437820D01*
X129740047Y-108437820D01*
X129740051Y-108437816D01*
X129744514Y-108429054D01*
X129792488Y-108378259D01*
X129860308Y-108361463D01*
X129926444Y-108383999D01*
X129965486Y-108429056D01*
X129969951Y-108437820D01*
X130094890Y-108609786D01*
X130245213Y-108760109D01*
X130417179Y-108885048D01*
X130417181Y-108885049D01*
X130417184Y-108885051D01*
X130606588Y-108981557D01*
X130808757Y-109047246D01*
X131018713Y-109080500D01*
X131018714Y-109080500D01*
X131231286Y-109080500D01*
X131231287Y-109080500D01*
X131441243Y-109047246D01*
X131643412Y-108981557D01*
X131832816Y-108885051D01*
X131854789Y-108869086D01*
X132004786Y-108760109D01*
X132004788Y-108760106D01*
X132004792Y-108760104D01*
X132155104Y-108609792D01*
X132155106Y-108609788D01*
X132155109Y-108609786D01*
X132222515Y-108517007D01*
X132280051Y-108437816D01*
X132284793Y-108428508D01*
X132332763Y-108377711D01*
X132400583Y-108360911D01*
X132466719Y-108383445D01*
X132505763Y-108428500D01*
X132510373Y-108437547D01*
X132549728Y-108491716D01*
X133182037Y-107859408D01*
X133199075Y-107922993D01*
X133264901Y-108037007D01*
X133357993Y-108130099D01*
X133472007Y-108195925D01*
X133535590Y-108212962D01*
X132903282Y-108845269D01*
X132903282Y-108845270D01*
X132957449Y-108884624D01*
X133146782Y-108981095D01*
X133348870Y-109046757D01*
X133558754Y-109080000D01*
X133771246Y-109080000D01*
X133981127Y-109046757D01*
X133981130Y-109046757D01*
X134183217Y-108981095D01*
X134372554Y-108884622D01*
X134426716Y-108845270D01*
X134426717Y-108845270D01*
X133794408Y-108212962D01*
X133857993Y-108195925D01*
X133972007Y-108130099D01*
X134065099Y-108037007D01*
X134130925Y-107922993D01*
X134147962Y-107859408D01*
X134780270Y-108491717D01*
X134780270Y-108491716D01*
X134819622Y-108437555D01*
X134824232Y-108428507D01*
X134872205Y-108377709D01*
X134940025Y-108360912D01*
X135006161Y-108383447D01*
X135045204Y-108428504D01*
X135049949Y-108437817D01*
X135174890Y-108609786D01*
X135325213Y-108760109D01*
X135497179Y-108885048D01*
X135497181Y-108885049D01*
X135497184Y-108885051D01*
X135686588Y-108981557D01*
X135888757Y-109047246D01*
X136098713Y-109080500D01*
X136098714Y-109080500D01*
X136311286Y-109080500D01*
X136311287Y-109080500D01*
X136521243Y-109047246D01*
X136723412Y-108981557D01*
X136912816Y-108885051D01*
X136934789Y-108869086D01*
X137084786Y-108760109D01*
X137084788Y-108760106D01*
X137084792Y-108760104D01*
X137235104Y-108609792D01*
X137235106Y-108609788D01*
X137235109Y-108609786D01*
X137360048Y-108437820D01*
X137360047Y-108437820D01*
X137360051Y-108437816D01*
X137456557Y-108248412D01*
X137522246Y-108046243D01*
X137555500Y-107836287D01*
X137555500Y-107623713D01*
X137522246Y-107413757D01*
X137456557Y-107211588D01*
X137360051Y-107022184D01*
X137360049Y-107022181D01*
X137360048Y-107022179D01*
X137235109Y-106850213D01*
X137084786Y-106699890D01*
X136912820Y-106574951D01*
X136723414Y-106478444D01*
X136723413Y-106478443D01*
X136723412Y-106478443D01*
X136521243Y-106412754D01*
X136521241Y-106412753D01*
X136521240Y-106412753D01*
X136359957Y-106387208D01*
X136311287Y-106379500D01*
X136098713Y-106379500D01*
X136050042Y-106387208D01*
X135888760Y-106412753D01*
X135686585Y-106478444D01*
X135497179Y-106574951D01*
X135325213Y-106699890D01*
X135174890Y-106850213D01*
X135049949Y-107022182D01*
X135045202Y-107031499D01*
X134997227Y-107082293D01*
X134929405Y-107099087D01*
X134863271Y-107076548D01*
X134824234Y-107031495D01*
X134819626Y-107022452D01*
X134780270Y-106968282D01*
X134780269Y-106968282D01*
X134147962Y-107600590D01*
X134130925Y-107537007D01*
X134065099Y-107422993D01*
X133972007Y-107329901D01*
X133857993Y-107264075D01*
X133794409Y-107247037D01*
X134426716Y-106614728D01*
X134426022Y-106605907D01*
X134397939Y-106569489D01*
X134391960Y-106499875D01*
X134424565Y-106438080D01*
X134485404Y-106403723D01*
X134513490Y-106400500D01*
X134683331Y-106400500D01*
X134683347Y-106400501D01*
X134690943Y-106400501D01*
X134849054Y-106400501D01*
X134849057Y-106400501D01*
X135001785Y-106359577D01*
X135051904Y-106330639D01*
X135138716Y-106280520D01*
X135250520Y-106168716D01*
X135250520Y-106168714D01*
X135260728Y-106158507D01*
X135260729Y-106158504D01*
X135964662Y-105454572D01*
X136025983Y-105421089D01*
X136028150Y-105420638D01*
X136086085Y-105409113D01*
X136183497Y-105389737D01*
X136329179Y-105329394D01*
X136460289Y-105241789D01*
X136571789Y-105130289D01*
X136659394Y-104999179D01*
X136719737Y-104853497D01*
X136750500Y-104698842D01*
X136750500Y-104541158D01*
X136750500Y-104541155D01*
X136750499Y-104541153D01*
X136741063Y-104493716D01*
X136719737Y-104386503D01*
X136719735Y-104386498D01*
X136659397Y-104240827D01*
X136659390Y-104240814D01*
X136571789Y-104109711D01*
X136571786Y-104109707D01*
X136460292Y-103998213D01*
X136460288Y-103998210D01*
X136329185Y-103910609D01*
X136329172Y-103910602D01*
X136183501Y-103850264D01*
X136183489Y-103850261D01*
X136028845Y-103819500D01*
X136028842Y-103819500D01*
X135871158Y-103819500D01*
X135871155Y-103819500D01*
X135716510Y-103850261D01*
X135716498Y-103850264D01*
X135570827Y-103910602D01*
X135570814Y-103910609D01*
X135439711Y-103998210D01*
X135439707Y-103998213D01*
X135328213Y-104109707D01*
X135328210Y-104109711D01*
X135240609Y-104240814D01*
X135240602Y-104240827D01*
X135180264Y-104386498D01*
X135180261Y-104386508D01*
X135149361Y-104541850D01*
X135116976Y-104603761D01*
X135115425Y-104605339D01*
X134557584Y-105163181D01*
X134496261Y-105196666D01*
X134469903Y-105199500D01*
X123465098Y-105199500D01*
X123398059Y-105179815D01*
X123377417Y-105163181D01*
X123353717Y-105139481D01*
X123353712Y-105139477D01*
X123341452Y-105132399D01*
X123315774Y-105112696D01*
X123226289Y-105023211D01*
X123226288Y-105023210D01*
X123226287Y-105023209D01*
X123095185Y-104935609D01*
X123095172Y-104935602D01*
X122949501Y-104875264D01*
X122949491Y-104875261D01*
X122816308Y-104848769D01*
X122754397Y-104816384D01*
X122719823Y-104755668D01*
X122716500Y-104727152D01*
X122716500Y-103576153D01*
X124314500Y-103576153D01*
X124314500Y-103733846D01*
X124345261Y-103888489D01*
X124345264Y-103888501D01*
X124405602Y-104034172D01*
X124405609Y-104034185D01*
X124493210Y-104165288D01*
X124493213Y-104165292D01*
X124604707Y-104276786D01*
X124604711Y-104276789D01*
X124735814Y-104364390D01*
X124735827Y-104364397D01*
X124881498Y-104424735D01*
X124881503Y-104424737D01*
X125036153Y-104455499D01*
X125036156Y-104455500D01*
X125036158Y-104455500D01*
X125193844Y-104455500D01*
X125193845Y-104455499D01*
X125348497Y-104424737D01*
X125494179Y-104364394D01*
X125494185Y-104364390D01*
X125618392Y-104281398D01*
X125685070Y-104260520D01*
X125687283Y-104260500D01*
X134038637Y-104260500D01*
X134038653Y-104260501D01*
X134046249Y-104260501D01*
X134204360Y-104260501D01*
X134204363Y-104260501D01*
X134357091Y-104219577D01*
X134451120Y-104165289D01*
X134494022Y-104140520D01*
X134605826Y-104028716D01*
X134605826Y-104028714D01*
X134616030Y-104018511D01*
X134616033Y-104018506D01*
X135234815Y-103399725D01*
X135296136Y-103366242D01*
X135298303Y-103365791D01*
X135356238Y-103354266D01*
X135453650Y-103334890D01*
X135599332Y-103274547D01*
X135730442Y-103186942D01*
X135841942Y-103075442D01*
X135865747Y-103039815D01*
X135881873Y-103015682D01*
X135935485Y-102970876D01*
X136004810Y-102962169D01*
X136067837Y-102992323D01*
X136072656Y-102996891D01*
X139248851Y-106173087D01*
X139282336Y-106234410D01*
X139277352Y-106304102D01*
X139235480Y-106360035D01*
X139174429Y-106384057D01*
X139152626Y-106386401D01*
X139152620Y-106386403D01*
X139017913Y-106436645D01*
X139017906Y-106436649D01*
X138902812Y-106522809D01*
X138902809Y-106522812D01*
X138816649Y-106637906D01*
X138816645Y-106637913D01*
X138766403Y-106772620D01*
X138766401Y-106772627D01*
X138760000Y-106832155D01*
X138760000Y-107480000D01*
X139676988Y-107480000D01*
X139644075Y-107537007D01*
X139610000Y-107664174D01*
X139610000Y-107795826D01*
X139644075Y-107922993D01*
X139676988Y-107980000D01*
X138760000Y-107980000D01*
X138760000Y-108627844D01*
X138766401Y-108687372D01*
X138766403Y-108687379D01*
X138816645Y-108822086D01*
X138816649Y-108822093D01*
X138902809Y-108937187D01*
X138902812Y-108937190D01*
X139017906Y-109023350D01*
X139017913Y-109023354D01*
X139152620Y-109073596D01*
X139152627Y-109073598D01*
X139212155Y-109079999D01*
X139212172Y-109080000D01*
X139860000Y-109080000D01*
X139860000Y-108163012D01*
X139917007Y-108195925D01*
X140044174Y-108230000D01*
X140175826Y-108230000D01*
X140302993Y-108195925D01*
X140360000Y-108163012D01*
X140360000Y-109080000D01*
X141007828Y-109080000D01*
X141007844Y-109079999D01*
X141067372Y-109073598D01*
X141067379Y-109073596D01*
X141202086Y-109023354D01*
X141202093Y-109023350D01*
X141317187Y-108937190D01*
X141317190Y-108937187D01*
X141403350Y-108822093D01*
X141403354Y-108822086D01*
X141452422Y-108690529D01*
X141494293Y-108634595D01*
X141559757Y-108610178D01*
X141628030Y-108625030D01*
X141656285Y-108646181D01*
X141770213Y-108760109D01*
X141942179Y-108885048D01*
X141942181Y-108885049D01*
X141942184Y-108885051D01*
X142131588Y-108981557D01*
X142333757Y-109047246D01*
X142543713Y-109080500D01*
X142543714Y-109080500D01*
X142756286Y-109080500D01*
X142756287Y-109080500D01*
X142966243Y-109047246D01*
X143168412Y-108981557D01*
X143357816Y-108885051D01*
X143379789Y-108869086D01*
X143529786Y-108760109D01*
X143529788Y-108760106D01*
X143529792Y-108760104D01*
X143680104Y-108609792D01*
X143680106Y-108609788D01*
X143680109Y-108609786D01*
X143805048Y-108437820D01*
X143805047Y-108437820D01*
X143805051Y-108437816D01*
X143809514Y-108429054D01*
X143857488Y-108378259D01*
X143925308Y-108361463D01*
X143991444Y-108383999D01*
X144030486Y-108429056D01*
X144034951Y-108437820D01*
X144159890Y-108609786D01*
X144310213Y-108760109D01*
X144482179Y-108885048D01*
X144482181Y-108885049D01*
X144482184Y-108885051D01*
X144671588Y-108981557D01*
X144873757Y-109047246D01*
X145083713Y-109080500D01*
X145083714Y-109080500D01*
X145296286Y-109080500D01*
X145296287Y-109080500D01*
X145506243Y-109047246D01*
X145708412Y-108981557D01*
X145897816Y-108885051D01*
X145919789Y-108869086D01*
X146069786Y-108760109D01*
X146069788Y-108760106D01*
X146069792Y-108760104D01*
X146220104Y-108609792D01*
X146220106Y-108609788D01*
X146220109Y-108609786D01*
X146345048Y-108437820D01*
X146345047Y-108437820D01*
X146345051Y-108437816D01*
X146349514Y-108429054D01*
X146397488Y-108378259D01*
X146465308Y-108361463D01*
X146531444Y-108383999D01*
X146570486Y-108429056D01*
X146574951Y-108437820D01*
X146699890Y-108609786D01*
X146850213Y-108760109D01*
X147022179Y-108885048D01*
X147022181Y-108885049D01*
X147022184Y-108885051D01*
X147211588Y-108981557D01*
X147413757Y-109047246D01*
X147623713Y-109080500D01*
X147623714Y-109080500D01*
X147836286Y-109080500D01*
X147836287Y-109080500D01*
X148046243Y-109047246D01*
X148248412Y-108981557D01*
X148437816Y-108885051D01*
X148459789Y-108869086D01*
X148609786Y-108760109D01*
X148609788Y-108760106D01*
X148609792Y-108760104D01*
X148760104Y-108609792D01*
X148760106Y-108609788D01*
X148760109Y-108609786D01*
X148885048Y-108437820D01*
X148885047Y-108437820D01*
X148885051Y-108437816D01*
X148981557Y-108248412D01*
X149047246Y-108046243D01*
X149080500Y-107836287D01*
X149080500Y-107623713D01*
X149047246Y-107413757D01*
X148981557Y-107211588D01*
X148885051Y-107022184D01*
X148885049Y-107022181D01*
X148885048Y-107022179D01*
X148760109Y-106850213D01*
X148609786Y-106699890D01*
X148437820Y-106574951D01*
X148248414Y-106478444D01*
X148248413Y-106478443D01*
X148248412Y-106478443D01*
X148233199Y-106473500D01*
X150603039Y-106473500D01*
X150603039Y-107361603D01*
X151779073Y-106158020D01*
X151747766Y-106158020D01*
X151747654Y-106158083D01*
X151743361Y-106160378D01*
X151519019Y-106274686D01*
X151514636Y-106276811D01*
X151487861Y-106289154D01*
X151483392Y-106291109D01*
X151447175Y-106306107D01*
X151442647Y-106307879D01*
X151415037Y-106318064D01*
X151410440Y-106319658D01*
X151171007Y-106397455D01*
X151166347Y-106398869D01*
X151138005Y-106406862D01*
X151133300Y-106408089D01*
X151095183Y-106417242D01*
X151090423Y-106418287D01*
X151061523Y-106424036D01*
X151056728Y-106424892D01*
X150808059Y-106464277D01*
X150803236Y-106464944D01*
X150774003Y-106468404D01*
X150769165Y-106468881D01*
X150730086Y-106471959D01*
X150725221Y-106472246D01*
X150695769Y-106473404D01*
X150690897Y-106473500D01*
X150603039Y-106473500D01*
X148233199Y-106473500D01*
X148046243Y-106412754D01*
X148046241Y-106412753D01*
X148046240Y-106412753D01*
X147884957Y-106387208D01*
X147836287Y-106379500D01*
X147623713Y-106379500D01*
X147595983Y-106383892D01*
X147413757Y-106412753D01*
X147371473Y-106426492D01*
X147301632Y-106428486D01*
X147245476Y-106396241D01*
X146392590Y-105543355D01*
X146392588Y-105543352D01*
X146273717Y-105424481D01*
X146273716Y-105424480D01*
X146186904Y-105374360D01*
X146186904Y-105374359D01*
X146186900Y-105374358D01*
X146136785Y-105345423D01*
X145984057Y-105304499D01*
X145825943Y-105304499D01*
X145818347Y-105304499D01*
X145818331Y-105304500D01*
X140697197Y-105304500D01*
X140630158Y-105284815D01*
X140609516Y-105268181D01*
X135807437Y-100466102D01*
X135807435Y-100466099D01*
X135012842Y-99671506D01*
X134979357Y-99610183D01*
X134984341Y-99540491D01*
X135026213Y-99484558D01*
X135091677Y-99460141D01*
X135115024Y-99461601D01*
X135115093Y-99460903D01*
X135121156Y-99461500D01*
X135121158Y-99461500D01*
X135278844Y-99461500D01*
X135278845Y-99461499D01*
X135433497Y-99430737D01*
X135546166Y-99384067D01*
X135579172Y-99370397D01*
X135579172Y-99370396D01*
X135579179Y-99370394D01*
X135710289Y-99282789D01*
X135821789Y-99171289D01*
X135909394Y-99040179D01*
X135969737Y-98894497D01*
X136000500Y-98739842D01*
X136000500Y-98582158D01*
X136000500Y-98582155D01*
X136000499Y-98582153D01*
X135969738Y-98427510D01*
X135969737Y-98427503D01*
X135965239Y-98416643D01*
X135909397Y-98281827D01*
X135909390Y-98281814D01*
X135821398Y-98150125D01*
X135800520Y-98083447D01*
X135800500Y-98081234D01*
X135800500Y-97245945D01*
X135800500Y-97245943D01*
X135779725Y-97168409D01*
X135775500Y-97136316D01*
X135775500Y-95160020D01*
X138103039Y-95160020D01*
X139605039Y-95160020D01*
X139605039Y-94873500D01*
X138103039Y-94873500D01*
X138103039Y-95160020D01*
X135775500Y-95160020D01*
X135775500Y-94809765D01*
X135795185Y-94742726D01*
X135796398Y-94740874D01*
X135857672Y-94649172D01*
X135884394Y-94609179D01*
X135944737Y-94463497D01*
X135975500Y-94308842D01*
X135975500Y-94151158D01*
X135975500Y-94151155D01*
X135975499Y-94151153D01*
X135950146Y-94023691D01*
X135956373Y-93954100D01*
X135999236Y-93898922D01*
X136065126Y-93875678D01*
X136071763Y-93875500D01*
X140820108Y-93875500D01*
X140887147Y-93895185D01*
X140907789Y-93911819D01*
X141602451Y-94606481D01*
X141635936Y-94667804D01*
X141636387Y-94669970D01*
X141667287Y-94825312D01*
X141667290Y-94825322D01*
X141727628Y-94970993D01*
X141727635Y-94971006D01*
X141815236Y-95102109D01*
X141815239Y-95102113D01*
X141908214Y-95195088D01*
X141941699Y-95256411D01*
X141936715Y-95326103D01*
X141908214Y-95370450D01*
X140875484Y-96403181D01*
X140814161Y-96436666D01*
X140787803Y-96439500D01*
X140218004Y-96439500D01*
X140059890Y-96439500D01*
X140038336Y-96445275D01*
X140006245Y-96449500D01*
X139623779Y-96449500D01*
X139556740Y-96429815D01*
X139554888Y-96428602D01*
X139429185Y-96344609D01*
X139429172Y-96344602D01*
X139283501Y-96284264D01*
X139283489Y-96284261D01*
X139128845Y-96253500D01*
X139128842Y-96253500D01*
X138971158Y-96253500D01*
X138971155Y-96253500D01*
X138816510Y-96284261D01*
X138816498Y-96284264D01*
X138670823Y-96344604D01*
X138669241Y-96345662D01*
X138668287Y-96345960D01*
X138665452Y-96347476D01*
X138665164Y-96346937D01*
X138602561Y-96366532D01*
X138568268Y-96362327D01*
X138553231Y-96358298D01*
X138498000Y-96343499D01*
X138339886Y-96343499D01*
X138332290Y-96343499D01*
X138332274Y-96343500D01*
X137842000Y-96343500D01*
X137689269Y-96384423D01*
X137656232Y-96403499D01*
X137656229Y-96403500D01*
X137552348Y-96463475D01*
X137552337Y-96463483D01*
X137527109Y-96488710D01*
X137501433Y-96508412D01*
X137456287Y-96534478D01*
X137456281Y-96534482D01*
X136399481Y-97591282D01*
X136399479Y-97591285D01*
X136362984Y-97654498D01*
X136362983Y-97654500D01*
X136320423Y-97728214D01*
X136320423Y-97728215D01*
X136279499Y-97880943D01*
X136279499Y-97880945D01*
X136279499Y-98049046D01*
X136279500Y-98049059D01*
X136279500Y-98513330D01*
X136279499Y-98513348D01*
X136279499Y-98679054D01*
X136279498Y-98679054D01*
X136295787Y-98739844D01*
X136320423Y-98831785D01*
X136345265Y-98874812D01*
X136349358Y-98881900D01*
X136349359Y-98881904D01*
X136349360Y-98881904D01*
X136374203Y-98924935D01*
X136399479Y-98968714D01*
X136399481Y-98968717D01*
X136518349Y-99087585D01*
X136518355Y-99087590D01*
X141920139Y-104489374D01*
X141920149Y-104489385D01*
X141924479Y-104493715D01*
X141924480Y-104493716D01*
X142036284Y-104605520D01*
X142101917Y-104643412D01*
X142123095Y-104655639D01*
X142123097Y-104655641D01*
X142161151Y-104677611D01*
X142173215Y-104684577D01*
X142325943Y-104725501D01*
X142325946Y-104725501D01*
X142491653Y-104725501D01*
X142491669Y-104725500D01*
X149279281Y-104725500D01*
X149346320Y-104745185D01*
X149389765Y-104793205D01*
X149409947Y-104832814D01*
X149409948Y-104832815D01*
X149534890Y-105004786D01*
X149685213Y-105155109D01*
X149857179Y-105280048D01*
X149857181Y-105280049D01*
X149857184Y-105280051D01*
X150046588Y-105376557D01*
X150248757Y-105442246D01*
X150458713Y-105475500D01*
X150458714Y-105475500D01*
X150671286Y-105475500D01*
X150671287Y-105475500D01*
X150881243Y-105442246D01*
X151083412Y-105376557D01*
X151272816Y-105280051D01*
X151294789Y-105264086D01*
X151444786Y-105155109D01*
X151444788Y-105155106D01*
X151444792Y-105155104D01*
X151595104Y-105004792D01*
X151595106Y-105004788D01*
X151595109Y-105004786D01*
X151720048Y-104832820D01*
X151720047Y-104832820D01*
X151720051Y-104832816D01*
X151816557Y-104643412D01*
X151882246Y-104441243D01*
X151915500Y-104231287D01*
X151915500Y-104018713D01*
X151882246Y-103808757D01*
X151816557Y-103606588D01*
X151720051Y-103417184D01*
X151720049Y-103417181D01*
X151720048Y-103417179D01*
X151595109Y-103245213D01*
X151444786Y-103094890D01*
X151272820Y-102969951D01*
X151272115Y-102969591D01*
X151264054Y-102965485D01*
X151213259Y-102917512D01*
X151196463Y-102849692D01*
X151218999Y-102783556D01*
X151264054Y-102744515D01*
X151272816Y-102740051D01*
X151294789Y-102724086D01*
X151444786Y-102615109D01*
X151444788Y-102615106D01*
X151444792Y-102615104D01*
X151595104Y-102464792D01*
X151595106Y-102464788D01*
X151595109Y-102464786D01*
X151720048Y-102292820D01*
X151720047Y-102292820D01*
X151720051Y-102292816D01*
X151816557Y-102103412D01*
X151882246Y-101901243D01*
X151915500Y-101691287D01*
X151915500Y-101478713D01*
X151882246Y-101268757D01*
X151816557Y-101066588D01*
X151720051Y-100877184D01*
X151720049Y-100877181D01*
X151720048Y-100877179D01*
X151595109Y-100705213D01*
X151444786Y-100554890D01*
X151272820Y-100429951D01*
X151272115Y-100429591D01*
X151264054Y-100425485D01*
X151213259Y-100377512D01*
X151196463Y-100309692D01*
X151218999Y-100243556D01*
X151264054Y-100204515D01*
X151272816Y-100200051D01*
X151294789Y-100184086D01*
X151444786Y-100075109D01*
X151444788Y-100075106D01*
X151444792Y-100075104D01*
X151595104Y-99924792D01*
X151595106Y-99924788D01*
X151595109Y-99924786D01*
X151720048Y-99752820D01*
X151720047Y-99752820D01*
X151720051Y-99752816D01*
X151816557Y-99563412D01*
X151882246Y-99361243D01*
X151915500Y-99151287D01*
X151915500Y-98938713D01*
X151882246Y-98728757D01*
X151816557Y-98526588D01*
X151720051Y-98337184D01*
X151720049Y-98337181D01*
X151720048Y-98337179D01*
X151595109Y-98165213D01*
X151481181Y-98051285D01*
X151447696Y-97989962D01*
X151452680Y-97920270D01*
X151494552Y-97864337D01*
X151525529Y-97847422D01*
X151657086Y-97798354D01*
X151657093Y-97798350D01*
X151772187Y-97712190D01*
X151772190Y-97712187D01*
X151858350Y-97597093D01*
X151858354Y-97597086D01*
X151908596Y-97462379D01*
X151908598Y-97462372D01*
X151914999Y-97402844D01*
X151915000Y-97402827D01*
X151915000Y-96755000D01*
X150998012Y-96755000D01*
X151030925Y-96697993D01*
X151065000Y-96570826D01*
X151065000Y-96439174D01*
X151030925Y-96312007D01*
X150998012Y-96255000D01*
X151915000Y-96255000D01*
X151915000Y-95607172D01*
X151914999Y-95607155D01*
X151908598Y-95547627D01*
X151908596Y-95547620D01*
X151858354Y-95412913D01*
X151858350Y-95412906D01*
X151772190Y-95297812D01*
X151772187Y-95297809D01*
X151657093Y-95211649D01*
X151657086Y-95211645D01*
X151522379Y-95161403D01*
X151522372Y-95161401D01*
X151462844Y-95155000D01*
X150815000Y-95155000D01*
X150815000Y-96071988D01*
X150757993Y-96039075D01*
X150630826Y-96005000D01*
X150499174Y-96005000D01*
X150372007Y-96039075D01*
X150315000Y-96071988D01*
X150315000Y-95155000D01*
X149667155Y-95155000D01*
X149607627Y-95161401D01*
X149607620Y-95161403D01*
X149472913Y-95211645D01*
X149472906Y-95211649D01*
X149357812Y-95297809D01*
X149357809Y-95297812D01*
X149271649Y-95412906D01*
X149271645Y-95412913D01*
X149221403Y-95547620D01*
X149221401Y-95547627D01*
X149215000Y-95607155D01*
X149215000Y-96255000D01*
X150131988Y-96255000D01*
X150099075Y-96312007D01*
X150065000Y-96439174D01*
X150065000Y-96570826D01*
X150099075Y-96697993D01*
X150131988Y-96755000D01*
X149215000Y-96755000D01*
X149215000Y-97402844D01*
X149221401Y-97462372D01*
X149221403Y-97462379D01*
X149271645Y-97597086D01*
X149271649Y-97597093D01*
X149357809Y-97712187D01*
X149357812Y-97712190D01*
X149472906Y-97798350D01*
X149472913Y-97798354D01*
X149604470Y-97847422D01*
X149660404Y-97889293D01*
X149684821Y-97954758D01*
X149669969Y-98023031D01*
X149648819Y-98051285D01*
X149534889Y-98165215D01*
X149409951Y-98337179D01*
X149313444Y-98526585D01*
X149247753Y-98728760D01*
X149214500Y-98938713D01*
X149214500Y-99151286D01*
X149238642Y-99303716D01*
X149247754Y-99361243D01*
X149305995Y-99540491D01*
X149313444Y-99563414D01*
X149409951Y-99752820D01*
X149534890Y-99924786D01*
X149685213Y-100075109D01*
X149857182Y-100200050D01*
X149865946Y-100204516D01*
X149916742Y-100252491D01*
X149933536Y-100320312D01*
X149910998Y-100386447D01*
X149865946Y-100425484D01*
X149857182Y-100429949D01*
X149685213Y-100554890D01*
X149534890Y-100705213D01*
X149409951Y-100877179D01*
X149313444Y-101066585D01*
X149247753Y-101268760D01*
X149231423Y-101371865D01*
X149214500Y-101478713D01*
X149214500Y-101691287D01*
X149247754Y-101901243D01*
X149311985Y-102098926D01*
X149313444Y-102103414D01*
X149409951Y-102292820D01*
X149534890Y-102464786D01*
X149685213Y-102615109D01*
X149857182Y-102740050D01*
X149865946Y-102744516D01*
X149916742Y-102792491D01*
X149933536Y-102860312D01*
X149910998Y-102926447D01*
X149865946Y-102965484D01*
X149857182Y-102969949D01*
X149685213Y-103094890D01*
X149534890Y-103245213D01*
X149409948Y-103417184D01*
X149409947Y-103417185D01*
X149389765Y-103456795D01*
X149341791Y-103507591D01*
X149279281Y-103524500D01*
X142705097Y-103524500D01*
X142638058Y-103504815D01*
X142617416Y-103488181D01*
X141655735Y-102526500D01*
X143103039Y-102526500D01*
X144605039Y-102526500D01*
X145603039Y-102526500D01*
X147105039Y-102526500D01*
X147105039Y-101158020D01*
X145603039Y-101158020D01*
X145603039Y-102526500D01*
X144605039Y-102526500D01*
X144605039Y-101158020D01*
X143103039Y-101158020D01*
X143103039Y-102526500D01*
X141655735Y-102526500D01*
X139191655Y-100062420D01*
X140603039Y-100062420D01*
X140700639Y-100160020D01*
X142105039Y-100160020D01*
X142105039Y-99755811D01*
X142041042Y-99735018D01*
X142023065Y-99727572D01*
X141976960Y-99704080D01*
X143103039Y-99704080D01*
X143103039Y-100160020D01*
X144605039Y-100160020D01*
X144605039Y-99303503D01*
X143596410Y-99303503D01*
X143555627Y-99359636D01*
X143542990Y-99374432D01*
X143409429Y-99507993D01*
X143394633Y-99520630D01*
X143241822Y-99631653D01*
X143225232Y-99641820D01*
X143103039Y-99704080D01*
X141976960Y-99704080D01*
X141877693Y-99653501D01*
X141747232Y-99653501D01*
X141747200Y-99653500D01*
X140603039Y-99653500D01*
X140603039Y-100062420D01*
X139191655Y-100062420D01*
X138362012Y-99232777D01*
X138351733Y-99213952D01*
X145603039Y-99213952D01*
X145603039Y-100160020D01*
X147105039Y-100160020D01*
X147105039Y-98658020D01*
X146370004Y-98658020D01*
X146301593Y-98726430D01*
X146301577Y-98726451D01*
X146113708Y-98914320D01*
X146107787Y-98919866D01*
X146070876Y-98952237D01*
X146064606Y-98957383D01*
X146012753Y-98997174D01*
X146006153Y-99001904D01*
X145965313Y-99029192D01*
X145958422Y-99033477D01*
X145850855Y-99095580D01*
X145850854Y-99095579D01*
X145764889Y-99145213D01*
X145757731Y-99149040D01*
X145713674Y-99170766D01*
X145706279Y-99174116D01*
X145645892Y-99199126D01*
X145638301Y-99201983D01*
X145603039Y-99213952D01*
X138351733Y-99213952D01*
X138328527Y-99171454D01*
X138333511Y-99101762D01*
X138375383Y-99045829D01*
X138380803Y-99041993D01*
X138383529Y-99040172D01*
X138419582Y-99016082D01*
X138419581Y-99016082D01*
X138420169Y-99015690D01*
X138486847Y-98994813D01*
X138489059Y-98994793D01*
X138624041Y-98994793D01*
X138624057Y-98994794D01*
X138631653Y-98994794D01*
X138789764Y-98994794D01*
X138789767Y-98994794D01*
X138942495Y-98953870D01*
X138992614Y-98924932D01*
X139079426Y-98874813D01*
X139191230Y-98763009D01*
X139191231Y-98763007D01*
X139262421Y-98691816D01*
X139323743Y-98658334D01*
X139350100Y-98655500D01*
X141770548Y-98655500D01*
X141770564Y-98655501D01*
X141778160Y-98655501D01*
X141936271Y-98655501D01*
X141936274Y-98655501D01*
X142089002Y-98614577D01*
X142164330Y-98571086D01*
X142225933Y-98535520D01*
X142337737Y-98423716D01*
X142337738Y-98423714D01*
X142420632Y-98340819D01*
X142481954Y-98307337D01*
X142508311Y-98304503D01*
X142778006Y-98304503D01*
X142793262Y-98305503D01*
X142793728Y-98305503D01*
X142793729Y-98305503D01*
X144975736Y-98305503D01*
X144975752Y-98305504D01*
X144983348Y-98305504D01*
X145141459Y-98305504D01*
X145141462Y-98305504D01*
X145294190Y-98264580D01*
X145351860Y-98231284D01*
X145431121Y-98185523D01*
X145542925Y-98073719D01*
X145542925Y-98073717D01*
X145553129Y-98063514D01*
X145553132Y-98063509D01*
X150254520Y-93362124D01*
X150333577Y-93225192D01*
X150374501Y-93072465D01*
X150374501Y-92998307D01*
X150394186Y-92931268D01*
X150410820Y-92910626D01*
X150492037Y-92829408D01*
X150509075Y-92892993D01*
X150574901Y-93007007D01*
X150667993Y-93100099D01*
X150782007Y-93165925D01*
X150845590Y-93182962D01*
X150213282Y-93815269D01*
X150213282Y-93815270D01*
X150267449Y-93854624D01*
X150456782Y-93951095D01*
X150658870Y-94016757D01*
X150868754Y-94050000D01*
X151081246Y-94050000D01*
X151291127Y-94016757D01*
X151291130Y-94016757D01*
X151493217Y-93951095D01*
X151682554Y-93854622D01*
X151736716Y-93815270D01*
X151736717Y-93815270D01*
X151104408Y-93182962D01*
X151167993Y-93165925D01*
X151282007Y-93100099D01*
X151375099Y-93007007D01*
X151440925Y-92892993D01*
X151457962Y-92829409D01*
X152090270Y-93461717D01*
X152090270Y-93461716D01*
X152129622Y-93407554D01*
X152226095Y-93218217D01*
X152291757Y-93016130D01*
X152291757Y-93016127D01*
X152325000Y-92806246D01*
X152325000Y-92593753D01*
X152291757Y-92383872D01*
X152291757Y-92383869D01*
X152226095Y-92181782D01*
X152129624Y-91992449D01*
X152090270Y-91938282D01*
X152090269Y-91938282D01*
X151457962Y-92570590D01*
X151440925Y-92507007D01*
X151375099Y-92392993D01*
X151282007Y-92299901D01*
X151167993Y-92234075D01*
X151104408Y-92217037D01*
X151736716Y-91584728D01*
X151682547Y-91545373D01*
X151682547Y-91545372D01*
X151673500Y-91540763D01*
X151622706Y-91492788D01*
X151605912Y-91424966D01*
X151628451Y-91358832D01*
X151673508Y-91319793D01*
X151682816Y-91315051D01*
X151780073Y-91244390D01*
X151854786Y-91190109D01*
X151854788Y-91190106D01*
X151854792Y-91190104D01*
X152005104Y-91039792D01*
X152005106Y-91039788D01*
X152005109Y-91039786D01*
X152130048Y-90867820D01*
X152130047Y-90867820D01*
X152130051Y-90867816D01*
X152226557Y-90678412D01*
X152292246Y-90476243D01*
X152325500Y-90266287D01*
X152325500Y-90053713D01*
X152292246Y-89843757D01*
X152226557Y-89641588D01*
X152130051Y-89452184D01*
X152130049Y-89452181D01*
X152130048Y-89452179D01*
X152005109Y-89280213D01*
X151854786Y-89129890D01*
X151682820Y-89004951D01*
X151676608Y-89001786D01*
X151674054Y-89000485D01*
X151623259Y-88952512D01*
X151606463Y-88884692D01*
X151628999Y-88818556D01*
X151674054Y-88779515D01*
X151682816Y-88775051D01*
X151769138Y-88712335D01*
X151854786Y-88650109D01*
X151854788Y-88650106D01*
X151854792Y-88650104D01*
X152005104Y-88499792D01*
X152005106Y-88499788D01*
X152005109Y-88499786D01*
X152130048Y-88327820D01*
X152130047Y-88327820D01*
X152130051Y-88327816D01*
X152226557Y-88138412D01*
X152292246Y-87936243D01*
X152325500Y-87726287D01*
X152325500Y-87513713D01*
X152292246Y-87303757D01*
X152226557Y-87101588D01*
X152130051Y-86912184D01*
X152130049Y-86912181D01*
X152130048Y-86912179D01*
X152005109Y-86740213D01*
X151854786Y-86589890D01*
X151682820Y-86464951D01*
X151493414Y-86368444D01*
X151493413Y-86368443D01*
X151493412Y-86368443D01*
X151291243Y-86302754D01*
X151291241Y-86302753D01*
X151291240Y-86302753D01*
X151129957Y-86277208D01*
X151081287Y-86269500D01*
X150868713Y-86269500D01*
X150820042Y-86277208D01*
X150658760Y-86302753D01*
X150456585Y-86368444D01*
X150267179Y-86464951D01*
X150095215Y-86589889D01*
X149981673Y-86703431D01*
X149920350Y-86736915D01*
X149850658Y-86731931D01*
X149794725Y-86690059D01*
X149777810Y-86659082D01*
X149728797Y-86527671D01*
X149728793Y-86527664D01*
X149642547Y-86412455D01*
X149642544Y-86412452D01*
X149527335Y-86326206D01*
X149527328Y-86326202D01*
X149392482Y-86275908D01*
X149392483Y-86275908D01*
X149332883Y-86269501D01*
X149332881Y-86269500D01*
X149332873Y-86269500D01*
X149332864Y-86269500D01*
X147537129Y-86269500D01*
X147537123Y-86269501D01*
X147477516Y-86275908D01*
X147342671Y-86326202D01*
X147342664Y-86326206D01*
X147227455Y-86412452D01*
X147227452Y-86412455D01*
X147141206Y-86527664D01*
X147141202Y-86527671D01*
X147090908Y-86662517D01*
X147084501Y-86722116D01*
X147084500Y-86722135D01*
X147084500Y-88517870D01*
X147084501Y-88517876D01*
X147090908Y-88577483D01*
X147141202Y-88712328D01*
X147141204Y-88712331D01*
X147190035Y-88777561D01*
X147214453Y-88843024D01*
X147199602Y-88911297D01*
X147178450Y-88939553D01*
X146915286Y-89202718D01*
X146803481Y-89314522D01*
X146803479Y-89314525D01*
X146794193Y-89330609D01*
X146764026Y-89382861D01*
X146724423Y-89451455D01*
X146683499Y-89604183D01*
X146683499Y-89604185D01*
X146683499Y-89772286D01*
X146683500Y-89772299D01*
X146683500Y-91110903D01*
X146663815Y-91177942D01*
X146647181Y-91198584D01*
X144777181Y-93068584D01*
X144715858Y-93102069D01*
X144646166Y-93097085D01*
X144590233Y-93055213D01*
X144565816Y-92989749D01*
X144565500Y-92980903D01*
X144565500Y-91736708D01*
X144585185Y-91669669D01*
X144637989Y-91623914D01*
X144707147Y-91613970D01*
X144713692Y-91615091D01*
X144791155Y-91630500D01*
X144791158Y-91630500D01*
X144948844Y-91630500D01*
X144948845Y-91630499D01*
X145103497Y-91599737D01*
X145249179Y-91539394D01*
X145380289Y-91451789D01*
X145491789Y-91340289D01*
X145579394Y-91209179D01*
X145589348Y-91185149D01*
X145629724Y-91087671D01*
X145639737Y-91063497D01*
X145670500Y-90908842D01*
X145670500Y-90751158D01*
X145670500Y-90751155D01*
X145670499Y-90751153D01*
X145665258Y-90724803D01*
X145639737Y-90596503D01*
X145622272Y-90554338D01*
X145579397Y-90450827D01*
X145579390Y-90450814D01*
X145491789Y-90319711D01*
X145491786Y-90319707D01*
X145380292Y-90208213D01*
X145380288Y-90208210D01*
X145249185Y-90120609D01*
X145249172Y-90120602D01*
X145103501Y-90060264D01*
X145103489Y-90060261D01*
X144948845Y-90029500D01*
X144948842Y-90029500D01*
X144791158Y-90029500D01*
X144791155Y-90029500D01*
X144636510Y-90060261D01*
X144636498Y-90060264D01*
X144490827Y-90120602D01*
X144490814Y-90120609D01*
X144359125Y-90208602D01*
X144292447Y-90229480D01*
X144290234Y-90229500D01*
X143965943Y-90229500D01*
X143813213Y-90270423D01*
X143790148Y-90283741D01*
X143790147Y-90283741D01*
X143676287Y-90349477D01*
X143676282Y-90349481D01*
X143484481Y-90541282D01*
X143484479Y-90541285D01*
X143476943Y-90554338D01*
X143452596Y-90596510D01*
X143434361Y-90628094D01*
X143434359Y-90628096D01*
X143405425Y-90678209D01*
X143405424Y-90678210D01*
X143392940Y-90724803D01*
X143364499Y-90830943D01*
X143364499Y-90830945D01*
X143364499Y-90999046D01*
X143364500Y-90999059D01*
X143364500Y-93862802D01*
X143344815Y-93929841D01*
X143328181Y-93950483D01*
X143215655Y-94063009D01*
X143154332Y-94096494D01*
X143084640Y-94091510D01*
X143040293Y-94063009D01*
X142947318Y-93970034D01*
X142947314Y-93970031D01*
X142816211Y-93882430D01*
X142816198Y-93882423D01*
X142670527Y-93822085D01*
X142670517Y-93822082D01*
X142515175Y-93791182D01*
X142453264Y-93758797D01*
X142451686Y-93757246D01*
X141607795Y-92913355D01*
X141607793Y-92913352D01*
X141488922Y-92794481D01*
X141488921Y-92794480D01*
X141402109Y-92744360D01*
X141402109Y-92744359D01*
X141402105Y-92744358D01*
X141351990Y-92715423D01*
X141199262Y-92674499D01*
X141041148Y-92674499D01*
X141033552Y-92674499D01*
X141033536Y-92674500D01*
X139234500Y-92674500D01*
X139167461Y-92654815D01*
X139121706Y-92602011D01*
X139110500Y-92550500D01*
X139110500Y-92446155D01*
X139110499Y-92446153D01*
X139098110Y-92383869D01*
X139079737Y-92291503D01*
X139072048Y-92272940D01*
X139019397Y-92145827D01*
X139019390Y-92145814D01*
X138931398Y-92014125D01*
X138910520Y-91947447D01*
X138910500Y-91945234D01*
X138910500Y-91590945D01*
X138910500Y-91590943D01*
X138869577Y-91438216D01*
X138861008Y-91423374D01*
X138790524Y-91301290D01*
X138790521Y-91301286D01*
X138790520Y-91301284D01*
X138678716Y-91189480D01*
X138678715Y-91189479D01*
X138674385Y-91185149D01*
X138674374Y-91185139D01*
X137362590Y-89873355D01*
X137362588Y-89873352D01*
X137243717Y-89754481D01*
X137243716Y-89754480D01*
X137156904Y-89704360D01*
X137156904Y-89704359D01*
X137156900Y-89704358D01*
X137106785Y-89675423D01*
X136954057Y-89634499D01*
X136795943Y-89634499D01*
X136788347Y-89634499D01*
X136788331Y-89634500D01*
X135399766Y-89634500D01*
X135332727Y-89614815D01*
X135330875Y-89613602D01*
X135199185Y-89525609D01*
X135199172Y-89525602D01*
X135053501Y-89465264D01*
X135053489Y-89465261D01*
X134898845Y-89434500D01*
X134898842Y-89434500D01*
X134741158Y-89434500D01*
X134741155Y-89434500D01*
X134586510Y-89465261D01*
X134586498Y-89465264D01*
X134440827Y-89525602D01*
X134440814Y-89525609D01*
X134309711Y-89613210D01*
X134309707Y-89613213D01*
X134198213Y-89724707D01*
X134198210Y-89724711D01*
X134110609Y-89855814D01*
X134110604Y-89855823D01*
X134076854Y-89937305D01*
X134033013Y-89991708D01*
X133966719Y-90013773D01*
X133899019Y-89996494D01*
X133874612Y-89977533D01*
X133810292Y-89913213D01*
X133810288Y-89913210D01*
X133679185Y-89825609D01*
X133679172Y-89825602D01*
X133533501Y-89765264D01*
X133533489Y-89765261D01*
X133378845Y-89734500D01*
X133378842Y-89734500D01*
X133221158Y-89734500D01*
X133221155Y-89734500D01*
X133066510Y-89765261D01*
X133066498Y-89765264D01*
X132920827Y-89825602D01*
X132920814Y-89825609D01*
X132789711Y-89913210D01*
X132789707Y-89913213D01*
X132678213Y-90024707D01*
X132678210Y-90024711D01*
X132590609Y-90155814D01*
X132590602Y-90155827D01*
X132530264Y-90301498D01*
X132530261Y-90301510D01*
X132499500Y-90456153D01*
X132499500Y-90613846D01*
X132530261Y-90768489D01*
X132530264Y-90768501D01*
X132590602Y-90914172D01*
X132590609Y-90914185D01*
X132678210Y-91045288D01*
X132678213Y-91045292D01*
X132789707Y-91156786D01*
X132789711Y-91156789D01*
X132920814Y-91244390D01*
X132920827Y-91244397D01*
X133058171Y-91301286D01*
X133066503Y-91304737D01*
X133118345Y-91315049D01*
X133221849Y-91335638D01*
X133283760Y-91368023D01*
X133285339Y-91369574D01*
X135139895Y-93224130D01*
X135173380Y-93285453D01*
X135168396Y-93355145D01*
X135126524Y-93411078D01*
X135076406Y-93433428D01*
X134941508Y-93460261D01*
X134941498Y-93460264D01*
X134795827Y-93520602D01*
X134795814Y-93520609D01*
X134664711Y-93608210D01*
X134664707Y-93608213D01*
X134553213Y-93719707D01*
X134553210Y-93719711D01*
X134465609Y-93850814D01*
X134465602Y-93850827D01*
X134405264Y-93996498D01*
X134405261Y-93996510D01*
X134374500Y-94151153D01*
X134374500Y-94308846D01*
X134405261Y-94463489D01*
X134405264Y-94463501D01*
X134465602Y-94609172D01*
X134465609Y-94609185D01*
X134553602Y-94740874D01*
X134574480Y-94807551D01*
X134574500Y-94809765D01*
X134574500Y-97213330D01*
X134574499Y-97213348D01*
X134574499Y-97220943D01*
X134574499Y-97379057D01*
X134580873Y-97402844D01*
X134595275Y-97456592D01*
X134599500Y-97488686D01*
X134599500Y-98081234D01*
X134579815Y-98148273D01*
X134578602Y-98150125D01*
X134490609Y-98281814D01*
X134490602Y-98281827D01*
X134430264Y-98427498D01*
X134430261Y-98427510D01*
X134399500Y-98582153D01*
X134399500Y-98739844D01*
X134400097Y-98745907D01*
X134397919Y-98746121D01*
X134392550Y-98805912D01*
X134349670Y-98861076D01*
X134283773Y-98884300D01*
X134215781Y-98868211D01*
X134189493Y-98848157D01*
X133142268Y-97800932D01*
X133132737Y-97795429D01*
X133107060Y-97775725D01*
X132926280Y-97594945D01*
X132892795Y-97533622D01*
X132889961Y-97507264D01*
X132889961Y-95412518D01*
X132909646Y-95345479D01*
X132910859Y-95343627D01*
X132998851Y-95211938D01*
X132998851Y-95211937D01*
X132998855Y-95211932D01*
X133059198Y-95066250D01*
X133089961Y-94911595D01*
X133089961Y-94753911D01*
X133089961Y-94753908D01*
X133089960Y-94753906D01*
X133070106Y-94654096D01*
X133059198Y-94599256D01*
X133033593Y-94537440D01*
X132998858Y-94453580D01*
X132998851Y-94453567D01*
X132911250Y-94322464D01*
X132911247Y-94322460D01*
X132799753Y-94210966D01*
X132799749Y-94210963D01*
X132668646Y-94123362D01*
X132668633Y-94123355D01*
X132522962Y-94063017D01*
X132522950Y-94063014D01*
X132368306Y-94032253D01*
X132368303Y-94032253D01*
X132320661Y-94032253D01*
X132253622Y-94012568D01*
X132207867Y-93959764D01*
X132206100Y-93955705D01*
X132179227Y-93890827D01*
X132179220Y-93890814D01*
X132091619Y-93759711D01*
X132091616Y-93759707D01*
X131980122Y-93648213D01*
X131980118Y-93648210D01*
X131849015Y-93560609D01*
X131849002Y-93560602D01*
X131703331Y-93500264D01*
X131703319Y-93500261D01*
X131548675Y-93469500D01*
X131548672Y-93469500D01*
X131390988Y-93469500D01*
X131390985Y-93469500D01*
X131236340Y-93500261D01*
X131236328Y-93500264D01*
X131090657Y-93560602D01*
X131090644Y-93560609D01*
X130959541Y-93648210D01*
X130959537Y-93648213D01*
X130848043Y-93759707D01*
X130848040Y-93759711D01*
X130760439Y-93890814D01*
X130760432Y-93890827D01*
X130700094Y-94036498D01*
X130700091Y-94036510D01*
X130669330Y-94191153D01*
X130669330Y-94348846D01*
X130700091Y-94503489D01*
X130700094Y-94503501D01*
X130760432Y-94649172D01*
X130760439Y-94649185D01*
X130848040Y-94780288D01*
X130848043Y-94780292D01*
X130959538Y-94891787D01*
X130959541Y-94891789D01*
X131019391Y-94931779D01*
X131064195Y-94985390D01*
X131074500Y-95034881D01*
X131074500Y-97673330D01*
X131074499Y-97673348D01*
X131074499Y-97839054D01*
X131074498Y-97839054D01*
X131074499Y-97839057D01*
X131105501Y-97954758D01*
X131115424Y-97991787D01*
X131128891Y-98015112D01*
X131128892Y-98015114D01*
X131194477Y-98128712D01*
X131194481Y-98128717D01*
X131313349Y-98247585D01*
X131313355Y-98247590D01*
X132365139Y-99299374D01*
X132365149Y-99299385D01*
X132369479Y-99303715D01*
X132369480Y-99303716D01*
X132481284Y-99415520D01*
X132490809Y-99421019D01*
X132516491Y-99440726D01*
X134788414Y-101712649D01*
X134821899Y-101773972D01*
X134816915Y-101843664D01*
X134775043Y-101899597D01*
X134769625Y-101903431D01*
X134709866Y-101943361D01*
X134709860Y-101943366D01*
X134598366Y-102054860D01*
X134598363Y-102054864D01*
X134510762Y-102185967D01*
X134510755Y-102185980D01*
X134450417Y-102331651D01*
X134450414Y-102331661D01*
X134419514Y-102487003D01*
X134387129Y-102548914D01*
X134385578Y-102550492D01*
X133912890Y-103023181D01*
X133851567Y-103056666D01*
X133825209Y-103059500D01*
X125701691Y-103059500D01*
X125634652Y-103039815D01*
X125628805Y-103035560D01*
X125494185Y-102945609D01*
X125494172Y-102945602D01*
X125348501Y-102885264D01*
X125348489Y-102885261D01*
X125193845Y-102854500D01*
X125193842Y-102854500D01*
X125036158Y-102854500D01*
X125036155Y-102854500D01*
X124881510Y-102885261D01*
X124881498Y-102885264D01*
X124735827Y-102945602D01*
X124735814Y-102945609D01*
X124604711Y-103033210D01*
X124604707Y-103033213D01*
X124493213Y-103144707D01*
X124493210Y-103144711D01*
X124405609Y-103275814D01*
X124405602Y-103275827D01*
X124345264Y-103421498D01*
X124345261Y-103421510D01*
X124314500Y-103576153D01*
X122716500Y-103576153D01*
X122716500Y-102520416D01*
X123714500Y-102520416D01*
X123737288Y-102492649D01*
X123741262Y-102488042D01*
X123765993Y-102460755D01*
X123770191Y-102456346D01*
X123916346Y-102310191D01*
X123920755Y-102305993D01*
X123948042Y-102281262D01*
X123952649Y-102277288D01*
X123990531Y-102246199D01*
X123995329Y-102242455D01*
X124024902Y-102220522D01*
X124029878Y-102217017D01*
X124201737Y-102102184D01*
X124206882Y-102098926D01*
X124238475Y-102079991D01*
X124243770Y-102076992D01*
X124286991Y-102053891D01*
X124292426Y-102051155D01*
X124325708Y-102035414D01*
X124331272Y-102032948D01*
X124522222Y-101953855D01*
X124527899Y-101951665D01*
X124562560Y-101939263D01*
X124568338Y-101937354D01*
X124605039Y-101926220D01*
X124605039Y-101920035D01*
X125603039Y-101920035D01*
X125608903Y-101921505D01*
X125614767Y-101923128D01*
X125661662Y-101937354D01*
X125667440Y-101939263D01*
X125702101Y-101951665D01*
X125707778Y-101953855D01*
X125898728Y-102032948D01*
X125904292Y-102035414D01*
X125937574Y-102051155D01*
X125943009Y-102053890D01*
X125957247Y-102061500D01*
X127105039Y-102061500D01*
X128103039Y-102061500D01*
X129605039Y-102061500D01*
X130603039Y-102061500D01*
X132105039Y-102061500D01*
X132105039Y-101158020D01*
X130603039Y-101158020D01*
X130603039Y-102061500D01*
X129605039Y-102061500D01*
X129605039Y-101158020D01*
X128103039Y-101158020D01*
X128103039Y-102061500D01*
X127105039Y-102061500D01*
X127105039Y-101158020D01*
X125603039Y-101158020D01*
X125603039Y-101920035D01*
X124605039Y-101920035D01*
X124605039Y-101158020D01*
X123714500Y-101158020D01*
X123714500Y-102520416D01*
X122716500Y-102520416D01*
X122716500Y-100160020D01*
X123714500Y-100160020D01*
X124605039Y-100160020D01*
X125603039Y-100160020D01*
X127105039Y-100160020D01*
X128103039Y-100160020D01*
X129605039Y-100160020D01*
X130603039Y-100160020D01*
X131816199Y-100160020D01*
X131804619Y-100149864D01*
X131798698Y-100144319D01*
X131647437Y-99993059D01*
X131647369Y-99992988D01*
X130633882Y-98979501D01*
X130633851Y-98979473D01*
X130603039Y-98948660D01*
X130603039Y-100160020D01*
X129605039Y-100160020D01*
X129605039Y-98658020D01*
X128103039Y-98658020D01*
X128103039Y-100160020D01*
X127105039Y-100160020D01*
X127105039Y-98658020D01*
X125603039Y-98658020D01*
X125603039Y-100160020D01*
X124605039Y-100160020D01*
X124605039Y-98658020D01*
X123714500Y-98658020D01*
X123714500Y-100160020D01*
X122716500Y-100160020D01*
X122716500Y-97660020D01*
X123714500Y-97660020D01*
X124605039Y-97660020D01*
X125603039Y-97660020D01*
X127105039Y-97660020D01*
X128103039Y-97660020D01*
X129605039Y-97660020D01*
X129605039Y-96158020D01*
X128103039Y-96158020D01*
X128103039Y-97660020D01*
X127105039Y-97660020D01*
X127105039Y-96158020D01*
X125603039Y-96158020D01*
X125603039Y-97660020D01*
X124605039Y-97660020D01*
X124605039Y-96158020D01*
X123714500Y-96158020D01*
X123714500Y-97660020D01*
X122716500Y-97660020D01*
X122716500Y-95160020D01*
X126021431Y-95160020D01*
X127105039Y-95160020D01*
X128103039Y-95160020D01*
X129605039Y-95160020D01*
X129605039Y-93658020D01*
X128103039Y-93658020D01*
X128103039Y-95160020D01*
X127105039Y-95160020D01*
X127105039Y-93795577D01*
X126374253Y-94526363D01*
X126372646Y-94531663D01*
X126370737Y-94537440D01*
X126358335Y-94572101D01*
X126356145Y-94577778D01*
X126277052Y-94768728D01*
X126274586Y-94774292D01*
X126258845Y-94807574D01*
X126256109Y-94813009D01*
X126233008Y-94856230D01*
X126230009Y-94861525D01*
X126211074Y-94893118D01*
X126207816Y-94898263D01*
X126092983Y-95070122D01*
X126089478Y-95075098D01*
X126067545Y-95104671D01*
X126063801Y-95109469D01*
X126032712Y-95147351D01*
X126028738Y-95151958D01*
X126021431Y-95160020D01*
X122716500Y-95160020D01*
X122716500Y-94654096D01*
X122736185Y-94587057D01*
X122752814Y-94566420D01*
X123675063Y-93644170D01*
X123736383Y-93610688D01*
X123806074Y-93615672D01*
X123862008Y-93657544D01*
X123886425Y-93723008D01*
X123884358Y-93756045D01*
X123854500Y-93906153D01*
X123854500Y-94063846D01*
X123885261Y-94218489D01*
X123885264Y-94218501D01*
X123945602Y-94364172D01*
X123945609Y-94364185D01*
X124033210Y-94495288D01*
X124033213Y-94495292D01*
X124144707Y-94606786D01*
X124144711Y-94606789D01*
X124275814Y-94694390D01*
X124275827Y-94694397D01*
X124419509Y-94753911D01*
X124421503Y-94754737D01*
X124549956Y-94780288D01*
X124576153Y-94785499D01*
X124576156Y-94785500D01*
X124576158Y-94785500D01*
X124733844Y-94785500D01*
X124733845Y-94785499D01*
X124888497Y-94754737D01*
X125034179Y-94694394D01*
X125165289Y-94606789D01*
X125276789Y-94495289D01*
X125364394Y-94364179D01*
X125424737Y-94218497D01*
X125449005Y-94096494D01*
X125455638Y-94063150D01*
X125488023Y-94001239D01*
X125489519Y-93999715D01*
X126829213Y-92660020D01*
X128182917Y-92660020D01*
X129605039Y-92660020D01*
X130603039Y-92660020D01*
X130660228Y-92660020D01*
X130680538Y-92650414D01*
X130686102Y-92647948D01*
X130877052Y-92568855D01*
X130882729Y-92566665D01*
X130917390Y-92554263D01*
X130923168Y-92552354D01*
X130970063Y-92538128D01*
X130975927Y-92536505D01*
X131011653Y-92527555D01*
X131017595Y-92526221D01*
X131220322Y-92485896D01*
X131226319Y-92484855D01*
X131262750Y-92479451D01*
X131268791Y-92478706D01*
X131317563Y-92473903D01*
X131323633Y-92473455D01*
X131360405Y-92471649D01*
X131366488Y-92471500D01*
X131573172Y-92471500D01*
X131579255Y-92471649D01*
X131616027Y-92473455D01*
X131622097Y-92473903D01*
X131670869Y-92478706D01*
X131676910Y-92479451D01*
X131713341Y-92484855D01*
X131719338Y-92485896D01*
X131922065Y-92526221D01*
X131928007Y-92527555D01*
X131963733Y-92536505D01*
X131969597Y-92538128D01*
X132016492Y-92552354D01*
X132022270Y-92554263D01*
X132056931Y-92566665D01*
X132062608Y-92568855D01*
X132105039Y-92586430D01*
X132105039Y-91883325D01*
X132101346Y-91879809D01*
X131955191Y-91733654D01*
X131950993Y-91729245D01*
X131926262Y-91701958D01*
X131922288Y-91697351D01*
X131891199Y-91659469D01*
X131887455Y-91654671D01*
X131865522Y-91625098D01*
X131862017Y-91620122D01*
X131747184Y-91448263D01*
X131743926Y-91443118D01*
X131724991Y-91411525D01*
X131721992Y-91406230D01*
X131698891Y-91363009D01*
X131696155Y-91357574D01*
X131680414Y-91324292D01*
X131677948Y-91318728D01*
X131611381Y-91158020D01*
X130603039Y-91158020D01*
X130603039Y-92660020D01*
X129605039Y-92660020D01*
X129605039Y-91158020D01*
X128423500Y-91158020D01*
X128423500Y-91926740D01*
X128423235Y-91934850D01*
X128420023Y-91983856D01*
X128419227Y-91991935D01*
X128410694Y-92056736D01*
X128409372Y-92064740D01*
X128399793Y-92112894D01*
X128397951Y-92120794D01*
X128340114Y-92336648D01*
X128337758Y-92344414D01*
X128321975Y-92390909D01*
X128319118Y-92398500D01*
X128294108Y-92458883D01*
X128290758Y-92466277D01*
X128269038Y-92510321D01*
X128265214Y-92517476D01*
X128182917Y-92660020D01*
X126829213Y-92660020D01*
X127183506Y-92305727D01*
X127183511Y-92305724D01*
X127193714Y-92295520D01*
X127193716Y-92295520D01*
X127305520Y-92183716D01*
X127384577Y-92046784D01*
X127425500Y-91894057D01*
X127425500Y-89231597D01*
X127417762Y-89202720D01*
X127409721Y-89172708D01*
X127384577Y-89078870D01*
X127362051Y-89039853D01*
X127345579Y-88971956D01*
X127350252Y-88951077D01*
X128383540Y-88951077D01*
X128397948Y-89004845D01*
X128399791Y-89012747D01*
X128409372Y-89060909D01*
X128410694Y-89068915D01*
X128419227Y-89133719D01*
X128420023Y-89141797D01*
X128423235Y-89190803D01*
X128423500Y-89198913D01*
X128423500Y-90160020D01*
X129605039Y-90160020D01*
X130603039Y-90160020D01*
X131540854Y-90160020D01*
X131556221Y-90082765D01*
X131557555Y-90076823D01*
X131566505Y-90041097D01*
X131568128Y-90035233D01*
X131582354Y-89988338D01*
X131584263Y-89982560D01*
X131596665Y-89947899D01*
X131598855Y-89942222D01*
X131677948Y-89751272D01*
X131680414Y-89745708D01*
X131696155Y-89712426D01*
X131698891Y-89706991D01*
X131721992Y-89663770D01*
X131724991Y-89658475D01*
X131743926Y-89626882D01*
X131747184Y-89621737D01*
X131862017Y-89449878D01*
X131865522Y-89444902D01*
X131887455Y-89415329D01*
X131891199Y-89410531D01*
X131922288Y-89372649D01*
X131926262Y-89368042D01*
X131950993Y-89340755D01*
X131955191Y-89336346D01*
X132101346Y-89190191D01*
X132105039Y-89186674D01*
X132105039Y-88838500D01*
X130603039Y-88838500D01*
X130603039Y-90160020D01*
X129605039Y-90160020D01*
X129605039Y-88838500D01*
X128496119Y-88838500D01*
X128383540Y-88951077D01*
X127350252Y-88951077D01*
X127352932Y-88939105D01*
X127352473Y-88938982D01*
X127354577Y-88931131D01*
X127395501Y-88778403D01*
X127395501Y-88620289D01*
X127395501Y-88612694D01*
X127395500Y-88612676D01*
X127395500Y-88579097D01*
X127415185Y-88512058D01*
X127431819Y-88491416D01*
X128046416Y-87876819D01*
X128107739Y-87843334D01*
X128134097Y-87840500D01*
X134458331Y-87840500D01*
X134458347Y-87840501D01*
X134465943Y-87840501D01*
X134624055Y-87840501D01*
X134624057Y-87840501D01*
X134626957Y-87839723D01*
X134659046Y-87835500D01*
X135454903Y-87835500D01*
X135521942Y-87855185D01*
X135542584Y-87871819D01*
X135590425Y-87919660D01*
X135623910Y-87980983D01*
X135624361Y-87983149D01*
X135655261Y-88138491D01*
X135655264Y-88138501D01*
X135715602Y-88284172D01*
X135715609Y-88284185D01*
X135803210Y-88415288D01*
X135803213Y-88415292D01*
X135914707Y-88526786D01*
X135914711Y-88526789D01*
X136045814Y-88614390D01*
X136045827Y-88614397D01*
X136132033Y-88650104D01*
X136191503Y-88674737D01*
X136346153Y-88705499D01*
X136346156Y-88705500D01*
X136346158Y-88705500D01*
X136503844Y-88705500D01*
X136503845Y-88705499D01*
X136658497Y-88674737D01*
X136804179Y-88614394D01*
X136857005Y-88579097D01*
X136935875Y-88526398D01*
X137002553Y-88505520D01*
X137004766Y-88505500D01*
X138389903Y-88505500D01*
X138456942Y-88525185D01*
X138477584Y-88541819D01*
X140475292Y-90539527D01*
X140475302Y-90539538D01*
X140479632Y-90543868D01*
X140479633Y-90543869D01*
X140591437Y-90655673D01*
X140677044Y-90705097D01*
X140702721Y-90724799D01*
X140746411Y-90768489D01*
X140774865Y-90796943D01*
X140905967Y-90884543D01*
X140905980Y-90884550D01*
X141050466Y-90944397D01*
X141051656Y-90944890D01*
X141190219Y-90972452D01*
X141206306Y-90975652D01*
X141206309Y-90975653D01*
X141206311Y-90975653D01*
X141363997Y-90975653D01*
X141363998Y-90975652D01*
X141518650Y-90944890D01*
X141660332Y-90886204D01*
X141664325Y-90884550D01*
X141664325Y-90884549D01*
X141664332Y-90884547D01*
X141795442Y-90796942D01*
X141906942Y-90685442D01*
X141994547Y-90554332D01*
X141999953Y-90541282D01*
X142026894Y-90476239D01*
X142054890Y-90408650D01*
X142085653Y-90253995D01*
X142085653Y-90096311D01*
X142085653Y-90096308D01*
X142085652Y-90096306D01*
X142054890Y-89941656D01*
X142053088Y-89937305D01*
X141994550Y-89795980D01*
X141994543Y-89795967D01*
X141906942Y-89664864D01*
X141906939Y-89664860D01*
X141795445Y-89553366D01*
X141795441Y-89553363D01*
X141763329Y-89531906D01*
X143103039Y-89531906D01*
X143142086Y-89505815D01*
X143148979Y-89501528D01*
X143291148Y-89419447D01*
X143342519Y-89389788D01*
X143349677Y-89385962D01*
X143393733Y-89364237D01*
X143401126Y-89360888D01*
X143461513Y-89335877D01*
X143469106Y-89333019D01*
X143515593Y-89317240D01*
X143523356Y-89314885D01*
X143739207Y-89257049D01*
X143747107Y-89255207D01*
X143795261Y-89245628D01*
X143803265Y-89244306D01*
X143868065Y-89235773D01*
X143876144Y-89234977D01*
X143925150Y-89231765D01*
X143933260Y-89231500D01*
X144037110Y-89231500D01*
X144041991Y-89228891D01*
X144047426Y-89226155D01*
X144080708Y-89210414D01*
X144086272Y-89207948D01*
X144277222Y-89128855D01*
X144282899Y-89126665D01*
X144317560Y-89114263D01*
X144323338Y-89112354D01*
X144370233Y-89098128D01*
X144376097Y-89096505D01*
X144411823Y-89087555D01*
X144417765Y-89086221D01*
X144605039Y-89048969D01*
X144605039Y-88658020D01*
X143103039Y-88658020D01*
X143103039Y-89531906D01*
X141763329Y-89531906D01*
X141664338Y-89465762D01*
X141664325Y-89465755D01*
X141518654Y-89405417D01*
X141518642Y-89405414D01*
X141363998Y-89374653D01*
X141363995Y-89374653D01*
X141206311Y-89374653D01*
X141106646Y-89394477D01*
X141037055Y-89388249D01*
X140994775Y-89360540D01*
X139191655Y-87557420D01*
X140603039Y-87557420D01*
X140705639Y-87660020D01*
X142105039Y-87660020D01*
X143103039Y-87660020D01*
X144605039Y-87660020D01*
X145603039Y-87660020D01*
X146086501Y-87660020D01*
X146086500Y-86708752D01*
X146086545Y-86705428D01*
X146087084Y-86685327D01*
X146087217Y-86682007D01*
X146088649Y-86655320D01*
X146088871Y-86652011D01*
X146090481Y-86632018D01*
X146090792Y-86628715D01*
X146101962Y-86524825D01*
X146103029Y-86517157D01*
X146110936Y-86470971D01*
X146112481Y-86463381D01*
X146126826Y-86402670D01*
X146128842Y-86395191D01*
X146142450Y-86350328D01*
X146144929Y-86342988D01*
X146213917Y-86158020D01*
X145603039Y-86158020D01*
X145603039Y-87660020D01*
X144605039Y-87660020D01*
X144605039Y-86158020D01*
X143103039Y-86158020D01*
X143103039Y-87660020D01*
X142105039Y-87660020D01*
X142105039Y-86158020D01*
X140603039Y-86158020D01*
X140603039Y-87557420D01*
X139191655Y-87557420D01*
X139177590Y-87543355D01*
X139177588Y-87543352D01*
X139058717Y-87424481D01*
X139058716Y-87424480D01*
X138971904Y-87374360D01*
X138971904Y-87374359D01*
X138971900Y-87374358D01*
X138921785Y-87345423D01*
X138769057Y-87304499D01*
X138610943Y-87304499D01*
X138603347Y-87304499D01*
X138603331Y-87304500D01*
X137004766Y-87304500D01*
X136937727Y-87284815D01*
X136935875Y-87283602D01*
X136804185Y-87195609D01*
X136804172Y-87195602D01*
X136658501Y-87135264D01*
X136658491Y-87135261D01*
X136503149Y-87104361D01*
X136441238Y-87071976D01*
X136439660Y-87070425D01*
X136242590Y-86873355D01*
X136242588Y-86873352D01*
X136123717Y-86754481D01*
X136123716Y-86754480D01*
X136036904Y-86704360D01*
X136036904Y-86704359D01*
X136036900Y-86704358D01*
X135986785Y-86675423D01*
X135834057Y-86634499D01*
X135675943Y-86634499D01*
X135668347Y-86634499D01*
X135668331Y-86634500D01*
X134629057Y-86634500D01*
X134470943Y-86634500D01*
X134468045Y-86635276D01*
X134435958Y-86639500D01*
X127920669Y-86639500D01*
X127920653Y-86639499D01*
X127913057Y-86639499D01*
X127754943Y-86639499D01*
X127647587Y-86668265D01*
X127602210Y-86680424D01*
X127602209Y-86680425D01*
X127552096Y-86709359D01*
X127552095Y-86709360D01*
X127535211Y-86719108D01*
X127465285Y-86759479D01*
X127465282Y-86759481D01*
X127353478Y-86871286D01*
X126481584Y-87743181D01*
X126420261Y-87776666D01*
X126393903Y-87779500D01*
X125874766Y-87779500D01*
X125807727Y-87759815D01*
X125805875Y-87758602D01*
X125674185Y-87670609D01*
X125674172Y-87670602D01*
X125528501Y-87610264D01*
X125528489Y-87610261D01*
X125373845Y-87579500D01*
X125373842Y-87579500D01*
X125216158Y-87579500D01*
X125216155Y-87579500D01*
X125061510Y-87610261D01*
X125061498Y-87610264D01*
X124915827Y-87670602D01*
X124915814Y-87670609D01*
X124784711Y-87758210D01*
X124784707Y-87758213D01*
X124673213Y-87869707D01*
X124673210Y-87869711D01*
X124585609Y-88000814D01*
X124585602Y-88000827D01*
X124525264Y-88146498D01*
X124525261Y-88146510D01*
X124494500Y-88301153D01*
X124494500Y-88458846D01*
X124525261Y-88613489D01*
X124525264Y-88613501D01*
X124585602Y-88759172D01*
X124585609Y-88759185D01*
X124673210Y-88890288D01*
X124673213Y-88890292D01*
X124784707Y-89001786D01*
X124784711Y-89001789D01*
X124915814Y-89089390D01*
X124915827Y-89089397D01*
X125042334Y-89141797D01*
X125061503Y-89149737D01*
X125183858Y-89174075D01*
X125216153Y-89180499D01*
X125216156Y-89180500D01*
X125216158Y-89180500D01*
X125373844Y-89180500D01*
X125373845Y-89180499D01*
X125528497Y-89149737D01*
X125653093Y-89098128D01*
X125674172Y-89089397D01*
X125674172Y-89089396D01*
X125674179Y-89089394D01*
X125728663Y-89052989D01*
X125805875Y-89001398D01*
X125872553Y-88980520D01*
X125874766Y-88980500D01*
X126000500Y-88980500D01*
X126067539Y-89000185D01*
X126113294Y-89052989D01*
X126124500Y-89104500D01*
X126124500Y-89123984D01*
X126124499Y-89124002D01*
X126124499Y-89289708D01*
X126124498Y-89289708D01*
X126149459Y-89382860D01*
X126165423Y-89442439D01*
X126178601Y-89465263D01*
X126205435Y-89511742D01*
X126207887Y-89515988D01*
X126224500Y-89577988D01*
X126224500Y-89698625D01*
X126204815Y-89765664D01*
X126152011Y-89811419D01*
X126124692Y-89820242D01*
X125991508Y-89846734D01*
X125991507Y-89846735D01*
X125991506Y-89846735D01*
X125991503Y-89846736D01*
X125926758Y-89873554D01*
X125889371Y-89889040D01*
X125819901Y-89896508D01*
X125757422Y-89865232D01*
X125754238Y-89862159D01*
X125645292Y-89753213D01*
X125645288Y-89753210D01*
X125514185Y-89665609D01*
X125514172Y-89665602D01*
X125368501Y-89605264D01*
X125368489Y-89605261D01*
X125213845Y-89574500D01*
X125213842Y-89574500D01*
X125056158Y-89574500D01*
X125056155Y-89574500D01*
X124901510Y-89605261D01*
X124901498Y-89605264D01*
X124755827Y-89665602D01*
X124755814Y-89665609D01*
X124624711Y-89753210D01*
X124624707Y-89753213D01*
X124513213Y-89864707D01*
X124513210Y-89864711D01*
X124425609Y-89995814D01*
X124425602Y-89995827D01*
X124365264Y-90141498D01*
X124365261Y-90141508D01*
X124334362Y-90296848D01*
X124301977Y-90358759D01*
X124300426Y-90360337D01*
X121017181Y-93643583D01*
X120955858Y-93677068D01*
X120886166Y-93672084D01*
X120830233Y-93630212D01*
X120805816Y-93564748D01*
X120805500Y-93555902D01*
X120805500Y-91017940D01*
X120825185Y-90950901D01*
X120841814Y-90930263D01*
X120941789Y-90830289D01*
X121029394Y-90699179D01*
X121089737Y-90553497D01*
X121120500Y-90398842D01*
X121120500Y-90309501D01*
X121140185Y-90242462D01*
X121192989Y-90196707D01*
X121244500Y-90185501D01*
X121277584Y-90185501D01*
X121277587Y-90185501D01*
X121430315Y-90144577D01*
X121496813Y-90106184D01*
X121562818Y-90068076D01*
X121604855Y-90054574D01*
X121604633Y-90053454D01*
X121696232Y-90035233D01*
X121765262Y-90021502D01*
X121910944Y-89961159D01*
X122042054Y-89873554D01*
X122153554Y-89762054D01*
X122241159Y-89630944D01*
X122301502Y-89485262D01*
X122332265Y-89330607D01*
X122332265Y-89172923D01*
X122332265Y-89172920D01*
X122332264Y-89172918D01*
X122318651Y-89104480D01*
X122301502Y-89018268D01*
X122287482Y-88984421D01*
X122241162Y-88872592D01*
X122241155Y-88872579D01*
X122153554Y-88741476D01*
X122153551Y-88741472D01*
X122042057Y-88629978D01*
X122042053Y-88629975D01*
X121910950Y-88542374D01*
X121910937Y-88542367D01*
X121765266Y-88482029D01*
X121765254Y-88482026D01*
X121610610Y-88451265D01*
X121610607Y-88451265D01*
X121452923Y-88451265D01*
X121452920Y-88451265D01*
X121298275Y-88482026D01*
X121298263Y-88482029D01*
X121152592Y-88542367D01*
X121152579Y-88542374D01*
X121021476Y-88629975D01*
X121021472Y-88629978D01*
X120909978Y-88741472D01*
X120909975Y-88741476D01*
X120822374Y-88872579D01*
X120822370Y-88872586D01*
X120815038Y-88890289D01*
X120807721Y-88907952D01*
X120763882Y-88962355D01*
X120697589Y-88984421D01*
X120693161Y-88984500D01*
X119894114Y-88984500D01*
X119736000Y-88984500D01*
X119583272Y-89025423D01*
X119583271Y-89025423D01*
X119583269Y-89025424D01*
X119583266Y-89025425D01*
X119533153Y-89054359D01*
X119533152Y-89054360D01*
X119521809Y-89060909D01*
X119446342Y-89104479D01*
X119446339Y-89104481D01*
X118648481Y-89902339D01*
X118648479Y-89902342D01*
X118625782Y-89941656D01*
X118600521Y-89985409D01*
X118569423Y-90039272D01*
X118528499Y-90192000D01*
X118528499Y-90192002D01*
X118528499Y-90360103D01*
X118528500Y-90360116D01*
X118528500Y-104185902D01*
X118508815Y-104252941D01*
X118492181Y-104273583D01*
X116422582Y-106343181D01*
X116361259Y-106376666D01*
X116334901Y-106379500D01*
X114987129Y-106379500D01*
X114987123Y-106379501D01*
X114927516Y-106385908D01*
X114792671Y-106436202D01*
X114792664Y-106436206D01*
X114677455Y-106522452D01*
X114677452Y-106522455D01*
X114591206Y-106637664D01*
X114591202Y-106637671D01*
X114540908Y-106772517D01*
X114534501Y-106832116D01*
X114534500Y-106832135D01*
X114534500Y-108627870D01*
X114534501Y-108627876D01*
X114540908Y-108687483D01*
X114591202Y-108822328D01*
X114591206Y-108822335D01*
X114677452Y-108937544D01*
X114677455Y-108937547D01*
X114792664Y-109023793D01*
X114792671Y-109023797D01*
X114927517Y-109074091D01*
X114927516Y-109074091D01*
X114934444Y-109074835D01*
X114987127Y-109080500D01*
X116782872Y-109080499D01*
X116842483Y-109074091D01*
X116977331Y-109023796D01*
X117092546Y-108937546D01*
X117178796Y-108822331D01*
X117227810Y-108690916D01*
X117269681Y-108634984D01*
X117335145Y-108610566D01*
X117403418Y-108625417D01*
X117431673Y-108646569D01*
X117545213Y-108760109D01*
X117717179Y-108885048D01*
X117717181Y-108885049D01*
X117717184Y-108885051D01*
X117906588Y-108981557D01*
X118108757Y-109047246D01*
X118318713Y-109080500D01*
X118318714Y-109080500D01*
X118531286Y-109080500D01*
X118531287Y-109080500D01*
X118741243Y-109047246D01*
X118783523Y-109033507D01*
X118853362Y-109031511D01*
X118909522Y-109063757D01*
X119091139Y-109245374D01*
X119091149Y-109245385D01*
X119095479Y-109249715D01*
X119095480Y-109249716D01*
X119207284Y-109361520D01*
X119262814Y-109393580D01*
X119272712Y-109399294D01*
X119272714Y-109399296D01*
X119278797Y-109402808D01*
X119327013Y-109453374D01*
X119340238Y-109521980D01*
X119314271Y-109586846D01*
X119257358Y-109627375D01*
X119216472Y-109634196D01*
X113881013Y-109620134D01*
X113814026Y-109600272D01*
X113793849Y-109584005D01*
X113281227Y-109073596D01*
X111510013Y-107310027D01*
X113103039Y-107310027D01*
X113454548Y-107660020D01*
X113536500Y-107660020D01*
X113536500Y-106818752D01*
X113536545Y-106815428D01*
X113537084Y-106795327D01*
X113537217Y-106792007D01*
X113538649Y-106765320D01*
X113538871Y-106762011D01*
X113540481Y-106742018D01*
X113540792Y-106738715D01*
X113551962Y-106634825D01*
X113553029Y-106627157D01*
X113560936Y-106580971D01*
X113562481Y-106573381D01*
X113576826Y-106512670D01*
X113578842Y-106505191D01*
X113592450Y-106460328D01*
X113594929Y-106452988D01*
X113668587Y-106255498D01*
X113671975Y-106247318D01*
X113694233Y-106198581D01*
X113698195Y-106190667D01*
X113716022Y-106158020D01*
X113103039Y-106158020D01*
X113103039Y-107310027D01*
X111510013Y-107310027D01*
X110391547Y-106196389D01*
X110357930Y-106135140D01*
X110355039Y-106108432D01*
X110355773Y-105160020D01*
X111479774Y-105160020D01*
X112105039Y-105160020D01*
X113103039Y-105160020D01*
X114605039Y-105160020D01*
X115603039Y-105160020D01*
X116194358Y-105160020D01*
X117105039Y-104249339D01*
X117105039Y-103658020D01*
X115603039Y-103658020D01*
X115603039Y-105160020D01*
X114605039Y-105160020D01*
X114605039Y-103658020D01*
X113103039Y-103658020D01*
X113103039Y-105160020D01*
X112105039Y-105160020D01*
X112105039Y-103658020D01*
X111480936Y-103658020D01*
X111479774Y-105160020D01*
X110355773Y-105160020D01*
X110357707Y-102660020D01*
X111481708Y-102660020D01*
X112105039Y-102660020D01*
X113103039Y-102660020D01*
X114605039Y-102660020D01*
X115603039Y-102660020D01*
X117105039Y-102660020D01*
X117105039Y-101790996D01*
X117098985Y-101776381D01*
X117040617Y-101596742D01*
X117036075Y-101577822D01*
X117006527Y-101391263D01*
X117005000Y-101371865D01*
X117005000Y-101182981D01*
X117006527Y-101163583D01*
X117007408Y-101158020D01*
X115603039Y-101158020D01*
X115603039Y-102660020D01*
X114605039Y-102660020D01*
X114605039Y-101158020D01*
X113103039Y-101158020D01*
X113103039Y-102660020D01*
X112105039Y-102660020D01*
X112105039Y-101158020D01*
X111482870Y-101158020D01*
X111481708Y-102660020D01*
X110357707Y-102660020D01*
X110359642Y-100160020D01*
X111483643Y-100160020D01*
X112105039Y-100160020D01*
X113103039Y-100160020D01*
X114605039Y-100160020D01*
X115603039Y-100160020D01*
X117105039Y-100160020D01*
X117105039Y-98658020D01*
X115603039Y-98658020D01*
X115603039Y-100160020D01*
X114605039Y-100160020D01*
X114605039Y-98658020D01*
X113103039Y-98658020D01*
X113103039Y-100160020D01*
X112105039Y-100160020D01*
X112105039Y-98658020D01*
X111484805Y-98658020D01*
X111483643Y-100160020D01*
X110359642Y-100160020D01*
X110361576Y-97660020D01*
X111485577Y-97660020D01*
X112105039Y-97660020D01*
X113103039Y-97660020D01*
X114605039Y-97660020D01*
X115603039Y-97660020D01*
X117105039Y-97660020D01*
X117105039Y-96158020D01*
X115603039Y-96158020D01*
X115603039Y-97660020D01*
X114605039Y-97660020D01*
X114605039Y-96859901D01*
X114559758Y-96874614D01*
X114540838Y-96879156D01*
X114362053Y-96907473D01*
X114342655Y-96909000D01*
X114161641Y-96909000D01*
X114142243Y-96907473D01*
X113963458Y-96879156D01*
X113944538Y-96874614D01*
X113772383Y-96818678D01*
X113754406Y-96811232D01*
X113593122Y-96729053D01*
X113576532Y-96718886D01*
X113430088Y-96612489D01*
X113415292Y-96599852D01*
X113287296Y-96471856D01*
X113274659Y-96457060D01*
X113168262Y-96310616D01*
X113158095Y-96294026D01*
X113103039Y-96185973D01*
X113103039Y-97660020D01*
X112105039Y-97660020D01*
X112105039Y-96158020D01*
X111486739Y-96158020D01*
X111485577Y-97660020D01*
X110361576Y-97660020D01*
X110363510Y-95160020D01*
X115603039Y-95160020D01*
X117105039Y-95160020D01*
X117105039Y-94070012D01*
X117093144Y-94059852D01*
X116965148Y-93931856D01*
X116952511Y-93917060D01*
X116846114Y-93770616D01*
X116835947Y-93754026D01*
X116787029Y-93658020D01*
X115603039Y-93658020D01*
X115603039Y-95160020D01*
X110363510Y-95160020D01*
X110366511Y-91282135D01*
X111619500Y-91282135D01*
X111619500Y-93077870D01*
X111619501Y-93077876D01*
X111625908Y-93137483D01*
X111676202Y-93272328D01*
X111676206Y-93272335D01*
X111762452Y-93387544D01*
X111762455Y-93387547D01*
X111877664Y-93473793D01*
X111877671Y-93473797D01*
X112012517Y-93524091D01*
X112012516Y-93524091D01*
X112019444Y-93524835D01*
X112072127Y-93530500D01*
X113867872Y-93530499D01*
X113927483Y-93524091D01*
X114062331Y-93473796D01*
X114177546Y-93387546D01*
X114263796Y-93272331D01*
X114314091Y-93137483D01*
X114320500Y-93077873D01*
X114320500Y-92660020D01*
X115603039Y-92660020D01*
X116731771Y-92660020D01*
X116746322Y-92615235D01*
X116753768Y-92597258D01*
X116835947Y-92435974D01*
X116846114Y-92419384D01*
X116952511Y-92272940D01*
X116965148Y-92258144D01*
X117093144Y-92130148D01*
X117105039Y-92119988D01*
X117105039Y-91158020D01*
X115603039Y-91158020D01*
X115603039Y-92660020D01*
X114320500Y-92660020D01*
X114320499Y-91282128D01*
X114314091Y-91222517D01*
X114309118Y-91209185D01*
X114263797Y-91087671D01*
X114263793Y-91087664D01*
X114177547Y-90972455D01*
X114177544Y-90972452D01*
X114062335Y-90886206D01*
X114062328Y-90886202D01*
X113927482Y-90835908D01*
X113927483Y-90835908D01*
X113867883Y-90829501D01*
X113867881Y-90829500D01*
X113867873Y-90829500D01*
X113867865Y-90829500D01*
X113857309Y-90829500D01*
X113790270Y-90809815D01*
X113769628Y-90793181D01*
X113099408Y-90122962D01*
X113162993Y-90105925D01*
X113277007Y-90040099D01*
X113370099Y-89947007D01*
X113435925Y-89832993D01*
X113452962Y-89769408D01*
X114085270Y-90401717D01*
X114085270Y-90401716D01*
X114124622Y-90347554D01*
X114220176Y-90160020D01*
X115603039Y-90160020D01*
X117105039Y-90160020D01*
X117105039Y-88658020D01*
X115603039Y-88658020D01*
X115603039Y-90160020D01*
X114220176Y-90160020D01*
X114221095Y-90158217D01*
X114286757Y-89956130D01*
X114286757Y-89956127D01*
X114320000Y-89746246D01*
X114320000Y-89533753D01*
X114286757Y-89323872D01*
X114286757Y-89323869D01*
X114221095Y-89121782D01*
X114124624Y-88932449D01*
X114085270Y-88878282D01*
X114085269Y-88878282D01*
X113452962Y-89510590D01*
X113435925Y-89447007D01*
X113370099Y-89332993D01*
X113277007Y-89239901D01*
X113162993Y-89174075D01*
X113099409Y-89157037D01*
X113731716Y-88524728D01*
X113677550Y-88485375D01*
X113488217Y-88388904D01*
X113286129Y-88323242D01*
X113076246Y-88290000D01*
X112863754Y-88290000D01*
X112653872Y-88323242D01*
X112653869Y-88323242D01*
X112451782Y-88388904D01*
X112262439Y-88485380D01*
X112208282Y-88524727D01*
X112208282Y-88524728D01*
X112840591Y-89157037D01*
X112777007Y-89174075D01*
X112662993Y-89239901D01*
X112569901Y-89332993D01*
X112504075Y-89447007D01*
X112487037Y-89510591D01*
X111854728Y-88878282D01*
X111854727Y-88878282D01*
X111815380Y-88932439D01*
X111718904Y-89121782D01*
X111653242Y-89323869D01*
X111653242Y-89323872D01*
X111620000Y-89533753D01*
X111620000Y-89746246D01*
X111653242Y-89956127D01*
X111653242Y-89956130D01*
X111718904Y-90158217D01*
X111815375Y-90347550D01*
X111854728Y-90401716D01*
X112487037Y-89769408D01*
X112504075Y-89832993D01*
X112569901Y-89947007D01*
X112662993Y-90040099D01*
X112777007Y-90105925D01*
X112840590Y-90122962D01*
X112170370Y-90793181D01*
X112109047Y-90826666D01*
X112082698Y-90829500D01*
X112072134Y-90829500D01*
X112072123Y-90829501D01*
X112012516Y-90835908D01*
X111877671Y-90886202D01*
X111877664Y-90886206D01*
X111762455Y-90972452D01*
X111762452Y-90972455D01*
X111676206Y-91087664D01*
X111676202Y-91087671D01*
X111625908Y-91222517D01*
X111619501Y-91282116D01*
X111619501Y-91282123D01*
X111619500Y-91282135D01*
X110366511Y-91282135D01*
X110369599Y-87292186D01*
X113103039Y-87292186D01*
X113130181Y-87293254D01*
X113135046Y-87293541D01*
X113174125Y-87296619D01*
X113178962Y-87297095D01*
X113208196Y-87300555D01*
X113213020Y-87301223D01*
X113461593Y-87340594D01*
X113466381Y-87341449D01*
X113495244Y-87347189D01*
X113499996Y-87348231D01*
X113538113Y-87357379D01*
X113542829Y-87358609D01*
X113571206Y-87366611D01*
X113575870Y-87368026D01*
X113815263Y-87445809D01*
X113819864Y-87447405D01*
X113847509Y-87457604D01*
X113852045Y-87459379D01*
X113888261Y-87474381D01*
X113892719Y-87476331D01*
X113919463Y-87488660D01*
X113923846Y-87490786D01*
X114148110Y-87605056D01*
X114152405Y-87607352D01*
X114178117Y-87621752D01*
X114182319Y-87624215D01*
X114215740Y-87644697D01*
X114219840Y-87647321D01*
X114238845Y-87660020D01*
X114605039Y-87660020D01*
X115603039Y-87660020D01*
X117105039Y-87660020D01*
X118103039Y-87660020D01*
X119605039Y-87660020D01*
X120603039Y-87660020D01*
X120686236Y-87660020D01*
X123103039Y-87660020D01*
X123646543Y-87660020D01*
X123672948Y-87596272D01*
X123675414Y-87590708D01*
X123691155Y-87557426D01*
X123693891Y-87551991D01*
X123716992Y-87508770D01*
X123719991Y-87503475D01*
X123738926Y-87471882D01*
X123742184Y-87466737D01*
X123857017Y-87294878D01*
X123860522Y-87289902D01*
X123882455Y-87260329D01*
X123886199Y-87255531D01*
X123917288Y-87217649D01*
X123921262Y-87213042D01*
X123945993Y-87185755D01*
X123950191Y-87181346D01*
X124096346Y-87035191D01*
X124100755Y-87030993D01*
X124128042Y-87006262D01*
X124132649Y-87002288D01*
X124170531Y-86971199D01*
X124175329Y-86967455D01*
X124204902Y-86945522D01*
X124209878Y-86942017D01*
X124381737Y-86827184D01*
X124386882Y-86823926D01*
X124418475Y-86804991D01*
X124423770Y-86801992D01*
X124466991Y-86778891D01*
X124472426Y-86776155D01*
X124505708Y-86760414D01*
X124511272Y-86757948D01*
X124605039Y-86719108D01*
X124605039Y-86158020D01*
X123103039Y-86158020D01*
X123103039Y-87660020D01*
X120686236Y-87660020D01*
X120703756Y-87650656D01*
X120709191Y-87647920D01*
X120742473Y-87632179D01*
X120748037Y-87629713D01*
X120938987Y-87550620D01*
X120944664Y-87548430D01*
X120979325Y-87536028D01*
X120985103Y-87534119D01*
X121031998Y-87519893D01*
X121037862Y-87518270D01*
X121073588Y-87509320D01*
X121079530Y-87507986D01*
X121282257Y-87467661D01*
X121288254Y-87466620D01*
X121324685Y-87461216D01*
X121330726Y-87460471D01*
X121379498Y-87455668D01*
X121385568Y-87455220D01*
X121422340Y-87453414D01*
X121428423Y-87453265D01*
X121635107Y-87453265D01*
X121641190Y-87453414D01*
X121677962Y-87455220D01*
X121684032Y-87455668D01*
X121732804Y-87460471D01*
X121738845Y-87461216D01*
X121775276Y-87466620D01*
X121781273Y-87467661D01*
X121984000Y-87507986D01*
X121989942Y-87509320D01*
X122025668Y-87518270D01*
X122031532Y-87519893D01*
X122078427Y-87534119D01*
X122084205Y-87536028D01*
X122105039Y-87543482D01*
X122105039Y-86158020D01*
X120603039Y-86158020D01*
X120603039Y-87660020D01*
X119605039Y-87660020D01*
X119605039Y-86158020D01*
X118103039Y-86158020D01*
X118103039Y-87660020D01*
X117105039Y-87660020D01*
X117105039Y-86158020D01*
X115603039Y-86158020D01*
X115603039Y-87660020D01*
X114605039Y-87660020D01*
X114605039Y-86158020D01*
X113103039Y-86158020D01*
X113103039Y-87292186D01*
X110369599Y-87292186D01*
X110369959Y-86826999D01*
X110389695Y-86759978D01*
X110407114Y-86738589D01*
X112016175Y-85160020D01*
X115603039Y-85160020D01*
X117105039Y-85160020D01*
X118103039Y-85160020D01*
X119605039Y-85160020D01*
X120603039Y-85160020D01*
X122105039Y-85160020D01*
X123103039Y-85160020D01*
X124605039Y-85160020D01*
X125603039Y-85160020D01*
X127105039Y-85160020D01*
X128103039Y-85160020D01*
X129605039Y-85160020D01*
X130603039Y-85160020D01*
X132105039Y-85160020D01*
X133103039Y-85160020D01*
X134605039Y-85160020D01*
X135603039Y-85160020D01*
X137105039Y-85160020D01*
X138103039Y-85160020D01*
X139605039Y-85160020D01*
X140603039Y-85160020D01*
X142105039Y-85160020D01*
X143103039Y-85160020D01*
X144605039Y-85160020D01*
X145603039Y-85160020D01*
X147105039Y-85160020D01*
X148103039Y-85160020D01*
X149605039Y-85160020D01*
X149605039Y-84548743D01*
X148103039Y-84548125D01*
X148103039Y-85160020D01*
X147105039Y-85160020D01*
X147105039Y-84547714D01*
X145603039Y-84547096D01*
X145603039Y-85160020D01*
X144605039Y-85160020D01*
X144605039Y-84546684D01*
X143103039Y-84546066D01*
X143103039Y-85160020D01*
X142105039Y-85160020D01*
X142105039Y-84545655D01*
X140603039Y-84545037D01*
X140603039Y-85160020D01*
X139605039Y-85160020D01*
X139605039Y-84544625D01*
X138103039Y-84544007D01*
X138103039Y-85160020D01*
X137105039Y-85160020D01*
X137105039Y-84543596D01*
X135603039Y-84542978D01*
X135603039Y-85160020D01*
X134605039Y-85160020D01*
X134605039Y-84542566D01*
X133103039Y-84541948D01*
X133103039Y-85160020D01*
X132105039Y-85160020D01*
X132105039Y-84541537D01*
X130603039Y-84540919D01*
X130603039Y-85160020D01*
X129605039Y-85160020D01*
X129605039Y-84540507D01*
X128103039Y-84539889D01*
X128103039Y-85160020D01*
X127105039Y-85160020D01*
X127105039Y-84539478D01*
X125603039Y-84538860D01*
X125603039Y-85160020D01*
X124605039Y-85160020D01*
X124605039Y-84538448D01*
X123103039Y-84537830D01*
X123103039Y-85160020D01*
X122105039Y-85160020D01*
X122105039Y-84537419D01*
X120603039Y-84536801D01*
X120603039Y-85160020D01*
X119605039Y-85160020D01*
X119605039Y-84536389D01*
X118103039Y-84535771D01*
X118103039Y-85160020D01*
X117105039Y-85160020D01*
X117105039Y-84535360D01*
X115603039Y-84534742D01*
X115603039Y-85160020D01*
X112016175Y-85160020D01*
X113763811Y-83445502D01*
X113825450Y-83412607D01*
X113850690Y-83410020D01*
X150188269Y-83424984D01*
G37*
%TD.AperFunction*%
%TA.AperFunction,Conductor*%
G36*
X132883547Y-106420185D02*
G01*
X132929302Y-106472989D01*
X132939246Y-106542147D01*
X132910221Y-106605703D01*
X132903507Y-106611863D01*
X132903282Y-106614728D01*
X133535591Y-107247037D01*
X133472007Y-107264075D01*
X133357993Y-107329901D01*
X133264901Y-107422993D01*
X133199075Y-107537007D01*
X133182037Y-107600591D01*
X132549728Y-106968282D01*
X132549727Y-106968282D01*
X132510380Y-107022440D01*
X132510376Y-107022446D01*
X132505760Y-107031505D01*
X132457781Y-107082297D01*
X132389959Y-107099087D01*
X132323826Y-107076543D01*
X132284794Y-107031493D01*
X132280051Y-107022184D01*
X132280049Y-107022181D01*
X132280048Y-107022179D01*
X132155109Y-106850213D01*
X132004792Y-106699896D01*
X131964333Y-106670501D01*
X131901455Y-106624817D01*
X131858790Y-106569489D01*
X131852811Y-106499876D01*
X131885416Y-106438080D01*
X131946255Y-106403723D01*
X131974341Y-106400500D01*
X132816508Y-106400500D01*
X132883547Y-106420185D01*
G37*
%TD.AperFunction*%
%TD*%
M02*
