%TF.GenerationSoftware,KiCad,Pcbnew,9.0.3*%
%TF.CreationDate,2026-09-09T11:30:30+03:00*%
%TF.ProjectId,MCU Datalogger,4d435520-4461-4746-916c-6f676765722e,1*%
%TF.SameCoordinates,Original*%
%TF.FileFunction,Copper,L1,Top*%
%TF.FilePolarity,Positive*%
%FSLAX46Y46*%
G04 Gerber Fmt 4.6, Leading zero omitted, Abs format (unit mm)*
G04 Created by KiCad (PCBNEW 9.0.3) date 2026-09-09 11:30:30*
%MOMM*%
%LPD*%
G01*
G04 APERTURE LIST*
G04 Aperture macros list*
%AMRoundRect*
0 Rectangle with rounded corners*
0 $1 Rounding radius*
0 $2 $3 $4 $5 $6 $7 $8 $9 X,Y pos of 4 corners*
0 Add a 4 corners polygon primitive as box body*
4,1,4,$2,$3,$4,$5,$6,$7,$8,$9,$2,$3,0*
0 Add four circle primitives for the rounded corners*
1,1,$1+$1,$2,$3*
1,1,$1+$1,$4,$5*
1,1,$1+$1,$6,$7*
1,1,$1+$1,$8,$9*
0 Add four rect primitives between the rounded corners*
20,1,$1+$1,$2,$3,$4,$5,0*
20,1,$1+$1,$4,$5,$6,$7,0*
20,1,$1+$1,$6,$7,$8,$9,0*
20,1,$1+$1,$8,$9,$2,$3,0*%
G04 Aperture macros list end*
%TA.AperFunction,SMDPad,CuDef*%
%ADD10RoundRect,0.250000X-0.250000X-0.475000X0.250000X-0.475000X0.250000X0.475000X-0.250000X0.475000X0*%
%TD*%
%TA.AperFunction,SMDPad,CuDef*%
%ADD11RoundRect,0.250000X0.250000X0.475000X-0.250000X0.475000X-0.250000X-0.475000X0.250000X-0.475000X0*%
%TD*%
%TA.AperFunction,SMDPad,CuDef*%
%ADD12RoundRect,0.250000X-0.262500X-0.450000X0.262500X-0.450000X0.262500X0.450000X-0.262500X0.450000X0*%
%TD*%
%TA.AperFunction,SMDPad,CuDef*%
%ADD13RoundRect,0.250000X0.950000X-0.750000X0.950000X0.750000X-0.950000X0.750000X-0.950000X-0.750000X0*%
%TD*%
%TA.AperFunction,SMDPad,CuDef*%
%ADD14RoundRect,0.162500X-0.650000X-0.162500X0.650000X-0.162500X0.650000X0.162500X-0.650000X0.162500X0*%
%TD*%
%TA.AperFunction,ComponentPad*%
%ADD15C,1.700000*%
%TD*%
%TA.AperFunction,ComponentPad*%
%ADD16R,1.700000X1.700000*%
%TD*%
%TA.AperFunction,SMDPad,CuDef*%
%ADD17RoundRect,0.073750X-0.911250X-0.221250X0.911250X-0.221250X0.911250X0.221250X-0.911250X0.221250X0*%
%TD*%
%TA.AperFunction,SMDPad,CuDef*%
%ADD18RoundRect,0.250000X0.262500X0.450000X-0.262500X0.450000X-0.262500X-0.450000X0.262500X-0.450000X0*%
%TD*%
%TA.AperFunction,SMDPad,CuDef*%
%ADD19RoundRect,0.068750X-0.666250X-0.206250X0.666250X-0.206250X0.666250X0.206250X-0.666250X0.206250X0*%
%TD*%
%TA.AperFunction,SMDPad,CuDef*%
%ADD20RoundRect,0.068750X-0.206250X-0.666250X0.206250X-0.666250X0.206250X0.666250X-0.206250X0.666250X0*%
%TD*%
%TA.AperFunction,SMDPad,CuDef*%
%ADD21RoundRect,0.243750X-0.243750X-0.456250X0.243750X-0.456250X0.243750X0.456250X-0.243750X0.456250X0*%
%TD*%
%TA.AperFunction,SMDPad,CuDef*%
%ADD22RoundRect,0.250000X0.750000X0.950000X-0.750000X0.950000X-0.750000X-0.950000X0.750000X-0.950000X0*%
%TD*%
%TA.AperFunction,ViaPad*%
%ADD23C,0.600000*%
%TD*%
%TA.AperFunction,ViaPad*%
%ADD24C,0.900000*%
%TD*%
%TA.AperFunction,Conductor*%
%ADD25C,0.200000*%
%TD*%
%TA.AperFunction,Conductor*%
%ADD26C,0.350000*%
%TD*%
G04 APERTURE END LIST*
D10*
%TO.P,C1,2*%
%TO.N,GND*%
X131065000Y-85610000D03*
%TO.P,C1,1*%
%TO.N,/Vcc*%
X129165000Y-85610000D03*
%TD*%
D11*
%TO.P,C5,1*%
%TO.N,/Vcc*%
X135615000Y-85610000D03*
%TO.P,C5,2*%
%TO.N,GND*%
X133715000Y-85610000D03*
%TD*%
D12*
%TO.P,R6,1*%
%TO.N,/Vcc*%
X144012500Y-92685000D03*
%TO.P,R6,2*%
%TO.N,/RESET*%
X145837500Y-92685000D03*
%TD*%
D13*
%TO.P,Y1,1,1*%
%TO.N,Net-(U3-X2)*%
X112525000Y-102087500D03*
%TO.P,Y1,2,2*%
%TO.N,Net-(U3-X1)*%
X112525000Y-98387500D03*
%TD*%
D14*
%TO.P,U1,1,A0*%
%TO.N,/Vcc*%
X115892500Y-85140000D03*
%TO.P,U1,2,A1*%
X115892500Y-86410000D03*
%TO.P,U1,3,A2*%
X115892500Y-87680000D03*
%TO.P,U1,4,GND*%
%TO.N,GND*%
X115892500Y-88950000D03*
%TO.P,U1,5,SDA*%
%TO.N,/SDA*%
X123067500Y-88950000D03*
%TO.P,U1,6,SCL*%
%TO.N,/SCK*%
X123067500Y-87680000D03*
%TO.P,U1,7,WP*%
%TO.N,GND*%
X123067500Y-86410000D03*
%TO.P,U1,8,VCC*%
%TO.N,/Vcc*%
X123067500Y-85140000D03*
%TD*%
D15*
%TO.P,BT1,2,-*%
%TO.N,GND*%
X112970000Y-89640000D03*
D16*
%TO.P,BT1,1,+*%
%TO.N,/Vcc*%
X112970000Y-92180000D03*
%TD*%
D17*
%TO.P,U3,8,VCC*%
%TO.N,/Vcc*%
X121565000Y-98020000D03*
%TO.P,U3,7,SQW/~INT*%
%TO.N,Net-(U3-SQW{slash}~INT)*%
X121565000Y-99290000D03*
%TO.P,U3,6,SCL*%
%TO.N,/SCK*%
X121565000Y-100560000D03*
%TO.P,U3,5,SDA*%
%TO.N,/SDA*%
X121565000Y-101830000D03*
%TO.P,U3,4,GND*%
%TO.N,GND*%
X116615000Y-101830000D03*
%TO.P,U3,3,~{INTA}*%
%TO.N,Net-(U3-~{INTA})*%
X116615000Y-100560000D03*
%TO.P,U3,2,X2*%
%TO.N,Net-(U3-X2)*%
X116615000Y-99290000D03*
%TO.P,U3,1,X1*%
%TO.N,Net-(U3-X1)*%
X116615000Y-98020000D03*
%TD*%
D10*
%TO.P,C4,1*%
%TO.N,Net-(U4-AREF)*%
X139480000Y-99185000D03*
%TO.P,C4,2*%
%TO.N,GND*%
X141380000Y-99185000D03*
%TD*%
D18*
%TO.P,R1,2*%
%TO.N,Net-(U3-~{INTA})*%
X116752500Y-103905000D03*
%TO.P,R1,1*%
%TO.N,/Vcc*%
X118577500Y-103905000D03*
%TD*%
D19*
%TO.P,U4,24,PC1*%
%TO.N,unconnected-(U4-PC1-Pad24)*%
X136515000Y-90055000D03*
%TO.P,U4,23,PC0*%
%TO.N,unconnected-(U4-PC0-Pad23)*%
X136515000Y-90855000D03*
%TO.P,U4,22,ADC7*%
%TO.N,unconnected-(U4-ADC7-Pad22)*%
X136515000Y-91655000D03*
%TO.P,U4,21,GND*%
%TO.N,GND*%
X136515000Y-92455000D03*
%TO.P,U4,20,AREF*%
%TO.N,Net-(U4-AREF)*%
X136515000Y-93255000D03*
%TO.P,U4,19,ADC6*%
%TO.N,unconnected-(U4-ADC6-Pad19)*%
X136515000Y-94055000D03*
%TO.P,U4,18,AVCC*%
%TO.N,/Vcc*%
X136515000Y-94855000D03*
%TO.P,U4,17,PB5*%
%TO.N,/SCK*%
X136515000Y-95655000D03*
%TO.P,U4,8,PB7*%
%TO.N,Net-(U4-PB7)*%
X128175000Y-95655000D03*
%TO.P,U4,7,PB6*%
%TO.N,Net-(U4-PB6)*%
X128175000Y-94855000D03*
%TO.P,U4,6,VCC*%
%TO.N,unconnected-(U4-VCC-Pad6)*%
X128175000Y-94055000D03*
%TO.P,U4,5,GND*%
%TO.N,GND*%
X128175000Y-93255000D03*
%TO.P,U4,4,VCC*%
%TO.N,/Vcc*%
X128175000Y-92455000D03*
%TO.P,U4,3,GND*%
%TO.N,GND*%
X128175000Y-91655000D03*
%TO.P,U4,2,PD4*%
%TO.N,/D4*%
X128175000Y-90855000D03*
%TO.P,U4,1,PD3*%
%TO.N,/D3*%
X128175000Y-90055000D03*
D20*
%TO.P,U4,32,PD2*%
%TO.N,/D2*%
X129545000Y-88685000D03*
%TO.P,U4,31,PD1*%
%TO.N,/TX*%
X130345000Y-88685000D03*
%TO.P,U4,30,PD0*%
%TO.N,/RX*%
X131145000Y-88685000D03*
%TO.P,U4,29,PC6/~{RESET}*%
%TO.N,/RESET*%
X131945000Y-88685000D03*
%TO.P,U4,28,PC5*%
%TO.N,/SCK*%
X132745000Y-88685000D03*
%TO.P,U4,27,PC4*%
%TO.N,/SDA*%
X133545000Y-88685000D03*
%TO.P,U4,26,PC3*%
%TO.N,unconnected-(U4-PC3-Pad26)*%
X134345000Y-88685000D03*
%TO.P,U4,25,PC2*%
%TO.N,unconnected-(U4-PC2-Pad25)*%
X135145000Y-88685000D03*
%TO.P,U4,16,PB4*%
%TO.N,/MISO*%
X135145000Y-97025000D03*
%TO.P,U4,15,PB3*%
%TO.N,/MOSI*%
X134345000Y-97025000D03*
%TO.P,U4,14,PB2*%
%TO.N,unconnected-(U4-PB2-Pad14)*%
X133545000Y-97025000D03*
%TO.P,U4,13,PB1*%
%TO.N,unconnected-(U4-PB1-Pad13)*%
X132745000Y-97025000D03*
%TO.P,U4,12,PB0*%
%TO.N,/D8*%
X131945000Y-97025000D03*
%TO.P,U4,11,PD7*%
%TO.N,/D7*%
X131145000Y-97025000D03*
%TO.P,U4,10,PD6*%
%TO.N,/D6*%
X130345000Y-97025000D03*
%TO.P,U4,9,PD5*%
%TO.N,/D5*%
X129545000Y-97025000D03*
%TD*%
D18*
%TO.P,R7,1*%
%TO.N,Net-(D1-K)*%
X145837500Y-88215000D03*
%TO.P,R7,2*%
%TO.N,GND*%
X144012500Y-88215000D03*
%TD*%
D21*
%TO.P,D1,2,A*%
%TO.N,/Vcc*%
X145862500Y-85595000D03*
%TO.P,D1,1,K*%
%TO.N,Net-(D1-K)*%
X143987500Y-85595000D03*
%TD*%
D18*
%TO.P,R4,1*%
%TO.N,/Vcc*%
X141425000Y-92025000D03*
%TO.P,R4,2*%
%TO.N,/SDA*%
X139600000Y-92025000D03*
%TD*%
D16*
%TO.P,J1,1,Pin_1*%
%TO.N,GND*%
X150565000Y-96505000D03*
D15*
%TO.P,J1,2,Pin_2*%
%TO.N,/Vcc*%
X150565000Y-99045000D03*
%TO.P,J1,3,Pin_3*%
%TO.N,/SDA*%
X150565000Y-101585000D03*
%TO.P,J1,4,Pin_4*%
%TO.N,/SCK*%
X150565000Y-104125000D03*
%TD*%
D18*
%TO.P,R3,2*%
%TO.N,/SCK*%
X139600000Y-95335000D03*
%TO.P,R3,1*%
%TO.N,/Vcc*%
X141425000Y-95335000D03*
%TD*%
%TO.P,R5,2*%
%TO.N,Net-(D2-K)*%
X139600000Y-88335000D03*
%TO.P,R5,1*%
%TO.N,GND*%
X141425000Y-88335000D03*
%TD*%
D14*
%TO.P,U2,8,VCC*%
%TO.N,/Vcc*%
X123067500Y-91825000D03*
%TO.P,U2,7,WP*%
%TO.N,GND*%
X123067500Y-93095000D03*
%TO.P,U2,6,SCL*%
%TO.N,/SCK*%
X123067500Y-94365000D03*
%TO.P,U2,5,SDA*%
%TO.N,/SDA*%
X123067500Y-95635000D03*
%TO.P,U2,4,GND*%
%TO.N,GND*%
X115892500Y-95635000D03*
%TO.P,U2,3,A2*%
%TO.N,/Vcc*%
X115892500Y-94365000D03*
%TO.P,U2,2,A1*%
%TO.N,GND*%
X115892500Y-93095000D03*
%TO.P,U2,1,A0*%
%TO.N,/Vcc*%
X115892500Y-91825000D03*
%TD*%
D11*
%TO.P,C2,2*%
%TO.N,Net-(U4-PB6)*%
X139480000Y-101800000D03*
%TO.P,C2,1*%
%TO.N,GND*%
X141380000Y-101800000D03*
%TD*%
D10*
%TO.P,C3,1*%
%TO.N,GND*%
X124325000Y-97525000D03*
%TO.P,C3,2*%
%TO.N,Net-(U4-PB7)*%
X126225000Y-97525000D03*
%TD*%
D21*
%TO.P,D2,2,A*%
%TO.N,/SCK*%
X141407500Y-85595000D03*
%TO.P,D2,1,K*%
%TO.N,Net-(D2-K)*%
X139532500Y-85595000D03*
%TD*%
D12*
%TO.P,R2,2*%
%TO.N,Net-(U3-SQW{slash}~INT)*%
X122717500Y-103875000D03*
%TO.P,R2,1*%
%TO.N,/Vcc*%
X120892500Y-103875000D03*
%TD*%
D15*
%TO.P,J3,4,Pin_4*%
%TO.N,/TX*%
X147730000Y-107730000D03*
%TO.P,J3,3,Pin_3*%
%TO.N,/RX*%
X145190000Y-107730000D03*
%TO.P,J3,2,Pin_2*%
%TO.N,/Vcc*%
X142650000Y-107730000D03*
D16*
%TO.P,J3,1,Pin_1*%
%TO.N,GND*%
X140110000Y-107730000D03*
%TD*%
D22*
%TO.P,Y2,1,1*%
%TO.N,Net-(U4-PB7)*%
X128812500Y-100725000D03*
%TO.P,Y2,2,2*%
%TO.N,Net-(U4-PB6)*%
X125112500Y-100725000D03*
%TD*%
D16*
%TO.P,J2,1,Pin_1*%
%TO.N,/D2*%
X115885000Y-107730000D03*
D15*
%TO.P,J2,2,Pin_2*%
%TO.N,/D3*%
X118425000Y-107730000D03*
%TO.P,J2,3,Pin_3*%
%TO.N,/D4*%
X120965000Y-107730000D03*
%TO.P,J2,4,Pin_4*%
%TO.N,/D5*%
X123505000Y-107730000D03*
%TO.P,J2,5,Pin_5*%
%TO.N,/D6*%
X126045000Y-107730000D03*
%TO.P,J2,6,Pin_6*%
%TO.N,/D7*%
X128585000Y-107730000D03*
%TO.P,J2,7,Pin_7*%
%TO.N,/D8*%
X131125000Y-107730000D03*
%TO.P,J2,8,Pin_8*%
%TO.N,GND*%
X133665000Y-107730000D03*
%TO.P,J2,9,Pin_9*%
%TO.N,/Vcc*%
X136205000Y-107730000D03*
%TD*%
D16*
%TO.P,J4,1,Pin_1*%
%TO.N,/MISO*%
X148435000Y-87620000D03*
D15*
%TO.P,J4,2,Pin_2*%
%TO.N,/Vcc*%
X150975000Y-87620000D03*
%TO.P,J4,3,Pin_3*%
%TO.N,/SCK*%
X148435000Y-90160000D03*
%TO.P,J4,4,Pin_4*%
%TO.N,/MOSI*%
X150975000Y-90160000D03*
%TO.P,J4,5,Pin_5*%
%TO.N,/RESET*%
X148435000Y-92700000D03*
%TO.P,J4,6,Pin_6*%
%TO.N,GND*%
X150975000Y-92700000D03*
%TD*%
D23*
%TO.N,/SDA*%
X136425000Y-87905000D03*
%TO.N,Net-(U4-AREF)*%
X135175000Y-94230000D03*
X135200000Y-98661000D03*
%TO.N,GND*%
X114252148Y-95635000D03*
%TO.N,/MOSI*%
X137909293Y-98394293D03*
%TO.N,/MISO*%
X138170000Y-97545000D03*
%TO.N,GND*%
X147754031Y-95934031D03*
%TO.N,/SDA*%
X122716000Y-105645000D03*
X135950000Y-104620000D03*
%TO.N,Net-(U4-PB6)*%
X125115000Y-103655000D03*
X135220153Y-102565153D03*
%TO.N,GND*%
X133825000Y-95557753D03*
D24*
X142540000Y-98505003D03*
D23*
X117930000Y-93095000D03*
%TO.N,/D2*%
X121531765Y-89251765D03*
%TO.N,/SCK*%
X120320000Y-90320000D03*
%TO.N,/D3*%
X126225000Y-90616473D03*
%TO.N,/D4*%
X125135000Y-90375000D03*
%TO.N,/RX*%
X131469830Y-94270000D03*
%TO.N,/TX*%
X132289461Y-94832753D03*
%TO.N,/SCK*%
X144870000Y-90830000D03*
%TO.N,/SDA*%
X138310000Y-92525000D03*
X134820000Y-90235000D03*
%TO.N,/SCK*%
X120185000Y-95285000D03*
%TO.N,/SDA*%
X124655000Y-93985000D03*
X141285153Y-90175153D03*
X125295000Y-88380000D03*
%TO.N,/RESET*%
X142437026Y-94591821D03*
X133300000Y-90535000D03*
%TO.N,/SCK*%
X139050000Y-97054000D03*
D24*
%TO.N,GND*%
X118329000Y-101277423D03*
%TD*%
D25*
%TO.N,/SCK*%
X132969000Y-87871000D02*
X132745000Y-88095000D01*
X132745000Y-88095000D02*
X132745000Y-88685000D01*
X133183688Y-87649000D02*
X132969000Y-87863688D01*
X133191000Y-87649000D02*
X133183688Y-87649000D01*
X134070000Y-86770000D02*
X133191000Y-87649000D01*
X136600000Y-86770000D02*
X134070000Y-86770000D01*
X140413500Y-89020160D02*
X140097660Y-89336000D01*
X137190000Y-89107057D02*
X137190000Y-87360000D01*
X140413500Y-87777130D02*
X140413500Y-89020160D01*
X141026630Y-87164000D02*
X140413500Y-87777130D01*
X132969000Y-87863688D02*
X132969000Y-87871000D01*
X140097660Y-89336000D02*
X136961057Y-89336000D01*
X137190000Y-87360000D02*
X136600000Y-86770000D01*
X142225000Y-87164000D02*
X141026630Y-87164000D01*
X136961057Y-89336000D02*
X137190000Y-89107057D01*
%TO.N,/SDA*%
X135762312Y-87905000D02*
X135721000Y-87863688D01*
X136425000Y-87905000D02*
X135762312Y-87905000D01*
X133725000Y-88505000D02*
X133545000Y-88685000D01*
X135721000Y-87863688D02*
X135362312Y-87505000D01*
X135362312Y-87505000D02*
X134010000Y-87505000D01*
X133725000Y-87790000D02*
X133725000Y-88505000D01*
X134010000Y-87505000D02*
X133725000Y-87790000D01*
D26*
%TO.N,GND*%
X130039000Y-86761000D02*
X123418500Y-86761000D01*
X131065000Y-85735000D02*
X130039000Y-86761000D01*
X131065000Y-85145000D02*
X131065000Y-85735000D01*
X123418500Y-86761000D02*
X123067500Y-86410000D01*
X133715000Y-85125000D02*
X133695000Y-85145000D01*
X133695000Y-85145000D02*
X131065000Y-85145000D01*
D25*
%TO.N,/RESET*%
X145537500Y-92685000D02*
X145552500Y-92700000D01*
X145552500Y-92700000D02*
X148435000Y-92700000D01*
X144876000Y-93346500D02*
X145537500Y-92685000D01*
X144876000Y-93390870D02*
X144876000Y-93346500D01*
X142582052Y-94490000D02*
X143776870Y-94490000D01*
X142437026Y-94591821D02*
X142480231Y-94591821D01*
X142480231Y-94591821D02*
X142582052Y-94490000D01*
X143776870Y-94490000D02*
X144876000Y-93390870D01*
%TO.N,/SCK*%
X144530870Y-87164000D02*
X142225000Y-87164000D01*
X144876000Y-87509130D02*
X144530870Y-87164000D01*
X144876000Y-90824000D02*
X144876000Y-87509130D01*
X144870000Y-90830000D02*
X144876000Y-90824000D01*
D26*
%TO.N,/Vcc*%
X143052500Y-92025000D02*
X143712500Y-92685000D01*
X141425000Y-92025000D02*
X143052500Y-92025000D01*
X143712500Y-92685000D02*
X143820000Y-92792500D01*
D25*
X141075000Y-94985000D02*
X141425000Y-95335000D01*
X140757500Y-94985000D02*
X141075000Y-94985000D01*
%TO.N,/SCK*%
X138650000Y-96654000D02*
X139050000Y-97054000D01*
X138650000Y-95655000D02*
X138650000Y-96654000D01*
X138970000Y-95335000D02*
X139600000Y-95335000D01*
X138650000Y-95655000D02*
X138970000Y-95335000D01*
D26*
%TO.N,GND*%
X127301912Y-93354000D02*
X127050000Y-93102088D01*
X128076000Y-93354000D02*
X127301912Y-93354000D01*
X127050000Y-93102088D02*
X127050000Y-93090000D01*
X128175000Y-93255000D02*
X128076000Y-93354000D01*
X126461176Y-93095000D02*
X123067500Y-93095000D01*
X126466176Y-93090000D02*
X126461176Y-93095000D01*
X127050000Y-93090000D02*
X126466176Y-93090000D01*
D25*
%TO.N,Net-(U4-AREF)*%
X135724000Y-99185000D02*
X139480000Y-99185000D01*
X135200000Y-98661000D02*
X135724000Y-99185000D01*
X135780000Y-93255000D02*
X136515000Y-93255000D01*
X135175000Y-93860000D02*
X135780000Y-93255000D01*
X135175000Y-94230000D02*
X135175000Y-93860000D01*
%TO.N,/SDA*%
X139715306Y-91070000D02*
X139600000Y-91185306D01*
X140108876Y-91070000D02*
X139715306Y-91070000D01*
X141003723Y-90175153D02*
X140108876Y-91070000D01*
X139600000Y-91185306D02*
X139600000Y-92025000D01*
X141285153Y-90175153D02*
X141003723Y-90175153D01*
%TO.N,/MISO*%
X136120000Y-97025000D02*
X135145000Y-97025000D01*
X136640000Y-97545000D02*
X136120000Y-97025000D01*
X138170000Y-97545000D02*
X136640000Y-97545000D01*
%TO.N,/MOSI*%
X134345000Y-97622312D02*
X134345000Y-97025000D01*
X136219586Y-98061000D02*
X134783688Y-98061000D01*
X136523586Y-98365000D02*
X136219586Y-98061000D01*
X137880000Y-98365000D02*
X136523586Y-98365000D01*
X134783688Y-98061000D02*
X134345000Y-97622312D01*
X137909293Y-98394293D02*
X137880000Y-98365000D01*
%TO.N,/Vcc*%
X137190000Y-94855000D02*
X138391000Y-93654000D01*
%TO.N,/SCK*%
X138650000Y-95655000D02*
X136515000Y-95655000D01*
%TO.N,/Vcc*%
X136515000Y-94855000D02*
X137190000Y-94855000D01*
X126240000Y-91825000D02*
X123067500Y-91825000D01*
X126870000Y-92455000D02*
X126240000Y-91825000D01*
X128175000Y-92455000D02*
X126870000Y-92455000D01*
D26*
%TO.N,GND*%
X130912753Y-95557753D02*
X130105000Y-94750000D01*
X133825000Y-95557753D02*
X130912753Y-95557753D01*
X130105000Y-94750000D02*
X130105000Y-92940000D01*
X130105000Y-92940000D02*
X129690000Y-93355000D01*
X128274000Y-91754000D02*
X129884000Y-91754000D01*
X129884000Y-91754000D02*
X130105000Y-91975000D01*
X130105000Y-91975000D02*
X130105000Y-92940000D01*
X128175000Y-91655000D02*
X128274000Y-91754000D01*
D25*
%TO.N,/TX*%
X130345000Y-90240000D02*
X130345000Y-88685000D01*
X132008033Y-94832753D02*
X131970786Y-94870000D01*
X131970786Y-94870000D02*
X130968876Y-94870000D01*
X130968876Y-94870000D02*
X130870000Y-94771124D01*
X130870000Y-94771124D02*
X130870000Y-90765000D01*
X132289461Y-94832753D02*
X132008033Y-94832753D01*
X130870000Y-90765000D02*
X130345000Y-90240000D01*
%TO.N,/RX*%
X131369000Y-88909000D02*
X131145000Y-88685000D01*
X131369000Y-89506312D02*
X131369000Y-88909000D01*
X131475000Y-94264830D02*
X131475000Y-89612312D01*
X131475000Y-89612312D02*
X131369000Y-89506312D01*
X131469830Y-94270000D02*
X131475000Y-94264830D01*
D26*
%TO.N,GND*%
X116755000Y-95635000D02*
X115892500Y-95635000D01*
X117295000Y-95095000D02*
X116755000Y-95635000D01*
X117295000Y-93095000D02*
X117295000Y-95095000D01*
D25*
%TO.N,/SDA*%
X123257500Y-88760000D02*
X123067500Y-88950000D01*
X124915000Y-88760000D02*
X123257500Y-88760000D01*
X125295000Y-88380000D02*
X124915000Y-88760000D01*
%TO.N,Net-(U4-PB6)*%
X125110000Y-102100000D02*
X125112500Y-102097500D01*
X125110000Y-103650000D02*
X125110000Y-102100000D01*
X125115000Y-103655000D02*
X125110000Y-103650000D01*
X125112500Y-102097500D02*
X125112500Y-100725000D01*
%TO.N,/D5*%
X129545000Y-97622312D02*
X129545000Y-97025000D01*
X130160000Y-98237312D02*
X129545000Y-97622312D01*
X130160000Y-101863660D02*
X130160000Y-98237312D01*
X123505000Y-107730000D02*
X124293660Y-107730000D01*
X124293660Y-107730000D02*
X130160000Y-101863660D01*
%TO.N,/D8*%
X131945000Y-106910000D02*
X131125000Y-107730000D01*
X131945000Y-97025000D02*
X131945000Y-106910000D01*
%TO.N,/D7*%
X131145000Y-105170000D02*
X131145000Y-97025000D01*
X128585000Y-107730000D02*
X131145000Y-105170000D01*
%TO.N,/D6*%
X130335000Y-97632312D02*
X130345000Y-97622312D01*
X130335000Y-97845212D02*
X130335000Y-97632312D01*
X130561000Y-98071212D02*
X130335000Y-97845212D01*
X130345000Y-97622312D02*
X130345000Y-97025000D01*
X130561000Y-103214000D02*
X130561000Y-98071212D01*
X126045000Y-107730000D02*
X130561000Y-103214000D01*
%TO.N,/SDA*%
X121776500Y-101823500D02*
X121855000Y-101745000D01*
X121776500Y-105275160D02*
X121776500Y-101823500D01*
X122131340Y-105630000D02*
X121776500Y-105275160D01*
X122145000Y-105630000D02*
X122131340Y-105630000D01*
X122160000Y-105645000D02*
X122145000Y-105630000D01*
X123531000Y-105147660D02*
X123033660Y-105645000D01*
X123531000Y-103628600D02*
X123531000Y-105147660D01*
X123033660Y-105645000D02*
X122160000Y-105645000D01*
X123542000Y-103617600D02*
X123531000Y-103628600D01*
X123542000Y-99339900D02*
X123542000Y-103617600D01*
X123392499Y-95959999D02*
X123392499Y-99190399D01*
X123067500Y-95635000D02*
X123392499Y-95959999D01*
X123392499Y-99190399D02*
X123542000Y-99339900D01*
%TO.N,Net-(U4-PB6)*%
X135985306Y-101800000D02*
X139480000Y-101800000D01*
X135220153Y-102565153D02*
X135985306Y-101800000D01*
D26*
%TO.N,GND*%
X141425000Y-89010000D02*
X141425000Y-88335000D01*
X138009280Y-91799000D02*
X138011000Y-91799000D01*
X139891000Y-90544000D02*
X141425000Y-89010000D01*
X137452280Y-92356000D02*
X138009280Y-91799000D01*
X137329000Y-92356000D02*
X137452280Y-92356000D01*
X139266000Y-90544000D02*
X139891000Y-90544000D01*
X138011000Y-91799000D02*
X139266000Y-90544000D01*
X137130000Y-92555000D02*
X137329000Y-92356000D01*
X136615000Y-92555000D02*
X137130000Y-92555000D01*
X136515000Y-92455000D02*
X136615000Y-92555000D01*
D25*
%TO.N,/D3*%
X126415000Y-90055000D02*
X128175000Y-90055000D01*
X126225000Y-90616473D02*
X126225000Y-90245000D01*
X126225000Y-90245000D02*
X126415000Y-90055000D01*
%TO.N,/D4*%
X128001000Y-91029000D02*
X128175000Y-90855000D01*
X127089000Y-91315000D02*
X127089000Y-91272978D01*
X127089000Y-91272978D02*
X127332978Y-91029000D01*
X127332978Y-91029000D02*
X128001000Y-91029000D01*
X126075000Y-91315000D02*
X127089000Y-91315000D01*
X125135000Y-90375000D02*
X126075000Y-91315000D01*
%TO.N,/D2*%
X123913990Y-88306000D02*
X124439990Y-87780000D01*
X122239010Y-88306000D02*
X123913990Y-88306000D01*
X121531765Y-89013245D02*
X122239010Y-88306000D01*
X121531765Y-89251765D02*
X121531765Y-89013245D01*
X124439990Y-87780000D02*
X128640000Y-87780000D01*
X128640000Y-87780000D02*
X129545000Y-88685000D01*
%TO.N,/SCK*%
X132130000Y-87335000D02*
X132745000Y-87950000D01*
X123412500Y-87335000D02*
X132130000Y-87335000D01*
X123067500Y-87680000D02*
X123412500Y-87335000D01*
X132745000Y-87950000D02*
X132745000Y-88685000D01*
X120320000Y-90320000D02*
X120320000Y-89615001D01*
X120320000Y-89615001D02*
X122255001Y-87680000D01*
X122255001Y-87680000D02*
X123067500Y-87680000D01*
%TO.N,Net-(U3-SQW{slash}~INT)*%
X123141000Y-99506000D02*
X122840000Y-99205000D01*
X122840000Y-99205000D02*
X121855000Y-99205000D01*
X123141000Y-103451500D02*
X123141000Y-99506000D01*
X122717500Y-103875000D02*
X123141000Y-103451500D01*
D26*
%TO.N,/Vcc*%
X118577500Y-103922500D02*
X118885000Y-104230000D01*
D25*
%TO.N,Net-(U3-~{INTA})*%
X116670000Y-103987500D02*
X116670000Y-104510000D01*
X115920000Y-100475000D02*
X116905000Y-100475000D01*
X116752500Y-103905000D02*
X116670000Y-103987500D01*
D26*
%TO.N,/Vcc*%
X118577500Y-103905000D02*
X118577500Y-103922500D01*
D25*
%TO.N,Net-(U3-~{INTA})*%
X116015000Y-103905000D02*
X115180000Y-103070000D01*
X116752500Y-103905000D02*
X116015000Y-103905000D01*
X115180000Y-103070000D02*
X115180000Y-101215000D01*
X115180000Y-101215000D02*
X115920000Y-100475000D01*
D26*
%TO.N,/Vcc*%
X115892500Y-94365000D02*
X115513232Y-94365000D01*
%TO.N,GND*%
X114252148Y-95635000D02*
X115892500Y-95635000D01*
X117295000Y-93095000D02*
X117930000Y-93095000D01*
D25*
%TO.N,/SCK*%
X120279000Y-99668520D02*
X120279000Y-98911480D01*
X121170480Y-100560000D02*
X120279000Y-99668520D01*
X121565000Y-100560000D02*
X121170480Y-100560000D01*
X120279000Y-98911480D02*
X120524480Y-98666000D01*
X122991499Y-97490000D02*
X120786499Y-95285000D01*
X120786499Y-95285000D02*
X120185000Y-95285000D01*
X122991499Y-98340232D02*
X122991499Y-97490000D01*
X122665731Y-98666000D02*
X122991499Y-98340232D01*
X120524480Y-98666000D02*
X122665731Y-98666000D01*
X120885000Y-100475000D02*
X121855000Y-100475000D01*
X145540000Y-90160000D02*
X144870000Y-90830000D01*
X148435000Y-90160000D02*
X145540000Y-90160000D01*
%TO.N,Net-(D1-K)*%
X144107500Y-85997500D02*
X144107500Y-85835000D01*
X145580000Y-88215000D02*
X145580000Y-87470000D01*
X145580000Y-87470000D02*
X144107500Y-85997500D01*
%TO.N,/Vcc*%
X145982500Y-85835000D02*
X145982500Y-85467500D01*
%TO.N,/SCK*%
X142225000Y-87164000D02*
X141407500Y-86346500D01*
X141407500Y-86346500D02*
X141407500Y-85595000D01*
%TO.N,Net-(D2-K)*%
X139600000Y-88335000D02*
X139600000Y-85662500D01*
X139600000Y-85662500D02*
X139532500Y-85595000D01*
D26*
%TO.N,GND*%
X135740912Y-92455000D02*
X136515000Y-92455000D01*
X135425912Y-92770000D02*
X135740912Y-92455000D01*
X135425912Y-92779088D02*
X135425912Y-92770000D01*
X133895000Y-95412988D02*
X133895000Y-94310000D01*
X133825000Y-95557753D02*
X133825000Y-95482988D01*
X133825000Y-95482988D02*
X133895000Y-95412988D01*
X133895000Y-94310000D02*
X135425912Y-92779088D01*
X129689000Y-93354000D02*
X129690000Y-93355000D01*
X128175000Y-93255000D02*
X128274000Y-93354000D01*
X128274000Y-93354000D02*
X129689000Y-93354000D01*
X148325000Y-96505000D02*
X147754031Y-95934031D01*
X150565000Y-96505000D02*
X148325000Y-96505000D01*
D25*
%TO.N,Net-(U4-PB6)*%
X125424000Y-100413500D02*
X125112500Y-100725000D01*
X125424000Y-96589500D02*
X125424000Y-100413500D01*
D26*
%TO.N,GND*%
X133665000Y-103095000D02*
X133665000Y-107730000D01*
X136275000Y-100485000D02*
X133665000Y-103095000D01*
X141380000Y-100485000D02*
X136275000Y-100485000D01*
D25*
%TO.N,/SDA*%
X150565000Y-101585000D02*
X147530000Y-104620000D01*
X147530000Y-104620000D02*
X135950000Y-104620000D01*
D26*
%TO.N,GND*%
X142059997Y-98505003D02*
X141380000Y-99185000D01*
X142540000Y-98505003D02*
X142059997Y-98505003D01*
D25*
%TO.N,/SCK*%
X136430000Y-95740000D02*
X136515000Y-95655000D01*
D26*
%TO.N,GND*%
X117930000Y-93095000D02*
X123067500Y-93095000D01*
X141380000Y-100485000D02*
X141380000Y-101800000D01*
X141380000Y-99185000D02*
X141380000Y-100485000D01*
X140490000Y-107350000D02*
X140110000Y-107730000D01*
X117649485Y-101745000D02*
X116905000Y-101745000D01*
X118329000Y-101277423D02*
X118117062Y-101277423D01*
X118117062Y-101277423D02*
X117649485Y-101745000D01*
%TO.N,/Vcc*%
X150975000Y-87620000D02*
X150975000Y-88055000D01*
D25*
%TO.N,/SDA*%
X121305057Y-101745000D02*
X121855000Y-101745000D01*
D26*
%TO.N,GND*%
X115195000Y-89647500D02*
X115892500Y-88950000D01*
D25*
%TO.N,/Vcc*%
X112970000Y-92180000D02*
X112970000Y-91412500D01*
D26*
%TO.N,GND*%
X112977500Y-89647500D02*
X115195000Y-89647500D01*
X112970000Y-89640000D02*
X112977500Y-89647500D01*
X115892500Y-93095000D02*
X117295000Y-93095000D01*
X141545000Y-88215000D02*
X141425000Y-88335000D01*
X143755000Y-88215000D02*
X141545000Y-88215000D01*
D25*
%TO.N,/Vcc*%
X128175000Y-92520000D02*
X128175000Y-92455000D01*
X128284000Y-92629000D02*
X128175000Y-92520000D01*
D26*
%TO.N,GND*%
X119244999Y-86410000D02*
X123067500Y-86410000D01*
X116704999Y-88950000D02*
X119244999Y-86410000D01*
X115892500Y-88950000D02*
X116704999Y-88950000D01*
D25*
%TO.N,/SDA*%
X134530000Y-90235000D02*
X134820000Y-90235000D01*
X134016000Y-89721000D02*
X134530000Y-90235000D01*
X133983688Y-89721000D02*
X134016000Y-89721000D01*
X133769000Y-89506312D02*
X133983688Y-89721000D01*
X133769000Y-89474000D02*
X133769000Y-89506312D01*
X133545000Y-88685000D02*
X133545000Y-89250000D01*
X133545000Y-89250000D02*
X133769000Y-89474000D01*
X121855000Y-101745000D02*
X121835000Y-101725000D01*
%TO.N,/D2*%
X129515000Y-88715000D02*
X129545000Y-88685000D01*
%TO.N,/SDA*%
X139100000Y-92525000D02*
X139600000Y-92025000D01*
X138310000Y-92525000D02*
X139100000Y-92525000D01*
%TO.N,/SCK*%
X121105000Y-94365000D02*
X123067500Y-94365000D01*
X120185000Y-95285000D02*
X121105000Y-94365000D01*
%TO.N,/SDA*%
X124655000Y-94859999D02*
X123879999Y-95635000D01*
X123879999Y-95635000D02*
X123067500Y-95635000D01*
X124655000Y-93985000D02*
X124655000Y-94859999D01*
%TO.N,Net-(U4-PB6)*%
X127158500Y-94855000D02*
X128175000Y-94855000D01*
X125424000Y-96589500D02*
X127158500Y-94855000D01*
%TO.N,Net-(U3-X1)*%
X116452500Y-98387500D02*
X116905000Y-97935000D01*
X112525000Y-98387500D02*
X116452500Y-98387500D01*
%TO.N,Net-(U3-X2)*%
X115407500Y-99205000D02*
X116905000Y-99205000D01*
X112525000Y-102087500D02*
X115407500Y-99205000D01*
%TO.N,Net-(U4-PB7)*%
X128812500Y-100112500D02*
X126225000Y-97525000D01*
X128812500Y-100725000D02*
X128812500Y-100112500D01*
X127151000Y-96599000D02*
X126225000Y-97525000D01*
X127231000Y-96599000D02*
X127151000Y-96599000D01*
X127231000Y-96599000D02*
X128175000Y-95655000D01*
%TO.N,Net-(U4-PB6)*%
X127440000Y-94855000D02*
X128175000Y-94855000D01*
D26*
%TO.N,GND*%
X150565000Y-93110000D02*
X150975000Y-92700000D01*
D25*
%TO.N,/RESET*%
X133300000Y-90535000D02*
X133197688Y-90535000D01*
X133197688Y-90535000D02*
X131945000Y-89282312D01*
X131945000Y-89282312D02*
X131945000Y-88685000D01*
%TO.N,/Vcc*%
X128075000Y-92555000D02*
X128175000Y-92455000D01*
%TO.N,Net-(U4-AREF)*%
X136689000Y-93081000D02*
X136515000Y-93255000D01*
D26*
%TO.N,GND*%
X125381000Y-94877875D02*
X125381000Y-93366000D01*
X124325000Y-97525000D02*
X124325000Y-95933875D01*
X124325000Y-95933875D02*
X125381000Y-94877875D01*
D25*
%TO.N,/Vcc*%
X138391000Y-93654000D02*
X140374000Y-93654000D01*
X140757500Y-94037500D02*
X140757500Y-94985000D01*
X140374000Y-93654000D02*
X140757500Y-94037500D01*
%TD*%
%TA.AperFunction,Conductor*%
%TO.N,/Vcc*%
G36*
X150509075Y-87812993D02*
G01*
X150574901Y-87927007D01*
X150667993Y-88020099D01*
X150782007Y-88085925D01*
X150845590Y-88102962D01*
X150213282Y-88735269D01*
X150213282Y-88735270D01*
X150267452Y-88774626D01*
X150267451Y-88774626D01*
X150276495Y-88779234D01*
X150327292Y-88827208D01*
X150344087Y-88895029D01*
X150321550Y-88961164D01*
X150276499Y-89000202D01*
X150267182Y-89004949D01*
X150095213Y-89129890D01*
X149944890Y-89280213D01*
X149819949Y-89452182D01*
X149815484Y-89460946D01*
X149767509Y-89511742D01*
X149699688Y-89528536D01*
X149633553Y-89505998D01*
X149594516Y-89460946D01*
X149590050Y-89452182D01*
X149465109Y-89280213D01*
X149351569Y-89166673D01*
X149318084Y-89105350D01*
X149323068Y-89035658D01*
X149364940Y-88979725D01*
X149395915Y-88962810D01*
X149527331Y-88913796D01*
X149642546Y-88827546D01*
X149728796Y-88712331D01*
X149779091Y-88577483D01*
X149785500Y-88517873D01*
X149785499Y-88507312D01*
X149805179Y-88440275D01*
X149821818Y-88419626D01*
X150492037Y-87749408D01*
X150509075Y-87812993D01*
G37*
%TD.AperFunction*%
%TA.AperFunction,Conductor*%
G36*
X150188269Y-83424984D02*
G01*
X150255298Y-83444696D01*
X150263228Y-83450247D01*
X153238474Y-85710850D01*
X153241018Y-85712783D01*
X153282489Y-85769014D01*
X153290000Y-85811516D01*
X153290000Y-85872274D01*
X153270315Y-85939313D01*
X153264558Y-85946340D01*
X153263811Y-85992995D01*
X153264666Y-86001155D01*
X153290000Y-96602650D01*
X153290000Y-106169477D01*
X153270315Y-106236516D01*
X153254690Y-106256137D01*
X149914533Y-109674538D01*
X149853602Y-109708731D01*
X149825785Y-109711878D01*
X148444357Y-109711228D01*
X148444269Y-109711202D01*
X148444089Y-109711228D01*
X113881013Y-109620134D01*
X113814026Y-109600272D01*
X113793849Y-109584005D01*
X112734899Y-108529626D01*
X111510013Y-107310027D01*
X113103039Y-107310027D01*
X113454548Y-107660020D01*
X113536500Y-107660020D01*
X113536500Y-106818752D01*
X113536545Y-106815428D01*
X113537084Y-106795327D01*
X113537217Y-106792007D01*
X113538649Y-106765320D01*
X113538871Y-106762011D01*
X113540481Y-106742018D01*
X113540792Y-106738715D01*
X113551962Y-106634825D01*
X113553029Y-106627157D01*
X113560936Y-106580971D01*
X113562481Y-106573381D01*
X113576826Y-106512670D01*
X113578842Y-106505191D01*
X113592450Y-106460328D01*
X113594929Y-106452988D01*
X113668587Y-106255498D01*
X113671975Y-106247318D01*
X113694233Y-106198581D01*
X113698195Y-106190667D01*
X113716022Y-106158020D01*
X113103039Y-106158020D01*
X113103039Y-107310027D01*
X111510013Y-107310027D01*
X110391547Y-106196389D01*
X110357930Y-106135140D01*
X110355039Y-106108432D01*
X110356217Y-104585999D01*
X113103039Y-104585999D01*
X113103039Y-105160020D01*
X114605039Y-105160020D01*
X114605039Y-104755658D01*
X114256543Y-104407162D01*
X114248860Y-104411306D01*
X114242413Y-104414544D01*
X114189768Y-104439091D01*
X114183146Y-104441947D01*
X114142596Y-104458056D01*
X114135820Y-104460522D01*
X113915863Y-104533409D01*
X113909386Y-104535361D01*
X113869884Y-104546099D01*
X113863309Y-104547695D01*
X113810055Y-104559093D01*
X113803411Y-104560327D01*
X113763006Y-104566696D01*
X113756299Y-104567566D01*
X113613787Y-104582124D01*
X113610639Y-104582405D01*
X113591595Y-104583861D01*
X113588449Y-104584062D01*
X113563080Y-104585354D01*
X113559926Y-104585474D01*
X113540856Y-104585959D01*
X113537703Y-104585999D01*
X113103039Y-104585999D01*
X110356217Y-104585999D01*
X110361633Y-97587483D01*
X110824500Y-97587483D01*
X110824500Y-99187501D01*
X110824501Y-99187518D01*
X110835000Y-99290296D01*
X110835001Y-99290299D01*
X110890185Y-99456831D01*
X110890187Y-99456836D01*
X110913124Y-99494023D01*
X110982288Y-99606156D01*
X111106344Y-99730212D01*
X111255666Y-99822314D01*
X111422203Y-99877499D01*
X111524991Y-99888000D01*
X113525008Y-99887999D01*
X113568373Y-99883569D01*
X113637065Y-99896338D01*
X113687949Y-99944219D01*
X113704870Y-100012009D01*
X113682455Y-100078185D01*
X113668655Y-100094608D01*
X113212582Y-100550681D01*
X113151259Y-100584166D01*
X113124901Y-100587000D01*
X111524998Y-100587000D01*
X111524981Y-100587001D01*
X111422203Y-100597500D01*
X111422200Y-100597501D01*
X111255668Y-100652685D01*
X111255663Y-100652687D01*
X111106342Y-100744789D01*
X110982289Y-100868842D01*
X110890187Y-101018163D01*
X110890185Y-101018168D01*
X110872727Y-101070853D01*
X110835001Y-101184703D01*
X110835001Y-101184704D01*
X110835000Y-101184704D01*
X110824500Y-101287483D01*
X110824500Y-102887501D01*
X110824501Y-102887518D01*
X110835000Y-102990296D01*
X110835001Y-102990299D01*
X110884124Y-103138539D01*
X110890186Y-103156834D01*
X110982288Y-103306156D01*
X111106344Y-103430212D01*
X111255666Y-103522314D01*
X111422203Y-103577499D01*
X111524991Y-103588000D01*
X113525008Y-103587999D01*
X113627797Y-103577499D01*
X113794334Y-103522314D01*
X113943656Y-103430212D01*
X114067712Y-103306156D01*
X114159814Y-103156834D01*
X114214999Y-102990297D01*
X114225500Y-102887509D01*
X114225499Y-101287596D01*
X114245184Y-101220558D01*
X114261818Y-101199916D01*
X114367818Y-101093916D01*
X114429141Y-101060431D01*
X114498833Y-101065415D01*
X114554766Y-101107287D01*
X114579183Y-101172751D01*
X114579499Y-101181597D01*
X114579499Y-101304046D01*
X114579500Y-101304059D01*
X114579500Y-102983330D01*
X114579499Y-102983348D01*
X114579499Y-103149054D01*
X114579498Y-103149054D01*
X114581190Y-103155369D01*
X114613467Y-103275827D01*
X114620423Y-103301784D01*
X114620424Y-103301788D01*
X114645617Y-103345424D01*
X114645618Y-103345424D01*
X114699477Y-103438712D01*
X114699481Y-103438717D01*
X114818349Y-103557585D01*
X114818355Y-103557590D01*
X115530139Y-104269374D01*
X115530149Y-104269385D01*
X115534479Y-104273715D01*
X115534480Y-104273716D01*
X115646284Y-104385520D01*
X115688312Y-104409784D01*
X115736528Y-104460350D01*
X115749671Y-104504566D01*
X115750000Y-104507791D01*
X115750001Y-104507797D01*
X115805185Y-104674331D01*
X115805187Y-104674336D01*
X115820305Y-104698846D01*
X115897288Y-104823656D01*
X116021344Y-104947712D01*
X116170666Y-105039814D01*
X116337203Y-105094999D01*
X116439991Y-105105500D01*
X116555953Y-105105499D01*
X116588049Y-105109724D01*
X116590943Y-105110500D01*
X116590944Y-105110500D01*
X116749056Y-105110500D01*
X116749057Y-105110500D01*
X116751950Y-105109724D01*
X116784046Y-105105499D01*
X117065002Y-105105499D01*
X117065008Y-105105499D01*
X117167797Y-105094999D01*
X117334334Y-105039814D01*
X117483656Y-104947712D01*
X117577675Y-104853692D01*
X117638994Y-104820210D01*
X117708686Y-104825194D01*
X117753034Y-104853695D01*
X117846654Y-104947315D01*
X117995875Y-105039356D01*
X117995880Y-105039358D01*
X118162302Y-105094505D01*
X118162309Y-105094506D01*
X118265019Y-105104999D01*
X118827500Y-105104999D01*
X118889972Y-105104999D01*
X118889986Y-105104998D01*
X118992697Y-105094505D01*
X119159119Y-105039358D01*
X119159124Y-105039356D01*
X119308345Y-104947315D01*
X119432315Y-104823345D01*
X119524356Y-104674124D01*
X119524358Y-104674119D01*
X119579505Y-104507697D01*
X119579506Y-104507690D01*
X119589999Y-104404986D01*
X119590000Y-104404973D01*
X119590000Y-104374986D01*
X119880001Y-104374986D01*
X119890494Y-104477697D01*
X119945641Y-104644119D01*
X119945643Y-104644124D01*
X120037684Y-104793345D01*
X120161654Y-104917315D01*
X120310875Y-105009356D01*
X120310880Y-105009358D01*
X120477302Y-105064505D01*
X120477309Y-105064506D01*
X120580019Y-105074999D01*
X120642499Y-105074998D01*
X120642500Y-105074998D01*
X120642500Y-104125000D01*
X119880001Y-104125000D01*
X119880001Y-104374986D01*
X119590000Y-104374986D01*
X119590000Y-104155000D01*
X118827500Y-104155000D01*
X118827500Y-105104999D01*
X118265019Y-105104999D01*
X118327499Y-105104998D01*
X118327500Y-105104998D01*
X118327500Y-103655000D01*
X118827500Y-103655000D01*
X119589999Y-103655000D01*
X119589999Y-103405028D01*
X119589998Y-103405013D01*
X119579505Y-103302302D01*
X119524358Y-103135880D01*
X119524356Y-103135875D01*
X119432315Y-102986654D01*
X119308345Y-102862684D01*
X119159124Y-102770643D01*
X119159119Y-102770641D01*
X118992697Y-102715494D01*
X118992690Y-102715493D01*
X118889986Y-102705000D01*
X118827500Y-102705000D01*
X118827500Y-103655000D01*
X118327500Y-103655000D01*
X118327500Y-102705000D01*
X118327499Y-102704999D01*
X118265028Y-102705000D01*
X118265011Y-102705001D01*
X118162302Y-102715494D01*
X117995880Y-102770641D01*
X117995875Y-102770643D01*
X117846657Y-102862682D01*
X117753034Y-102956305D01*
X117691710Y-102989789D01*
X117622019Y-102984805D01*
X117577672Y-102956304D01*
X117483657Y-102862289D01*
X117483656Y-102862288D01*
X117471899Y-102855036D01*
X117425177Y-102803090D01*
X117413954Y-102734127D01*
X117441798Y-102670045D01*
X117499866Y-102631189D01*
X117536998Y-102625499D01*
X117563888Y-102625499D01*
X117676151Y-102610720D01*
X117676150Y-102610720D01*
X117676159Y-102610719D01*
X117815853Y-102552856D01*
X117935810Y-102460810D01*
X118027856Y-102340853D01*
X118034224Y-102325477D01*
X118075726Y-102273972D01*
X118075385Y-102273557D01*
X118077381Y-102271918D01*
X118078063Y-102271073D01*
X118079817Y-102269877D01*
X118080091Y-102269695D01*
X118093829Y-102255956D01*
X118155151Y-102222471D01*
X118205703Y-102222019D01*
X118235384Y-102227923D01*
X118422617Y-102227923D01*
X118422618Y-102227922D01*
X118606251Y-102191396D01*
X118779231Y-102119745D01*
X118934908Y-102015725D01*
X119067302Y-101883331D01*
X119171322Y-101727654D01*
X119242973Y-101554674D01*
X119279500Y-101371039D01*
X119279500Y-101183807D01*
X119242973Y-101000172D01*
X119171322Y-100827192D01*
X119171321Y-100827191D01*
X119171318Y-100827185D01*
X119067302Y-100671515D01*
X119067299Y-100671511D01*
X118934911Y-100539123D01*
X118934907Y-100539120D01*
X118779237Y-100435104D01*
X118779228Y-100435099D01*
X118606251Y-100363450D01*
X118606243Y-100363448D01*
X118422620Y-100326923D01*
X118422616Y-100326923D01*
X118235384Y-100326923D01*
X118235383Y-100326923D01*
X118229321Y-100327520D01*
X118229158Y-100325874D01*
X118167491Y-100320345D01*
X118112321Y-100277472D01*
X118089971Y-100221147D01*
X118085719Y-100188841D01*
X118027856Y-100049147D01*
X118027856Y-100049146D01*
X117990518Y-100000487D01*
X117965323Y-99935318D01*
X117979361Y-99866873D01*
X117990518Y-99849513D01*
X118027856Y-99800853D01*
X118047862Y-99752554D01*
X118085719Y-99661159D01*
X118100500Y-99548887D01*
X118100499Y-99031114D01*
X118099628Y-99024501D01*
X118085720Y-98918848D01*
X118085719Y-98918847D01*
X118085719Y-98918841D01*
X118058036Y-98852007D01*
X118027856Y-98779146D01*
X117990518Y-98730487D01*
X117965323Y-98665318D01*
X117979361Y-98596873D01*
X117990518Y-98579513D01*
X118027856Y-98530853D01*
X118061459Y-98449728D01*
X118085719Y-98391159D01*
X118100500Y-98278887D01*
X118100499Y-97761136D01*
X120080000Y-97761136D01*
X120080000Y-97770000D01*
X121315000Y-97770000D01*
X121315000Y-97225000D01*
X120616136Y-97225000D01*
X120503971Y-97239768D01*
X120503967Y-97239769D01*
X120364401Y-97297578D01*
X120244547Y-97389547D01*
X120152578Y-97509401D01*
X120094769Y-97648967D01*
X120094768Y-97648971D01*
X120080000Y-97761136D01*
X118100499Y-97761136D01*
X118100499Y-97761114D01*
X118098125Y-97743083D01*
X118085720Y-97648848D01*
X118085719Y-97648847D01*
X118085719Y-97648841D01*
X118027856Y-97509147D01*
X117935810Y-97389190D01*
X117815853Y-97297144D01*
X117815852Y-97297143D01*
X117815850Y-97297142D01*
X117676162Y-97239282D01*
X117676160Y-97239281D01*
X117676159Y-97239281D01*
X117563887Y-97224500D01*
X115666111Y-97224500D01*
X115553848Y-97239279D01*
X115553837Y-97239282D01*
X115414149Y-97297142D01*
X115294190Y-97389190D01*
X115202142Y-97509149D01*
X115144282Y-97648837D01*
X115144281Y-97648840D01*
X115144281Y-97648841D01*
X115140733Y-97675789D01*
X115140286Y-97679186D01*
X115112019Y-97743083D01*
X115053694Y-97781553D01*
X115017347Y-97787000D01*
X114349499Y-97787000D01*
X114282460Y-97767315D01*
X114236705Y-97714511D01*
X114225499Y-97663000D01*
X114225499Y-97587498D01*
X114225498Y-97587481D01*
X114214999Y-97484703D01*
X114214998Y-97484700D01*
X114207636Y-97462482D01*
X114159814Y-97318166D01*
X114067712Y-97168844D01*
X113943656Y-97044788D01*
X113802157Y-96957511D01*
X113794336Y-96952687D01*
X113794331Y-96952685D01*
X113769570Y-96944480D01*
X113627797Y-96897501D01*
X113627795Y-96897500D01*
X113525010Y-96887000D01*
X111524998Y-96887000D01*
X111524981Y-96887001D01*
X111422203Y-96897500D01*
X111422200Y-96897501D01*
X111255668Y-96952685D01*
X111255663Y-96952687D01*
X111106342Y-97044789D01*
X110982289Y-97168842D01*
X110890187Y-97318163D01*
X110890185Y-97318168D01*
X110871772Y-97373736D01*
X110835001Y-97484703D01*
X110835001Y-97484704D01*
X110835000Y-97484704D01*
X110824500Y-97587483D01*
X110361633Y-97587483D01*
X110367865Y-89533713D01*
X111619500Y-89533713D01*
X111619500Y-89746287D01*
X111624576Y-89778333D01*
X111652744Y-89956185D01*
X111652754Y-89956243D01*
X111712951Y-90141510D01*
X111718444Y-90158414D01*
X111814951Y-90347820D01*
X111939890Y-90519786D01*
X112053818Y-90633714D01*
X112087303Y-90695037D01*
X112082319Y-90764729D01*
X112040447Y-90820662D01*
X112009471Y-90837577D01*
X111877912Y-90886646D01*
X111877906Y-90886649D01*
X111762812Y-90972809D01*
X111762809Y-90972812D01*
X111676649Y-91087906D01*
X111676645Y-91087913D01*
X111626403Y-91222620D01*
X111626401Y-91222627D01*
X111620000Y-91282155D01*
X111620000Y-91930000D01*
X112536988Y-91930000D01*
X112504075Y-91987007D01*
X112470000Y-92114174D01*
X112470000Y-92245826D01*
X112504075Y-92372993D01*
X112536988Y-92430000D01*
X111620000Y-92430000D01*
X111620000Y-93077844D01*
X111626401Y-93137372D01*
X111626403Y-93137379D01*
X111676645Y-93272086D01*
X111676649Y-93272093D01*
X111762809Y-93387187D01*
X111762812Y-93387190D01*
X111877906Y-93473350D01*
X111877913Y-93473354D01*
X112012620Y-93523596D01*
X112012627Y-93523598D01*
X112072155Y-93529999D01*
X112072172Y-93530000D01*
X112720000Y-93530000D01*
X112720000Y-92613012D01*
X112777007Y-92645925D01*
X112904174Y-92680000D01*
X113035826Y-92680000D01*
X113162993Y-92645925D01*
X113220000Y-92613012D01*
X113220000Y-93530000D01*
X113867828Y-93530000D01*
X113867844Y-93529999D01*
X113927372Y-93523598D01*
X113927379Y-93523596D01*
X114062086Y-93473354D01*
X114062093Y-93473350D01*
X114177187Y-93387190D01*
X114177190Y-93387187D01*
X114263350Y-93272093D01*
X114263354Y-93272086D01*
X114313596Y-93137379D01*
X114313598Y-93137372D01*
X114319999Y-93077844D01*
X114320000Y-93077827D01*
X114320000Y-92430000D01*
X113403012Y-92430000D01*
X113435925Y-92372993D01*
X113470000Y-92245826D01*
X113470000Y-92114174D01*
X113435925Y-91987007D01*
X113403012Y-91930000D01*
X114320000Y-91930000D01*
X114320000Y-91574999D01*
X114583085Y-91574999D01*
X114583085Y-91575000D01*
X115642500Y-91575000D01*
X116142500Y-91575000D01*
X117201915Y-91575000D01*
X117201914Y-91574999D01*
X121758085Y-91574999D01*
X121758085Y-91575000D01*
X122817500Y-91575000D01*
X123317500Y-91575000D01*
X124376915Y-91575000D01*
X124376914Y-91574999D01*
X124373935Y-91542207D01*
X124373932Y-91542197D01*
X124326072Y-91388607D01*
X124242836Y-91250919D01*
X124129080Y-91137163D01*
X123991396Y-91053929D01*
X123837792Y-91006065D01*
X123771043Y-91000000D01*
X123317500Y-91000000D01*
X123317500Y-91575000D01*
X122817500Y-91575000D01*
X122817500Y-91000000D01*
X122363957Y-91000000D01*
X122297207Y-91006065D01*
X122143603Y-91053929D01*
X122005919Y-91137163D01*
X121892163Y-91250919D01*
X121808927Y-91388607D01*
X121761067Y-91542197D01*
X121761064Y-91542207D01*
X121758085Y-91574999D01*
X117201914Y-91574999D01*
X117198935Y-91542207D01*
X117198932Y-91542197D01*
X117151072Y-91388607D01*
X117067836Y-91250919D01*
X116954080Y-91137163D01*
X116816396Y-91053929D01*
X116662792Y-91006065D01*
X116596043Y-91000000D01*
X116142500Y-91000000D01*
X116142500Y-91575000D01*
X115642500Y-91575000D01*
X115642500Y-91000000D01*
X115188957Y-91000000D01*
X115122207Y-91006065D01*
X114968603Y-91053929D01*
X114830919Y-91137163D01*
X114717163Y-91250919D01*
X114633927Y-91388607D01*
X114586067Y-91542197D01*
X114586064Y-91542207D01*
X114583085Y-91574999D01*
X114320000Y-91574999D01*
X114320000Y-91282172D01*
X114319999Y-91282155D01*
X114313598Y-91222627D01*
X114313596Y-91222620D01*
X114263354Y-91087913D01*
X114263350Y-91087906D01*
X114177190Y-90972812D01*
X114177187Y-90972809D01*
X114062093Y-90886649D01*
X114062088Y-90886646D01*
X113930528Y-90837577D01*
X113874595Y-90795705D01*
X113850178Y-90730241D01*
X113865030Y-90661968D01*
X113886175Y-90633720D01*
X114000104Y-90519792D01*
X114105944Y-90374113D01*
X114161273Y-90331449D01*
X114206262Y-90323000D01*
X115261532Y-90323000D01*
X115261533Y-90322999D01*
X115392036Y-90297041D01*
X115514969Y-90246120D01*
X115625606Y-90172195D01*
X115985982Y-89811817D01*
X116047305Y-89778333D01*
X116073663Y-89775499D01*
X116596097Y-89775499D01*
X116662882Y-89769431D01*
X116662885Y-89769430D01*
X116662887Y-89769430D01*
X116816602Y-89721531D01*
X116954388Y-89638236D01*
X117068236Y-89524388D01*
X117068237Y-89524385D01*
X117073542Y-89519081D01*
X117074622Y-89520161D01*
X117092419Y-89503549D01*
X117135605Y-89474695D01*
X119488481Y-87121819D01*
X119549804Y-87088334D01*
X119576162Y-87085500D01*
X121689151Y-87085500D01*
X121756190Y-87105185D01*
X121801945Y-87157989D01*
X121811889Y-87227147D01*
X121807535Y-87246395D01*
X121802215Y-87263465D01*
X121771512Y-87314251D01*
X119951286Y-89134479D01*
X119839481Y-89246283D01*
X119839479Y-89246286D01*
X119826773Y-89268294D01*
X119790797Y-89330607D01*
X119760423Y-89383216D01*
X119719499Y-89535944D01*
X119719499Y-89535946D01*
X119719499Y-89704047D01*
X119719500Y-89704060D01*
X119719500Y-89740234D01*
X119699815Y-89807273D01*
X119698602Y-89809125D01*
X119610609Y-89940814D01*
X119610602Y-89940827D01*
X119550264Y-90086498D01*
X119550261Y-90086510D01*
X119519500Y-90241153D01*
X119519500Y-90398846D01*
X119550261Y-90553489D01*
X119550264Y-90553501D01*
X119610602Y-90699172D01*
X119610609Y-90699185D01*
X119698210Y-90830288D01*
X119698213Y-90830292D01*
X119809707Y-90941786D01*
X119809711Y-90941789D01*
X119940814Y-91029390D01*
X119940827Y-91029397D01*
X120082099Y-91087913D01*
X120086503Y-91089737D01*
X120241153Y-91120499D01*
X120241156Y-91120500D01*
X120241158Y-91120500D01*
X120398844Y-91120500D01*
X120398845Y-91120499D01*
X120553497Y-91089737D01*
X120699179Y-91029394D01*
X120830289Y-90941789D01*
X120941789Y-90830289D01*
X121029394Y-90699179D01*
X121089737Y-90553497D01*
X121120500Y-90398842D01*
X121120500Y-90241158D01*
X121120500Y-90241155D01*
X121102181Y-90149064D01*
X121108408Y-90079473D01*
X121151270Y-90024295D01*
X121217160Y-90001050D01*
X121271249Y-90010310D01*
X121298268Y-90021502D01*
X121413881Y-90044499D01*
X121452918Y-90052264D01*
X121452921Y-90052265D01*
X121452923Y-90052265D01*
X121610609Y-90052265D01*
X121610610Y-90052264D01*
X121765262Y-90021502D01*
X121910944Y-89961159D01*
X122042054Y-89873554D01*
X122129033Y-89786574D01*
X122190354Y-89753090D01*
X122253600Y-89755870D01*
X122297113Y-89769430D01*
X122363909Y-89775500D01*
X123771090Y-89775499D01*
X123771097Y-89775499D01*
X123837882Y-89769431D01*
X123837885Y-89769430D01*
X123837887Y-89769430D01*
X123991602Y-89721531D01*
X124129388Y-89638236D01*
X124243236Y-89524388D01*
X124306130Y-89420348D01*
X124357657Y-89373162D01*
X124412246Y-89360500D01*
X124828331Y-89360500D01*
X124828347Y-89360501D01*
X124873011Y-89360501D01*
X124940050Y-89380186D01*
X124985805Y-89432990D01*
X124995749Y-89502148D01*
X124966724Y-89565704D01*
X124907946Y-89603478D01*
X124905006Y-89604200D01*
X124901498Y-89605264D01*
X124755827Y-89665602D01*
X124755814Y-89665609D01*
X124624711Y-89753210D01*
X124624707Y-89753213D01*
X124513213Y-89864707D01*
X124513210Y-89864711D01*
X124425609Y-89995814D01*
X124425602Y-89995827D01*
X124365264Y-90141498D01*
X124365261Y-90141510D01*
X124334500Y-90296153D01*
X124334500Y-90453846D01*
X124365261Y-90608489D01*
X124365264Y-90608501D01*
X124425602Y-90754172D01*
X124425609Y-90754185D01*
X124513210Y-90885288D01*
X124513213Y-90885292D01*
X124624707Y-90996786D01*
X124624711Y-90996789D01*
X124755814Y-91084390D01*
X124755827Y-91084397D01*
X124901498Y-91144735D01*
X124901503Y-91144737D01*
X124955009Y-91155380D01*
X125056849Y-91175638D01*
X125118760Y-91208023D01*
X125120335Y-91209570D01*
X125706284Y-91795520D01*
X125706286Y-91795521D01*
X125706290Y-91795524D01*
X125769402Y-91831961D01*
X125843216Y-91874577D01*
X125995943Y-91915501D01*
X125995945Y-91915501D01*
X126161654Y-91915501D01*
X126161670Y-91915500D01*
X126833721Y-91915500D01*
X126900760Y-91935185D01*
X126946515Y-91987989D01*
X126953496Y-92007407D01*
X126956255Y-92017704D01*
X126954539Y-92018163D01*
X126960933Y-92077681D01*
X126956615Y-92092386D01*
X126956743Y-92092421D01*
X126954639Y-92100271D01*
X126940000Y-92211462D01*
X126940000Y-92290500D01*
X126920315Y-92357539D01*
X126867511Y-92403294D01*
X126816000Y-92414500D01*
X126532707Y-92414500D01*
X126399645Y-92414500D01*
X126386487Y-92417117D01*
X126362296Y-92419500D01*
X124445325Y-92419500D01*
X124378286Y-92399815D01*
X124332531Y-92347011D01*
X124322587Y-92277853D01*
X124326940Y-92258610D01*
X124373932Y-92107802D01*
X124373935Y-92107792D01*
X124376914Y-92075000D01*
X121758085Y-92075000D01*
X121761064Y-92107792D01*
X121761067Y-92107802D01*
X121808060Y-92258610D01*
X121809211Y-92328470D01*
X121772410Y-92387863D01*
X121709342Y-92417930D01*
X121689675Y-92419500D01*
X118397520Y-92419500D01*
X118330481Y-92399815D01*
X118328628Y-92398601D01*
X118309186Y-92385610D01*
X118309172Y-92385602D01*
X118163501Y-92325264D01*
X118163489Y-92325261D01*
X118008845Y-92294500D01*
X118008842Y-92294500D01*
X117851158Y-92294500D01*
X117851155Y-92294500D01*
X117696510Y-92325261D01*
X117696498Y-92325264D01*
X117550827Y-92385602D01*
X117550813Y-92385610D01*
X117531372Y-92398601D01*
X117464695Y-92419480D01*
X117462480Y-92419500D01*
X117270325Y-92419500D01*
X117203286Y-92399815D01*
X117157531Y-92347011D01*
X117147587Y-92277853D01*
X117151940Y-92258610D01*
X117198932Y-92107802D01*
X117198935Y-92107792D01*
X117201914Y-92075000D01*
X114583085Y-92075000D01*
X114586064Y-92107792D01*
X114586067Y-92107802D01*
X114633927Y-92261392D01*
X114714918Y-92395366D01*
X114732754Y-92462920D01*
X114714918Y-92523666D01*
X114633469Y-92658397D01*
X114585569Y-92812116D01*
X114579500Y-92878911D01*
X114579500Y-93311098D01*
X114585568Y-93377882D01*
X114585571Y-93377893D01*
X114633467Y-93531598D01*
X114633468Y-93531600D01*
X114633469Y-93531602D01*
X114714918Y-93666335D01*
X114732754Y-93733887D01*
X114714918Y-93794633D01*
X114633927Y-93928607D01*
X114586067Y-94082197D01*
X114586064Y-94082207D01*
X114583085Y-94114999D01*
X114583085Y-94115000D01*
X115768500Y-94115000D01*
X115835539Y-94134685D01*
X115881294Y-94187489D01*
X115892500Y-94239000D01*
X115892500Y-94491000D01*
X115872815Y-94558039D01*
X115820011Y-94603794D01*
X115768500Y-94615000D01*
X114583085Y-94615000D01*
X114586064Y-94647792D01*
X114586065Y-94647797D01*
X114602866Y-94701712D01*
X114604016Y-94771572D01*
X114567215Y-94830964D01*
X114504146Y-94861032D01*
X114460289Y-94860218D01*
X114330994Y-94834500D01*
X114330990Y-94834500D01*
X114173306Y-94834500D01*
X114173303Y-94834500D01*
X114018658Y-94865261D01*
X114018646Y-94865264D01*
X113872975Y-94925602D01*
X113872962Y-94925609D01*
X113741861Y-95013209D01*
X113741855Y-95013213D01*
X113630361Y-95124707D01*
X113630358Y-95124711D01*
X113542757Y-95255814D01*
X113542750Y-95255827D01*
X113482412Y-95401498D01*
X113482409Y-95401510D01*
X113451648Y-95556153D01*
X113451648Y-95713846D01*
X113482409Y-95868489D01*
X113482412Y-95868501D01*
X113542750Y-96014172D01*
X113542757Y-96014185D01*
X113630358Y-96145288D01*
X113630361Y-96145292D01*
X113741855Y-96256786D01*
X113741859Y-96256789D01*
X113872962Y-96344390D01*
X113872975Y-96344397D01*
X114018646Y-96404735D01*
X114018651Y-96404737D01*
X114149753Y-96430815D01*
X114173301Y-96435499D01*
X114173304Y-96435500D01*
X114173306Y-96435500D01*
X114330992Y-96435500D01*
X114330993Y-96435499D01*
X114485645Y-96404737D01*
X114631327Y-96344394D01*
X114640076Y-96338547D01*
X114650776Y-96331399D01*
X114717453Y-96310520D01*
X114719668Y-96310500D01*
X114774977Y-96310500D01*
X114839125Y-96328382D01*
X114968398Y-96406531D01*
X115122113Y-96454430D01*
X115188909Y-96460500D01*
X116596090Y-96460499D01*
X116596097Y-96460499D01*
X116662882Y-96454431D01*
X116662885Y-96454430D01*
X116662887Y-96454430D01*
X116721589Y-96436138D01*
X118320546Y-96436138D01*
X118343143Y-96449184D01*
X118350034Y-96453469D01*
X118390870Y-96480754D01*
X118397468Y-96485481D01*
X118569281Y-96617318D01*
X118575553Y-96622466D01*
X118612472Y-96654843D01*
X118618394Y-96660390D01*
X118664610Y-96706606D01*
X118670157Y-96712528D01*
X118702534Y-96749447D01*
X118707682Y-96755719D01*
X118839519Y-96927532D01*
X118844246Y-96934130D01*
X118871531Y-96974966D01*
X118875816Y-96981857D01*
X118908495Y-97038461D01*
X118912319Y-97045615D01*
X118934035Y-97089650D01*
X118937384Y-97097042D01*
X119020254Y-97297110D01*
X119023112Y-97304702D01*
X119038892Y-97351186D01*
X119041246Y-97358947D01*
X119058166Y-97422082D01*
X119060010Y-97429989D01*
X119069594Y-97478170D01*
X119070916Y-97486178D01*
X119090251Y-97633060D01*
X119109572Y-97486304D01*
X119110894Y-97478296D01*
X119120474Y-97430138D01*
X119122316Y-97422239D01*
X119139231Y-97359108D01*
X119141586Y-97351342D01*
X119157370Y-97304843D01*
X119160229Y-97297249D01*
X119243053Y-97097292D01*
X119246402Y-97089900D01*
X119268122Y-97045856D01*
X119271948Y-97038698D01*
X119304630Y-96982093D01*
X119308913Y-96975206D01*
X119336194Y-96934376D01*
X119340921Y-96927779D01*
X119368567Y-96891749D01*
X119362426Y-96888845D01*
X119356991Y-96886109D01*
X119313770Y-96863008D01*
X119308475Y-96860009D01*
X119276882Y-96841074D01*
X119271737Y-96837816D01*
X119099878Y-96722983D01*
X119094902Y-96719478D01*
X119065329Y-96697545D01*
X119060531Y-96693801D01*
X119022649Y-96662712D01*
X119018042Y-96658738D01*
X118990755Y-96634007D01*
X118986346Y-96629809D01*
X118840191Y-96483654D01*
X118835993Y-96479245D01*
X118811262Y-96451958D01*
X118807288Y-96447351D01*
X118776199Y-96409469D01*
X118772455Y-96404671D01*
X118750522Y-96375098D01*
X118747017Y-96370122D01*
X118632184Y-96198263D01*
X118628926Y-96193118D01*
X118609991Y-96161525D01*
X118608006Y-96158020D01*
X118591743Y-96158020D01*
X118575591Y-96177699D01*
X118571617Y-96182306D01*
X118546901Y-96209574D01*
X118542707Y-96213978D01*
X118320546Y-96436138D01*
X116721589Y-96436138D01*
X116816602Y-96406531D01*
X116954388Y-96323236D01*
X117004666Y-96272956D01*
X117044896Y-96246076D01*
X117074969Y-96233620D01*
X117185606Y-96159695D01*
X117819695Y-95525606D01*
X117831315Y-95508215D01*
X117893620Y-95414969D01*
X117944540Y-95292036D01*
X117960140Y-95213611D01*
X117970500Y-95161533D01*
X117970500Y-94004890D01*
X117990185Y-93937851D01*
X118042989Y-93892096D01*
X118070300Y-93883275D01*
X118163497Y-93864737D01*
X118309179Y-93804394D01*
X118317928Y-93798547D01*
X118328628Y-93791399D01*
X118395305Y-93770520D01*
X118397520Y-93770500D01*
X120550902Y-93770500D01*
X120617941Y-93790185D01*
X120663696Y-93842989D01*
X120673640Y-93912147D01*
X120644615Y-93975703D01*
X120638583Y-93982181D01*
X120170339Y-94450425D01*
X120109016Y-94483910D01*
X120106850Y-94484361D01*
X119951508Y-94515261D01*
X119951498Y-94515264D01*
X119805827Y-94575602D01*
X119805814Y-94575609D01*
X119674711Y-94663210D01*
X119674707Y-94663213D01*
X119563213Y-94774707D01*
X119563210Y-94774711D01*
X119475609Y-94905814D01*
X119475602Y-94905827D01*
X119415264Y-95051498D01*
X119415261Y-95051510D01*
X119384500Y-95206153D01*
X119384500Y-95363846D01*
X119415261Y-95518489D01*
X119415264Y-95518501D01*
X119475602Y-95664172D01*
X119475609Y-95664185D01*
X119563210Y-95795288D01*
X119563213Y-95795292D01*
X119674707Y-95906786D01*
X119674711Y-95906789D01*
X119805814Y-95994390D01*
X119805827Y-95994397D01*
X119914531Y-96039423D01*
X119951503Y-96054737D01*
X120106153Y-96085499D01*
X120106156Y-96085500D01*
X120106158Y-96085500D01*
X120263844Y-96085500D01*
X120263845Y-96085499D01*
X120418497Y-96054737D01*
X120545954Y-96001942D01*
X120615423Y-95994474D01*
X120677902Y-96025749D01*
X120681087Y-96028823D01*
X121778681Y-97126417D01*
X121812166Y-97187740D01*
X121815000Y-97214098D01*
X121815000Y-97896000D01*
X121795315Y-97963039D01*
X121742511Y-98008794D01*
X121691000Y-98020000D01*
X121565000Y-98020000D01*
X121555819Y-98029181D01*
X121494496Y-98062666D01*
X121468138Y-98065500D01*
X120445423Y-98065500D01*
X120292694Y-98106423D01*
X120269492Y-98119819D01*
X120246290Y-98133215D01*
X120155767Y-98185477D01*
X120155762Y-98185481D01*
X119798481Y-98542762D01*
X119798479Y-98542765D01*
X119762839Y-98604497D01*
X119762838Y-98604499D01*
X119719423Y-98679694D01*
X119719423Y-98679695D01*
X119678499Y-98832423D01*
X119678499Y-98832425D01*
X119678499Y-99000526D01*
X119678500Y-99000539D01*
X119678500Y-99581850D01*
X119678499Y-99581868D01*
X119678499Y-99747574D01*
X119678498Y-99747574D01*
X119682624Y-99762973D01*
X119719423Y-99900305D01*
X119719424Y-99900307D01*
X119719423Y-99900307D01*
X119731262Y-99920811D01*
X119731263Y-99920813D01*
X119798475Y-100037229D01*
X119798481Y-100037237D01*
X119917349Y-100156105D01*
X119917355Y-100156110D01*
X120043181Y-100281936D01*
X120076666Y-100343259D01*
X120079500Y-100369617D01*
X120079500Y-100818888D01*
X120094279Y-100931151D01*
X120094282Y-100931162D01*
X120152143Y-101070853D01*
X120189482Y-101119514D01*
X120214676Y-101184684D01*
X120200637Y-101253128D01*
X120189482Y-101270486D01*
X120152143Y-101319146D01*
X120094282Y-101458837D01*
X120094281Y-101458841D01*
X120079500Y-101571105D01*
X120079500Y-102088888D01*
X120094279Y-102201151D01*
X120094282Y-102201162D01*
X120152142Y-102340850D01*
X120152143Y-102340852D01*
X120152144Y-102340853D01*
X120244190Y-102460810D01*
X120334116Y-102529812D01*
X120375317Y-102586239D01*
X120379472Y-102655985D01*
X120345260Y-102716906D01*
X120316842Y-102736554D01*
X120317025Y-102736851D01*
X120311354Y-102740348D01*
X120311043Y-102740564D01*
X120310888Y-102740636D01*
X120161654Y-102832684D01*
X120037684Y-102956654D01*
X119945643Y-103105875D01*
X119945641Y-103105880D01*
X119890494Y-103272302D01*
X119890493Y-103272309D01*
X119880000Y-103375013D01*
X119880000Y-103625000D01*
X120768500Y-103625000D01*
X120835539Y-103644685D01*
X120881294Y-103697489D01*
X120892500Y-103749000D01*
X120892500Y-103875000D01*
X121018500Y-103875000D01*
X121085539Y-103894685D01*
X121131294Y-103947489D01*
X121142500Y-103999000D01*
X121142500Y-105077342D01*
X121173166Y-105133503D01*
X121176000Y-105159861D01*
X121176000Y-105188490D01*
X121175999Y-105188508D01*
X121175999Y-105354214D01*
X121175998Y-105354214D01*
X121216924Y-105506949D01*
X121216925Y-105506950D01*
X121235265Y-105538715D01*
X121235266Y-105538716D01*
X121295977Y-105643872D01*
X121295979Y-105643875D01*
X121295980Y-105643876D01*
X121407784Y-105755680D01*
X121407785Y-105755681D01*
X121762624Y-106110520D01*
X121864741Y-106169477D01*
X121899558Y-106189578D01*
X121901524Y-106190393D01*
X121916073Y-106197567D01*
X121921562Y-106200735D01*
X121928215Y-106204577D01*
X122080942Y-106245500D01*
X122080943Y-106245500D01*
X122136234Y-106245500D01*
X122203273Y-106265185D01*
X122205125Y-106266398D01*
X122336814Y-106354390D01*
X122336827Y-106354397D01*
X122478894Y-106413242D01*
X122482503Y-106414737D01*
X122539722Y-106426118D01*
X122624622Y-106443007D01*
X122686533Y-106475392D01*
X122721107Y-106536108D01*
X122717368Y-106605877D01*
X122676501Y-106662549D01*
X122673317Y-106664942D01*
X122625209Y-106699894D01*
X122474890Y-106850213D01*
X122349949Y-107022182D01*
X122345484Y-107030946D01*
X122297509Y-107081742D01*
X122229688Y-107098536D01*
X122163553Y-107075998D01*
X122124516Y-107030946D01*
X122120050Y-107022182D01*
X121995109Y-106850213D01*
X121844786Y-106699890D01*
X121672820Y-106574951D01*
X121483414Y-106478444D01*
X121483413Y-106478443D01*
X121483412Y-106478443D01*
X121281243Y-106412754D01*
X121281241Y-106412753D01*
X121281240Y-106412753D01*
X121119957Y-106387208D01*
X121071287Y-106379500D01*
X120858713Y-106379500D01*
X120810042Y-106387208D01*
X120648760Y-106412753D01*
X120446585Y-106478444D01*
X120257179Y-106574951D01*
X120085213Y-106699890D01*
X119934890Y-106850213D01*
X119809949Y-107022182D01*
X119805484Y-107030946D01*
X119757509Y-107081742D01*
X119689688Y-107098536D01*
X119623553Y-107075998D01*
X119584516Y-107030946D01*
X119580050Y-107022182D01*
X119455109Y-106850213D01*
X119304786Y-106699890D01*
X119132820Y-106574951D01*
X118943414Y-106478444D01*
X118943413Y-106478443D01*
X118943412Y-106478443D01*
X118741243Y-106412754D01*
X118741241Y-106412753D01*
X118741240Y-106412753D01*
X118579957Y-106387208D01*
X118531287Y-106379500D01*
X118318713Y-106379500D01*
X118270042Y-106387208D01*
X118108760Y-106412753D01*
X117906585Y-106478444D01*
X117717179Y-106574951D01*
X117545215Y-106699889D01*
X117431673Y-106813431D01*
X117370350Y-106846915D01*
X117300658Y-106841931D01*
X117244725Y-106800059D01*
X117227810Y-106769082D01*
X117178797Y-106637671D01*
X117178793Y-106637664D01*
X117092547Y-106522455D01*
X117092544Y-106522452D01*
X116977335Y-106436206D01*
X116977328Y-106436202D01*
X116842482Y-106385908D01*
X116842483Y-106385908D01*
X116782883Y-106379501D01*
X116782881Y-106379500D01*
X116782873Y-106379500D01*
X116782864Y-106379500D01*
X114987129Y-106379500D01*
X114987123Y-106379501D01*
X114927516Y-106385908D01*
X114792671Y-106436202D01*
X114792664Y-106436206D01*
X114677455Y-106522452D01*
X114677452Y-106522455D01*
X114591206Y-106637664D01*
X114591202Y-106637671D01*
X114540908Y-106772517D01*
X114536510Y-106813431D01*
X114534501Y-106832123D01*
X114534500Y-106832135D01*
X114534500Y-108627870D01*
X114534501Y-108627876D01*
X114540908Y-108687483D01*
X114591202Y-108822328D01*
X114591206Y-108822335D01*
X114677452Y-108937544D01*
X114677455Y-108937547D01*
X114792664Y-109023793D01*
X114792671Y-109023797D01*
X114927517Y-109074091D01*
X114927516Y-109074091D01*
X114934444Y-109074835D01*
X114987127Y-109080500D01*
X116782872Y-109080499D01*
X116842483Y-109074091D01*
X116977331Y-109023796D01*
X117092546Y-108937546D01*
X117178796Y-108822331D01*
X117227810Y-108690916D01*
X117269681Y-108634984D01*
X117335145Y-108610566D01*
X117403418Y-108625417D01*
X117431673Y-108646569D01*
X117545213Y-108760109D01*
X117717179Y-108885048D01*
X117717181Y-108885049D01*
X117717184Y-108885051D01*
X117906588Y-108981557D01*
X118108757Y-109047246D01*
X118318713Y-109080500D01*
X118318714Y-109080500D01*
X118531286Y-109080500D01*
X118531287Y-109080500D01*
X118741243Y-109047246D01*
X118943412Y-108981557D01*
X119132816Y-108885051D01*
X119154789Y-108869086D01*
X119304786Y-108760109D01*
X119304788Y-108760106D01*
X119304792Y-108760104D01*
X119455104Y-108609792D01*
X119455106Y-108609788D01*
X119455109Y-108609786D01*
X119580048Y-108437820D01*
X119580047Y-108437820D01*
X119580051Y-108437816D01*
X119584514Y-108429054D01*
X119632488Y-108378259D01*
X119700308Y-108361463D01*
X119766444Y-108383999D01*
X119805486Y-108429056D01*
X119809951Y-108437820D01*
X119934890Y-108609786D01*
X120085213Y-108760109D01*
X120257179Y-108885048D01*
X120257181Y-108885049D01*
X120257184Y-108885051D01*
X120446588Y-108981557D01*
X120648757Y-109047246D01*
X120858713Y-109080500D01*
X120858714Y-109080500D01*
X121071286Y-109080500D01*
X121071287Y-109080500D01*
X121281243Y-109047246D01*
X121483412Y-108981557D01*
X121672816Y-108885051D01*
X121694789Y-108869086D01*
X121844786Y-108760109D01*
X121844788Y-108760106D01*
X121844792Y-108760104D01*
X121995104Y-108609792D01*
X121995106Y-108609788D01*
X121995109Y-108609786D01*
X122120048Y-108437820D01*
X122120047Y-108437820D01*
X122120051Y-108437816D01*
X122124514Y-108429054D01*
X122172488Y-108378259D01*
X122240308Y-108361463D01*
X122306444Y-108383999D01*
X122345486Y-108429056D01*
X122349951Y-108437820D01*
X122474890Y-108609786D01*
X122625213Y-108760109D01*
X122797179Y-108885048D01*
X122797181Y-108885049D01*
X122797184Y-108885051D01*
X122986588Y-108981557D01*
X123188757Y-109047246D01*
X123398713Y-109080500D01*
X123398714Y-109080500D01*
X123611286Y-109080500D01*
X123611287Y-109080500D01*
X123821243Y-109047246D01*
X124023412Y-108981557D01*
X124212816Y-108885051D01*
X124234789Y-108869086D01*
X124384786Y-108760109D01*
X124384788Y-108760106D01*
X124384792Y-108760104D01*
X124535104Y-108609792D01*
X124535106Y-108609788D01*
X124535109Y-108609786D01*
X124660048Y-108437820D01*
X124660047Y-108437820D01*
X124660051Y-108437816D01*
X124664514Y-108429054D01*
X124712488Y-108378259D01*
X124780308Y-108361463D01*
X124846444Y-108383999D01*
X124885486Y-108429056D01*
X124889951Y-108437820D01*
X125014890Y-108609786D01*
X125165213Y-108760109D01*
X125337179Y-108885048D01*
X125337181Y-108885049D01*
X125337184Y-108885051D01*
X125526588Y-108981557D01*
X125728757Y-109047246D01*
X125938713Y-109080500D01*
X125938714Y-109080500D01*
X126151286Y-109080500D01*
X126151287Y-109080500D01*
X126361243Y-109047246D01*
X126563412Y-108981557D01*
X126752816Y-108885051D01*
X126774789Y-108869086D01*
X126924786Y-108760109D01*
X126924788Y-108760106D01*
X126924792Y-108760104D01*
X127075104Y-108609792D01*
X127075106Y-108609788D01*
X127075109Y-108609786D01*
X127200048Y-108437820D01*
X127200047Y-108437820D01*
X127200051Y-108437816D01*
X127204514Y-108429054D01*
X127252488Y-108378259D01*
X127320308Y-108361463D01*
X127386444Y-108383999D01*
X127425486Y-108429056D01*
X127429951Y-108437820D01*
X127554890Y-108609786D01*
X127705213Y-108760109D01*
X127877179Y-108885048D01*
X127877181Y-108885049D01*
X127877184Y-108885051D01*
X128066588Y-108981557D01*
X128268757Y-109047246D01*
X128478713Y-109080500D01*
X128478714Y-109080500D01*
X128691286Y-109080500D01*
X128691287Y-109080500D01*
X128901243Y-109047246D01*
X129103412Y-108981557D01*
X129292816Y-108885051D01*
X129314789Y-108869086D01*
X129464786Y-108760109D01*
X129464788Y-108760106D01*
X129464792Y-108760104D01*
X129615104Y-108609792D01*
X129615106Y-108609788D01*
X129615109Y-108609786D01*
X129740048Y-108437820D01*
X129740047Y-108437820D01*
X129740051Y-108437816D01*
X129744514Y-108429054D01*
X129792488Y-108378259D01*
X129860308Y-108361463D01*
X129926444Y-108383999D01*
X129965486Y-108429056D01*
X129969951Y-108437820D01*
X130094890Y-108609786D01*
X130245213Y-108760109D01*
X130417179Y-108885048D01*
X130417181Y-108885049D01*
X130417184Y-108885051D01*
X130606588Y-108981557D01*
X130808757Y-109047246D01*
X131018713Y-109080500D01*
X131018714Y-109080500D01*
X131231286Y-109080500D01*
X131231287Y-109080500D01*
X131441243Y-109047246D01*
X131643412Y-108981557D01*
X131832816Y-108885051D01*
X131854789Y-108869086D01*
X132004786Y-108760109D01*
X132004788Y-108760106D01*
X132004792Y-108760104D01*
X132155104Y-108609792D01*
X132155106Y-108609788D01*
X132155109Y-108609786D01*
X132280048Y-108437820D01*
X132280047Y-108437820D01*
X132280051Y-108437816D01*
X132284514Y-108429054D01*
X132332488Y-108378259D01*
X132400308Y-108361463D01*
X132466444Y-108383999D01*
X132505486Y-108429056D01*
X132509951Y-108437820D01*
X132634890Y-108609786D01*
X132785213Y-108760109D01*
X132957179Y-108885048D01*
X132957181Y-108885049D01*
X132957184Y-108885051D01*
X133146588Y-108981557D01*
X133348757Y-109047246D01*
X133558713Y-109080500D01*
X133558714Y-109080500D01*
X133771286Y-109080500D01*
X133771287Y-109080500D01*
X133981243Y-109047246D01*
X134183412Y-108981557D01*
X134372816Y-108885051D01*
X134394789Y-108869086D01*
X134544786Y-108760109D01*
X134544788Y-108760106D01*
X134544792Y-108760104D01*
X134695104Y-108609792D01*
X134695106Y-108609788D01*
X134695109Y-108609786D01*
X134762515Y-108517007D01*
X134820051Y-108437816D01*
X134824793Y-108428508D01*
X134872763Y-108377711D01*
X134940583Y-108360911D01*
X135006719Y-108383445D01*
X135045763Y-108428500D01*
X135050373Y-108437547D01*
X135089728Y-108491716D01*
X135722037Y-107859408D01*
X135739075Y-107922993D01*
X135804901Y-108037007D01*
X135897993Y-108130099D01*
X136012007Y-108195925D01*
X136075590Y-108212962D01*
X135443282Y-108845269D01*
X135443282Y-108845270D01*
X135497449Y-108884624D01*
X135686782Y-108981095D01*
X135888870Y-109046757D01*
X136098754Y-109080000D01*
X136311246Y-109080000D01*
X136521127Y-109046757D01*
X136521130Y-109046757D01*
X136723217Y-108981095D01*
X136912554Y-108884622D01*
X136966716Y-108845270D01*
X136966717Y-108845270D01*
X136334408Y-108212962D01*
X136397993Y-108195925D01*
X136512007Y-108130099D01*
X136605099Y-108037007D01*
X136670925Y-107922993D01*
X136687962Y-107859408D01*
X137320270Y-108491717D01*
X137320270Y-108491716D01*
X137359622Y-108437554D01*
X137456095Y-108248217D01*
X137521757Y-108046130D01*
X137521757Y-108046127D01*
X137555000Y-107836246D01*
X137555000Y-107623753D01*
X137521757Y-107413872D01*
X137521757Y-107413869D01*
X137456095Y-107211782D01*
X137359624Y-107022449D01*
X137320270Y-106968282D01*
X137320269Y-106968282D01*
X136687962Y-107600590D01*
X136670925Y-107537007D01*
X136605099Y-107422993D01*
X136512007Y-107329901D01*
X136397993Y-107264075D01*
X136334409Y-107247037D01*
X136749310Y-106832135D01*
X138759500Y-106832135D01*
X138759500Y-108627870D01*
X138759501Y-108627876D01*
X138765908Y-108687483D01*
X138816202Y-108822328D01*
X138816206Y-108822335D01*
X138902452Y-108937544D01*
X138902455Y-108937547D01*
X139017664Y-109023793D01*
X139017671Y-109023797D01*
X139152517Y-109074091D01*
X139152516Y-109074091D01*
X139159444Y-109074835D01*
X139212127Y-109080500D01*
X141007872Y-109080499D01*
X141067483Y-109074091D01*
X141202331Y-109023796D01*
X141317546Y-108937546D01*
X141403796Y-108822331D01*
X141454091Y-108687483D01*
X141460500Y-108627873D01*
X141460499Y-108617312D01*
X141480179Y-108550275D01*
X141496818Y-108529626D01*
X142167037Y-107859408D01*
X142184075Y-107922993D01*
X142249901Y-108037007D01*
X142342993Y-108130099D01*
X142457007Y-108195925D01*
X142520590Y-108212962D01*
X141888282Y-108845269D01*
X141888282Y-108845270D01*
X141942449Y-108884624D01*
X142131782Y-108981095D01*
X142333870Y-109046757D01*
X142543754Y-109080000D01*
X142756246Y-109080000D01*
X142966127Y-109046757D01*
X142966130Y-109046757D01*
X143168217Y-108981095D01*
X143357554Y-108884622D01*
X143411716Y-108845270D01*
X143411717Y-108845270D01*
X142779408Y-108212962D01*
X142842993Y-108195925D01*
X142957007Y-108130099D01*
X143050099Y-108037007D01*
X143115925Y-107922993D01*
X143132962Y-107859409D01*
X143765270Y-108491717D01*
X143765270Y-108491716D01*
X143804622Y-108437555D01*
X143809232Y-108428507D01*
X143857205Y-108377709D01*
X143925025Y-108360912D01*
X143991161Y-108383447D01*
X144030204Y-108428504D01*
X144034949Y-108437817D01*
X144159890Y-108609786D01*
X144310213Y-108760109D01*
X144482179Y-108885048D01*
X144482181Y-108885049D01*
X144482184Y-108885051D01*
X144671588Y-108981557D01*
X144873757Y-109047246D01*
X145083713Y-109080500D01*
X145083714Y-109080500D01*
X145296286Y-109080500D01*
X145296287Y-109080500D01*
X145506243Y-109047246D01*
X145708412Y-108981557D01*
X145897816Y-108885051D01*
X145919789Y-108869086D01*
X146069786Y-108760109D01*
X146069788Y-108760106D01*
X146069792Y-108760104D01*
X146220104Y-108609792D01*
X146220106Y-108609788D01*
X146220109Y-108609786D01*
X146345048Y-108437820D01*
X146345047Y-108437820D01*
X146345051Y-108437816D01*
X146349514Y-108429054D01*
X146397488Y-108378259D01*
X146465308Y-108361463D01*
X146531444Y-108383999D01*
X146570486Y-108429056D01*
X146574951Y-108437820D01*
X146699890Y-108609786D01*
X146850213Y-108760109D01*
X147022179Y-108885048D01*
X147022181Y-108885049D01*
X147022184Y-108885051D01*
X147211588Y-108981557D01*
X147413757Y-109047246D01*
X147623713Y-109080500D01*
X147623714Y-109080500D01*
X147836286Y-109080500D01*
X147836287Y-109080500D01*
X148046243Y-109047246D01*
X148248412Y-108981557D01*
X148437816Y-108885051D01*
X148459789Y-108869086D01*
X148609786Y-108760109D01*
X148609788Y-108760106D01*
X148609792Y-108760104D01*
X148760104Y-108609792D01*
X148760106Y-108609788D01*
X148760109Y-108609786D01*
X148885048Y-108437820D01*
X148885047Y-108437820D01*
X148885051Y-108437816D01*
X148981557Y-108248412D01*
X149047246Y-108046243D01*
X149080500Y-107836287D01*
X149080500Y-107623713D01*
X149047246Y-107413757D01*
X148981557Y-107211588D01*
X148885051Y-107022184D01*
X148885049Y-107022181D01*
X148885048Y-107022179D01*
X148760109Y-106850213D01*
X148609786Y-106699890D01*
X148437820Y-106574951D01*
X148248414Y-106478444D01*
X148248413Y-106478443D01*
X148248412Y-106478443D01*
X148233199Y-106473500D01*
X150603039Y-106473500D01*
X150603039Y-107361603D01*
X151779073Y-106158020D01*
X151747766Y-106158020D01*
X151747654Y-106158083D01*
X151743361Y-106160378D01*
X151519019Y-106274686D01*
X151514636Y-106276811D01*
X151487861Y-106289154D01*
X151483392Y-106291109D01*
X151447175Y-106306107D01*
X151442647Y-106307879D01*
X151415037Y-106318064D01*
X151410440Y-106319658D01*
X151171007Y-106397455D01*
X151166347Y-106398869D01*
X151138005Y-106406862D01*
X151133300Y-106408089D01*
X151095183Y-106417242D01*
X151090423Y-106418287D01*
X151061523Y-106424036D01*
X151056728Y-106424892D01*
X150808059Y-106464277D01*
X150803236Y-106464944D01*
X150774003Y-106468404D01*
X150769165Y-106468881D01*
X150730086Y-106471959D01*
X150725221Y-106472246D01*
X150695769Y-106473404D01*
X150690897Y-106473500D01*
X150603039Y-106473500D01*
X148233199Y-106473500D01*
X148046243Y-106412754D01*
X148046241Y-106412753D01*
X148046240Y-106412753D01*
X147884957Y-106387208D01*
X147836287Y-106379500D01*
X147623713Y-106379500D01*
X147575042Y-106387208D01*
X147413760Y-106412753D01*
X147211585Y-106478444D01*
X147022179Y-106574951D01*
X146850213Y-106699890D01*
X146699890Y-106850213D01*
X146574949Y-107022182D01*
X146570484Y-107030946D01*
X146522509Y-107081742D01*
X146454688Y-107098536D01*
X146388553Y-107075998D01*
X146349516Y-107030946D01*
X146345050Y-107022182D01*
X146220109Y-106850213D01*
X146069786Y-106699890D01*
X145897820Y-106574951D01*
X145708414Y-106478444D01*
X145708413Y-106478443D01*
X145708412Y-106478443D01*
X145506243Y-106412754D01*
X145506241Y-106412753D01*
X145506240Y-106412753D01*
X145344957Y-106387208D01*
X145296287Y-106379500D01*
X145083713Y-106379500D01*
X145035042Y-106387208D01*
X144873760Y-106412753D01*
X144671585Y-106478444D01*
X144482179Y-106574951D01*
X144310213Y-106699890D01*
X144159890Y-106850213D01*
X144034949Y-107022182D01*
X144030202Y-107031499D01*
X143982227Y-107082293D01*
X143914405Y-107099087D01*
X143848271Y-107076548D01*
X143809234Y-107031495D01*
X143804626Y-107022452D01*
X143765270Y-106968282D01*
X143765269Y-106968282D01*
X143132962Y-107600590D01*
X143115925Y-107537007D01*
X143050099Y-107422993D01*
X142957007Y-107329901D01*
X142842993Y-107264075D01*
X142779409Y-107247037D01*
X143411716Y-106614728D01*
X143357550Y-106575375D01*
X143168217Y-106478904D01*
X142966129Y-106413242D01*
X142756246Y-106380000D01*
X142543754Y-106380000D01*
X142333872Y-106413242D01*
X142333869Y-106413242D01*
X142131782Y-106478904D01*
X141942439Y-106575380D01*
X141888282Y-106614727D01*
X141888282Y-106614728D01*
X142520591Y-107247037D01*
X142457007Y-107264075D01*
X142342993Y-107329901D01*
X142249901Y-107422993D01*
X142184075Y-107537007D01*
X142167037Y-107600591D01*
X141496818Y-106930372D01*
X141463333Y-106869049D01*
X141460499Y-106842691D01*
X141460499Y-106832129D01*
X141460498Y-106832123D01*
X141460497Y-106832116D01*
X141454091Y-106772517D01*
X141432471Y-106714552D01*
X141403797Y-106637671D01*
X141403793Y-106637664D01*
X141317547Y-106522455D01*
X141317544Y-106522452D01*
X141202335Y-106436206D01*
X141202328Y-106436202D01*
X141067482Y-106385908D01*
X141067483Y-106385908D01*
X141007883Y-106379501D01*
X141007881Y-106379500D01*
X141007873Y-106379500D01*
X141007864Y-106379500D01*
X139212129Y-106379500D01*
X139212123Y-106379501D01*
X139152516Y-106385908D01*
X139017671Y-106436202D01*
X139017664Y-106436206D01*
X138902455Y-106522452D01*
X138902452Y-106522455D01*
X138816206Y-106637664D01*
X138816202Y-106637671D01*
X138765908Y-106772517D01*
X138761510Y-106813431D01*
X138759501Y-106832123D01*
X138759500Y-106832135D01*
X136749310Y-106832135D01*
X136966716Y-106614728D01*
X136912550Y-106575375D01*
X136723217Y-106478904D01*
X136521129Y-106413242D01*
X136311246Y-106380000D01*
X136098754Y-106380000D01*
X135888872Y-106413242D01*
X135888869Y-106413242D01*
X135686782Y-106478904D01*
X135497439Y-106575380D01*
X135443282Y-106614727D01*
X135443282Y-106614728D01*
X136075591Y-107247037D01*
X136012007Y-107264075D01*
X135897993Y-107329901D01*
X135804901Y-107422993D01*
X135739075Y-107537007D01*
X135722037Y-107600591D01*
X135089728Y-106968282D01*
X135089727Y-106968282D01*
X135050380Y-107022440D01*
X135050376Y-107022446D01*
X135045760Y-107031505D01*
X134997781Y-107082297D01*
X134929959Y-107099087D01*
X134863826Y-107076543D01*
X134824794Y-107031493D01*
X134820051Y-107022184D01*
X134820049Y-107022181D01*
X134820048Y-107022179D01*
X134695109Y-106850213D01*
X134544790Y-106699894D01*
X134544785Y-106699890D01*
X134391615Y-106588606D01*
X134348949Y-106533276D01*
X134340500Y-106488288D01*
X134340500Y-104541153D01*
X135149500Y-104541153D01*
X135149500Y-104698846D01*
X135180261Y-104853489D01*
X135180264Y-104853501D01*
X135240602Y-104999172D01*
X135240609Y-104999185D01*
X135328210Y-105130288D01*
X135328213Y-105130292D01*
X135439707Y-105241786D01*
X135439711Y-105241789D01*
X135570814Y-105329390D01*
X135570827Y-105329397D01*
X135716498Y-105389735D01*
X135716503Y-105389737D01*
X135871153Y-105420499D01*
X135871156Y-105420500D01*
X135871158Y-105420500D01*
X136028844Y-105420500D01*
X136028845Y-105420499D01*
X136183497Y-105389737D01*
X136329179Y-105329394D01*
X136403026Y-105280051D01*
X136460875Y-105241398D01*
X136527553Y-105220520D01*
X136529766Y-105220500D01*
X147443331Y-105220500D01*
X147443347Y-105220501D01*
X147450943Y-105220501D01*
X147609054Y-105220501D01*
X147609057Y-105220501D01*
X147761785Y-105179577D01*
X147830812Y-105139724D01*
X147898716Y-105100520D01*
X148010520Y-104988716D01*
X148010520Y-104988714D01*
X148020724Y-104978511D01*
X148020728Y-104978506D01*
X149002819Y-103996415D01*
X149064142Y-103962930D01*
X149133834Y-103967914D01*
X149189767Y-104009786D01*
X149214184Y-104075250D01*
X149214500Y-104084096D01*
X149214500Y-104231286D01*
X149245139Y-104424737D01*
X149247754Y-104441243D01*
X149294788Y-104585999D01*
X149313444Y-104643414D01*
X149409951Y-104832820D01*
X149534890Y-105004786D01*
X149685213Y-105155109D01*
X149857179Y-105280048D01*
X149857181Y-105280049D01*
X149857184Y-105280051D01*
X150046588Y-105376557D01*
X150248757Y-105442246D01*
X150458713Y-105475500D01*
X150458714Y-105475500D01*
X150671286Y-105475500D01*
X150671287Y-105475500D01*
X150881243Y-105442246D01*
X151083412Y-105376557D01*
X151272816Y-105280051D01*
X151294789Y-105264086D01*
X151444786Y-105155109D01*
X151444788Y-105155106D01*
X151444792Y-105155104D01*
X151595104Y-105004792D01*
X151595106Y-105004788D01*
X151595109Y-105004786D01*
X151720048Y-104832820D01*
X151720047Y-104832820D01*
X151720051Y-104832816D01*
X151816557Y-104643412D01*
X151882246Y-104441243D01*
X151915500Y-104231287D01*
X151915500Y-104018713D01*
X151882246Y-103808757D01*
X151816557Y-103606588D01*
X151720051Y-103417184D01*
X151720049Y-103417181D01*
X151720048Y-103417179D01*
X151595109Y-103245213D01*
X151444786Y-103094890D01*
X151272820Y-102969951D01*
X151272115Y-102969591D01*
X151264054Y-102965485D01*
X151213259Y-102917512D01*
X151196463Y-102849692D01*
X151218999Y-102783556D01*
X151264054Y-102744515D01*
X151272816Y-102740051D01*
X151351517Y-102682872D01*
X151444786Y-102615109D01*
X151444788Y-102615106D01*
X151444792Y-102615104D01*
X151595104Y-102464792D01*
X151595106Y-102464788D01*
X151595109Y-102464786D01*
X151720048Y-102292820D01*
X151720047Y-102292820D01*
X151720051Y-102292816D01*
X151816557Y-102103412D01*
X151882246Y-101901243D01*
X151915500Y-101691287D01*
X151915500Y-101478713D01*
X151882246Y-101268757D01*
X151816557Y-101066588D01*
X151720051Y-100877184D01*
X151720049Y-100877181D01*
X151720048Y-100877179D01*
X151595109Y-100705213D01*
X151444786Y-100554890D01*
X151272817Y-100429949D01*
X151263504Y-100425204D01*
X151212707Y-100377230D01*
X151195912Y-100309409D01*
X151218449Y-100243274D01*
X151263507Y-100204232D01*
X151272555Y-100199622D01*
X151326716Y-100160270D01*
X151326717Y-100160270D01*
X150694408Y-99527962D01*
X150757993Y-99510925D01*
X150872007Y-99445099D01*
X150965099Y-99352007D01*
X151030925Y-99237993D01*
X151047962Y-99174408D01*
X151680270Y-99806717D01*
X151680270Y-99806716D01*
X151719622Y-99752554D01*
X151816095Y-99563217D01*
X151881757Y-99361130D01*
X151881757Y-99361127D01*
X151915000Y-99151246D01*
X151915000Y-98938753D01*
X151881757Y-98728872D01*
X151881757Y-98728869D01*
X151816095Y-98526782D01*
X151719624Y-98337449D01*
X151680270Y-98283282D01*
X151680269Y-98283282D01*
X151047962Y-98915590D01*
X151030925Y-98852007D01*
X150965099Y-98737993D01*
X150872007Y-98644901D01*
X150757993Y-98579075D01*
X150694409Y-98562037D01*
X151364627Y-97891818D01*
X151425950Y-97858333D01*
X151452307Y-97855499D01*
X151462872Y-97855499D01*
X151522483Y-97849091D01*
X151657331Y-97798796D01*
X151772546Y-97712546D01*
X151858796Y-97597331D01*
X151909091Y-97462483D01*
X151915500Y-97402873D01*
X151915499Y-95607128D01*
X151909880Y-95554858D01*
X151909091Y-95547516D01*
X151858797Y-95412671D01*
X151858793Y-95412664D01*
X151772547Y-95297455D01*
X151772544Y-95297452D01*
X151657335Y-95211206D01*
X151657328Y-95211202D01*
X151522482Y-95160908D01*
X151522483Y-95160908D01*
X151462883Y-95154501D01*
X151462881Y-95154500D01*
X151462873Y-95154500D01*
X151462864Y-95154500D01*
X149667129Y-95154500D01*
X149667123Y-95154501D01*
X149607516Y-95160908D01*
X149472671Y-95211202D01*
X149472664Y-95211206D01*
X149357455Y-95297452D01*
X149357452Y-95297455D01*
X149271206Y-95412664D01*
X149271202Y-95412671D01*
X149220908Y-95547517D01*
X149214501Y-95607116D01*
X149214501Y-95607123D01*
X149214500Y-95607135D01*
X149214500Y-95705500D01*
X149194815Y-95772539D01*
X149142011Y-95818294D01*
X149090500Y-95829500D01*
X148656163Y-95829500D01*
X148589124Y-95809815D01*
X148568482Y-95793181D01*
X148562267Y-95786966D01*
X148528782Y-95725643D01*
X148528345Y-95723545D01*
X148523768Y-95700534D01*
X148508712Y-95664185D01*
X148463428Y-95554858D01*
X148463421Y-95554845D01*
X148375820Y-95423742D01*
X148375817Y-95423738D01*
X148264323Y-95312244D01*
X148264319Y-95312241D01*
X148133216Y-95224640D01*
X148133203Y-95224633D01*
X147987532Y-95164295D01*
X147987520Y-95164292D01*
X147832876Y-95133531D01*
X147832873Y-95133531D01*
X147675189Y-95133531D01*
X147675186Y-95133531D01*
X147520541Y-95164292D01*
X147520529Y-95164295D01*
X147374858Y-95224633D01*
X147374845Y-95224640D01*
X147243742Y-95312241D01*
X147243738Y-95312244D01*
X147132244Y-95423738D01*
X147132241Y-95423742D01*
X147044640Y-95554845D01*
X147044633Y-95554858D01*
X146984295Y-95700529D01*
X146984292Y-95700541D01*
X146953531Y-95855184D01*
X146953531Y-96012877D01*
X146984292Y-96167520D01*
X146984295Y-96167532D01*
X147044633Y-96313203D01*
X147044640Y-96313216D01*
X147132241Y-96444319D01*
X147132244Y-96444323D01*
X147243738Y-96555817D01*
X147243742Y-96555820D01*
X147374845Y-96643421D01*
X147374858Y-96643428D01*
X147450649Y-96674821D01*
X147520534Y-96703768D01*
X147543474Y-96708331D01*
X147605384Y-96740713D01*
X147606966Y-96742267D01*
X147800305Y-96935606D01*
X147894394Y-97029695D01*
X147894397Y-97029697D01*
X147894398Y-97029698D01*
X148005020Y-97103613D01*
X148005023Y-97103614D01*
X148005031Y-97103620D01*
X148005037Y-97103622D01*
X148005038Y-97103623D01*
X148127959Y-97154538D01*
X148127964Y-97154540D01*
X148127968Y-97154540D01*
X148127969Y-97154541D01*
X148258466Y-97180500D01*
X148258469Y-97180500D01*
X149090501Y-97180500D01*
X149157540Y-97200185D01*
X149203295Y-97252989D01*
X149214501Y-97304500D01*
X149214501Y-97402876D01*
X149220908Y-97462483D01*
X149271202Y-97597328D01*
X149271206Y-97597335D01*
X149357452Y-97712544D01*
X149357455Y-97712547D01*
X149472664Y-97798793D01*
X149472671Y-97798797D01*
X149517618Y-97815561D01*
X149607517Y-97849091D01*
X149667127Y-97855500D01*
X149677685Y-97855499D01*
X149744723Y-97875179D01*
X149765372Y-97891818D01*
X150435591Y-98562037D01*
X150372007Y-98579075D01*
X150257993Y-98644901D01*
X150164901Y-98737993D01*
X150099075Y-98852007D01*
X150082037Y-98915591D01*
X149449728Y-98283282D01*
X149449727Y-98283282D01*
X149410380Y-98337439D01*
X149313904Y-98526782D01*
X149248242Y-98728869D01*
X149248242Y-98728872D01*
X149215000Y-98938753D01*
X149215000Y-99151246D01*
X149248242Y-99361127D01*
X149248242Y-99361130D01*
X149313904Y-99563217D01*
X149410375Y-99752550D01*
X149449728Y-99806716D01*
X150082037Y-99174408D01*
X150099075Y-99237993D01*
X150164901Y-99352007D01*
X150257993Y-99445099D01*
X150372007Y-99510925D01*
X150435590Y-99527962D01*
X149803282Y-100160269D01*
X149803282Y-100160270D01*
X149857452Y-100199626D01*
X149857451Y-100199626D01*
X149866495Y-100204234D01*
X149917292Y-100252208D01*
X149934087Y-100320029D01*
X149911550Y-100386164D01*
X149866499Y-100425202D01*
X149857182Y-100429949D01*
X149685213Y-100554890D01*
X149534890Y-100705213D01*
X149409951Y-100877179D01*
X149313444Y-101066585D01*
X149247753Y-101268760D01*
X149214500Y-101478713D01*
X149214500Y-101691286D01*
X149247754Y-101901244D01*
X149247754Y-101901247D01*
X149261491Y-101943523D01*
X149263486Y-102013364D01*
X149231241Y-102069522D01*
X147317584Y-103983181D01*
X147256261Y-104016666D01*
X147229903Y-104019500D01*
X136529766Y-104019500D01*
X136462727Y-103999815D01*
X136460875Y-103998602D01*
X136329185Y-103910609D01*
X136329172Y-103910602D01*
X136183501Y-103850264D01*
X136183489Y-103850261D01*
X136028845Y-103819500D01*
X136028842Y-103819500D01*
X135871158Y-103819500D01*
X135871155Y-103819500D01*
X135716510Y-103850261D01*
X135716498Y-103850264D01*
X135570827Y-103910602D01*
X135570814Y-103910609D01*
X135439711Y-103998210D01*
X135439707Y-103998213D01*
X135328213Y-104109707D01*
X135328210Y-104109711D01*
X135240609Y-104240814D01*
X135240602Y-104240827D01*
X135180264Y-104386498D01*
X135180261Y-104386510D01*
X135149500Y-104541153D01*
X134340500Y-104541153D01*
X134340500Y-103426162D01*
X134360185Y-103359123D01*
X134376810Y-103338490D01*
X134531433Y-103183867D01*
X134592752Y-103150385D01*
X134662443Y-103155369D01*
X134706791Y-103183870D01*
X134709860Y-103186939D01*
X134709864Y-103186942D01*
X134840967Y-103274543D01*
X134840980Y-103274550D01*
X134986651Y-103334888D01*
X134986656Y-103334890D01*
X135108483Y-103359123D01*
X135141306Y-103365652D01*
X135141309Y-103365653D01*
X135141311Y-103365653D01*
X135298997Y-103365653D01*
X135298998Y-103365652D01*
X135453650Y-103334890D01*
X135599332Y-103274547D01*
X135730442Y-103186942D01*
X135841942Y-103075442D01*
X135929547Y-102944332D01*
X135989890Y-102798650D01*
X136008518Y-102705000D01*
X136020791Y-102643304D01*
X136053176Y-102581393D01*
X136054664Y-102579876D01*
X136197724Y-102436817D01*
X136259046Y-102403334D01*
X136285404Y-102400500D01*
X138391415Y-102400500D01*
X138458454Y-102420185D01*
X138504209Y-102472989D01*
X138509118Y-102485489D01*
X138545186Y-102594334D01*
X138637288Y-102743656D01*
X138761344Y-102867712D01*
X138910666Y-102959814D01*
X139077203Y-103014999D01*
X139179991Y-103025500D01*
X139780008Y-103025499D01*
X139780016Y-103025498D01*
X139780019Y-103025498D01*
X139836302Y-103019748D01*
X139882797Y-103014999D01*
X140049334Y-102959814D01*
X140198656Y-102867712D01*
X140322712Y-102743656D01*
X140324461Y-102740819D01*
X140326169Y-102739283D01*
X140327193Y-102737989D01*
X140327414Y-102738163D01*
X140376406Y-102694096D01*
X140445368Y-102682872D01*
X140509451Y-102710713D01*
X140535537Y-102740817D01*
X140537288Y-102743656D01*
X140661344Y-102867712D01*
X140810666Y-102959814D01*
X140977203Y-103014999D01*
X141079991Y-103025500D01*
X141680008Y-103025499D01*
X141680016Y-103025498D01*
X141680019Y-103025498D01*
X141736302Y-103019748D01*
X141782797Y-103014999D01*
X141949334Y-102959814D01*
X142098656Y-102867712D01*
X142222712Y-102743656D01*
X142274299Y-102660020D01*
X143340897Y-102660020D01*
X144605039Y-102660020D01*
X145603039Y-102660020D01*
X147105039Y-102660020D01*
X147105039Y-101158020D01*
X145603039Y-101158020D01*
X145603039Y-102660020D01*
X144605039Y-102660020D01*
X144605039Y-101158020D01*
X143371744Y-101158020D01*
X143374624Y-101186210D01*
X143374905Y-101189358D01*
X143376361Y-101208400D01*
X143376561Y-101211547D01*
X143377853Y-101236915D01*
X143377974Y-101240070D01*
X143378459Y-101259143D01*
X143378499Y-101262295D01*
X143378500Y-102337704D01*
X143378460Y-102340857D01*
X143377975Y-102359927D01*
X143377855Y-102363080D01*
X143376563Y-102388451D01*
X143376362Y-102391602D01*
X143374905Y-102410651D01*
X143374624Y-102413796D01*
X143360064Y-102556319D01*
X143359193Y-102563028D01*
X143352819Y-102603457D01*
X143351584Y-102610108D01*
X143340897Y-102660020D01*
X142274299Y-102660020D01*
X142314814Y-102594334D01*
X142369999Y-102427797D01*
X142380500Y-102325009D01*
X142380499Y-101274992D01*
X142379862Y-101268760D01*
X142369999Y-101172203D01*
X142369998Y-101172200D01*
X142365299Y-101158020D01*
X142314814Y-101005666D01*
X142222712Y-100856344D01*
X142098656Y-100732288D01*
X142093549Y-100727181D01*
X142095435Y-100725294D01*
X142062212Y-100678375D01*
X142055500Y-100638132D01*
X142055500Y-100346867D01*
X142075185Y-100279828D01*
X142094386Y-100258656D01*
X142093549Y-100257819D01*
X142151746Y-100199622D01*
X142191348Y-100160020D01*
X143570300Y-100160020D01*
X144605039Y-100160020D01*
X145603039Y-100160020D01*
X147105039Y-100160020D01*
X147105039Y-98658020D01*
X145603039Y-98658020D01*
X145603039Y-100160020D01*
X144605039Y-100160020D01*
X144605039Y-98658020D01*
X144486936Y-98658020D01*
X144486545Y-98665978D01*
X144486097Y-98672049D01*
X144481294Y-98720818D01*
X144480549Y-98726861D01*
X144475145Y-98763289D01*
X144474104Y-98769284D01*
X144428015Y-99000990D01*
X144426682Y-99006927D01*
X144417733Y-99042655D01*
X144416109Y-99048525D01*
X144401882Y-99095421D01*
X144399973Y-99101200D01*
X144387570Y-99135862D01*
X144385380Y-99141538D01*
X144294979Y-99359786D01*
X144292513Y-99365349D01*
X144276773Y-99398629D01*
X144274037Y-99404064D01*
X144250936Y-99447285D01*
X144247936Y-99452581D01*
X144229001Y-99484173D01*
X144225744Y-99489317D01*
X144094496Y-99685743D01*
X144090993Y-99690717D01*
X144069060Y-99720291D01*
X144065314Y-99725091D01*
X144034225Y-99762973D01*
X144030251Y-99767580D01*
X144005520Y-99794867D01*
X144001322Y-99799276D01*
X143834273Y-99966325D01*
X143829864Y-99970523D01*
X143802577Y-99995254D01*
X143797970Y-99999228D01*
X143760088Y-100030317D01*
X143755288Y-100034063D01*
X143725714Y-100055996D01*
X143720740Y-100059499D01*
X143570300Y-100160020D01*
X142191348Y-100160020D01*
X142222712Y-100128656D01*
X142314814Y-99979334D01*
X142369999Y-99812797D01*
X142380500Y-99710009D01*
X142380500Y-99579503D01*
X142400185Y-99512464D01*
X142452989Y-99466709D01*
X142504500Y-99455503D01*
X142633617Y-99455503D01*
X142633618Y-99455502D01*
X142817251Y-99418976D01*
X142990231Y-99347325D01*
X143145908Y-99243305D01*
X143278302Y-99110911D01*
X143382322Y-98955234D01*
X143453973Y-98782254D01*
X143490500Y-98598619D01*
X143490500Y-98411387D01*
X143453973Y-98227752D01*
X143382322Y-98054772D01*
X143382321Y-98054771D01*
X143382318Y-98054765D01*
X143278302Y-97899095D01*
X143278299Y-97899091D01*
X143145911Y-97766703D01*
X143145907Y-97766700D01*
X142990237Y-97662684D01*
X142990228Y-97662679D01*
X142817251Y-97591030D01*
X142817243Y-97591028D01*
X142633620Y-97554503D01*
X142633616Y-97554503D01*
X142446384Y-97554503D01*
X142446379Y-97554503D01*
X142262756Y-97591028D01*
X142262748Y-97591030D01*
X142089771Y-97662679D01*
X142089762Y-97662684D01*
X141934095Y-97766698D01*
X141850303Y-97850488D01*
X141810078Y-97877365D01*
X141740033Y-97906380D01*
X141740023Y-97906385D01*
X141691806Y-97938603D01*
X141625128Y-97959480D01*
X141622916Y-97959500D01*
X141079998Y-97959500D01*
X141079980Y-97959501D01*
X140977203Y-97970000D01*
X140977200Y-97970001D01*
X140810668Y-98025185D01*
X140810663Y-98025187D01*
X140661342Y-98117289D01*
X140537285Y-98241346D01*
X140535537Y-98244182D01*
X140533829Y-98245717D01*
X140532807Y-98247011D01*
X140532585Y-98246836D01*
X140483589Y-98290905D01*
X140414626Y-98302126D01*
X140350544Y-98274282D01*
X140324463Y-98244182D01*
X140322714Y-98241346D01*
X140198657Y-98117289D01*
X140198656Y-98117288D01*
X140097301Y-98054772D01*
X140049336Y-98025187D01*
X140049331Y-98025185D01*
X139999866Y-98008794D01*
X139882797Y-97970001D01*
X139882795Y-97970000D01*
X139780016Y-97959500D01*
X139544458Y-97959500D01*
X139477419Y-97939815D01*
X139431664Y-97887011D01*
X139421720Y-97817853D01*
X139450745Y-97754297D01*
X139475564Y-97732400D01*
X139560289Y-97675789D01*
X139671789Y-97564289D01*
X139759394Y-97433179D01*
X139763926Y-97422239D01*
X139795266Y-97346576D01*
X139819737Y-97287497D01*
X139850500Y-97132842D01*
X139850500Y-96975158D01*
X139850500Y-96975155D01*
X139850499Y-96975153D01*
X139844398Y-96944480D01*
X139819737Y-96820503D01*
X139792903Y-96755719D01*
X139772703Y-96706951D01*
X139768511Y-96667957D01*
X143196656Y-96667957D01*
X143394783Y-96750024D01*
X143400346Y-96752490D01*
X143433626Y-96768230D01*
X143439061Y-96770966D01*
X143482282Y-96794067D01*
X143487578Y-96797067D01*
X143519170Y-96816002D01*
X143524314Y-96819259D01*
X143720740Y-96950507D01*
X143725714Y-96954010D01*
X143755288Y-96975943D01*
X143760088Y-96979689D01*
X143797970Y-97010778D01*
X143802577Y-97014752D01*
X143829864Y-97039483D01*
X143834273Y-97043681D01*
X144001322Y-97210730D01*
X144005520Y-97215139D01*
X144030251Y-97242426D01*
X144034225Y-97247033D01*
X144065314Y-97284915D01*
X144069060Y-97289715D01*
X144090993Y-97319289D01*
X144094496Y-97324263D01*
X144225744Y-97520689D01*
X144229001Y-97525833D01*
X144247936Y-97557425D01*
X144250936Y-97562721D01*
X144274037Y-97605942D01*
X144276773Y-97611377D01*
X144292513Y-97644657D01*
X144294979Y-97650220D01*
X144299038Y-97660020D01*
X144605039Y-97660020D01*
X145603039Y-97660020D01*
X147105039Y-97660020D01*
X147105039Y-97651724D01*
X147037041Y-97583726D01*
X146970303Y-97556083D01*
X146964739Y-97553617D01*
X146931457Y-97537876D01*
X146926022Y-97535140D01*
X146882801Y-97512039D01*
X146877506Y-97509040D01*
X146845913Y-97490105D01*
X146840768Y-97486847D01*
X146668909Y-97372014D01*
X146663933Y-97368509D01*
X146634360Y-97346576D01*
X146629562Y-97342832D01*
X146591680Y-97311743D01*
X146587073Y-97307769D01*
X146559786Y-97283038D01*
X146555377Y-97278840D01*
X146409222Y-97132685D01*
X146405024Y-97128276D01*
X146380293Y-97100989D01*
X146376319Y-97096382D01*
X146345230Y-97058500D01*
X146341486Y-97053702D01*
X146319553Y-97024129D01*
X146316048Y-97019153D01*
X146201215Y-96847294D01*
X146197957Y-96842149D01*
X146179022Y-96810556D01*
X146176023Y-96805261D01*
X146152922Y-96762040D01*
X146150186Y-96756605D01*
X146134445Y-96723323D01*
X146131979Y-96717759D01*
X146052886Y-96526809D01*
X146050696Y-96521132D01*
X146038294Y-96486471D01*
X146036385Y-96480693D01*
X146022159Y-96433798D01*
X146020536Y-96427934D01*
X146011586Y-96392208D01*
X146010252Y-96386266D01*
X145969927Y-96183539D01*
X145968886Y-96177542D01*
X145965990Y-96158020D01*
X145603039Y-96158020D01*
X145603039Y-97660020D01*
X144605039Y-97660020D01*
X144605039Y-96158020D01*
X143400451Y-96158020D01*
X143397186Y-96173267D01*
X143395592Y-96179835D01*
X143384862Y-96219303D01*
X143382911Y-96225776D01*
X143310067Y-96445605D01*
X143307600Y-96452382D01*
X143291490Y-96492934D01*
X143288635Y-96499555D01*
X143264087Y-96552202D01*
X143260849Y-96558649D01*
X143240131Y-96597074D01*
X143236524Y-96603322D01*
X143196656Y-96667957D01*
X139768511Y-96667957D01*
X139765234Y-96637482D01*
X139796509Y-96575003D01*
X139856598Y-96539351D01*
X139887264Y-96535499D01*
X139912502Y-96535499D01*
X139912508Y-96535499D01*
X140015297Y-96524999D01*
X140181834Y-96469814D01*
X140331156Y-96377712D01*
X140425175Y-96283692D01*
X140486494Y-96250210D01*
X140556186Y-96255194D01*
X140600534Y-96283695D01*
X140694154Y-96377315D01*
X140843375Y-96469356D01*
X140843380Y-96469358D01*
X141009802Y-96524505D01*
X141009809Y-96524506D01*
X141112519Y-96534999D01*
X141174999Y-96534998D01*
X141175000Y-96534998D01*
X141175000Y-94135000D01*
X141174999Y-94134999D01*
X141112528Y-94135000D01*
X141112511Y-94135001D01*
X141009802Y-94145494D01*
X140843380Y-94200641D01*
X140843375Y-94200643D01*
X140694157Y-94292682D01*
X140600534Y-94386305D01*
X140539210Y-94419789D01*
X140469519Y-94414805D01*
X140425172Y-94386304D01*
X140331157Y-94292289D01*
X140331156Y-94292288D01*
X140238388Y-94235069D01*
X140181836Y-94200187D01*
X140181831Y-94200185D01*
X140143517Y-94187489D01*
X140015297Y-94145001D01*
X140015295Y-94145000D01*
X139912510Y-94134500D01*
X139287498Y-94134500D01*
X139287480Y-94134501D01*
X139184703Y-94145000D01*
X139184700Y-94145001D01*
X139018168Y-94200185D01*
X139018163Y-94200187D01*
X138868842Y-94292289D01*
X138744789Y-94416342D01*
X138652687Y-94565663D01*
X138652685Y-94565668D01*
X138597501Y-94732204D01*
X138597500Y-94732205D01*
X138587640Y-94828720D01*
X138561243Y-94893412D01*
X138551965Y-94903797D01*
X138489481Y-94966283D01*
X138489480Y-94966282D01*
X138489478Y-94966286D01*
X138437583Y-95018181D01*
X138376260Y-95051666D01*
X138349902Y-95054500D01*
X137644642Y-95054500D01*
X137577603Y-95034815D01*
X137569156Y-95028876D01*
X137470761Y-94953375D01*
X137429558Y-94896947D01*
X137425403Y-94827201D01*
X137459615Y-94766281D01*
X137470746Y-94756635D01*
X137587244Y-94667244D01*
X137597779Y-94653513D01*
X137654207Y-94612311D01*
X137696155Y-94605000D01*
X137749148Y-94605000D01*
X137735360Y-94500271D01*
X137733257Y-94492422D01*
X137735324Y-94491868D01*
X137729065Y-94433633D01*
X137733768Y-94417615D01*
X137735847Y-94409858D01*
X137742632Y-94358326D01*
X137750500Y-94298561D01*
X137750499Y-93811440D01*
X137749571Y-93804394D01*
X137741567Y-93743592D01*
X137735848Y-93700146D01*
X137735847Y-93700143D01*
X137733744Y-93692292D01*
X137735658Y-93691779D01*
X137729332Y-93632997D01*
X137733815Y-93617728D01*
X137733744Y-93617709D01*
X137735847Y-93609858D01*
X137735848Y-93609854D01*
X137750500Y-93498561D01*
X137750499Y-93344890D01*
X137770183Y-93277853D01*
X137822987Y-93232098D01*
X137892145Y-93222154D01*
X137924854Y-93232877D01*
X137925192Y-93232063D01*
X138076498Y-93294735D01*
X138076503Y-93294737D01*
X138204438Y-93320185D01*
X138231153Y-93325499D01*
X138231156Y-93325500D01*
X138231158Y-93325500D01*
X138388844Y-93325500D01*
X138388845Y-93325499D01*
X138543497Y-93294737D01*
X138689179Y-93234394D01*
X138703241Y-93224998D01*
X138820875Y-93146398D01*
X138887553Y-93125520D01*
X138889766Y-93125500D01*
X138927368Y-93125500D01*
X138992463Y-93143960D01*
X139018166Y-93159814D01*
X139184703Y-93214999D01*
X139287491Y-93225500D01*
X139912508Y-93225499D01*
X139912516Y-93225498D01*
X139912519Y-93225498D01*
X139981866Y-93218414D01*
X140015297Y-93214999D01*
X140181834Y-93159814D01*
X140331156Y-93067712D01*
X140425175Y-92973692D01*
X140486494Y-92940210D01*
X140556186Y-92945194D01*
X140600534Y-92973695D01*
X140694154Y-93067315D01*
X140843375Y-93159356D01*
X140843380Y-93159358D01*
X141009802Y-93214505D01*
X141009809Y-93214506D01*
X141112519Y-93224999D01*
X141675000Y-93224999D01*
X141737472Y-93224999D01*
X141737486Y-93224998D01*
X141840197Y-93214505D01*
X142006619Y-93159358D01*
X142006624Y-93159356D01*
X142155845Y-93067315D01*
X142279815Y-92943345D01*
X142371856Y-92794124D01*
X142371858Y-92794119D01*
X142427005Y-92627697D01*
X142427006Y-92627690D01*
X142437499Y-92524986D01*
X142437500Y-92524973D01*
X142437500Y-92275000D01*
X141675000Y-92275000D01*
X141675000Y-93224999D01*
X141112519Y-93224999D01*
X141174999Y-93224998D01*
X141175000Y-93224998D01*
X141175000Y-92185013D01*
X143000000Y-92185013D01*
X143000000Y-92435000D01*
X143762500Y-92435000D01*
X143762500Y-91485000D01*
X143762499Y-91484999D01*
X143700028Y-91485000D01*
X143700011Y-91485001D01*
X143597302Y-91495494D01*
X143430880Y-91550641D01*
X143430875Y-91550643D01*
X143281654Y-91642684D01*
X143157684Y-91766654D01*
X143065643Y-91915875D01*
X143065641Y-91915880D01*
X143010494Y-92082302D01*
X143010493Y-92082309D01*
X143000000Y-92185013D01*
X141175000Y-92185013D01*
X141175000Y-92149000D01*
X141194685Y-92081961D01*
X141247489Y-92036206D01*
X141299000Y-92025000D01*
X141425000Y-92025000D01*
X141425000Y-91899000D01*
X141444685Y-91831961D01*
X141497489Y-91786206D01*
X141549000Y-91775000D01*
X142437499Y-91775000D01*
X142437499Y-91525028D01*
X142437498Y-91525013D01*
X142427005Y-91422302D01*
X142371858Y-91255880D01*
X142371856Y-91255875D01*
X142279815Y-91106654D01*
X142155845Y-90982684D01*
X142006624Y-90890643D01*
X142006619Y-90890641D01*
X141967251Y-90877596D01*
X141909806Y-90837823D01*
X141882983Y-90773307D01*
X141895298Y-90704531D01*
X141904146Y-90690900D01*
X141903558Y-90690507D01*
X141994543Y-90554338D01*
X141994543Y-90554337D01*
X141994547Y-90554332D01*
X142054890Y-90408650D01*
X142085653Y-90253995D01*
X142085653Y-90096311D01*
X142085653Y-90096308D01*
X142085652Y-90096306D01*
X142071328Y-90024295D01*
X142054890Y-89941656D01*
X142046127Y-89920499D01*
X141994550Y-89795980D01*
X141994548Y-89795976D01*
X141994547Y-89795974D01*
X141908805Y-89667653D01*
X141887928Y-89600977D01*
X141906412Y-89533597D01*
X141958391Y-89486906D01*
X141972900Y-89481058D01*
X142006834Y-89469814D01*
X142156156Y-89377712D01*
X142280212Y-89253656D01*
X142372314Y-89104334D01*
X142415007Y-88975493D01*
X142454778Y-88918051D01*
X142519294Y-88891228D01*
X142532712Y-88890500D01*
X142944551Y-88890500D01*
X143011590Y-88910185D01*
X143057345Y-88962989D01*
X143062256Y-88975493D01*
X143063658Y-88979725D01*
X143065186Y-88984334D01*
X143157288Y-89133656D01*
X143281344Y-89257712D01*
X143430666Y-89349814D01*
X143597203Y-89404999D01*
X143699991Y-89415500D01*
X144151500Y-89415499D01*
X144218539Y-89435183D01*
X144264294Y-89487987D01*
X144275500Y-89539499D01*
X144275500Y-90242090D01*
X144255815Y-90309129D01*
X144249300Y-90318079D01*
X144160609Y-90450814D01*
X144160602Y-90450827D01*
X144100264Y-90596498D01*
X144100261Y-90596510D01*
X144069500Y-90751153D01*
X144069500Y-90908846D01*
X144100261Y-91063489D01*
X144100264Y-91063501D01*
X144160602Y-91209172D01*
X144160609Y-91209185D01*
X144248209Y-91340287D01*
X144248577Y-91340735D01*
X144248696Y-91341015D01*
X144251595Y-91345354D01*
X144250772Y-91345903D01*
X144275895Y-91405043D01*
X144264109Y-91473911D01*
X144262500Y-91476163D01*
X144262500Y-92561000D01*
X144242815Y-92628039D01*
X144190011Y-92673794D01*
X144138500Y-92685000D01*
X144012500Y-92685000D01*
X144012500Y-92811000D01*
X143992815Y-92878039D01*
X143940011Y-92923794D01*
X143888500Y-92935000D01*
X143000001Y-92935000D01*
X143000001Y-93184986D01*
X143010494Y-93287697D01*
X143065641Y-93454119D01*
X143065643Y-93454124D01*
X143157684Y-93603345D01*
X143232158Y-93677819D01*
X143265643Y-93739142D01*
X143260659Y-93808834D01*
X143218787Y-93864767D01*
X143153323Y-93889184D01*
X143144477Y-93889500D01*
X142857946Y-93889500D01*
X142810494Y-93880061D01*
X142670527Y-93822085D01*
X142670515Y-93822082D01*
X142515871Y-93791321D01*
X142515868Y-93791321D01*
X142358184Y-93791321D01*
X142358181Y-93791321D01*
X142203536Y-93822082D01*
X142203524Y-93822085D01*
X142057853Y-93882423D01*
X142057840Y-93882430D01*
X141926738Y-93970030D01*
X141815234Y-94081535D01*
X141811370Y-94086244D01*
X141810040Y-94085152D01*
X141762710Y-94124701D01*
X141713231Y-94135000D01*
X141675000Y-94135000D01*
X141675000Y-94315042D01*
X141667639Y-94352061D01*
X141669058Y-94352492D01*
X141667288Y-94358326D01*
X141636526Y-94512976D01*
X141636526Y-94670667D01*
X141667287Y-94825310D01*
X141669057Y-94831145D01*
X141667632Y-94831577D01*
X141675000Y-94868598D01*
X141675000Y-96534999D01*
X141737472Y-96534999D01*
X141737486Y-96534998D01*
X141840197Y-96524505D01*
X142006619Y-96469358D01*
X142006624Y-96469356D01*
X142155845Y-96377315D01*
X142279815Y-96253345D01*
X142371856Y-96104124D01*
X142371858Y-96104119D01*
X142427005Y-95937697D01*
X142427006Y-95937690D01*
X142437499Y-95834986D01*
X142437500Y-95834973D01*
X142437500Y-95509673D01*
X142457185Y-95442634D01*
X142509989Y-95396879D01*
X142537309Y-95388056D01*
X142670523Y-95361558D01*
X142816205Y-95301215D01*
X142947315Y-95213610D01*
X143034107Y-95126817D01*
X143095428Y-95093334D01*
X143121787Y-95090500D01*
X143690201Y-95090500D01*
X143690217Y-95090501D01*
X143697813Y-95090501D01*
X143855924Y-95090501D01*
X143855927Y-95090501D01*
X144008655Y-95049577D01*
X144071642Y-95013211D01*
X144145586Y-94970520D01*
X144257390Y-94858716D01*
X144257390Y-94858714D01*
X144267594Y-94848511D01*
X144267597Y-94848506D01*
X145232100Y-93884004D01*
X145293419Y-93850522D01*
X145358777Y-93853981D01*
X145422203Y-93874999D01*
X145524991Y-93885500D01*
X146150008Y-93885499D01*
X146150016Y-93885498D01*
X146150019Y-93885498D01*
X146216635Y-93878693D01*
X146252797Y-93874999D01*
X146419334Y-93819814D01*
X146568656Y-93727712D01*
X146692712Y-93603656D01*
X146784814Y-93454334D01*
X146807625Y-93385494D01*
X146847398Y-93328050D01*
X146911915Y-93301228D01*
X146925331Y-93300500D01*
X147149281Y-93300500D01*
X147216320Y-93320185D01*
X147259765Y-93368205D01*
X147279947Y-93407814D01*
X147279948Y-93407815D01*
X147404890Y-93579786D01*
X147555213Y-93730109D01*
X147727179Y-93855048D01*
X147727181Y-93855049D01*
X147727184Y-93855051D01*
X147916588Y-93951557D01*
X148118757Y-94017246D01*
X148328713Y-94050500D01*
X148328714Y-94050500D01*
X148541286Y-94050500D01*
X148541287Y-94050500D01*
X148751243Y-94017246D01*
X148953412Y-93951557D01*
X149142816Y-93855051D01*
X149230426Y-93791399D01*
X149314786Y-93730109D01*
X149314788Y-93730106D01*
X149314792Y-93730104D01*
X149465104Y-93579792D01*
X149465106Y-93579788D01*
X149465109Y-93579786D01*
X149590048Y-93407820D01*
X149590047Y-93407820D01*
X149590051Y-93407816D01*
X149594514Y-93399054D01*
X149642488Y-93348259D01*
X149710308Y-93331463D01*
X149776444Y-93353999D01*
X149815486Y-93399056D01*
X149819951Y-93407820D01*
X149944890Y-93579786D01*
X150095213Y-93730109D01*
X150267179Y-93855048D01*
X150267181Y-93855049D01*
X150267184Y-93855051D01*
X150456588Y-93951557D01*
X150658757Y-94017246D01*
X150868713Y-94050500D01*
X150868714Y-94050500D01*
X151081286Y-94050500D01*
X151081287Y-94050500D01*
X151291243Y-94017246D01*
X151493412Y-93951557D01*
X151682816Y-93855051D01*
X151770426Y-93791399D01*
X151854786Y-93730109D01*
X151854788Y-93730106D01*
X151854792Y-93730104D01*
X152005104Y-93579792D01*
X152005106Y-93579788D01*
X152005109Y-93579786D01*
X152130048Y-93407820D01*
X152130047Y-93407820D01*
X152130051Y-93407816D01*
X152226557Y-93218412D01*
X152292246Y-93016243D01*
X152325500Y-92806287D01*
X152325500Y-92593713D01*
X152292246Y-92383757D01*
X152226557Y-92181588D01*
X152130051Y-91992184D01*
X152130049Y-91992181D01*
X152130048Y-91992179D01*
X152005109Y-91820213D01*
X151854786Y-91669890D01*
X151682820Y-91544951D01*
X151682115Y-91544591D01*
X151674054Y-91540485D01*
X151623259Y-91492512D01*
X151606463Y-91424692D01*
X151628999Y-91358556D01*
X151674054Y-91319515D01*
X151682816Y-91315051D01*
X151715083Y-91291608D01*
X151854786Y-91190109D01*
X151854788Y-91190106D01*
X151854792Y-91190104D01*
X152005104Y-91039792D01*
X152005106Y-91039788D01*
X152005109Y-91039786D01*
X152130048Y-90867820D01*
X152130047Y-90867820D01*
X152130051Y-90867816D01*
X152226557Y-90678412D01*
X152292246Y-90476243D01*
X152325500Y-90266287D01*
X152325500Y-90053713D01*
X152292246Y-89843757D01*
X152226557Y-89641588D01*
X152130051Y-89452184D01*
X152130049Y-89452181D01*
X152130048Y-89452179D01*
X152005109Y-89280213D01*
X151854786Y-89129890D01*
X151682817Y-89004949D01*
X151673504Y-89000204D01*
X151622707Y-88952230D01*
X151605912Y-88884409D01*
X151628449Y-88818274D01*
X151673507Y-88779232D01*
X151682555Y-88774622D01*
X151736716Y-88735270D01*
X151736717Y-88735270D01*
X151104408Y-88102962D01*
X151167993Y-88085925D01*
X151282007Y-88020099D01*
X151375099Y-87927007D01*
X151440925Y-87812993D01*
X151457962Y-87749409D01*
X152090270Y-88381717D01*
X152090270Y-88381716D01*
X152129622Y-88327554D01*
X152226095Y-88138217D01*
X152291757Y-87936130D01*
X152291757Y-87936127D01*
X152325000Y-87726246D01*
X152325000Y-87513753D01*
X152291757Y-87303872D01*
X152291757Y-87303869D01*
X152226095Y-87101782D01*
X152129624Y-86912449D01*
X152090270Y-86858282D01*
X152090269Y-86858282D01*
X151457962Y-87490590D01*
X151440925Y-87427007D01*
X151375099Y-87312993D01*
X151282007Y-87219901D01*
X151167993Y-87154075D01*
X151104409Y-87137037D01*
X151736716Y-86504728D01*
X151682550Y-86465375D01*
X151493217Y-86368904D01*
X151291129Y-86303242D01*
X151081246Y-86270000D01*
X150868754Y-86270000D01*
X150658872Y-86303242D01*
X150658869Y-86303242D01*
X150456782Y-86368904D01*
X150267439Y-86465380D01*
X150213282Y-86504727D01*
X150213282Y-86504728D01*
X150845591Y-87137037D01*
X150782007Y-87154075D01*
X150667993Y-87219901D01*
X150574901Y-87312993D01*
X150509075Y-87427007D01*
X150492037Y-87490591D01*
X149821818Y-86820372D01*
X149788333Y-86759049D01*
X149785499Y-86732691D01*
X149785499Y-86722129D01*
X149785498Y-86722123D01*
X149785497Y-86722116D01*
X149779091Y-86662517D01*
X149778902Y-86662011D01*
X149728797Y-86527671D01*
X149728793Y-86527664D01*
X149642547Y-86412455D01*
X149642544Y-86412452D01*
X149527335Y-86326206D01*
X149527328Y-86326202D01*
X149392482Y-86275908D01*
X149392483Y-86275908D01*
X149332883Y-86269501D01*
X149332881Y-86269500D01*
X149332873Y-86269500D01*
X149332864Y-86269500D01*
X147537129Y-86269500D01*
X147537123Y-86269501D01*
X147477516Y-86275908D01*
X147342671Y-86326202D01*
X147342664Y-86326206D01*
X147227455Y-86412452D01*
X147227452Y-86412455D01*
X147141206Y-86527664D01*
X147141202Y-86527671D01*
X147090908Y-86662517D01*
X147084501Y-86722116D01*
X147084501Y-86722123D01*
X147084500Y-86722135D01*
X147084500Y-87582735D01*
X147064815Y-87649774D01*
X147012011Y-87695529D01*
X146942853Y-87705473D01*
X146879297Y-87676448D01*
X146842138Y-87618627D01*
X146842129Y-87618630D01*
X146842117Y-87618594D01*
X146841523Y-87617670D01*
X146840588Y-87613979D01*
X146785938Y-87449059D01*
X146784814Y-87445666D01*
X146692712Y-87296344D01*
X146568656Y-87172288D01*
X146428084Y-87085583D01*
X146419336Y-87080187D01*
X146419331Y-87080185D01*
X146246933Y-87023058D01*
X146189488Y-86983285D01*
X146162665Y-86918769D01*
X146174980Y-86849994D01*
X146222523Y-86798794D01*
X146251481Y-86787434D01*
X146251246Y-86786723D01*
X146422709Y-86729905D01*
X146422714Y-86729903D01*
X146570691Y-86638629D01*
X146693629Y-86515691D01*
X146784903Y-86367714D01*
X146784905Y-86367709D01*
X146839592Y-86202673D01*
X146849999Y-86100815D01*
X146850000Y-86100802D01*
X146850000Y-85845000D01*
X145986500Y-85845000D01*
X145919461Y-85825315D01*
X145873706Y-85772511D01*
X145862500Y-85721000D01*
X145862500Y-85595000D01*
X145736500Y-85595000D01*
X145669461Y-85575315D01*
X145623706Y-85522511D01*
X145612500Y-85471000D01*
X145612500Y-85345000D01*
X146112500Y-85345000D01*
X146850000Y-85345000D01*
X146850000Y-85160020D01*
X148103039Y-85160020D01*
X149605039Y-85160020D01*
X149605039Y-84548743D01*
X148103039Y-84548125D01*
X148103039Y-85160020D01*
X146850000Y-85160020D01*
X146850000Y-85089197D01*
X146849999Y-85089184D01*
X146839592Y-84987326D01*
X146784905Y-84822290D01*
X146784903Y-84822285D01*
X146693629Y-84674308D01*
X146570691Y-84551370D01*
X146422714Y-84460096D01*
X146422709Y-84460094D01*
X146257673Y-84405407D01*
X146155815Y-84395000D01*
X146112500Y-84395000D01*
X146112500Y-85345000D01*
X145612500Y-85345000D01*
X145612500Y-84395000D01*
X145569184Y-84395000D01*
X145467326Y-84405407D01*
X145302290Y-84460094D01*
X145302285Y-84460096D01*
X145154308Y-84551370D01*
X145031369Y-84674309D01*
X145031364Y-84674315D01*
X145030829Y-84675184D01*
X145030306Y-84675654D01*
X145026888Y-84679977D01*
X145026149Y-84679392D01*
X144978879Y-84721906D01*
X144909916Y-84733125D01*
X144845835Y-84705278D01*
X144823586Y-84679601D01*
X144823507Y-84679664D01*
X144822111Y-84677898D01*
X144819758Y-84675183D01*
X144819028Y-84673999D01*
X144696003Y-84550974D01*
X144695999Y-84550971D01*
X144547933Y-84459642D01*
X144547927Y-84459639D01*
X144547925Y-84459638D01*
X144528617Y-84453240D01*
X144382776Y-84404913D01*
X144280855Y-84394500D01*
X144280848Y-84394500D01*
X143694152Y-84394500D01*
X143694144Y-84394500D01*
X143592223Y-84404913D01*
X143427077Y-84459637D01*
X143427066Y-84459642D01*
X143279000Y-84550971D01*
X143278996Y-84550974D01*
X143155974Y-84673996D01*
X143155971Y-84674000D01*
X143064642Y-84822066D01*
X143064637Y-84822077D01*
X143009913Y-84987223D01*
X142999500Y-85089144D01*
X142999500Y-86100855D01*
X143009913Y-86202776D01*
X143032189Y-86270000D01*
X143064638Y-86367925D01*
X143064642Y-86367931D01*
X143068634Y-86374404D01*
X143087074Y-86441797D01*
X143066151Y-86508460D01*
X143012508Y-86553229D01*
X142963095Y-86563500D01*
X142525098Y-86563500D01*
X142458059Y-86543815D01*
X142437417Y-86527181D01*
X142371452Y-86461216D01*
X142337967Y-86399893D01*
X142341426Y-86334533D01*
X142385087Y-86202775D01*
X142395500Y-86100848D01*
X142395500Y-85089152D01*
X142385087Y-84987225D01*
X142330362Y-84822075D01*
X142330358Y-84822069D01*
X142330357Y-84822066D01*
X142239028Y-84674000D01*
X142239025Y-84673996D01*
X142116003Y-84550974D01*
X142115999Y-84550971D01*
X141967933Y-84459642D01*
X141967927Y-84459639D01*
X141967925Y-84459638D01*
X141948617Y-84453240D01*
X141802776Y-84404913D01*
X141700855Y-84394500D01*
X141700848Y-84394500D01*
X141114152Y-84394500D01*
X141114144Y-84394500D01*
X141012223Y-84404913D01*
X140847077Y-84459637D01*
X140847066Y-84459642D01*
X140699000Y-84550971D01*
X140698996Y-84550974D01*
X140575974Y-84673996D01*
X140575971Y-84674000D01*
X140575538Y-84674703D01*
X140575114Y-84675083D01*
X140571493Y-84679664D01*
X140570710Y-84679045D01*
X140523590Y-84721428D01*
X140454628Y-84732649D01*
X140390546Y-84704806D01*
X140368657Y-84679544D01*
X140368507Y-84679664D01*
X140365859Y-84676315D01*
X140364462Y-84674703D01*
X140364028Y-84674000D01*
X140364025Y-84673996D01*
X140241003Y-84550974D01*
X140240999Y-84550971D01*
X140092933Y-84459642D01*
X140092927Y-84459639D01*
X140092925Y-84459638D01*
X140073617Y-84453240D01*
X139927776Y-84404913D01*
X139825855Y-84394500D01*
X139825848Y-84394500D01*
X139239152Y-84394500D01*
X139239144Y-84394500D01*
X139137223Y-84404913D01*
X138972077Y-84459637D01*
X138972066Y-84459642D01*
X138824000Y-84550971D01*
X138823996Y-84550974D01*
X138700974Y-84673996D01*
X138700971Y-84674000D01*
X138609642Y-84822066D01*
X138609637Y-84822077D01*
X138554913Y-84987223D01*
X138544500Y-85089144D01*
X138544500Y-86100855D01*
X138554913Y-86202776D01*
X138609637Y-86367922D01*
X138609642Y-86367933D01*
X138700971Y-86515999D01*
X138700974Y-86516003D01*
X138823997Y-86639026D01*
X138940599Y-86710947D01*
X138987321Y-86762893D01*
X138999500Y-86816484D01*
X138999500Y-87142491D01*
X138979815Y-87209530D01*
X138940598Y-87248029D01*
X138868844Y-87292287D01*
X138744789Y-87416342D01*
X138652687Y-87565663D01*
X138652685Y-87565668D01*
X138635147Y-87618594D01*
X138597501Y-87732203D01*
X138597501Y-87732204D01*
X138597500Y-87732204D01*
X138587000Y-87834983D01*
X138587000Y-87834991D01*
X138587000Y-88261764D01*
X138587001Y-88611500D01*
X138567317Y-88678539D01*
X138514513Y-88724294D01*
X138463001Y-88735500D01*
X137914500Y-88735500D01*
X137847461Y-88715815D01*
X137801706Y-88663011D01*
X137790500Y-88611500D01*
X137790500Y-87449059D01*
X137790501Y-87449046D01*
X137790501Y-87280945D01*
X137790501Y-87280943D01*
X137749577Y-87128215D01*
X137703553Y-87048500D01*
X137670520Y-86991284D01*
X137558716Y-86879480D01*
X137558715Y-86879479D01*
X137554385Y-86875149D01*
X137554374Y-86875139D01*
X137087590Y-86408355D01*
X137087588Y-86408352D01*
X136968717Y-86289481D01*
X136968716Y-86289480D01*
X136876613Y-86236305D01*
X136876612Y-86236304D01*
X136831783Y-86210422D01*
X136706906Y-86176961D01*
X136647245Y-86140595D01*
X136616717Y-86077748D01*
X136615000Y-86057186D01*
X136615000Y-85860000D01*
X135739000Y-85860000D01*
X135671961Y-85840315D01*
X135626206Y-85787511D01*
X135615000Y-85736000D01*
X135615000Y-85610000D01*
X135489000Y-85610000D01*
X135421961Y-85590315D01*
X135376206Y-85537511D01*
X135365000Y-85486000D01*
X135365000Y-85360000D01*
X135865000Y-85360000D01*
X136614999Y-85360000D01*
X136614999Y-85085028D01*
X136614998Y-85085013D01*
X136604505Y-84982302D01*
X136549358Y-84815880D01*
X136549356Y-84815875D01*
X136457315Y-84666654D01*
X136333345Y-84542684D01*
X136184124Y-84450643D01*
X136184119Y-84450641D01*
X136017697Y-84395494D01*
X136017690Y-84395493D01*
X135914986Y-84385000D01*
X135865000Y-84385000D01*
X135865000Y-85360000D01*
X135365000Y-85360000D01*
X135365000Y-84385000D01*
X135364999Y-84384999D01*
X135315029Y-84385000D01*
X135315011Y-84385001D01*
X135212302Y-84395494D01*
X135045880Y-84450641D01*
X135045875Y-84450643D01*
X134896654Y-84542684D01*
X134772683Y-84666655D01*
X134772679Y-84666660D01*
X134770826Y-84669665D01*
X134769018Y-84671290D01*
X134768202Y-84672323D01*
X134768025Y-84672183D01*
X134718874Y-84716385D01*
X134649911Y-84727601D01*
X134585831Y-84699752D01*
X134559753Y-84669653D01*
X134559737Y-84669628D01*
X134557712Y-84666344D01*
X134433656Y-84542288D01*
X134299657Y-84459637D01*
X134284336Y-84450187D01*
X134284331Y-84450185D01*
X134276995Y-84447754D01*
X134117797Y-84395001D01*
X134117795Y-84395000D01*
X134015010Y-84384500D01*
X133414998Y-84384500D01*
X133414980Y-84384501D01*
X133312203Y-84395000D01*
X133312200Y-84395001D01*
X133145668Y-84450185D01*
X133145661Y-84450188D01*
X133144285Y-84451038D01*
X133143150Y-84451359D01*
X133139118Y-84453240D01*
X133138814Y-84452589D01*
X133079187Y-84469500D01*
X131700813Y-84469500D01*
X131641185Y-84452589D01*
X131640882Y-84453240D01*
X131636849Y-84451359D01*
X131635715Y-84451038D01*
X131634338Y-84450188D01*
X131634335Y-84450186D01*
X131634334Y-84450186D01*
X131467797Y-84395001D01*
X131467795Y-84395000D01*
X131365010Y-84384500D01*
X130764998Y-84384500D01*
X130764980Y-84384501D01*
X130662203Y-84395000D01*
X130662200Y-84395001D01*
X130495668Y-84450185D01*
X130495663Y-84450187D01*
X130346342Y-84542289D01*
X130222288Y-84666343D01*
X130222283Y-84666349D01*
X130220241Y-84669661D01*
X130218247Y-84671453D01*
X130217807Y-84672011D01*
X130217711Y-84671935D01*
X130168291Y-84716383D01*
X130099328Y-84727602D01*
X130035247Y-84699755D01*
X130009168Y-84669656D01*
X130007319Y-84666659D01*
X130007316Y-84666655D01*
X129883345Y-84542684D01*
X129734124Y-84450643D01*
X129734119Y-84450641D01*
X129567697Y-84395494D01*
X129567690Y-84395493D01*
X129464986Y-84385000D01*
X129415000Y-84385000D01*
X129415000Y-85486000D01*
X129395315Y-85553039D01*
X129342511Y-85598794D01*
X129291000Y-85610000D01*
X129165000Y-85610000D01*
X129165000Y-85736000D01*
X129145315Y-85803039D01*
X129092511Y-85848794D01*
X129041000Y-85860000D01*
X128165001Y-85860000D01*
X128165001Y-85961500D01*
X128145316Y-86028539D01*
X128092512Y-86074294D01*
X128041001Y-86085500D01*
X124452704Y-86085500D01*
X124385665Y-86065815D01*
X124339910Y-86013011D01*
X124334318Y-85998389D01*
X124326531Y-85973398D01*
X124245081Y-85838664D01*
X124227245Y-85771112D01*
X124245082Y-85710365D01*
X124326071Y-85576394D01*
X124326072Y-85576393D01*
X124373932Y-85422802D01*
X124373935Y-85422792D01*
X124376914Y-85390000D01*
X121758085Y-85390000D01*
X121761064Y-85422792D01*
X121761067Y-85422802D01*
X121808060Y-85573610D01*
X121809211Y-85643470D01*
X121772410Y-85702863D01*
X121709342Y-85732930D01*
X121689675Y-85734500D01*
X119178466Y-85734500D01*
X119047968Y-85760458D01*
X119047958Y-85760461D01*
X118925029Y-85811380D01*
X118925026Y-85811381D01*
X118843315Y-85865980D01*
X118814390Y-85885306D01*
X117368580Y-87331116D01*
X117307257Y-87364601D01*
X117237565Y-87359617D01*
X117181632Y-87317745D01*
X117162513Y-87280325D01*
X117151069Y-87243602D01*
X117069790Y-87109151D01*
X117051953Y-87041596D01*
X117069790Y-86980849D01*
X117151071Y-86846395D01*
X117151072Y-86846393D01*
X117198932Y-86692802D01*
X117198935Y-86692792D01*
X117201914Y-86660000D01*
X116142500Y-86660000D01*
X116142500Y-87556000D01*
X116122815Y-87623039D01*
X116070011Y-87668794D01*
X116018500Y-87680000D01*
X115892500Y-87680000D01*
X115892500Y-87806000D01*
X115872815Y-87873039D01*
X115820011Y-87918794D01*
X115768500Y-87930000D01*
X114583085Y-87930000D01*
X114586064Y-87962792D01*
X114586067Y-87962802D01*
X114633927Y-88116392D01*
X114714918Y-88250366D01*
X114732754Y-88317920D01*
X114714918Y-88378665D01*
X114709007Y-88388444D01*
X114633469Y-88513397D01*
X114585569Y-88667116D01*
X114579500Y-88733911D01*
X114579500Y-88848000D01*
X114559815Y-88915039D01*
X114507011Y-88960794D01*
X114455500Y-88972000D01*
X114217160Y-88972000D01*
X114150121Y-88952315D01*
X114116843Y-88920887D01*
X114000104Y-88760208D01*
X113849792Y-88609896D01*
X113849786Y-88609890D01*
X113677820Y-88484951D01*
X113488414Y-88388444D01*
X113488413Y-88388443D01*
X113488412Y-88388443D01*
X113286243Y-88322754D01*
X113286241Y-88322753D01*
X113286240Y-88322753D01*
X113124957Y-88297208D01*
X113076287Y-88289500D01*
X112863713Y-88289500D01*
X112815042Y-88297208D01*
X112653760Y-88322753D01*
X112653757Y-88322754D01*
X112472292Y-88381716D01*
X112451585Y-88388444D01*
X112262179Y-88484951D01*
X112090213Y-88609890D01*
X111939890Y-88760213D01*
X111814951Y-88932179D01*
X111718444Y-89121585D01*
X111652753Y-89323760D01*
X111625564Y-89495426D01*
X111619500Y-89533713D01*
X110367865Y-89533713D01*
X110369493Y-87429999D01*
X114583085Y-87429999D01*
X114583085Y-87430000D01*
X115642500Y-87430000D01*
X115642500Y-86660000D01*
X114583085Y-86660000D01*
X114586064Y-86692792D01*
X114586067Y-86692802D01*
X114633927Y-86846392D01*
X114715210Y-86980850D01*
X114733046Y-87048405D01*
X114715210Y-87109150D01*
X114633927Y-87243607D01*
X114586067Y-87397197D01*
X114586064Y-87397207D01*
X114583085Y-87429999D01*
X110369493Y-87429999D01*
X110369600Y-87291685D01*
X113103039Y-87291685D01*
X113130221Y-87292754D01*
X113135086Y-87293041D01*
X113174165Y-87296119D01*
X113179003Y-87296596D01*
X113208236Y-87300056D01*
X113213059Y-87300723D01*
X113461728Y-87340108D01*
X113466523Y-87340964D01*
X113495423Y-87346713D01*
X113500183Y-87347758D01*
X113538300Y-87356911D01*
X113543005Y-87358138D01*
X113571347Y-87366131D01*
X113576007Y-87367545D01*
X113586344Y-87370903D01*
X113594548Y-87280615D01*
X113595313Y-87274106D01*
X113600983Y-87234859D01*
X113602091Y-87228401D01*
X113612387Y-87176633D01*
X113613835Y-87170239D01*
X113623617Y-87131802D01*
X113625402Y-87125494D01*
X113650484Y-87045000D01*
X113625402Y-86964506D01*
X113623617Y-86958198D01*
X113613835Y-86919761D01*
X113612387Y-86913367D01*
X113602091Y-86861599D01*
X113600983Y-86855141D01*
X113595313Y-86815894D01*
X113594548Y-86809385D01*
X113569931Y-86538460D01*
X113575903Y-86487676D01*
X113602052Y-86410000D01*
X113575903Y-86332324D01*
X113569931Y-86281540D01*
X113580974Y-86159999D01*
X114583085Y-86159999D01*
X114583085Y-86160000D01*
X115642500Y-86160000D01*
X116142500Y-86160000D01*
X117201915Y-86160000D01*
X117201914Y-86159999D01*
X117198935Y-86127207D01*
X117198932Y-86127197D01*
X117151072Y-85973606D01*
X117151071Y-85973604D01*
X117069790Y-85839151D01*
X117051953Y-85771596D01*
X117069790Y-85710849D01*
X117151071Y-85576395D01*
X117151072Y-85576393D01*
X117198932Y-85422802D01*
X117198935Y-85422792D01*
X117201914Y-85390000D01*
X116142500Y-85390000D01*
X116142500Y-86160000D01*
X115642500Y-86160000D01*
X115642500Y-85390000D01*
X114583085Y-85390000D01*
X114586064Y-85422792D01*
X114586067Y-85422802D01*
X114633927Y-85576392D01*
X114715210Y-85710850D01*
X114733046Y-85778405D01*
X114715210Y-85839150D01*
X114633927Y-85973607D01*
X114586067Y-86127197D01*
X114586064Y-86127207D01*
X114583085Y-86159999D01*
X113580974Y-86159999D01*
X113581154Y-86158020D01*
X113103039Y-86158020D01*
X113103039Y-87291685D01*
X110369600Y-87291685D01*
X110369959Y-86826999D01*
X110389695Y-86759978D01*
X110407114Y-86738589D01*
X112291412Y-84889999D01*
X114583085Y-84889999D01*
X114583085Y-84890000D01*
X115642500Y-84890000D01*
X116142500Y-84890000D01*
X117201915Y-84890000D01*
X117201914Y-84889999D01*
X117198935Y-84857207D01*
X117198932Y-84857197D01*
X117151072Y-84703607D01*
X117067836Y-84565919D01*
X117037705Y-84535788D01*
X118144109Y-84535788D01*
X118159598Y-84585493D01*
X118161383Y-84591802D01*
X118171165Y-84630239D01*
X118172613Y-84636633D01*
X118182909Y-84688401D01*
X118184017Y-84694859D01*
X118189687Y-84734106D01*
X118190452Y-84740615D01*
X118215069Y-85011540D01*
X118209097Y-85062325D01*
X118195755Y-85101952D01*
X118200244Y-85098270D01*
X118205037Y-85094530D01*
X118214516Y-85087500D01*
X125603039Y-85087500D01*
X127105039Y-85087500D01*
X127105039Y-85085013D01*
X128165000Y-85085013D01*
X128165000Y-85360000D01*
X128915000Y-85360000D01*
X128915000Y-84385000D01*
X128914999Y-84384999D01*
X128865029Y-84385000D01*
X128865011Y-84385001D01*
X128762302Y-84395494D01*
X128595880Y-84450641D01*
X128595875Y-84450643D01*
X128446654Y-84542684D01*
X128322684Y-84666654D01*
X128230643Y-84815875D01*
X128230641Y-84815880D01*
X128175494Y-84982302D01*
X128175493Y-84982309D01*
X128165000Y-85085013D01*
X127105039Y-85085013D01*
X127105039Y-84539478D01*
X125603039Y-84538860D01*
X125603039Y-85087500D01*
X118214516Y-85087500D01*
X118234594Y-85072610D01*
X118239568Y-85069107D01*
X118288852Y-85036176D01*
X118390952Y-84967955D01*
X118396097Y-84964697D01*
X118427703Y-84945754D01*
X118433002Y-84942752D01*
X118476225Y-84919652D01*
X118481660Y-84916917D01*
X118514928Y-84901184D01*
X118520488Y-84898720D01*
X118541543Y-84889999D01*
X121758085Y-84889999D01*
X121758085Y-84890000D01*
X122817500Y-84890000D01*
X123317500Y-84890000D01*
X124376915Y-84890000D01*
X124376914Y-84889999D01*
X124373935Y-84857207D01*
X124373932Y-84857197D01*
X124326072Y-84703607D01*
X124242836Y-84565919D01*
X124129080Y-84452163D01*
X123991396Y-84368929D01*
X123837792Y-84321065D01*
X123771043Y-84315000D01*
X123317500Y-84315000D01*
X123317500Y-84890000D01*
X122817500Y-84890000D01*
X122817500Y-84315000D01*
X122363957Y-84315000D01*
X122297207Y-84321065D01*
X122143603Y-84368929D01*
X122005919Y-84452163D01*
X121892163Y-84565919D01*
X121808927Y-84703607D01*
X121761067Y-84857197D01*
X121761064Y-84857207D01*
X121758085Y-84889999D01*
X118541543Y-84889999D01*
X118688681Y-84829053D01*
X118694356Y-84826863D01*
X118729018Y-84814460D01*
X118734798Y-84812551D01*
X118781692Y-84798325D01*
X118787558Y-84796702D01*
X118823282Y-84787753D01*
X118829221Y-84786419D01*
X119007798Y-84750896D01*
X119013796Y-84749855D01*
X119050229Y-84744451D01*
X119056271Y-84743706D01*
X119105044Y-84738903D01*
X119111113Y-84738455D01*
X119147885Y-84736649D01*
X119153968Y-84736500D01*
X119605039Y-84736500D01*
X119605039Y-84536389D01*
X118144109Y-84535788D01*
X117037705Y-84535788D01*
X116954080Y-84452163D01*
X116816396Y-84368929D01*
X116662792Y-84321065D01*
X116596043Y-84315000D01*
X116142500Y-84315000D01*
X116142500Y-84890000D01*
X115642500Y-84890000D01*
X115642500Y-84315000D01*
X115188957Y-84315000D01*
X115122207Y-84321065D01*
X114968603Y-84368929D01*
X114830919Y-84452163D01*
X114717163Y-84565919D01*
X114633927Y-84703607D01*
X114586067Y-84857197D01*
X114586064Y-84857207D01*
X114583085Y-84889999D01*
X112291412Y-84889999D01*
X113763811Y-83445502D01*
X113825450Y-83412607D01*
X113850690Y-83410020D01*
X150188269Y-83424984D01*
G37*
%TD.AperFunction*%
%TD*%
M02*
