M48
; DRILL file {KiCad 9.0.3} date 2026-09-09T11:30:25+0300
; FORMAT={-:-/ absolute / metric / decimal}
; #@! TF.CreationDate,2026-09-09T11:30:25+03:00
; #@! TF.GenerationSoftware,Kicad,Pcbnew,9.0.3
; #@! TF.FileFunction,Plated,1,2,PTH
FMAT,2
METRIC
; #@! TA.AperFunction,Plated,PTH,ViaDrill
T1C0.300
; #@! TA.AperFunction,Plated,PTH,ViaDrill
T2C0.400
; #@! TA.AperFunction,Plated,PTH,ComponentDrill
T3C1.000
%
G90
G05
T1
X114.252Y-95.635
X117.93Y-93.095
X120.185Y-95.285
X120.32Y-90.32
X121.532Y-89.252
X122.716Y-105.645
X124.655Y-93.985
X125.115Y-103.655
X125.135Y-90.375
X125.295Y-88.38
X126.225Y-90.616
X131.47Y-94.27
X132.289Y-94.833
X133.3Y-90.535
X133.825Y-95.558
X134.82Y-90.235
X135.175Y-94.23
X135.2Y-98.661
X135.22Y-102.565
X135.95Y-104.62
X136.425Y-87.905
X137.909Y-98.394
X138.17Y-97.545
X138.31Y-92.525
X139.05Y-97.054
X141.285Y-90.175
X142.437Y-94.592
X144.87Y-90.83
X147.754Y-95.934
T2
X118.329Y-101.277
X142.54Y-98.505
T3
X112.97Y-89.64
X112.97Y-92.18
X115.885Y-107.73
X118.425Y-107.73
X120.965Y-107.73
X123.505Y-107.73
X126.045Y-107.73
X128.585Y-107.73
X131.125Y-107.73
X133.665Y-107.73
X136.205Y-107.73
X140.11Y-107.73
X142.65Y-107.73
X145.19Y-107.73
X147.73Y-107.73
X148.435Y-87.62
X148.435Y-90.16
X148.435Y-92.7
X150.565Y-96.505
X150.565Y-99.045
X150.565Y-101.585
X150.565Y-104.125
X150.975Y-87.62
X150.975Y-90.16
X150.975Y-92.7
M30
